<svg width="48" height="48" viewBox="0 0 48 48" fill="none" xmlns="http://www.w3.org/2000/svg">
<path fill-rule="evenodd" clip-rule="evenodd" d="M24.3568 21.0022C29.0927 21.1281 29.0087 25.2762 32.0232 29.2228C34.9201 33.0014 37.9095 32.4556 38.1698 38.5098C38.2537 40.5755 36.4484 43.6571 33.7614 44.4213C30.856 45.2442 27.7995 43.8251 24.5667 43.1953C22.1904 42.7335 17.4293 45.8319 14.1461 44.2617C9.87205 42.2129 9.28426 38.9296 10.0736 36.5449C11.3835 32.6151 12.769 32.7915 15.6995 29.5335C18.882 26.0151 18.9072 20.8594 24.3568 21.0022Z" fill="#F7B4DD"/>
<path fill-rule="evenodd" clip-rule="evenodd" d="M43.7033 16.6441C46.3903 17.9877 46.5246 23.5464 44.9544 26.5022C43.3842 29.4579 41.0918 31.0449 38.0353 29.9701C34.9788 28.8869 34.6681 24.3693 36.3979 21.0693C38.1361 17.7609 41.0162 15.3006 43.7033 16.6441Z" fill="#F7B4DD"/>
<path fill-rule="evenodd" clip-rule="evenodd" d="M32.1743 3.64578C35.5751 4.01525 37.2377 8.52441 36.6919 12.7397C36.1461 16.9465 34.2568 19.4152 30.2094 18.8946C26.1621 18.374 25.4232 14.8053 25.969 10.5985C26.5064 6.38319 28.7736 3.27632 32.1743 3.64578Z" fill="#F7B4DD"/>
<path fill-rule="evenodd" clip-rule="evenodd" d="M15.8171 3.64578C12.4164 4.01525 10.7538 8.52441 11.2996 12.7397C11.8454 16.9465 13.7347 19.4152 17.782 18.8946C21.8294 18.374 22.5683 14.8053 22.0225 10.5985C21.4767 6.38319 19.2179 3.27632 15.8171 3.64578Z" fill="#F7B4DD"/>
<path fill-rule="evenodd" clip-rule="evenodd" d="M4.27967 16.6441C1.59265 17.9877 1.4583 23.5464 3.02853 26.5022C4.59876 29.4579 6.89113 31.0449 9.94761 29.9701C13.0041 28.8869 13.3148 24.3693 11.585 21.0693C9.85525 17.7609 6.9667 15.3006 4.27967 16.6441Z" fill="#F7B4DD"/>
</svg>
