<svg width="80" height="80" viewBox="0 0 80 80" fill="none" xmlns="http://www.w3.org/2000/svg">
<path d="M28.4182 6.36353C29.3908 6.53799 30.3915 6.62323 31.3307 6.9069C33.0376 7.42498 34.7191 8.03094 36.3873 8.66221C37.1295 8.94322 37.3546 9.51457 37.1 10.0713C36.8296 10.6639 36.2501 10.8357 35.5212 10.4761C32.9656 9.21757 30.2636 8.50106 27.4229 8.40518C22.4917 8.23736 18.0215 9.59713 14.1375 12.6856C10.9918 15.1867 8.82262 18.3697 7.85662 22.2839C6.50024 27.7842 7.61679 32.805 11.0397 37.3066C12.3108 38.9779 13.8644 40.3577 15.6258 41.5044C16.5532 42.1077 16.6425 42.3807 16.2894 43.4395C15.7324 45.1083 15.1728 46.7758 14.5652 48.5869C14.869 48.4138 15.0529 48.3193 15.2261 48.2087C16.8463 47.1685 18.5118 46.1896 20.0694 45.063C21.1113 44.3092 22.124 44.1773 23.3564 44.4037C31.8478 45.9606 40.6177 41.527 44.1711 33.7121C46.768 28.0027 46.2643 22.3704 42.8868 17.0832C42.0273 15.7381 40.8041 14.6274 39.7877 13.3768C39.529 13.0598 39.2479 12.6083 39.2772 12.2421C39.3452 11.4057 40.3552 11.1207 41.0001 11.7666C42.014 12.7841 43.044 13.8083 43.9086 14.9496C46.0059 17.7185 47.2743 20.8695 47.6501 24.3201C47.8192 25.8704 47.6779 27.4539 47.6779 29.112C47.9299 29.1 48.1645 29.1148 48.3883 29.0761C52.2908 28.3969 56.1242 28.6898 59.8042 30.1375C67.0738 32.9968 71.8372 38.1215 73.0776 45.9553C74.3301 53.8634 71.2921 60.1469 65.0219 64.952C64.5356 65.325 64.3997 65.6034 64.6062 66.188C65.3776 68.3735 66.0905 70.5789 66.8353 72.775C67.0178 73.3118 67.0991 73.8245 66.5888 74.2215C66.0758 74.621 65.5989 74.4066 65.1245 74.1003C62.7075 72.5393 60.2586 71.0238 57.879 69.4082C57.0235 68.8276 56.2281 68.7077 55.2262 68.8462C48.7119 69.7479 42.896 68.1044 37.8636 63.8559C34.5126 61.0272 32.3301 57.4474 31.3442 53.1697C30.9098 51.2865 30.7298 49.3728 30.9218 47.4376C30.9564 47.0913 30.9631 46.7424 30.9857 46.3388C30.049 46.4455 29.1764 46.6398 28.3077 46.6265C26.3676 46.5945 24.4289 46.448 22.489 46.3788C22.1653 46.3668 21.7842 46.4281 21.5177 46.596C18.8969 48.25 16.296 49.9348 13.6899 51.6102C13.5966 51.67 13.5047 51.7314 13.4127 51.7925C12.973 52.0856 12.5174 52.2054 12.0643 51.8445C11.622 51.4915 11.606 51.0428 11.7805 50.5274C12.548 48.2699 13.2782 46.0006 14.0616 43.7497C14.2468 43.2185 14.1455 42.948 13.6885 42.6165C9.09576 39.2817 6.32037 34.8188 5.43299 29.2011C5.38502 28.9003 5.32906 28.6006 5.2771 28.3009C5.2771 27.1489 5.2771 25.997 5.2771 24.8436C5.31441 24.7171 5.37303 24.5931 5.38769 24.464C5.83671 20.5326 7.34364 17.0526 9.88186 14.0267C12.7359 10.6253 16.3294 8.33991 20.6117 7.17859C21.9481 6.81634 23.3324 6.62989 24.6942 6.36353C25.936 6.36353 27.1764 6.36353 28.4182 6.36353ZM64.0106 70.9678C64.0106 70.844 64.0213 70.7974 64.0093 70.7587C63.4723 69.1459 62.9354 67.5332 62.3956 65.9217C62.0014 64.7403 62.0919 64.5219 63.0899 63.8294C68.7352 59.9166 71.6732 54.6226 71.2628 47.6559C71.0298 43.6886 69.5253 40.198 66.8526 37.3066C61.6603 31.6863 55.1915 29.8551 47.7354 31.2282C47.3062 31.3069 47.1465 31.5333 47.0065 31.9313C46.6121 33.0541 46.2337 34.1968 45.6914 35.2503C43.1346 40.2232 39.1466 43.578 33.9051 45.4691C33.4773 45.6237 33.0697 45.7396 33.0723 46.3228C33.0802 47.9757 32.8884 49.6511 33.0936 51.2784C33.7159 56.1768 36.1582 60.0936 40.0673 63.0463C44.6814 66.5316 49.9017 67.7249 55.5951 66.7313C56.6518 66.5476 57.4951 66.7127 58.3811 67.3266C60.1986 68.5852 62.0906 69.7359 64.0093 70.9692L64.0106 70.9678Z" fill="#EA2F9F"/>
<path d="M22.3095 30.771C21.4487 30.771 20.6586 30.771 19.8672 30.771C19.0251 30.771 18.183 30.7779 17.341 30.7685C16.2551 30.7565 15.9233 30.4168 15.922 29.3261C15.9193 27.4429 15.918 25.5597 15.922 23.6765C15.9246 22.6804 16.2804 22.3302 17.2943 22.3275C18.9318 22.3222 20.5707 22.3275 22.3081 22.3275C22.3081 22.0838 22.3081 21.8734 22.3081 21.6629C22.3081 20.2006 22.3028 18.7383 22.3095 17.2773C22.3135 16.3157 22.6786 15.9468 23.6312 15.9442C25.5593 15.9389 27.4872 15.9389 29.4152 15.9442C30.3718 15.9468 30.7382 16.2985 30.7502 17.2667C30.7675 18.6837 30.7555 20.1021 30.7555 21.5204C30.7555 21.7615 30.7555 22.0012 30.7555 22.3288C31.2206 22.3288 31.6336 22.3288 32.0479 22.3288C33.3337 22.3288 34.6182 22.3208 35.904 22.3328C36.7114 22.3408 37.1338 22.6964 37.1458 23.4848C37.1763 25.5225 37.1763 27.5615 37.1471 29.5991C37.1351 30.4155 36.7313 30.7552 35.8506 30.7672C34.4543 30.7858 33.058 30.7725 31.6629 30.7738C31.3991 30.7738 31.1366 30.7738 30.7955 30.7738C30.7809 31.0494 30.7596 31.2839 30.7583 31.5169C30.7542 32.9353 30.7649 34.3523 30.7529 35.7707C30.7435 36.8108 30.3838 37.1678 29.3459 37.1731C27.4618 37.1825 25.5792 37.1825 23.6953 37.1731C22.6719 37.1678 22.3135 36.7883 22.3108 35.7508C22.3068 34.1167 22.3108 32.4838 22.3108 30.7751L22.3095 30.771ZM35.0618 24.3611C34.7567 24.3611 34.5169 24.3611 34.2771 24.3611C32.8581 24.3611 31.4404 24.3718 30.0214 24.3572C29.0567 24.3478 28.7063 23.9842 28.701 23.0187C28.6931 21.579 28.701 20.138 28.697 18.6983C28.697 18.4653 28.6758 18.2322 28.6636 17.9978H24.3441C24.3441 18.2735 24.3441 18.5106 24.3441 18.7476C24.3441 20.166 24.3507 21.5844 24.3415 23.0014C24.3334 24.0256 24.011 24.3506 22.989 24.3585C21.5487 24.3692 20.107 24.3585 18.6667 24.3638C18.4349 24.3638 18.203 24.3918 17.9818 24.4051V28.7149C18.263 28.7149 18.5028 28.7149 18.7413 28.7149C20.1816 28.7149 21.6233 28.7068 23.0636 28.7188C23.955 28.7269 24.3255 29.0811 24.3374 29.9653C24.3573 31.3384 24.3441 32.7128 24.3441 34.0874C24.3441 34.4109 24.3441 34.7345 24.3441 35.0541H28.6984C28.6984 33.6092 28.6984 32.2162 28.6984 30.823C28.6984 28.8387 28.8209 28.7162 30.8008 28.7162C32.2119 28.7162 33.6229 28.7162 35.0618 28.7162V24.3611Z" fill="#EA2F9F"/>
<path d="M52.1259 47.3802C56.852 47.4029 60.5987 51.3942 60.3163 56.1035C60.1564 58.7698 58.5442 60.8195 55.8287 61.6492C53.4051 62.3895 50.9402 62.4083 48.5099 61.6772C45.0882 60.6489 43.4028 57.8122 44.0091 54.2282C44.6739 50.2996 48.1567 47.3616 52.1259 47.3802ZM51.966 60.2667C52.9827 60.1108 53.8501 60.0456 54.6815 59.8391C57.9112 59.0348 58.6094 56.9479 58.1658 54.3988C57.6474 51.4196 54.8867 49.3153 51.8422 49.4351C48.8508 49.5524 46.3434 51.8831 45.9902 54.873C45.7117 57.2368 46.6258 58.8497 48.8682 59.63C49.8968 59.9883 51.0188 60.0802 51.966 60.2667Z" fill="#EA2F9F"/>
<path d="M41.7252 51.8138C39.6707 51.8191 38.0733 49.9733 38.3651 47.9182C38.5448 46.6437 39.0966 45.5637 40.1237 44.7618C41.0164 44.064 42.2077 44.0268 43.151 44.6354C44.47 45.4878 45.3348 47.4815 45.0537 49.0237C44.7632 50.6151 43.3375 51.8097 41.7252 51.8138ZM43.067 47.9595C42.8965 47.6585 42.6008 47.0326 42.2077 46.4746C41.9544 46.1163 41.4721 46.1043 41.2443 46.4718C40.8845 47.0539 40.5288 47.6906 40.4022 48.3484C40.253 49.1276 40.9298 49.7388 41.7173 49.7388C42.5102 49.7388 43.075 49.1595 43.067 47.9595Z" fill="#EA2F9F"/>
<path d="M52.7259 43.3063C52.8312 42.0916 53.3629 40.8878 54.4807 39.998C55.4907 39.1936 56.7538 39.2163 57.7677 40.0154C59.3412 41.254 59.9541 43.5913 59.1228 45.1801C58.39 46.5799 56.7951 47.2843 55.2481 46.8929C53.7385 46.5093 52.6713 45.0749 52.7259 43.3063ZM56.1328 44.9445C56.8244 44.9376 57.3654 44.4795 57.4385 43.7924C57.5319 42.9146 57.1747 42.1876 56.5339 41.6281C56.3767 41.4911 55.9704 41.4778 55.7677 41.583C55.1549 41.8985 54.6352 43.1637 54.7671 43.835C54.899 44.5036 55.4507 44.9511 56.1328 44.9445Z" fill="#EA2F9F"/>
<path d="M44.7114 43.5613C44.814 42.1416 45.3497 40.8935 46.5128 39.976C47.4882 39.2049 48.8033 39.1955 49.7426 40.0027C51.0643 41.1387 51.7706 42.5676 51.4215 44.3444C51.0976 45.9958 49.4548 47.1851 47.8719 46.9972C46.0186 46.7761 44.7142 45.3724 44.7114 43.5613ZM49.4655 43.179C49.2962 42.8753 49.0045 42.2468 48.6141 41.686C48.3649 41.329 47.8773 41.3078 47.6481 41.6728C47.283 42.2506 46.9245 42.8873 46.7939 43.5453C46.6394 44.3176 47.3176 44.937 48.1051 44.9423C48.9006 44.9476 49.4709 44.3724 49.4668 43.1776L49.4655 43.179Z" fill="#EA2F9F"/>
<path d="M65.9328 48.3952C65.8355 49.8017 65.2226 50.8684 63.9435 51.4664C62.691 52.0523 61.4839 51.898 60.3994 51.0429C59.2601 50.1439 58.8591 48.9134 59.2336 47.5563C59.46 46.7318 59.889 45.9049 60.4247 45.2377C61.4892 43.9125 63.1442 43.8498 64.3847 44.9991C65.3665 45.9102 65.8436 47.0781 65.9328 48.3952ZM62.486 49.7418C63.1827 49.7523 63.697 49.3275 63.8329 48.6297C63.9689 47.9305 63.4719 46.7012 62.8682 46.3696C62.6897 46.2711 62.3793 46.2551 62.1994 46.3429C61.5826 46.6426 61.0177 47.9798 61.1735 48.6496C61.328 49.3115 61.833 49.7311 62.4886 49.7418H62.486Z" fill="#EA2F9F"/>
</svg>
