<svg width="80" height="80" viewBox="0 0 80 80" fill="none" xmlns="http://www.w3.org/2000/svg">
<path d="M16.0969 66.9939C16.0969 49.0666 16.0969 30.9333 16.0969 13.006V12.7999C16.7151 10.1211 18.7757 8.47266 21.4545 8.47266C33.8181 8.47266 45.9757 8.47266 58.3393 8.47266C59.7818 8.47266 60.8121 8.88478 61.8424 9.70902C62.8727 10.5333 63.4909 11.7696 63.6969 13.212C63.6969 31.1393 63.6969 49.2726 63.6969 67.1999C63.2848 68.0242 63.0787 69.0545 62.6666 69.6726C61.8424 70.909 60.606 71.5272 58.9575 71.7332C46.1818 71.7332 33.406 71.7332 20.6303 71.7332C19.6 71.5272 18.7757 71.3211 17.9515 70.7029C16.9212 69.6726 16.509 68.4363 16.0969 66.9939ZM61.2242 39.9999C61.2242 35.8787 61.2242 31.5514 61.2242 27.4302C61.2242 22.8969 61.2242 18.3636 61.2242 14.0363C61.2242 12.5939 60.606 11.5636 59.3696 11.1514C58.9575 10.9454 58.5454 10.9454 57.9272 10.9454C45.9757 10.9454 33.8181 10.9454 21.8666 10.9454C21.4545 10.9454 21.2484 10.9454 20.8363 10.9454C19.806 11.1514 18.9818 11.9757 18.7757 13.006C18.7757 13.4181 18.7757 13.6242 18.7757 14.0363C18.7757 31.3454 18.7757 48.6545 18.7757 65.9635C18.7757 66.3757 18.7757 66.7878 18.7757 66.9939C18.9818 68.0242 19.806 68.8484 20.8363 69.0545C21.2484 69.0545 21.6606 69.0545 21.8666 69.0545C28.2545 69.0545 34.8484 69.0545 41.2363 69.0545C46.8 69.0545 52.3636 69.0545 58.1333 69.0545C59.1636 69.0545 59.9878 68.8484 60.606 68.0242C61.0181 67.406 61.2242 66.7878 61.2242 65.9635C61.2242 57.309 61.2242 48.6545 61.2242 39.9999Z" fill="#EA2F9F"/>
<path d="M40 48.0363C31.1394 48.0363 24.1333 40.8242 24.1333 32.1696C24.1333 23.309 31.3454 16.303 40.206 16.303C49.0666 16.509 56.0727 23.5151 56.0727 32.3757C55.8666 41.0302 48.6545 48.0363 40 48.0363ZM43.9151 30.7272C43.9151 27.8424 43.503 24.9575 42.4727 22.2787C42.0606 21.2484 41.6485 20.4242 41.0303 19.3939C40.4121 18.5696 39.7939 18.5696 39.1757 19.3939C38.7636 19.806 38.3515 20.4242 38.1454 21.0424C37.3212 22.8969 36.703 24.9575 36.4969 27.0181C36.2909 28.2545 36.2909 29.2848 36.0848 30.5212C38.7636 30.7272 41.2363 30.7272 43.9151 30.7272ZM36.0848 33.406C36.2909 36.2909 36.4969 39.1757 37.5272 41.8545C37.9394 42.8848 38.5575 43.9151 39.1757 44.7393C39.5878 45.3575 40.4121 45.3575 40.8242 44.7393C41.2363 44.3272 41.6485 43.709 41.8545 43.0909C42.8848 40.8242 43.2969 38.3515 43.7091 35.8787C43.7091 35.0545 43.9151 34.2302 43.9151 33.406C41.2363 33.406 38.7636 33.406 36.0848 33.406ZM33.2 30.7272C33.406 28.8727 33.6121 27.0181 34.0242 25.1636C34.4363 23.309 35.0545 21.6606 35.4666 19.806C30.9333 21.2484 27.2242 25.9878 27.0181 30.7272C29.0788 30.7272 31.1394 30.7272 33.2 30.7272ZM46.5939 30.7272C48.6545 30.7272 50.7151 30.7272 52.7757 30.7272H52.9818C52.5697 25.5757 48.4485 21.0424 44.3272 19.806C45.9757 23.103 46.3878 26.8121 46.5939 30.7272ZM27.0181 33.406C27.2242 38.5575 31.5515 43.2969 35.6727 44.3272C34.0242 40.8242 33.6121 37.1151 33.406 33.406C31.1394 33.406 29.0788 33.406 27.0181 33.406ZM52.9818 33.406C50.7151 33.406 48.6545 33.406 46.5939 33.406C46.3878 37.1151 45.9757 40.8242 44.3272 44.3272C48.8606 43.0909 52.9818 37.9393 52.9818 33.406Z" fill="#EA2F9F"/>
<path d="M40 55.8665C35.4666 55.8665 30.9333 55.8665 26.1939 55.8665C25.9878 55.8665 25.9878 55.8665 25.7818 55.8665C24.7515 55.8665 24.1333 55.4544 24.1333 54.6302C24.1333 53.8059 24.7515 53.3938 25.7818 53.3938C32.1697 53.3938 38.7636 53.3938 45.1515 53.3938C48.0363 53.3938 50.9212 53.3938 53.806 53.3938C54.0121 53.3938 54.2181 53.3938 54.4242 53.3938C55.2485 53.3938 55.8666 54.012 55.8666 54.6302C55.8666 55.4544 55.2485 55.8665 54.4242 55.8665C52.7757 55.8665 51.1272 55.8665 49.2727 55.8665C46.1818 55.8665 43.0909 55.8665 40 55.8665Z" fill="#EA2F9F"/>
<path d="M40.0001 63.9029C37.1152 63.9029 34.0243 63.9029 31.1395 63.9029C30.1091 63.9029 29.697 63.4908 29.491 62.6665C29.491 62.0484 29.9031 61.4302 30.5213 61.2241C30.7273 61.2241 30.9334 61.2241 31.3455 61.2241C37.1152 61.2241 42.8849 61.2241 48.8607 61.2241C49.0667 61.2241 49.2728 61.2241 49.6849 61.2241C50.3031 61.2241 50.7152 61.8423 50.7152 62.4605C50.7152 63.0787 50.5092 63.6969 49.6849 63.9029C49.4789 63.9029 49.0667 63.9029 48.8607 63.9029C45.9758 63.9029 42.8849 63.9029 40.0001 63.9029Z" fill="#EA2F9F"/>
</svg>
