<svg width="80" height="80" viewBox="0 0 80 80" fill="none" xmlns="http://www.w3.org/2000/svg">
<g clip-path="url(#clip0_131_832)">
<path d="M56.4 28.6001C55.8 27.4001 55.8 26.4001 56.2 25.2001C57 23.2001 57.2 21.2001 56.2 19.2001C54.8 16.6001 53.6 14.0001 52 11.4001C51.8 11.0001 51.2 10.6001 50.8 10.6001C50.4 10.6001 50 11.2001 49.6 11.6001C48.8 12.6001 48 13.8001 47.4 15.0001C46.8 15.8001 46.2 16.6001 45.8 17.4001C45.4 18.0001 45.2 18.8001 45 19.6001C41.8 19.0001 38.4 19.0001 35.2 19.6001C35.2 19.4001 35 19.2001 35 19.2001C34.6 17.4001 33.6 16.0001 32.4 14.8001C31.6 14.0001 31.2 13.0001 30.6 12.0001C30.2 11.0001 30 10.6001 29.4 10.6001C28.6 10.6001 28.4 11.0001 28 11.6001C26.8 14.0001 25.6 16.4001 24.2 18.8001C23.6 20.0001 23.2 21.4001 23.4 22.8001C23.6 23.8001 24 25.0001 24.2 26.2001C24.4 26.8001 24.4 27.0001 24.2 27.6001C22.8 30.0001 22 32.4001 22 35.2001C22 47.0001 22 58.8001 22 70.4001C22 70.8001 22.4 71.4001 22.8 71.8001H23.6C24.2 71.4001 24.4 70.8001 24.4 70.0001C24.4 61.8001 24.4 53.8001 24.4 45.6001C24.4 42.0001 26.2 39.6001 29.6 38.4001C30 38.2001 30.2 38.2001 30.6 38.2001C31.4 38.0001 31.8 37.6001 31.8 36.8001C31.8 36.2001 31.8 35.4001 31.8 34.8001C31.8 32.6001 33.2 31.2001 35.2 31.0001C37.2 31.0001 38.8 32.2001 39 34.4001C39 35.2001 39.6 35.8001 40.2 35.8001C40.8 35.8001 41.4 35.4001 41.4 34.4001C41.6 32.2001 43.2 30.8001 45.2 31.0001C47.2 31.0001 48.6 32.6001 48.6 34.6001C48.6 35.2001 48.6 36.0001 48.6 36.6001C48.6 37.4001 49 37.8001 49.8 38.2001C54 39.4001 55.8 41.8001 55.8 46.0001C55.8 54.0001 55.8 62.0001 55.8 70.0001C55.8 70.8001 56 71.4001 56.6 71.8001H57.4C58 71.4001 58 71.0001 58 70.2001C58 58.8001 58 47.6001 58 36.2001C58 33.4001 57.6 31.0001 56.4 28.6001ZM55.6 38.6001C54.2 37.8001 52.6 37.0001 51.2 36.2001C51 36.0001 51 35.8001 50.8 35.4001C50.8 34.8001 50.8 34.0001 50.6 33.2001C50 31.0001 48.6 29.4001 46.4 28.8001C44.2 28.2001 42.2 28.8001 40.4 30.4001C40.2 30.6001 40 30.8001 39.8 31.0001C39.6 30.8001 39.4 30.6001 39.2 30.4001C37.4 28.6001 35.2 28.0001 32.8 29.0001C30.4 30.0001 29 31.8001 29 34.2001C29 35.6001 28.6 36.2001 27.4 36.6001C26.2 37.0001 25.2 38.0001 24.2 38.6001C24 35.0001 24.2 31.4001 26.4 28.2001C27 27.4001 27 26.6001 26.6 25.8001C26.4 25.2001 26.2 24.4001 26 23.6001C25.6 22.2001 25.8 21.0001 26.4 19.8001C27.4 18.0001 28.2 16.2001 29.2 14.4001C31 16.2001 32.6 18.2001 33 21.0001C33 22.0001 33.8 22.2001 34.8 22.0001C37.6 21.2001 40.4 21.2001 43 21.6001C43.8 21.6001 44.6 22.0001 45.4 22.2001C46.4 22.4001 47 22.0001 47 21.2001C47.4 19.0001 48.2 17.2001 49.8 15.8001C50.2 15.4001 50.4 15.0001 50.8 14.6001C52 16.6001 53.2 18.6001 54 20.6001C54.4 21.6001 54.2 22.8001 54 23.8001C53.8 24.6001 53.4 25.4001 53.2 26.2001C53 26.6001 53 27.4001 53.2 27.6001C55.4 31.2001 55.8 34.8001 55.6 38.6001Z" fill="#EA2F9F"/>
<path d="M15.4 21.3999C13 21.3999 11.2 23.3999 11.2 25.5999C11.2 27.7999 13.2 29.7999 15.4 29.7999C17.8 29.7999 19.6 27.9999 19.6 25.5999C19.6 23.1999 17.6 21.3999 15.4 21.3999ZM15.4 27.3999C14.4 27.3999 13.6 26.5999 13.6 25.5999C13.6 24.5999 14.4 23.7999 15.4 23.7999C16.4 23.7999 17.2 24.5999 17.2 25.5999C17.2 26.5999 16.4 27.3999 15.4 27.3999Z" fill="#EA2F9F"/>
<path d="M62.8 15.3999C64 16.5999 64.6 15.1999 65.4 14.5999C66.8 15.7999 67.4 15.9999 68 15.3999C69 14.1999 67.8 13.5999 67.2 12.7999C68.4 11.3999 68.6 10.7999 68 10.1999C67.4 9.59995 67 9.79995 65.4 10.9999C64 9.79995 63.4 9.59995 63 10.1999C62 11.3999 63.2 11.9999 63.8 12.7999C63 13.5999 61.8 14.3999 62.8 15.3999Z" fill="#EA2F9F"/>
<path d="M11.6001 57.4001C13.2001 56.8001 14.6001 54.6001 14.6001 52.8001C14.6001 52.2001 14.2001 51.8001 13.6001 51.6001C13.0001 51.6001 12.4001 51.8001 12.4001 52.6001C12.2001 54.0001 11.6001 54.8001 10.4001 55.4001C9.8001 55.8001 9.6001 56.4001 10.0001 57.0001C10.4001 57.4001 11.0001 57.6001 11.6001 57.4001Z" fill="#EA2F9F"/>
<path d="M63.4 36.8C65 36.2 66.6 34 66.6 32.4C66.6 31.6 66.4 31.2 65.6 31C65 30.8 64.4 31.2 64.2 31.8C64 33.2 63.4 34.2 62.2 34.8C61.6 35.2 61.6 35.8 61.8 36.2C62.2 37 62.8 37.2 63.4 36.8Z" fill="#EA2F9F"/>
<path d="M12.4001 62.2C11.8001 62.2 11.2001 62.6 11.2001 63.2C11.0001 64.4 10.4001 65.4 9.4001 66C8.8001 66.4 8.6001 66.9999 9.0001 67.5999C9.4001 68.1999 10.0001 68.2 10.6001 68C12.2001 67.4 13.8001 65 13.6001 63.4C13.6001 62.8 13.0001 62.4 12.4001 62.2Z" fill="#EA2F9F"/>
<path d="M70.2 51.3999C69.6 51.3999 68.9999 51.7999 68.7999 52.3999C68.5999 53.5999 68 54.3999 67 54.9999C66.4 55.3999 66.1999 55.9999 66.5999 56.5999C66.9999 57.1999 67.6 57.3999 68.2 56.9999C70 55.9999 71 54.5999 71.2 52.7999C71.4 51.9999 71 51.5999 70.2 51.3999Z" fill="#EA2F9F"/>
<path d="M18.3999 61.2C17.5999 61.2 17.1999 61.6 16.9999 62.2C16.7999 63.4 16.1999 64.1999 15.1999 64.7999C14.5999 65.1999 14.3999 65.8 14.5999 66.4C15.1999 67 15.9999 67.1999 16.5999 66.7999C18.3999 65.7999 19.3999 64.4 19.5999 62.4C19.5999 61.8 19.1999 61.2 18.3999 61.2Z" fill="#EA2F9F"/>
<path d="M63.4001 42.7999C64.4001 43.1999 65.2001 43.6 66.2001 44C66.8001 44.2 67.4001 44.1999 67.8001 43.5999C68.2001 42.9999 68.2001 42.4 67.6001 42C66.4001 41.4 65.2001 40.8 64.0001 40.2V40.5999C63.4001 40.5999 62.8001 40.8 62.6001 41.4C62.4001 42 62.8001 42.5999 63.4001 42.7999Z" fill="#EA2F9F"/>
<path d="M63.4001 47.5999C64.2001 47.9999 65.2001 48.3999 66.2001 48.7999C66.8001 48.9999 67.4001 48.9999 67.8001 48.3999C68.2001 47.7999 68.2001 47.1999 67.6001 46.7999C66.4001 46.1999 65.2001 45.5999 64.0001 45.1999C63.2001 44.9999 62.6001 45.5999 62.6001 46.5999C62.8001 46.9999 63.0001 47.3999 63.4001 47.5999Z" fill="#EA2F9F"/>
<path d="M15.8 61C16 60.4 16 59.6 16 59C16 58.4 16 57.8 15.8 57.4C15.6 56.6 15.2 56.2 14.4 56.2C13.8 56.2 13.4 56.7999 13.4 57.5999C13.4 58.3999 13.4 59.4 13.2 60.2C13.2 61 13.4 61.3999 14 61.7999C15 62.1999 15.6 61.8 15.8 61Z" fill="#EA2F9F"/>
<path d="M62.5999 59.8C61.9999 59.8 61.5999 60.2 61.3999 60.8C61.1999 61.4 61.5999 62.0001 62.1999 62.2001C63.1999 62.6001 64.1999 63.0001 64.9999 63.4001C65.7999 63.8001 66.7999 63.2001 66.7999 62.2001C66.7999 62.0001 66.5999 61.8 66.3999 61.6C65.3999 60.4 63.9999 60 62.5999 59.8Z" fill="#EA2F9F"/>
<path d="M23.2 10.4C23.8 10.4 24.4 9.8 24.4 9.2C24.4 8.6 23.8 8 23.2 8C22.6 8 22 8.6 22 9.4C22 10 22.6 10.6 23.2 10.4Z" fill="#EA2F9F"/>
<path d="M48.6 41.7999C48 41.5999 47.4 41.9999 47.2 42.7999C47 43.3999 46.8 43.9999 46.6 44.5999C46.2 45.5999 45.4 46.1999 44.6 45.9999C43.4 45.7999 42.4 45.5999 41.2 45.3999C41 44.5999 41 43.9999 42 43.5999C42.2 43.5999 42.6 43.1999 42.6 42.9999C42.8 42.5999 43.2 41.9999 43.2 41.3999C43.2 40.5999 42.4 40.3999 41.8 40.3999C40.8 40.3999 40 40.3999 39 40.3999C38.2 40.3999 37.2 40.3999 36.8 41.3999C36.6 41.9999 37 42.9999 38 43.5999C39 43.9999 38.8 44.5999 38.8 45.3999C37.6 45.5999 36.6 45.7999 35.4 45.9999C34.2 46.1999 33.4 45.5999 33 44.3999C32.8 43.7999 32.6 42.9999 32.4 42.3999C32.2 41.5999 31.6 41.3999 30.8 41.5999C30.2 41.7999 29.8 42.3999 30 43.1999C30.2 43.9999 30.4 44.7999 30.8 45.5999C31.4 46.9999 32.4 47.9999 34 48.3999C34.4 48.3999 34.8 48.5999 35.2 48.5999C35.2 48.7999 35.2 48.9999 35.2 48.9999C35.2 50.1999 35.2 51.1999 35.4 52.3999C35.8 54.7999 38.2 56.3999 40.6 55.9999C43 55.7999 44.8 53.7999 44.8 51.3999C44.8 50.3999 44.8 49.3999 44.8 48.3999C47 48.1999 48.4 47.1999 49 45.1999C49.2 44.5999 49.4 43.7999 49.4 43.1999C49.8 42.5999 49.4 41.9999 48.6 41.7999ZM42.4 51.3999C42.4 52.7999 41.4 53.7999 40 53.7999C38.6 53.7999 37.8 52.7999 37.6 51.3999C37.6 50.5999 37.6 49.9999 37.6 49.1999C37.6 48.1999 38 47.9999 38.8 48.1999C38.8 49.1999 38.8 50.1999 38.8 51.1999C38.8 52.1999 39.2 52.7999 40 52.7999C40.8 52.7999 41.2 52.1999 41.2 51.1999C41.2 50.1999 41.2 49.1999 41.2 48.1999C42.2 47.9999 42.6 48.3999 42.4 49.1999C42.4 49.7999 42.4 50.5999 42.4 51.3999Z" fill="#EA2F9F"/>
<path d="M33 56.0001C32.4 55.8001 31.8 56.0001 31.6 56.8001C31 58.2001 30.2 59.2001 28.8 60.0001C28.2 60.4001 28 61.0001 28.2 61.6001C28.4 62.2001 29.2 62.4001 30 62.0001C31.8 61.0001 33 59.8001 33.8 57.8001C33.8 57.6001 34 57.4001 34 57.0001C33.6 56.6001 33.4 56.2001 33 56.0001Z" fill="#EA2F9F"/>
<path d="M30.3999 55.4001C30.3999 54.6001 30.1999 54 29.3999 53.8C28.5999 53.8 28.1999 54.2 27.9999 54.8C27.7999 56 27.1999 56.8001 26.1999 57.4001C25.5999 57.8001 25.3999 58.4 25.5999 59C25.9999 59.6 26.5999 59.8001 27.3999 59.4001C29.1999 58.6001 30.1999 57.2001 30.3999 55.4001Z" fill="#EA2F9F"/>
<path d="M50.5999 55C49.9999 55.2 49.5999 55.6 49.5999 56.2C49.5999 57.2 49.5999 58.2 49.3999 59.2C49.3999 60 49.5999 60.4 50.3999 60.6C51.1999 60.8 51.5999 60.4 51.7999 59.8C51.9999 59 51.9999 58.4 52.1999 57.6C52.1999 57 51.9999 56.4 51.9999 55.8C51.7999 55.4 51.3999 55 50.5999 55Z" fill="#EA2F9F"/>
<path d="M36.4 34.5999C36.4 33.9999 36 33.3999 35.2 33.3999C34.6 33.3999 34 33.9999 34 34.5999C34 35.1999 34.6 35.7999 35.2 35.7999C35.8 35.7999 36.4 35.1999 36.4 34.5999Z" fill="#EA2F9F"/>
<path d="M46.0001 34.5999C46.0001 33.9999 45.4001 33.3999 44.8001 33.3999C44.2001 33.3999 43.6001 33.9999 43.6001 34.5999C43.6001 35.1999 44.0001 35.7999 44.8001 35.7999C45.4001 35.7999 46.0001 35.1999 46.0001 34.5999Z" fill="#EA2F9F"/>
<path d="M50.4001 19.1999C50.0001 19.5999 49.8001 20.1999 50.0001 20.5999C50.6001 21.5999 50.4001 22.3999 50.0001 23.1999C49.6001 23.9999 50.0001 24.5999 50.6001 24.7999C51.2001 24.9999 52.0001 24.7999 52.2001 23.9999C52.4001 23.1999 52.6001 22.3999 53.0001 21.3999C52.6001 20.7999 52.4001 19.9999 52.0001 19.3999C51.4001 18.7999 50.8001 18.7999 50.4001 19.1999Z" fill="#EA2F9F"/>
<path d="M28.8 19C28.6 19.2 28 19.6 27.8 20C27 21.2 27.4 22.6 27.8 23.8C28.2 24.8 28.8 25 29.4 24.8C30.2 24.6 30.4 24 30 23C29.8 22.2 29.6 21.4 30 20.6C30.6 19.8 30 19 28.8 19Z" fill="#EA2F9F"/>
</g>
<defs>
<clipPath id="clip0_131_832">
<rect width="80" height="80" fill="white"/>
</clipPath>
</defs>
</svg>
