<svg width="80" height="80" viewBox="0 0 80 80" fill="none" xmlns="http://www.w3.org/2000/svg">
<path d="M34.4 7C35 7 35.6 7 36.2 7C37.4 7.4 38.6 7.8 39.4 9C39.8 10 40.6 10.2 41.4 10C42 10 42.4 10 43 10C44 10.2 44.6 11 44.8 12C45 12 45.2 12 45.4 12C48.2 12 51.2 12 54 12C54.4 12 54.6 12 55 12C58.2 12.6 60.2 15 60.2 18.4C60.2 26.8 60.2 35.4 60.2 43.8C60.2 44 60.2 44.2 60.2 44.4C60.4 44.2 60.6 44 60.8 44C61.6 43.2 62.6 42.6 63.8 42.6C66.2 42.4 68.2 43.8 69.2 46C69.8 47.2 69.8 48.6 69.6 50C69.8 50 69.8 50 70 50C71.8 50.2 73 51.2 73.6 52.8C73.6 53 73.8 53.2 73.8 53.6V55.4C73.8 55.4 73.8 55.4 73.6 55.6C73.2 57.4 72.2 58.8 70.6 59.8H70.4C71.4 61.4 71.8 63 71.6 64.6C70.8 69.6 65.4 72.2 61.2 69.6C60.4 69.2 59.8 69.2 59.2 69.6C58.2 70.2 57 70.6 55.6 70.6C42.4 70.6 29.4 70.6 16.2 70.6C12.8 70.6 10 67.8 10 64.4C10 49 10 33.4 10 18C10 14.8 12.8 12 16.2 12C19.2 12 22 12 25 12C25.2 12 25.4 12 25.6 12C26.2 10.4 27.2 10 28.6 10C28.8 10 29.2 10 29.4 10C30.2 10.2 30.6 10 31 9.2C31.2 8.8 31.4 8.4 31.8 8.2C32.8 7.8 33.6 7.4 34.4 7ZM44.8 17.6C45 17.6 45.2 17.6 45.6 17.6C48.2 17.6 51 17.6 53.6 17.6C54.4 17.6 55 18 55 18.8C55 20.6 55 22.2 55 24C55 24.6 54.4 25 53.8 25.2C53.2 25.2 52.6 24.8 52.4 24.4C52.4 24.2 52.4 24 52.4 23.8C52.4 22.6 52.4 21.6 52.4 20.4H18V63.2H48.6C49 62.2 49.4 61.4 49.8 60.4C49.8 60.4 49.8 60.4 49.6 60.4C47.8 59.4 46.8 57.8 46.4 55.8C46.2 53.6 47.4 51.4 49.6 50.8C50 50.8 50.2 50.6 50.6 50.6C50.6 50.4 50.6 50.4 50.6 50.2C50.4 48.2 50.8 46.6 52 45C52.2 44.8 52.2 44.4 52.2 44.2C52.2 41.2 52.2 38.4 52.2 35.4C52.2 34.6 52.6 34 53.4 34C54.2 34 54.6 34.6 54.6 35.4C54.6 37.4 54.6 39.6 54.6 41.6C54.6 42 54.6 42.6 54.6 43C55.6 43 56.6 43.2 57.6 43.2C57.6 43 57.6 43 57.6 42.8C57.6 34.8 57.6 26.8 57.6 18.8C57.6 16.4 56 14.8 53.6 14.8C51 14.8 48.4 14.8 46 14.8C45.6 14.8 45 14.8 44.6 14.8L44.8 17.6ZM25.6 14.6C25.4 14.6 25.2 14.6 25.2 14.6C22.4 14.6 19.4 14.6 16.6 14.6C14.2 14.6 12.6 16.2 12.6 18.6C12.6 34 12.6 49.2 12.6 64.6C12.6 67 14.2 68.6 16.6 68.6C27.8 68.6 38.8 68.6 50 68.6C50.2 68.6 50.2 68.6 50.4 68.6C50 67.8 49.6 67 49.4 66.4C49.2 65.8 49 65.8 48.4 65.8C38 65.8 27.6 65.8 17.2 65.8C16.2 65.8 15.6 65.4 15.6 64.4C15.6 49.4 15.6 34.4 15.6 19.4C15.6 18 16 17.6 17 17.6C19.6 17.6 22.2 17.6 25 17.6C25.2 17.6 25.4 17.6 25.6 17.6V14.6ZM51.4 63.6C51.4 67.4 55 69.4 58 67.8C59.8 66.8 61.2 66.8 63 67.8C65 69 67.8 68.2 69 66.2C70.2 64 69.4 61.4 67.2 60.2C65.8 59.4 65 58.6 64.6 57C64 55.2 62.2 54 60.2 54C58.2 54 56.6 55.2 56 57C55.6 58.4 54.8 59.4 53.4 60.2C52 61 51.4 62.4 51.4 63.6ZM28.2 17.4H42.4V12.6C41.4 12.6 40.4 12.6 39.4 12.6C38.4 12.6 38.2 12.4 37.8 11.4C37.4 10.2 36.4 9.6 35.4 9.6C34.2 9.6 33.2 10.4 32.8 11.4C32.6 12.2 32.2 12.6 31.2 12.6C30.2 12.6 29.2 12.6 28.2 12.6V17.4ZM61.6 48.8C61.6 50 61.8 51 62.6 51.6C63.6 52.6 65.2 52.6 66.2 51.6C67.6 50.2 67.6 47.4 66.2 46C65.2 44.8 63.6 44.8 62.6 46C62 46.8 61.6 47.8 61.6 48.8ZM53.4 48.8C53.4 50 53.6 50.8 54.4 51.6C55.4 52.6 56.8 52.6 57.8 51.6C59.4 50.2 59.2 47.2 57.8 45.8C56.8 44.8 55.4 44.8 54.4 45.8C53.6 46.8 53.4 47.8 53.4 48.8ZM49.2 54.4C49.2 56 50 57.2 51 57.8C52.2 58.4 53.2 57.8 53.4 56.6C53.6 55.4 53.2 54.2 52.2 53.4C51.6 52.8 50.8 52.6 50 53C49.4 53.2 49.2 54 49.2 54.4ZM67 55.8C67 56.6 67.2 57.4 68 57.8C68.8 58.2 69.4 58 70 57.4C71 56.6 71.6 55.4 71.2 54C71 52.6 69.8 52.2 68.6 52.8C67.6 53.6 67.2 54.6 67 55.8Z" fill="#EA2F9F"/>
<path d="M31.1999 34.8C30.3999 34.8 29.5999 34.8 28.7999 34.8C27.9999 34.8 27.3999 34.4 27.3999 33.4C27.3999 31.6 27.3999 29.8 27.3999 28C27.3999 27.2 27.7999 26.6 28.7999 26.6C29.5999 26.6 30.3999 26.6 31.1999 26.6C31.1999 25.8 31.1999 25 31.1999 24.2001C31.1999 23.4001 31.5999 22.8 32.5999 22.8C34.3999 22.8 36.1999 22.8 37.9999 22.8C38.7999 22.8 39.3999 23.2001 39.3999 24.2001C39.3999 25 39.3999 25.8 39.3999 26.6C40.1999 26.6 40.9999 26.6 41.7999 26.6C42.5999 26.6 43.1999 27 43.1999 28C43.1999 29.8 43.1999 31.6 43.1999 33.4C43.1999 34.2 42.7999 34.8 41.7999 34.8C40.9999 34.8 40.1999 34.8 39.3999 34.8C39.3999 35.6 39.3999 36.4 39.3999 37.2C39.3999 38 38.9999 38.6 37.9999 38.6C36.1999 38.6 34.3999 38.6 32.5999 38.6C31.7999 38.6 31.3999 38.2 31.1999 37.2C31.1999 36.4 31.1999 35.6 31.1999 34.8ZM29.9999 29.2V32.2H30.1999C30.9999 32.2 31.5999 32.2 32.3999 32.2C33.3999 32.2 33.7999 32.6 33.7999 33.6C33.7999 34.4 33.7999 35.2 33.7999 35.8H36.7999C36.7999 35 36.7999 34.2 36.7999 33.6C36.7999 32.6 37.1999 32.2 38.1999 32.2C38.9999 32.2 39.7999 32.2 40.3999 32.2V29.2H40.1999C39.3999 29.2 38.7999 29.2 37.9999 29.2C36.9999 29.2 36.5999 28.8 36.5999 27.8C36.5999 27 36.5999 26.2 36.5999 25.6H33.5999C33.5999 25.6 33.5999 25.6 33.5999 25.8C33.5999 26.6 33.5999 27.2 33.5999 28C33.5999 28.8 33.1999 29.4 32.1999 29.4C31.5999 29.2 30.7999 29.2 29.9999 29.2Z" fill="#EA2F9F"/>
<path d="M39.6 44.6001C41.6 44.6001 43.8 44.6001 45.8 44.6001C46.6 44.6001 47.2 45.0001 47.2 45.8001C47.2 46.6001 46.6 47.0001 45.8 47.0001C41.6 47.0001 37.4 47.0001 33.4 47.0001C32.6 47.0001 32 46.6001 32 45.8001C32 45.0001 32.6 44.6001 33.4 44.6001C35.4 44.6001 37.4 44.6001 39.6 44.6001Z" fill="#EA2F9F"/>
<path d="M36.4 55.7999C35.4 55.7999 34.4 55.7999 33.4 55.7999C32.6 55.7999 32 55.1999 32 54.5999C32 53.7999 32.6 53.3999 33.4 53.3999C35.4 53.3999 37.6 53.3999 39.6 53.3999C40.4 53.3999 41 53.9999 41 54.5999C41 55.3999 40.4 55.7999 39.6 55.7999C38.4 55.7999 37.4 55.7999 36.4 55.7999Z" fill="#EA2F9F"/>
<path d="M25.9999 44.1999C26.5999 43.5999 26.9999 42.9999 27.5999 42.5999C28.1999 41.9999 28.9999 41.9999 29.3999 42.5999C29.9999 43.1999 29.7999 43.7999 29.1999 44.3999C28.3999 45.1999 27.5999 45.9999 26.7999 46.7999C26.1999 47.3999 25.3999 47.3999 24.7999 46.7999C24.3999 46.3999 23.9999 45.9999 23.5999 45.5999C22.9999 44.9999 22.9999 44.3999 23.5999 43.7999C24.1999 43.1999 24.7999 43.3999 25.3999 43.7999C25.5999 43.7999 25.7999 43.7999 25.9999 44.1999Z" fill="#EA2F9F"/>
<path d="M25.9999 52.8C26.5999 52.2 26.9999 51.6 27.5999 51.2C28.1999 50.6 28.9999 50.6 29.3999 51.2C29.9999 51.8 29.7999 52.4 29.1999 53C28.3999 53.8 27.5999 54.6 26.7999 55.4C26.1999 56 25.5999 56 24.7999 55.4C24.3999 55 23.9999 54.6 23.5999 54.2C22.9999 53.6 22.9999 52.8 23.3999 52.4C23.9999 51.8 24.5999 52 25.1999 52.4C25.5999 52.4 25.7999 52.6 25.9999 52.8Z" fill="#EA2F9F"/>
<path d="M55.0001 29.4C55.0001 30 54.4001 30.6 53.8001 30.6C53.2001 30.6 52.6001 30 52.6001 29.2C52.6001 28.6 53.2001 28 53.8001 28C54.4001 28.2 55.0001 28.6 55.0001 29.4Z" fill="#EA2F9F"/>
</svg>
