<svg width="80" height="80" viewBox="0 0 80 80" fill="none" xmlns="http://www.w3.org/2000/svg">
<path d="M71.0001 55.0001C70.6001 53.0001 70.0001 51.0001 69.2001 49.2001C69.0001 48.6001 68.6001 48.4001 68.0001 48.6001C67.4001 48.8001 67.2001 49.2001 67.2001 49.8001C67.2001 50.2001 67.2001 50.6001 67.2001 51.0001C67.0001 54.0001 65.6001 56.4001 63.2001 58.0001C61.6001 59.0001 59.8001 59.8001 58.0001 60.0001C57.0001 60.2001 56.8001 59.8001 56.6001 59.0001C56.2001 57.4001 56.0001 56.0001 55.6001 54.4001C55.6001 54.0001 55.6001 53.8001 55.8001 53.6001C56.6001 53.0001 57.2001 52.4001 58.0001 51.6001C60.2001 49.4001 62.4001 47.2001 64.0001 44.4001C64.0001 44.2001 64.4001 44.2001 64.6001 44.2001C65.6001 44.2001 66.4001 44.2001 67.4001 44.2001C68.2001 44.2001 68.6001 43.8001 68.6001 43.2001C68.6001 42.6001 68.2001 42.2001 67.4001 42.2001C66.6001 42.2001 65.8001 42.2001 65.2001 42.2001C65.4001 41.2001 65.4001 40.4001 65.4001 39.4001C65.4001 37.2001 65.0001 35.2001 63.8001 33.4001C60.8001 28.4001 53.8001 28.0001 50.0001 32.6001C49.8001 32.8001 49.6001 33.0001 49.4001 33.4001C46.8001 30.2001 43.6001 28.8001 39.6001 29.8001C39.6001 29.2001 39.4001 28.8001 39.4001 28.2001C39.4001 27.8001 39.4001 27.6001 39.8001 27.4001C41.4001 26.2001 42.2001 24.6001 42.0001 22.6001C42.0001 20.8001 41.8001 19.2001 41.4001 17.4001C40.8001 14.8001 39.8001 12.4001 38.0001 10.6001C36.6001 9.00008 35.0001 8.20008 32.8001 8.40008C29.8001 8.60008 27.0001 9.20008 24.2001 10.0001C22.6001 10.2001 21.4001 10.8001 20.6001 12.2001C19.8001 13.2001 19.2001 14.4001 18.4001 15.4001C17.8001 16.4001 17.2001 16.8001 16.2001 17.0001C14.2001 17.4001 12.4001 18.0001 10.4001 18.4001C9.2001 18.8001 8.6001 19.6001 8.6001 20.8001C8.6001 21.6001 8.6001 22.4001 8.8001 23.2001C9.4001 26.6001 11.0001 29.0001 14.2001 30.2001C14.6001 30.4001 14.8001 30.4001 15.2001 30.4001C17.0001 30.6001 19.0001 30.8001 20.8001 31.0001C22.0001 31.2001 23.2001 31.6001 24.2001 31.8001C23.6001 33.4001 22.8001 35.0001 22.4001 36.6001C20.6001 42.8001 21.2001 48.8001 25.4001 54.0001C25.6001 54.2001 25.6001 54.4001 25.6001 54.8001C25.6001 58.4001 25.6001 61.8001 25.6001 65.4001C25.6001 65.8001 25.4001 66.0001 25.0001 66.2001C24.8001 66.2001 24.6001 66.4001 24.4001 66.4001C22.8001 67.2001 21.6001 68.4001 21.4001 70.2001C21.2001 71.0001 21.4001 71.6001 22.0001 72.0001H53.0001C54.6001 71.6001 56.0001 71.0001 57.0001 70.0001C57.2001 69.8001 57.4001 69.8001 57.6001 69.8001C60.6001 69.6001 63.6001 69.0001 66.0001 67.2001C68.8001 65.2001 70.8001 62.6001 71.2001 59.0001V58.8001V57.6001C71.2001 56.8001 71.2001 55.8001 71.0001 55.0001ZM60.8001 45.0001C59.2001 47.2001 57.2001 49.2001 55.2001 51.0001C53.2001 52.8001 51.4001 54.6001 49.4001 56.2001C49.2001 56.2001 49.2001 56.4001 49.0001 56.6001C44.8001 52.6001 40.2001 49.2001 36.8001 44.2001C38.4001 44.2001 39.8001 44.2001 41.2001 44.2001C42.2001 44.2001 42.4001 44.0001 42.8001 43.0001C43.0001 42.2001 43.2001 41.6001 43.6001 40.8001C43.6001 40.8001 43.6001 40.8001 43.8001 40.6001C44.0001 41.0001 44.0001 41.2001 44.0001 41.4001C44.6001 44.0001 45.2001 46.6001 46.0001 49.2001V49.4001C46.2001 50.0001 46.4001 50.4001 47.0001 50.4001C47.6001 50.4001 48.0001 50.0001 48.2001 49.6001C48.8001 48.0001 49.4001 46.4001 50.0001 45.0001C50.2001 44.6001 50.4001 44.2001 50.6001 43.6001C51.0001 44.4001 51.2001 45.0001 51.6001 45.6001C51.8001 46.0001 52.2001 46.2001 52.6001 46.2001C53.2001 46.2001 53.4001 45.8001 53.6001 45.4001C54.2001 43.8001 54.8001 42.2001 55.4001 40.6001C55.4001 40.4001 55.6001 40.2001 55.6001 39.8001C56.0001 41.0001 56.4001 42.0001 56.6001 43.0001C56.8001 43.8001 57.2001 44.0001 58.0001 44.0001C59.0001 44.0001 60.2001 44.0001 61.4001 44.0001C61.0001 44.6001 61.0001 44.8001 60.8001 45.0001ZM45.6001 33.0001C46.4001 33.8001 47.2001 34.8001 47.8001 35.6001C48.2001 36.0001 48.4001 36.4001 48.8001 36.4001C49.4001 36.4001 49.6001 36.0001 49.8001 35.6001C51.0001 33.6001 52.4001 32.0001 54.8001 31.6001C57.8001 31.0001 60.4001 32.4001 61.8001 35.2001C62.8001 37.4001 62.8001 39.6001 62.0001 42.0001C60.8001 42.0001 59.6001 42.0001 58.4001 42.0001C58.2001 42.0001 58.0001 41.8001 58.0001 41.6001C57.4001 40.0001 56.8001 38.4001 56.4001 36.8001C56.2001 36.2001 56.0001 35.8001 55.2001 35.8001C54.6001 35.8001 54.2001 36.2001 54.0001 36.8001C53.4001 38.6001 52.8001 40.2001 52.0001 42.0001C52.0001 42.2001 51.8001 42.4001 51.8001 42.6001C51.4001 42.0001 51.2001 41.4001 51.0001 41.0001C50.8001 40.4001 50.4001 40.0001 49.8001 40.0001C49.2001 40.0001 49.0001 40.4001 48.8001 41.0001C48.2001 42.6001 47.6001 44.2001 47.0001 46.0001C47.0001 45.6001 47.0001 45.2001 46.8001 45.0001C46.2001 42.2001 45.4001 39.6001 44.8001 36.8001C44.6001 36.2001 44.4001 35.8001 43.8001 35.6001C43.2001 35.6001 42.8001 35.8001 42.6001 36.6001C42.0001 38.2001 41.6001 39.8001 41.0001 41.4001C40.8001 41.8001 40.8001 41.8001 40.4001 41.8001C39.0001 41.8001 37.6001 41.8001 36.2001 41.8001C36.0001 41.8001 35.6001 41.6001 35.6001 41.6001C34.6001 38.8001 35.2001 34.6001 38.0001 32.4001C40.4001 31.0001 43.4001 31.0001 45.6001 33.0001ZM10.8001 21.6001C10.8001 20.8001 10.8001 20.8001 11.6001 20.6001C12.0001 20.4001 12.4001 20.4001 13.0001 20.2001V22.0001H11.0001C10.8001 21.8001 10.8001 21.6001 10.8001 21.6001ZM30.4001 69.4001C30.2001 69.6001 30.0001 69.8001 29.8001 69.8001C27.8001 69.8001 25.8001 69.8001 23.8001 69.8001C23.8001 69.8001 23.8001 69.6001 23.6001 69.6001C24.0001 69.2001 24.2001 68.8001 24.8001 68.6001C25.4001 68.2001 26.0001 68.0001 26.6001 67.6001C27.2001 67.4001 27.4001 67.0001 27.4001 66.4001C27.4001 62.2001 27.4001 58.2001 27.4001 54.0001C27.4001 53.6001 27.2001 53.4001 27.0001 53.0001C22.6001 47.8001 22.2001 42.0001 24.4001 35.8001C25.2001 35.0001 25.6001 34.0001 26.2001 33.0001C26.8001 31.6001 26.4001 30.4001 24.8001 29.8001C21.8001 29.0001 19.0001 28.4001 15.8001 28.4001C14.8001 28.4001 14.0001 28.0001 13.4001 27.4001C12.2001 26.6001 11.4001 25.2001 11.2001 24.2001C11.8001 24.2001 12.2001 24.2001 12.6001 24.2001C14.0001 24.0001 15.0001 23.2001 15.0001 21.8001C15.0001 21.0001 15.0001 20.4001 15.0001 19.6001C15.6001 19.4001 16.0001 19.4001 16.6001 19.2001C18.2001 18.8001 19.4001 18.0001 20.2001 16.6001C21.0001 15.4001 21.6001 14.4001 22.4001 13.4001C23.0001 12.6001 23.6001 12.2001 24.4001 11.8001C27.2001 11.0001 29.8001 10.4001 32.8001 10.2001C34.0001 10.2001 34.8001 10.6001 35.6001 11.2001C37.2001 12.6001 38.0001 14.4001 38.6001 16.4001C39.2001 18.4001 39.4001 20.2001 39.4001 22.2001C39.4001 25.0001 37.4001 26.4001 34.4001 26.2001H34.2001C32.0001 25.8001 31.8001 25.6001 31.8001 23.6001C31.8001 21.6001 31.8001 19.6001 31.8001 17.6001C31.8001 16.8001 31.0001 16.2001 30.4001 16.6001C30.0001 16.8001 29.8001 17.2001 29.8001 17.6001C29.8001 20.2001 29.8001 22.6001 29.8001 25.2001C29.8001 26.6001 30.6001 27.4001 31.8001 27.8001C33.0001 28.2001 34.4001 28.6001 35.8001 28.4001C36.0001 28.4001 36.4001 28.4001 36.6001 28.4001C36.8001 29.2001 36.8001 29.8001 36.8001 30.4001C36.8001 30.6001 36.6001 30.8001 36.6001 30.8001C33.0001 33.6001 32.2001 37.4001 33.0001 41.6001C33.0001 41.8001 33.0001 41.8001 33.0001 42.0001C32.6001 42.0001 32.0001 42.0001 31.6001 42.0001C31.0001 42.0001 30.4001 42.4001 30.4001 43.0001C30.4001 43.6001 30.8001 44.0001 31.6001 44.0001C32.4001 44.0001 33.2001 43.8001 33.8001 44.0001C34.4001 44.4001 34.6001 45.2001 35.0001 45.8001C36.2001 47.2001 37.2001 48.6001 38.4001 50.0001C38.6001 50.2001 38.6001 50.2001 38.8001 50.4001C35.8001 51.6001 33.8001 54.0001 33.0001 57.0001C32.2001 60.2001 32.4001 63.0001 34.6001 65.6001C34.2001 65.8001 33.6001 66.0001 33.2001 66.2001C32.4001 67.0001 31.2001 68.0001 30.4001 69.4001ZM65.2001 65.2001C62.8001 67.0001 60.0001 67.6001 57.2001 67.8001C56.4001 67.8001 56.0001 68.0001 55.6001 68.6001C54.8001 69.6001 53.8001 69.8001 52.6001 70.0001C52.0001 70.0001 51.4001 70.0001 51.0001 70.0001C51.2001 69.4001 51.4001 68.8001 51.4001 68.2001C51.6001 67.4001 51.2001 67.0001 50.4001 66.8001C49.8001 66.8001 49.4001 67.2001 49.2001 67.8001C49.0001 69.2001 48.2001 70.0001 46.8001 70.0001C42.4001 70.0001 38.0001 70.0001 33.6001 70.0001C33.4001 70.0001 33.2001 70.0001 33.0001 70.0001C33.2001 69.8001 33.4001 69.6001 33.6001 69.4001C34.8001 68.2001 36.4001 68.0001 38.0001 67.8001C39.2001 67.8001 39.6001 67.6001 39.6001 67.0001C39.8001 66.4001 39.4001 66.0001 38.4001 65.6001C37.0001 65.0001 36.2001 64.0001 35.8001 62.6001C34.8001 59.6001 36.2001 55.4001 38.8001 53.6001C39.0001 53.4001 39.2001 53.4001 39.4001 53.2001C41.0001 52.4001 41.2001 52.4001 42.6001 53.6001C44.2001 55.2001 46.0001 56.6001 47.6001 58.2001C48.8001 59.2001 49.8001 59.2001 51.0001 58.2001C51.8001 57.4001 52.8001 56.6001 53.6001 55.8001C53.6001 55.8001 53.6001 55.8001 53.8001 55.8001C54.0001 57.0001 54.4001 58.4001 54.6001 59.6001C55.0001 61.4001 56.4001 62.6001 58.2001 62.2001C62.4001 61.4001 66.0001 59.6001 68.2001 55.6001C68.4001 55.2001 68.6001 54.6001 68.8001 54.2001C70.0001 58.4001 69.4001 62.0001 65.2001 65.2001Z" fill="#EA2F9F"/>
</svg>
