<svg width="80" height="80" viewBox="0 0 80 80" fill="none" xmlns="http://www.w3.org/2000/svg">
<path d="M66.6483 63.8069C64.9104 62.069 63.1724 60.3311 61.4345 58.5932C61.0483 58.2069 60.469 57.8207 59.6966 58.0138C59.5035 58.0138 59.3104 58.0138 59.1173 57.8207C58.3448 57.2414 57.7655 56.469 57.1862 55.8897C61.4345 48.938 62.0138 41.9863 57.5724 35.2276C52.7448 27.6966 45.6 25.5725 36.9104 27.3104V27.1173C36.9104 23.2552 36.9104 19.5863 36.9104 15.7242C36.9104 15.5311 37.1035 15.1449 37.2966 15.1449C38.4552 14.1794 39.0345 13.2139 39.0345 11.8621C38.8414 10.5104 38.2621 9.73799 37.1035 9.15868C36.9104 9.15868 36.7173 8.96558 36.7173 8.96558C29.3793 8.96558 22.0414 8.96558 14.7035 8.96558C13.931 9.35178 13.1586 9.73799 12.7724 10.7035C12.3862 11.0897 12.3862 11.4759 12.1931 11.8621V12.2483C12.3862 13.2139 12.7724 14.1794 13.7379 14.5656C14.3173 14.9518 14.3173 15.338 14.3173 15.7242C14.3173 30.0138 14.3173 44.3035 14.3173 58.5932C14.3173 59.5587 14.3173 60.5242 14.5104 61.4897C15.4759 66.5104 19.7242 70.3725 25.131 70.5656C29.7655 70.7587 34.4 68.0552 36.1379 63.0345C36.1379 62.8414 36.331 62.6483 36.331 62.4552C39.2276 63.2276 41.931 63.6138 44.8276 63.0345C47.7242 62.6483 50.2345 61.4897 52.7448 59.7518C53.5173 60.5242 54.0966 61.1035 54.6759 61.8759C54.869 62.069 54.869 62.2621 54.869 62.2621C54.869 62.8414 55.0621 63.4207 55.4483 64C57.1862 65.738 59.1173 67.669 60.8552 69.4069C62.4 70.9518 64.9104 70.9518 66.6483 69.2138C68.1931 67.8621 68.1931 65.3518 66.6483 63.8069ZM14.8966 13.0207C14.7035 12.8276 14.3173 12.4414 14.3173 12.0552C14.3173 11.8621 14.3173 11.669 14.5104 11.669C14.7035 11.4759 14.7035 11.4759 14.8966 11.2828C15.0897 11.0897 15.4759 11.0897 15.669 11.0897C22.2345 11.0897 28.9931 11.0897 35.5586 11.0897C35.7517 11.0897 35.9448 11.0897 35.9448 11.0897C36.5241 11.2828 36.9104 11.669 36.9104 12.0552C36.9104 12.2483 36.9104 12.2483 36.9104 12.4414C36.7173 12.8276 36.5241 13.0207 35.9448 13.0207C35.7517 13.0207 35.5586 13.0207 35.5586 13.0207C32.2759 13.0207 28.9931 13.0207 25.7104 13.0207C22.4276 13.0207 19.1448 13.0207 15.8621 13.0207C15.4759 13.0207 15.0897 13.0207 14.8966 13.0207ZM16.4414 27.5035V23.4483C17.0207 23.4483 17.6 23.4483 18.1793 23.4483C18.5655 23.4483 18.7586 23.4483 18.9517 23.2552C19.1448 23.0621 19.3379 23.0621 19.3379 22.869C19.3379 22.6759 19.3379 22.4828 19.3379 22.2897C19.3379 21.5173 18.9517 21.3242 18.3724 21.3242C17.7931 21.3242 17.0207 21.3242 16.4414 21.3242V19.2001C16.8276 19.2001 17.0207 19.2001 17.4069 19.2001C17.7931 19.2001 18.1793 19.007 18.3724 18.6207C18.3724 18.4276 18.3724 18.4276 18.3724 18.2345C18.3724 17.6552 17.9862 17.269 17.4069 17.269C17.0207 17.269 16.8276 17.269 16.4414 17.269V15.338H34.7862C34.7862 15.5311 34.7862 15.7242 34.7862 15.9173C34.7862 19.7794 34.7862 23.6414 34.7862 27.5035C34.7862 27.8897 34.5931 28.0828 34.2069 28.2759C33.8207 28.469 33.4345 28.469 33.2414 28.6621C31.3104 30.0138 29.1862 29.6276 27.0621 28.8552C26.0966 28.469 25.3242 27.8897 24.3586 27.5035C22.0414 26.538 19.531 26.538 17.0207 27.3104C16.8276 27.5035 16.6345 27.5035 16.4414 27.5035ZM25.5173 68.6345C20.4966 68.6345 16.4414 64.5794 16.4414 59.5587C16.4414 58.0138 16.4414 56.469 16.4414 54.9242C16.4414 54.7311 16.4414 54.538 16.4414 54.3449C17.0207 54.3449 17.7931 54.3449 18.3724 54.3449C18.9517 54.3449 19.3379 54.1518 19.531 53.7656C19.531 53.5725 19.531 53.5725 19.531 53.3794C19.531 52.8 19.1448 52.4138 18.3724 52.4138C17.7931 52.4138 17.2138 52.4138 16.4414 52.4138V50.4828C17.0207 50.4828 17.7931 50.6759 18.1793 50.0966C18.3724 49.9035 18.3724 49.7104 18.3724 49.3242C18.3724 48.1656 17.2138 48.3587 16.4414 48.3587V46.4276C17.0207 46.4276 17.6 46.4276 18.1793 46.4276C18.7586 46.4276 19.1448 46.2345 19.3379 45.8483C19.3379 45.6552 19.3379 45.6552 19.3379 45.4621C19.3379 44.8828 18.9517 44.4966 18.1793 44.4966C17.6 44.4966 17.0207 44.4966 16.2483 44.4966V42.3725C16.4414 42.3725 16.8276 42.3725 17.0207 42.3725C17.6 42.3725 17.9862 42.1794 18.1793 41.7932C18.1793 41.6001 18.1793 41.6001 18.1793 41.4069C18.1793 40.8276 17.7931 40.4414 17.0207 40.4414C16.8276 40.4414 16.4414 40.4414 16.0552 40.4414V38.3173C16.6345 38.3173 17.2138 38.3173 17.7931 38.3173C18.3724 38.3173 18.7586 38.1242 18.9517 37.738C18.9517 37.5449 18.9517 37.5449 18.9517 37.3518C18.9517 36.7725 18.5655 36.3863 17.7931 36.3863C17.4069 36.3863 17.2138 36.3863 16.8276 36.3863C16.6345 36.3863 16.2483 36.3863 15.8621 36.3863V34.4552C16.4414 34.4552 17.2138 34.4552 17.6 34.069C17.7931 33.8759 17.7931 33.6828 17.7931 33.2966C17.7931 32.138 16.6345 32.3311 15.8621 32.3311C15.8621 31.7518 15.8621 31.3656 15.8621 30.9794C15.8621 30.7863 16.0552 30.5932 16.4414 30.4001C19.1448 29.2414 21.6552 29.4345 24.3586 30.7863C25.131 31.1725 25.7104 31.5587 26.4828 31.7518C27.2552 31.9449 28.0276 32.138 28.8 32.3311C27.6414 33.4897 26.6759 34.6483 25.9035 36.0001C23.5862 39.8621 22.6207 44.1104 23.3931 48.938C24.5517 55.3104 28.2207 59.7518 34.0138 62.6483C33.8207 63.2276 33.6276 63.6138 33.4345 64C32.469 66.5104 29.1862 68.6345 25.5173 68.6345ZM51.0069 58.7863C50.6207 58.9794 50.0414 59.3656 49.6552 59.5587C47.3379 60.7173 44.6345 61.4897 41.7379 61.4897C32.8552 61.4897 25.5173 53.9587 25.7104 45.0759C25.7104 36.7725 32.0828 29.8207 40 28.8552C40.7724 28.8552 41.3517 28.6621 42.1242 28.6621C51.2 28.6621 58.5379 36.1932 58.5379 45.269C58.3448 50.869 55.4483 55.8897 51.0069 58.7863ZM56.2207 60.5242C55.6414 59.9449 55.0621 59.3656 54.4828 58.7863C54.869 58.4 55.2552 58.0138 55.6414 57.6276L55.8345 57.4345C56.4138 58.0138 56.9931 58.5932 57.5724 59.1725C57.3793 59.3656 56.9931 59.7518 56.6069 60.138C56.4138 60.138 56.4138 60.3311 56.2207 60.5242ZM65.1035 68.0552C64.9104 68.2483 64.7173 68.4414 64.331 68.4414C63.5586 68.8276 62.5931 68.4414 62.0138 67.8621C60.2759 66.1242 58.731 64.5794 56.9931 62.8414C57.9586 61.8759 58.9241 60.9104 59.8897 59.9449C59.8897 59.9449 60.0828 60.138 60.2759 60.138C61.8207 61.6828 63.3655 63.2276 64.9104 64.7725C65.8759 65.9311 65.8759 67.0897 65.1035 68.0552Z" fill="#EA2F9F"/>
</svg>
