<svg width="80" height="80" viewBox="0 0 80 80" fill="none" xmlns="http://www.w3.org/2000/svg">
<path d="M73.5879 40.8243C72.7636 42.2667 72.1454 43.7092 71.3212 45.1516C70.2909 46.594 70.497 48.2425 70.497 49.891C70.703 50.9213 70.703 51.7455 70.703 52.7758C70.703 54.4243 69.6727 55.6607 68.4364 56.4849C67.6121 57.1031 66.5818 57.7213 65.7576 58.3395C64.7273 58.9576 64.1091 59.7819 63.697 61.0183C63.4909 61.8425 63.0788 62.4607 62.8727 63.0789C61.8424 65.9637 59.9879 67.2001 57.103 67.4061C56.2788 67.4061 55.6606 67.6122 54.8364 67.6122C54.0121 67.8182 53.1879 68.0243 52.5697 68.8486C51.7454 69.6728 51.1273 70.291 50.303 71.1152C48.6545 72.7637 46.5939 73.1758 44.3273 72.3516C43.503 72.1455 42.6788 71.7334 41.8545 71.5273C40.6182 71.1152 39.1757 71.1152 37.9394 71.5273C37.1151 71.9395 36.2909 72.1455 35.4667 72.3516C33.4061 72.9698 31.5515 72.5576 29.903 71.1152C29.2848 70.497 28.6667 69.8789 28.0485 69.2607C27.0182 68.0243 25.5757 67.6122 24.1333 67.6122C23.3091 67.6122 22.4848 67.4061 21.4545 67.2001C19.6 66.7879 18.1576 65.7576 17.5394 63.9031C17.1273 62.8728 16.7151 61.8425 16.303 60.8122C15.8909 59.5758 15.2727 58.7516 14.2424 58.1334C13.4182 57.5152 12.3879 57.1031 11.5636 56.4849C9.70908 55.2486 9.0909 53.394 9.29696 51.1273C9.29696 50.097 9.50302 49.2728 9.50302 48.2425C9.70908 47.2122 9.29696 46.3879 8.88484 45.3576C8.26665 44.3273 7.64847 43.297 7.03029 42.2667C6.20605 40.6183 6.20605 38.9698 7.03029 37.3213C7.44241 36.7031 7.85453 35.8789 8.26666 35.2607C9.50302 33.6122 9.70908 31.7576 9.29696 29.9031C9.0909 29.2849 9.0909 28.6667 9.0909 28.0486C9.0909 25.9879 9.70908 24.3395 11.3576 23.1031C12.1818 22.4849 13.006 22.0728 13.8303 21.4546C15.0667 20.8364 15.8909 19.8061 16.303 18.3637C16.5091 17.7455 16.7151 17.1273 16.9212 16.5092C17.9515 13.6243 19.8061 12.3879 22.6909 12.1819C23.7212 12.3879 24.5454 12.3879 25.1636 12.1819C26.1939 11.9758 26.8121 11.5637 27.6364 10.9455C28.2545 10.3273 29.0788 9.5031 29.697 8.88492C31.3454 7.23643 33.4061 6.82431 35.6727 7.44249C36.497 7.64855 37.5273 8.06068 38.3515 8.26674C39.3818 8.67886 40.4121 8.67886 41.4424 8.26674C42.4727 7.85462 43.503 7.64855 44.3273 7.23643C46.3879 6.61825 48.2424 7.03037 49.8909 8.4728C50.5091 9.09098 51.1273 9.70916 51.7454 10.3273C52.7757 11.5637 54.2182 11.9758 55.6606 11.9758C56.4848 11.9758 57.5151 12.1819 58.3394 12.3879C60.1939 12.8001 61.6364 13.8304 62.2545 15.4789C62.6667 16.5092 63.0788 17.5395 63.4909 18.5698C63.903 19.6001 64.5212 20.6304 65.5515 21.2486C66.3757 21.8667 67.4061 22.4849 68.2303 23.1031C70.0848 24.3395 70.703 26.194 70.497 28.4607C70.497 29.491 70.2909 30.3152 70.2909 31.3455C70.0848 32.3758 70.497 33.4061 71.1151 34.2304C71.9394 35.6728 72.9697 37.1152 73.3818 38.7637L73.5879 40.8243ZM68.0242 27.8425C68.2303 26.8122 67.6121 25.9879 66.5818 25.1637C65.7576 24.5455 64.9333 24.1334 63.903 23.5152C62.6667 22.691 61.6364 21.6607 61.2242 20.2183C60.8121 19.1879 60.4 18.1576 60.1939 17.1273C59.7818 15.891 58.9576 15.2728 57.7212 15.0667C57.3091 15.0667 56.897 14.8607 56.4848 14.8607C53.8061 14.6546 51.5394 13.8304 49.6848 11.7698C49.2727 11.1516 48.6545 10.7395 48.2424 10.3273C47.4182 9.70916 46.5939 9.5031 45.7697 9.70916C44.9454 9.91522 43.9151 10.3273 43.0909 10.5334C41.2364 11.1516 39.3818 11.3576 37.5273 10.5334C36.497 10.5334 35.6727 10.3273 34.8485 10.1213C33.6121 9.70916 32.5818 9.91522 31.7576 10.7395C30.9333 11.5637 30.1091 12.1819 29.4909 13.0061C28.4606 13.8304 27.4303 14.4486 26.1939 14.6546C24.9576 14.8607 23.7212 15.0667 22.4848 15.2728C21.2485 15.4789 20.2182 16.097 19.806 17.3334C19.6 17.7455 19.3939 18.3637 19.1879 18.9819C18.5697 21.4546 17.1273 23.3092 14.8606 24.5455C14.6545 24.5455 14.4485 24.7516 14.2424 24.7516C12.3879 25.5758 11.7697 27.0183 11.9757 29.0789C11.9757 29.2849 11.9757 29.2849 11.9757 29.491C12.5939 32.1698 12.1818 34.6425 10.5333 36.9092C10.1212 37.3213 9.91514 37.7334 9.70908 38.1455C8.88484 39.3819 8.88484 40.6182 9.70908 41.8546C10.1212 42.4728 10.5333 43.091 10.7394 43.7092C11.1515 44.7395 11.7697 45.5637 11.9757 46.594C12.1818 47.8304 11.9757 49.2728 11.9757 50.5092C11.7697 53.1879 11.7697 53.8061 14.0364 55.2486C14.6545 55.6607 15.2727 56.0728 15.8909 56.4849C17.1273 57.3092 17.9515 58.3395 18.5697 59.7819C18.9818 60.8122 19.3939 61.8425 19.806 62.8728C20.2182 63.9031 21.0424 64.5213 22.0727 64.7273C22.897 64.9334 23.7212 64.9334 24.5454 65.1395C26.4 65.3455 28.0485 65.9637 29.4909 67.4061C30.1091 68.0243 30.9333 68.8486 31.7576 69.4667C32.5818 70.291 33.6121 70.497 34.8485 70.0849C35.6727 69.8789 36.2909 69.6728 37.1151 69.2607C38.9697 68.4364 41.0303 68.4364 42.8848 69.2607C43.7091 69.4667 44.5333 69.8789 45.1515 70.0849C46.3879 70.497 47.4182 70.291 48.2424 69.4667C49.0667 68.6425 49.8909 67.8183 50.7151 67.2001C51.5394 66.3758 52.7757 65.7576 54.0121 65.5516C55.2485 65.3455 56.4848 65.1395 57.5151 65.1395C58.7515 64.9334 59.7818 64.3152 60.1939 63.0789C60.4 62.4607 60.8121 61.6364 61.0182 61.0183C61.6364 58.9576 62.8727 57.3092 64.7273 56.2789C65.5515 55.8667 66.1697 55.2486 66.9939 54.8364C67.8182 54.2183 68.2303 53.6001 68.0242 52.5698C68.0242 51.5395 67.8182 50.7152 67.8182 49.6849C67.6121 47.8304 67.8182 46.1819 68.8485 44.7395C69.4667 43.9152 69.8788 43.091 70.2909 42.2667C71.1151 41.0304 71.1151 39.794 70.2909 38.5576C69.6727 37.7334 69.2606 36.9092 68.6424 35.8789C68.0242 34.8486 67.6121 33.6122 67.6121 32.3758C67.8182 30.7273 68.0242 29.491 68.0242 27.8425Z" fill="#EA2F9F"/>
<path d="M40 65.9636C25.7818 65.9636 14.0364 54.2182 14.0364 40C14.0364 25.5758 25.7818 14.0364 40 14.0364C54.2182 14.0364 65.9636 25.7818 65.7576 40C65.9636 54.4243 54.2182 65.9636 40 65.9636ZM63.2849 40.6182C63.697 27.8424 53.6 17.1273 40.6182 16.7152C28.0485 16.303 17.1273 26.194 16.7152 39.3818C16.303 52.1576 26.194 62.8727 39.3818 63.2849C51.9515 63.697 62.8727 53.8061 63.2849 40.6182Z" fill="#EA2F9F"/>
<path d="M38.1456 39.588C39.588 37.7334 41.0304 36.0849 42.4728 34.4365C43.9153 32.788 45.3577 30.9334 46.8001 29.2849C48.8607 26.8122 52.3637 26.6062 54.8365 28.4607C57.3092 30.3152 57.7213 34.0243 55.6607 36.4971C52.5698 40.2062 49.4789 43.9152 46.1819 47.8304C45.1516 49.0668 44.1213 50.5092 42.885 51.7455C40.6183 54.4243 36.7031 54.6304 34.2304 52.1577C31.3456 49.2728 28.4607 46.388 25.7819 43.2971C22.691 40.0001 24.1334 35.0546 28.2546 33.8183C30.3153 33.2001 32.1698 33.6122 33.8183 35.2607C35.0546 36.4971 36.291 37.7334 37.5274 39.1759C37.7334 39.1759 37.9395 39.3819 38.1456 39.588ZM26.8122 39.1759C26.8122 40.0001 27.2243 40.8243 27.8425 41.4425C30.5213 44.1213 33.2001 47.0062 35.8789 49.891C37.5274 51.5395 39.3819 51.5395 41.0304 49.6849C42.2668 48.0365 43.7092 46.594 44.9456 44.9455C47.6243 41.6486 50.5092 38.3516 53.188 35.0546C54.4243 33.6122 54.2183 31.5516 52.7759 30.5213C51.3334 29.491 49.685 29.9031 48.4486 31.3455C45.5637 34.8486 42.4728 38.3516 39.588 42.0607C38.7637 43.091 37.9395 43.091 37.1153 42.0607C35.4668 40.4122 33.8183 38.7637 32.1698 37.1152C31.1395 36.0849 30.1092 35.8789 28.8728 36.4971C27.6365 36.7031 26.8122 37.9395 26.8122 39.1759Z" fill="#EA2F9F"/>
</svg>
