<svg width="80" height="80" viewBox="0 0 80 80" fill="none" xmlns="http://www.w3.org/2000/svg">
<path d="M14.1143 28.9714C14.2858 29.1428 14.6286 29.3143 14.9715 29.3143C15.4858 29.3143 16.1715 29.3143 16.6858 29.3143C17.0286 29.3143 17.5429 29.3143 17.8858 29.3143C18.2286 29.3143 18.5715 29.3143 18.9143 29.1428C20.8001 28.6285 22.0001 27.4285 22.8572 25.7143C23.7143 24.1714 24.4001 22.4571 25.2572 20.9143C25.9429 19.5428 27.1429 18.6857 28.5143 18.5143C29.7143 18.3428 31.0858 18.3428 32.2858 18.3428C32.9715 18.3428 33.4858 17.8285 33.4858 17.1428C33.4858 16.8 33.3143 16.6285 33.1429 16.4571C33.1429 16.4571 32.9715 16.4571 32.9715 16.2857C32.9715 16.2857 32.8001 16.2857 32.8001 16.1143C32.6286 16.1143 32.4572 16.1143 32.2858 16.1143C31.4286 16.1143 30.4001 16.1143 29.5429 16.1143C26.6286 16.1143 24.4001 17.4857 23.0286 20.0571C22.1715 21.6 21.4858 23.3143 20.6286 24.8571C19.9429 26.4 18.9143 27.2571 17.2001 27.2571C16.5143 27.2571 15.6572 27.2571 14.9715 27.2571C14.2858 27.2571 13.7715 27.6 13.7715 28.2857C13.7715 28.6285 13.9429 28.8 14.1143 28.9714Z" fill="#EA2F9F"/>
<path d="M5.02856 32.5714C5.02856 33.4286 5.37142 33.7714 6.22856 33.7714C7.25714 33.7714 8.28571 33.7714 9.48571 33.7714C11.2 33.7714 12.7429 32.4 12.7429 30.5143C12.7429 29.8286 12.7429 29.1428 12.7429 28.2857C12.7429 27.6 12.4 27.0857 11.5429 27.0857C9.82857 27.0857 7.94285 27.0857 6.22856 27.0857C5.54285 27.0857 5.19999 27.4285 5.19999 28.1143C5.19999 28.8 5.19999 29.4857 5.19999 30.1714C5.02856 31.0286 5.02856 31.8857 5.02856 32.5714Z" fill="#EA2F9F"/>
<path d="M41.0286 57.2572C39.4857 53.4858 37.2572 50.0572 34 47.6572C32.8 46.8 31.4286 46.1143 30.0572 45.2572C30.0572 45.2572 30.0572 45.2572 30.2286 45.0858C31.4286 44.0572 32.1143 42.6858 32.2857 41.1429C32.2857 40.6286 32.2857 40.2858 32.2857 39.7715C32.2857 39.4286 32.1143 39.2572 31.7715 39.2572C31.6 39.0858 31.2572 39.0858 31.0857 39.2572C30.5715 39.4286 30.2286 39.7715 30.2286 40.4572C29.8857 42.8572 28.1715 44.5715 25.7715 44.5715C21.3143 44.5715 17.0286 44.5715 12.5715 44.5715C11.8857 44.5715 11.2 44.4 10.6857 44.2286C8.97146 43.5429 7.60003 42 7.25718 39.9429C7.08575 38.7429 7.08575 37.3715 7.08575 36.1715C7.08575 35.4858 6.91432 35.1429 6.40003 34.9715C6.22861 34.9715 6.05718 34.8 5.88575 34.8C5.20003 34.8 4.85718 35.3143 4.85718 36.1715C4.85718 37.2 4.85718 38.0572 4.85718 39.0858C4.85718 43.0286 7.42861 45.9429 11.0286 46.6286C11.5429 46.8001 12.0572 46.8 12.5715 46.8C16.6857 46.8 20.9715 46.8 25.0857 46.8C25.9429 46.8 26.6286 46.8001 27.4857 46.9715C28.1715 47.1429 28.8572 47.3143 29.3715 47.4858C29.7143 47.6572 30.0572 47.8286 30.4 48.0001C30.5715 48.1715 30.9143 48.1715 31.0857 48.3429C32.2857 49.0286 33.1429 49.8858 34.1715 50.9143C36.0572 52.9715 37.4286 55.3715 38.6286 57.9429C38.8 58.2858 38.9715 58.4572 39.3143 58.6286C39.4857 58.8001 39.8286 58.8001 40.1715 58.6286C41.0286 58.6286 41.2 57.9429 41.0286 57.2572Z" fill="#EA2F9F"/>
<path d="M68.9715 49.2001C67.4287 47.6572 66.0573 46.2858 64.5144 44.7429C62.8001 43.0286 61.0858 41.3144 59.3715 39.6001C58.8573 39.0858 58.1715 39.0858 57.6573 39.4286C57.4858 39.6001 57.4858 39.6001 57.4858 39.7715C57.3144 40.1144 57.4858 40.6286 57.8287 40.9715C58.1715 41.3144 58.343 41.4858 58.8573 41.8286C58.5144 42.0001 58.343 42.1715 58.1715 42.3429C54.743 45.7715 51.143 49.3715 47.7144 52.8001C47.3715 53.1429 47.2001 53.3144 47.0287 53.6572C46.5144 54.5144 46.343 55.3715 46.6858 56.5715C46.6858 56.7429 46.6858 56.7429 46.6858 56.9144C46.6858 57.0858 46.6858 57.0858 46.5144 57.2572C46.1715 57.7715 45.6573 58.1144 45.143 58.6286C44.9715 58.8001 44.8001 59.1429 44.6287 59.3144C44.2858 60.0001 44.1144 60.8572 44.4573 61.8858C44.6287 62.2286 44.4573 62.4001 44.2858 62.5715C44.2858 62.5715 44.2858 62.7429 44.1144 62.7429C43.2573 63.6001 42.2287 64.4572 41.3715 65.4858C41.2001 65.6572 41.0287 65.8286 41.0287 66.0001C40.6858 66.5144 40.8573 67.0286 41.2001 67.3715C41.7144 67.8858 42.4001 67.7144 42.9144 67.2001C43.7715 66.3429 44.8001 65.3144 45.6573 64.4572C45.8287 64.2858 46.1715 64.2858 46.343 64.2858C47.543 64.6286 48.743 64.2858 49.6001 63.4286C50.1144 63.0858 50.4573 62.5715 50.8001 62.2286C50.9715 62.0572 51.3144 62.0572 51.4858 62.0572C53.0287 62.5715 54.2287 62.2286 55.2573 61.0286C58.343 57.9429 61.2573 55.0286 64.343 51.9429C64.5144 51.7715 64.6858 51.6001 64.8573 51.4286C65.2001 50.9144 65.0287 50.4001 64.6858 50.0572C64.1715 49.7144 63.8287 49.5429 63.3144 49.8858C63.143 50.0572 62.9715 50.2286 62.8001 50.4001C59.7144 53.4858 56.8001 56.4001 53.7144 59.4858C53.0287 60.1715 52.5144 60.1715 51.6573 59.4858C50.8001 58.6286 49.943 57.7715 49.0858 56.9144C48.4001 56.2286 48.2287 55.8858 48.5715 55.2001C48.743 55.0286 48.9144 54.8572 49.0858 54.5144C52.5144 51.0858 55.943 47.6572 59.543 44.0572C59.7144 43.8858 59.8858 43.7144 60.2287 43.5429C60.4001 43.7144 60.5715 44.0572 60.743 44.2286C62.9715 46.4572 65.2001 48.6858 67.2573 50.7429C67.7715 51.2572 68.4573 51.4286 68.9715 50.9144C69.143 50.7429 69.143 50.7429 69.3144 50.5715C69.6573 50.0572 69.4858 49.5429 68.9715 49.2001Z" fill="#EA2F9F"/>
<path d="M34.8572 33.6C35.0286 36 35.8858 38.4 37.4286 40.4571C39.3144 43.2 42.4001 44.2286 45.4858 43.3714C47.8858 42.6857 49.2572 40.8 50.2858 38.7429C51.4858 36.1714 52.0001 33.4286 52.0001 30.5143C52.0001 26.5714 52.0001 22.4571 52.0001 18.5143C52.0001 16.2857 50.9715 14.5714 48.9144 13.5429C48.4001 13.3714 48.0572 13.2 47.5429 13.0286C44.8001 13.0286 41.8858 13.0286 39.1429 13.0286L38.9715 13.2C36.2286 13.8857 34.6858 15.9429 34.6858 18.6857C34.6858 20.9143 34.6858 23.3143 34.6858 25.5429C34.6858 28.1143 34.6858 30.8571 34.8572 33.6ZM36.7429 24.5143C36.7429 22.6286 36.7429 20.7429 36.7429 18.8571C36.7429 16.6286 38.1144 15.2571 40.3429 15.2571C42.4001 15.2571 44.2858 15.2571 46.3429 15.2571C48.5715 15.2571 49.9429 16.6286 49.9429 18.8571C49.9429 22.4571 49.9429 25.8857 49.9429 29.4857C49.9429 32.2286 49.6001 34.8 48.5715 37.2C48.2286 38.0571 47.7144 38.7429 47.2001 39.4286C45.1429 42 41.5429 42 39.4858 39.4286C38.1144 37.7143 37.4286 35.8286 37.2572 33.7714C36.9144 30.6857 36.9144 27.6 36.5715 24.5143H36.7429Z" fill="#EA2F9F"/>
<path d="M70.343 34.1143C69.8287 33.6 69.143 33.4286 68.6287 33.9428C68.1144 34.4571 68.1144 35.1428 68.8001 35.6571C69.143 36 69.6573 36.5143 70.0001 36.8571C69.8287 37.0286 69.6573 37.2 69.4858 37.3714C68.1144 38.7428 66.743 40.1143 65.3716 41.4857C64.8573 42 64.8573 42.6857 65.3716 43.2C65.8858 43.7143 66.4001 43.5428 67.0858 43.2C67.2573 43.0286 67.4287 42.8571 67.6001 42.6857C68.9716 41.3143 70.343 39.9428 71.7144 38.5714C72.0573 38.9143 72.4001 39.2571 72.743 39.6C73.6001 40.4571 74.1144 40.4571 74.9716 39.6V38.7428C73.4287 37.2 71.8858 35.6571 70.343 34.1143Z" fill="#EA2F9F"/>
<path d="M64.1715 37.7143C64.6858 38.2286 65.3715 38.2286 65.8858 37.8858C66.0572 37.7143 66.2286 37.3715 66.2286 37.0286C66.2286 36.6858 66.0572 36.5143 65.8858 36.1715C62.2858 32.5715 58.6858 28.9715 55.0858 25.3715C54.9144 25.2 54.5715 25.0286 54.0572 24.8572C53.8858 25.0286 53.7144 25.2 53.7144 25.2C53.5429 25.3715 53.3715 25.3715 53.3715 25.5429C53.0287 26.0572 53.3715 26.4 53.7144 26.7429C57.1429 30.5143 60.7429 34.1143 64.1715 37.7143Z" fill="#EA2F9F"/>
</svg>
