<svg width="80" height="80" viewBox="0 0 80 80" fill="none" xmlns="http://www.w3.org/2000/svg">
<path d="M71.2529 23.1117C69.3118 19.8117 66.4 18.0646 62.5176 18.0646C58.6353 18.0646 55.7235 19.8117 53.7824 23.1117C51.0647 27.9646 52.8118 33.9823 57.6647 36.6999C58.0529 36.894 58.2471 37.0882 58.2471 37.6705C58.2471 38.6411 58.2471 39.6117 58.2471 40.5823C58.2471 41.3588 58.8294 41.9411 59.4118 41.9411C60.1882 41.9411 60.7706 41.3588 60.7706 40.5823C60.7706 39.6117 60.7706 38.8352 60.7706 37.8646H64.2647C64.2647 38.0587 64.2647 38.0588 64.2647 38.2529C64.2647 44.4646 64.2647 50.4823 64.2647 56.694C64.2647 58.6352 63.1 60.3823 61.3529 60.9646C61.1588 60.9646 60.9647 60.9646 60.7706 61.1588C60.7706 58.4411 60.7706 55.7235 60.7706 53.0058C60.7706 52.6176 60.7706 52.0352 60.7706 51.647C60.7706 50.8705 60.1882 50.4823 59.4118 50.4823C58.6353 50.4823 58.2471 50.8705 58.0529 51.647C58.0529 52.4235 58.0529 53.394 58.0529 54.1705C58.0529 54.3646 58.0529 54.5588 58.0529 54.947H50.2882C50.2882 54.5588 50.2882 54.1705 50.2882 53.7823C49.9 52.2293 49.1235 51.2588 47.5706 51.0646C46.7941 50.8705 46.7941 50.4823 46.7941 49.8999C46.7941 45.4352 46.7941 41.1646 46.7941 36.6999C46.7941 33.9823 46.4059 31.2646 45.2412 28.7411C45.2412 28.547 45.0471 28.3529 45.2412 28.1587C45.2412 26.994 45.4353 25.8293 45.4353 24.6646C45.4353 23.8882 46.0176 23.3058 46.7941 23.3058C47.1824 23.3058 47.7647 23.3058 48.3471 23.3058C49.3176 23.3058 50.2882 22.9176 51.0647 22.1411C51.8412 21.3646 52.4235 20.7823 53.0059 20.0058C53.9765 18.8411 54.1706 17.4823 53.5882 15.9293C53.0059 14.5705 51.8412 13.794 50.2882 13.5999C49.3176 13.5999 48.3471 13.5999 47.1824 13.5999C46.6 13.5999 46.0176 13.4058 45.6294 12.8235C44.8529 11.6587 43.6882 11.2705 42.3294 11.2705C41.3588 11.2705 40.3882 11.2705 39.4176 11.2705C39.0294 11.2705 38.6412 11.0764 38.4471 10.8823C37.6706 10.1058 36.8941 9.32933 36.1176 8.35875C35.9235 7.97051 35.5353 7.77639 35.1471 7.58228C34.9529 7.58228 34.5647 7.58228 34.3706 7.58228C33.5941 7.97051 33.4 8.55286 33.4 9.32933C33.4 10.8823 33.4 12.6293 33.4 14.1823C33.4 14.3764 33.4 14.7646 33.2059 14.9587C31.6529 19.2293 30.1 23.3058 28.5471 27.5764C28.1588 28.3529 27.7706 29.1293 27.1882 29.7117C24.2765 32.4293 21.3647 34.9529 18.4529 37.4764C16.5118 39.2235 15.1529 41.3588 14.5706 43.8823C14.3765 45.047 14.3765 46.0176 14.1824 47.1823C14.1824 47.1823 13.9882 47.1823 13.7941 47.1823C11.2706 47.1823 9.32941 44.8529 9.71765 42.3293C9.91176 40.7764 10.6882 39.6117 11.4647 38.447C12.0471 37.6705 12.0471 37.0882 11.4647 36.5058C10.8824 35.9235 10.1059 36.1176 9.52353 36.6999C7.97059 38.6411 7 40.7764 7 43.2999C7.19412 46.2117 9.13529 48.7352 11.8529 49.5117C12.6294 49.7058 13.6 49.7058 14.5706 49.8999C15.1529 51.8411 16.3176 53.3941 17.8706 54.947C17.4824 54.947 17.4824 54.947 17.2882 54.947C13.2118 54.947 10.1059 58.0529 10.1059 62.1293C10.1059 63.4882 10.4941 63.8764 11.8529 63.8764C12.8235 63.8764 13.9882 63.8764 14.9588 63.8764C14.7647 66.2058 15.1529 67.9529 16.7059 69.1176C18.0647 70.0882 20.0059 70.2823 21.3647 69.3117C23.3059 68.147 23.6941 66.2058 23.1118 64.0705H49.3176C48.7353 66.0117 49.1235 67.7588 50.8706 69.1176C52.2294 70.0882 53.7824 70.2823 55.3353 69.3117C57.4706 68.147 57.8588 66.2058 57.2765 64.0705C57.8588 64.0705 58.4412 64.0705 59.0235 64.0705C59.6059 64.0705 60.1882 64.0705 60.7706 63.8764C64.2647 63.0999 66.5941 60.1882 66.5941 56.4999C66.5941 50.2882 66.5941 43.8823 66.5941 37.6705C66.5941 37.0882 66.7882 36.894 67.1765 36.6999C69.5059 35.3411 71.0588 33.3999 71.8353 30.8764C72.0294 30.294 72.0294 29.7117 72.2235 29.3235V26.6058C72.0294 25.4411 71.8353 24.2764 71.2529 23.1117ZM32.8176 24.0823C33.2059 23.1117 33.5941 22.1411 33.9824 21.1705C36.7 22.5293 37.0882 26.4117 34.5647 28.1587C33.5941 28.9352 32.8176 29.7117 32.8176 30.8764C32.8176 31.6529 32.2353 32.2352 31.4588 32.2352C30.6824 32.4293 30.1 32.0411 29.7118 31.2646C31.2647 29.1293 31.8471 26.4117 32.8176 24.0823ZM27.7706 33.2058C28.5471 34.1764 29.3235 34.7587 30.4882 34.9529C32.8176 35.3411 35.1471 33.594 35.3412 31.2646C35.3412 31.0705 35.5353 30.6823 35.7294 30.6823C40.1941 27.7705 39.8059 21.3646 34.9529 18.8411C34.9529 18.8411 34.9529 18.8411 34.7588 18.647C35.5353 16.8999 36.3118 14.9587 35.9235 12.8235H36.1176C36.3118 13.2117 36.7 13.4058 36.8941 13.794C37.2824 14.1823 37.6706 14.3764 38.4471 14.3764C39.6118 14.3764 40.9706 14.3764 42.1353 14.3764C42.7176 14.3764 43.3 14.5705 43.4941 14.9587C44.4647 16.1235 45.6294 16.7058 47.1824 16.5117C47.9588 16.5117 48.9294 16.5117 49.7059 16.5117C50.2882 16.5117 50.6765 16.7058 50.8706 17.2882C51.0647 17.8705 51.0647 18.2587 50.6765 18.647C50.0941 19.2293 49.5118 20.0058 48.9294 20.5882C48.5412 20.7823 48.1529 20.9764 47.7647 21.1705C47.1824 21.1705 46.6 21.1705 46.0176 21.1705C44.0765 21.5587 42.7176 23.1117 42.5235 25.0529C42.5235 26.2176 42.3294 27.1882 42.3294 28.3529C42.3294 28.9352 42.3294 29.5176 42.7176 30.0999C42.9118 30.4882 43.1059 31.0705 43.3 31.4588C41.5529 31.4588 40 32.0411 39.0294 33.594C38.2529 34.5646 38.0588 35.7293 38.2529 36.894C38.6412 39.6117 40.9706 41.1646 43.8824 40.7764C43.8824 40.9705 43.8824 41.3588 43.8824 41.5529C43.8824 44.8529 43.8824 48.1529 43.8824 51.4529C43.8824 52.6176 44.0765 53.0058 45.2412 53.394C45.6294 53.5882 46.2118 53.5882 46.6 53.7823C47.3765 53.9764 47.5706 54.3646 47.3765 55.3352C46.0176 55.3352 44.6588 55.3352 43.3 55.3352C41.9412 55.1411 41.3588 54.1705 41.1647 53.0058C40.7765 49.7058 40.5824 46.4058 40.1941 43.1058C40.1941 42.5235 39.8059 42.1352 39.4176 41.9411C38.8353 41.747 38.4471 41.9411 38.0588 42.3293C37.0882 43.494 35.9235 44.6588 34.9529 45.8235C34.7588 46.0176 34.7588 46.2117 34.3706 46.4058C34.3706 46.0176 34.1765 45.6293 34.1765 45.2411C33.2059 41.1646 28.3529 38.8352 24.4706 40.7764C23.6941 41.1646 23.3059 41.9411 23.6941 42.7176C24.0824 43.494 24.6647 43.494 25.6353 43.1058C27.3824 42.3293 29.3235 42.5235 30.6824 43.8823C32.0412 45.2411 32.2353 47.1823 31.2647 48.9293C30.8765 49.7058 30.4882 50.2882 30.1 51.0646C29.5176 52.0352 29.9059 52.8117 30.8765 53.0058C31.4588 53.1999 31.8471 53.1999 32.4294 53.394C33.5941 53.7823 33.5941 53.7823 33.5941 54.947C33.5941 55.1411 33.5941 55.3352 33.5941 55.5293C33.2059 55.5293 32.6235 55.5293 32.2353 55.5293C31.0706 55.5293 29.9059 55.5293 28.7412 55.3352C27.3824 55.1411 26.6059 54.1705 26.6059 53.0058C26.6059 52.8117 26.6059 52.8117 26.6059 52.6176C26.4118 51.647 25.8294 51.0646 25.2471 51.2588C24.4706 51.2588 24.0824 52.0352 24.0824 52.6176C24.2765 53.394 24.4706 54.3646 24.6647 55.1411C23.3059 55.1411 22.1412 54.5588 20.9765 53.7823C25.2471 49.8999 24.2765 43.494 19.2294 40.9705C21.9471 38.447 24.8588 35.7293 27.7706 33.2058ZM44.2706 37.2823C44.4647 38.0588 44.0765 38.2529 43.4941 38.2529C42.7176 38.2529 41.7471 37.8646 41.3588 37.0882C40.9706 36.3117 40.9706 35.3411 41.5529 34.7588C42.1353 33.9823 42.9118 33.7882 43.6882 33.9823C43.8824 33.9823 44.0765 34.3705 44.0765 34.5646C44.0765 35.147 44.0765 35.7293 44.2706 36.3117C44.2706 36.6999 44.2706 37.0882 44.2706 37.2823ZM33.5941 50.6764C35.1471 49.1235 36.5059 47.3764 38.0588 45.8235C38.6412 48.9293 38.4471 52.0352 39.4176 55.1411H36.3118C36.5059 53.1999 35.7294 51.4529 33.5941 50.6764ZM17.8706 43.2999C19.8118 44.0764 20.7824 45.6293 20.9765 47.5705C21.1706 49.3176 20.3941 50.8705 19.0353 51.8411C16.9 49.8999 16.7059 45.8235 17.8706 43.2999ZM19.2294 67.3705C18.2588 67.3705 17.6765 66.5941 17.6765 65.6235C17.6765 64.6529 18.4529 64.0705 19.4235 64.0705C20.3941 64.0705 21.1706 64.847 20.9765 65.8176C20.9765 66.7882 20.0059 67.5646 19.2294 67.3705ZM53.3941 67.3705C52.4235 67.3705 51.8412 66.5941 51.8412 65.6235C51.8412 64.6529 52.6176 64.0705 53.5882 64.0705C54.5588 64.0705 55.3353 64.847 55.1412 65.8176C55.1412 66.594 54.3647 67.3705 53.3941 67.3705ZM58.2471 61.547H13.2118C13.4059 60.3823 13.9882 59.6058 14.7647 59.0235C15.5412 58.247 16.5118 57.8588 17.6765 57.8588C31.0706 57.8588 44.4647 57.8588 58.0529 57.8588C58.0529 57.8588 58.2471 57.8588 58.4412 57.8588V61.547H58.2471ZM63.2941 35.5352C60.5765 35.7293 57.6647 34.1764 56.3059 31.847H68.9235C68.3412 33.3999 65.6235 35.147 63.2941 35.5352ZM69.8941 29.3235H65.0412C64.0706 29.3235 63.4882 28.9352 63.1 27.9646C62.9059 27.3823 62.7118 26.994 62.5176 26.4117C62.1294 25.6352 61.5471 25.247 60.7706 25.6352C59.9941 25.8293 59.8 26.6058 60.1882 27.3823C60.3824 27.9646 60.5765 28.547 60.9647 29.3235H55.5294C55.1412 28.1587 55.3353 27.1882 55.7235 26.2176C56.3059 26.2176 56.8882 26.4117 57.4706 26.2176C57.6647 26.2176 57.8588 25.8293 58.0529 25.6352C58.4412 24.8587 58.0529 24.2764 57.0824 23.694C58.2471 22.1411 59.8 21.3646 61.3529 20.9764C61.7412 21.5587 61.9353 22.1411 62.1294 22.5293C61.9353 22.5293 62.3235 22.5293 62.7118 22.5293C63.4882 22.5293 63.6824 22.1411 64.0706 20.7823C66.0118 21.1705 67.3706 22.1411 68.5353 23.4999C67.3706 24.2764 67.1765 24.8587 67.5647 25.6352C67.9529 26.4117 68.5353 26.4117 69.7 26.0235C69.8941 26.994 70.0882 28.1587 69.8941 29.3235Z" fill="#EA2F9F"/>
<path d="M59.6059 47.5704C60.1882 47.5704 60.7706 46.9881 60.9647 46.4057C60.9647 45.6292 60.3824 45.0469 59.6059 45.0469C58.8294 45.0469 58.2471 45.6292 58.2471 46.4057C58.2471 46.9881 58.8294 47.5704 59.6059 47.5704Z" fill="#EA2F9F"/>
<path d="M42.1352 17.8705C42.9117 17.8705 43.494 17.2881 43.494 16.5117C43.494 15.7352 42.9117 15.1528 42.1352 15.1528C41.3587 15.1528 40.7764 15.7352 40.9705 16.5117C40.9705 17.2881 41.3587 17.6764 42.1352 17.8705Z" fill="#EA2F9F"/>
</svg>
