<svg width="112" height="112" viewBox="0 0 112 112" fill="none" xmlns="http://www.w3.org/2000/svg">
<path d="M60.9192 93.5898C57.9467 90.4437 53.0719 88.4689 49.0292 87.1281C49.3361 83.9618 48.0114 80.0323 44.0979 77.1892C43.0925 76.4841 42.0459 75.8395 40.9639 75.2587C41.1618 77.5163 41.703 79.4508 42.648 80.945C43.7062 82.6291 46.9856 85.658 48.4476 86.9423C45.988 86.1346 43.6819 85.5126 41.0527 84.7413C41.0199 83.6671 40.8489 82.6015 40.5439 81.571C40.301 80.5779 39.9587 79.6119 39.5221 78.6875C38.7246 77.3525 37.7105 76.1597 36.5213 75.1578C35.7145 74.4602 34.872 73.805 33.9971 73.195C33.7629 76.6803 34.4696 80 40.3621 84.5474C37.9025 83.8164 35.5157 83.0653 33.0924 82.1243C33.149 81.2358 32.9147 76.4138 29.9867 72.5165C29.2718 71.5756 28.6216 70.8567 28.2016 70.4003C26.7476 74.9195 29.0255 78.9823 32.4826 81.8779C30.1228 80.9592 27.8483 79.8349 25.6854 78.5179C26.2105 75.9816 25.9964 71.1273 23.6944 66.5395C20.7703 70.788 22.9633 75.7514 25.0635 78.1382C22.9616 76.7938 21.0363 75.1915 19.3325 73.3687L19.2598 73.2879C20.0232 71.6079 21.7517 65.9498 20.1686 61.2045C17.1961 64.1083 16.9376 68.3124 18.3996 71.9269C18.5173 72.2134 18.6522 72.4926 18.8035 72.7629C17.1294 70.853 15.7082 68.7356 14.5749 66.4627C15.8653 64.8265 16.806 62.9427 17.3388 60.9282C17.8717 58.9136 17.9853 56.8111 17.6726 54.7509C13.9853 57.1741 13.3593 62.3838 14.3084 65.8852C13.2006 63.5823 12.2978 61.1862 11.6105 58.7249C15.0152 55.3607 16.5054 51.4272 16.5014 47.9217C13.6218 49.0969 12.075 51.9683 11.5701 54.9569C11.3701 56.0219 11.3293 57.1107 11.449 58.1877C10.7858 55.6868 10.3639 53.1282 10.1889 50.5468C10.985 49.8693 11.7466 49.1522 12.4708 48.3983C13.1452 47.7198 16.0329 45.2522 16.663 40.8098C13.7349 41.4519 11.8165 44.0043 10.8149 46.7828C10.4121 47.8977 10.1939 49.0708 10.1687 50.256C10.096 49.1131 10.0677 47.9904 10.0879 46.908C10.2245 41.2284 11.3819 35.6197 13.5047 30.3499C13.5976 30.1076 13.6824 29.9097 13.743 29.7563C14.0661 29.413 14.5507 28.7385 15.1242 27.9995C15.8552 27.006 16.667 25.8994 17.1113 25.1725C18.4604 22.9392 19.4819 20.5237 20.1443 18C18.0886 19.4983 16.4085 21.0249 15.0919 23.8075C14.5967 24.9093 14.1993 26.0526 13.9045 27.2241C13.6905 28.0177 13.5459 28.8285 13.4724 29.6472C13.4037 29.8047 13.3108 30.0188 13.2058 30.2893C12.6969 31.5373 12.0952 33.2173 11.6105 34.8489C11.6792 34.3683 11.8529 32.9265 12.075 31.3111C12.1961 30.4186 12.3335 29.4736 12.4385 28.6012C12.5432 27.8505 12.5972 27.0936 12.6 26.3356C12.4828 24.4186 12.1453 22.5215 11.5944 20.6816C10.2899 23.1451 9.27212 25.8348 9.61945 28.8395C9.81331 30.5195 10.4555 33.7504 11.5984 34.962C10.8361 37.5251 10.2957 40.1491 9.98293 42.8048C9.40136 34.7277 10.0031 34.4208 7.33354 28.9122C4.83357 36.533 8.52092 42.1748 9.93851 43.1966C9.65199 45.7875 9.60198 48.3991 9.78907 50.9991C7.56778 43.5197 8.28263 43.0391 4.36105 37.8293C3.31502 45.543 7.32546 50.4943 9.82946 51.5928C10.0517 54.1344 10.5073 56.6503 11.1905 59.1085C7.40623 52.3278 8.05243 51.6776 3 47.3442C3.52099 56.0715 9.55887 59.4922 11.4086 59.8637C12.1214 62.2725 13.0402 64.6154 14.1549 66.8666C13.646 66.285 12.9433 65.4571 12.176 64.5525C12.0104 64.3627 11.8488 64.1486 11.6913 63.9629C9.13884 60.8734 8.54919 59.7022 3.52099 57.0973C5.85133 64.8514 11.5984 67.7349 14.579 67.6864C15.7404 69.8749 17.1704 71.9099 18.8358 73.7443L18.65 73.6312C18.3269 73.4333 17.9634 73.195 17.5636 72.9406C17.1638 72.6862 16.7558 72.3954 16.3277 72.0885C12.289 69.2897 12.1477 68.1347 5.97653 66.596C8.80363 71.721 13.0402 75.2708 18.7914 74.6731C18.9408 74.6731 19.0821 74.6328 19.1952 74.6085C19.3083 74.5843 19.4456 74.552 19.5587 74.5156C21.2767 76.25 23.1904 77.7787 25.2614 79.0711C24.8575 78.9621 23.5813 78.6107 22.41 78.2271C17.394 76.5874 17.1274 75.8039 10.5524 75.7514C16.9861 82.7664 24.0901 81.147 26.267 79.6769C28.3378 80.8758 30.4982 81.9128 32.729 82.7785C24.4011 82.2939 24.1144 81.4943 17.7615 83.6266C26.2428 88.5416 32.9309 84.2122 33.9163 83.2228C36.1215 84.0305 38.3589 84.7494 40.5923 85.4319C38.9122 85.5046 33.46 85.7671 31.8404 86.2396C30.0957 86.7686 28.2944 87.7863 26.3801 89.1393C27.7692 89.5654 29.1983 89.8482 30.645 89.9833C35.7539 90.3872 40.9437 86.9342 41.9049 85.8115C43.9243 86.4132 46.3233 87.1159 48.484 87.8308C39.833 88.1216 37.8581 89.8501 35.0552 92.8022C36.3914 93.0058 37.7429 93.0909 39.094 93.0567C43.4113 92.8911 48.8596 89.3856 49.8571 88.3033C56.5291 90.678 59.1462 92.9153 61.1292 95.2577C61.0885 94.6984 61.0184 94.1417 60.9192 93.5898Z" fill="#9C9FAF"/>
<path d="M10.4352 42.2314C15.7865 39.1338 17.4706 36.1089 18.1491 33.6333C14.1225 33.9039 11.1137 38.213 10.4352 42.2314Z" fill="#9C9FAF"/>
<path d="M15.6937 28.6618C15.0379 29.2404 14.4535 29.8952 13.9531 30.6124C13.2223 31.6924 12.6409 32.8661 12.2245 34.1018C12.592 33.9281 16.8609 31.7311 17.7616 30.9234C19.0396 29.7003 20.0766 28.2482 20.8189 26.6425C18.8601 26.481 17.1759 27.3452 15.6937 28.6618Z" fill="#9C9FAF"/>
<path d="M51.0849 93.5898C54.0534 90.4437 58.9322 88.4689 62.9709 87.1281C62.668 83.9618 63.9886 80.0323 67.9021 77.1892C68.9144 76.4802 69.9677 75.8315 71.0564 75.2466C70.8585 77.5042 70.3173 79.4386 69.3763 80.9329C68.3181 82.617 65.0387 85.6459 63.5767 86.9302C66.0322 86.1225 68.3424 85.5005 70.9716 84.7292C71.0044 83.6549 71.1754 82.5894 71.4804 81.5589C71.7233 80.5658 72.0656 79.5998 72.5022 78.6754C73.2861 77.3425 74.2866 76.1496 75.4626 75.1456C76.2702 74.449 77.1127 73.7939 77.9868 73.1829C78.221 76.6682 77.5143 79.9879 71.6218 84.5353C74.0854 83.8043 76.4682 83.0531 78.8915 82.1122C78.8349 81.2237 79.0732 76.4016 81.9972 72.5044C82.7121 71.5634 83.3664 70.8446 83.7864 70.3882C85.2686 74.8953 82.9786 78.9379 79.5538 81.8537C81.9136 80.935 84.1881 79.8106 86.351 78.4936C85.83 75.9574 86.044 71.103 88.3461 66.5152C91.254 70.7638 89.0569 75.7151 86.9527 78.114C89.0454 76.7764 90.9625 75.1822 92.6594 73.3687L92.7321 73.2879C91.9769 71.6079 90.2362 65.9498 91.8517 61.2126C94.8242 64.1163 95.0827 68.3205 93.6166 71.935C93.4989 72.2215 93.364 72.5007 93.2127 72.771C94.8832 70.8588 96.2991 68.7385 97.4251 66.4627C96.1348 64.8265 95.1941 62.9427 94.6612 60.9282C94.1284 58.9136 94.0148 56.8111 94.3274 54.7509C98.0148 57.174 98.6448 62.3596 97.7119 65.861C98.8167 63.5572 99.718 61.1613 100.406 58.7006C97.001 55.3365 95.5148 51.4029 95.5148 47.8975C98.3783 49.0727 99.9251 51.936 100.434 54.9326C100.633 55.9979 100.672 57.0867 100.551 58.1635C101.215 55.6667 101.638 53.1121 101.815 50.5347C101.29 50.1308 100.406 49.2544 99.5293 48.3861C98.8589 47.7077 95.9712 45.2401 95.3371 40.7977C98.2692 41.4398 100.184 43.9922 101.189 46.7707C101.588 47.8864 101.805 49.0592 101.831 50.2439C101.904 49.101 101.936 47.9782 101.912 46.8959C101.776 41.2163 100.618 35.6076 98.4954 30.3378C98.4025 30.0955 98.3217 29.8976 98.2571 29.7441C97.938 29.4009 97.4291 28.7264 96.8799 27.9874C96.1448 26.9939 95.3371 25.8873 94.8928 25.1604C93.5402 22.9322 92.5159 20.5206 91.8517 18C93.9034 19.4983 95.5835 21.0249 96.9001 23.8075C97.3915 24.9092 97.7835 26.0526 98.0713 27.2241C98.2862 28.0177 98.4322 28.8284 98.5075 29.6472C98.5721 29.8047 98.665 30.0188 98.77 30.2893C99.2789 31.5373 99.8806 33.2173 100.365 34.8489C100.297 34.3683 100.127 32.9265 99.9008 31.3111C99.7797 30.4186 99.6464 29.4736 99.5414 28.6012C99.4335 27.8508 99.3782 27.0937 99.3758 26.3356C99.4931 24.4186 99.8305 22.5215 100.381 20.6816C101.686 23.1451 102.704 25.8348 102.36 28.8395C102.187 30.5195 101.545 33.7504 100.406 34.962C101.164 37.5261 101.705 40.1497 102.021 42.8048C102.603 34.7277 102.021 34.4208 104.667 28.9122C107.171 36.533 103.479 42.1748 102.062 43.1966C102.351 45.7872 102.403 48.399 102.215 50.9991C104.436 43.5197 103.721 43.0391 107.643 37.8293C108.689 45.543 104.675 50.4943 102.171 51.5928C101.95 54.1343 101.495 56.6502 100.814 59.1085C104.598 52.3278 103.968 51.6776 109 47.3442C108.483 56.0715 102.441 59.4922 100.595 59.8637C99.8803 62.2678 98.9615 64.6065 97.8492 66.8545C98.3581 66.2729 99.0608 65.445 99.8241 64.5404C99.9897 64.3506 100.151 64.1365 100.313 63.9508C102.865 60.8613 103.455 59.6901 108.479 57.0852C106.149 64.8392 100.402 67.7228 97.4251 67.6743C96.2622 69.8629 94.8309 71.8979 93.1643 73.7321L93.3541 73.6191C93.6772 73.4212 94.0366 73.1829 94.4365 72.9285C94.8363 72.674 95.2442 72.3833 95.6764 72.0763C99.7151 69.2776 99.8524 68.1226 106.024 66.5839C103.196 71.7088 98.9598 75.2587 93.2087 74.661C93.0593 74.661 92.9179 74.6206 92.7846 74.5964C92.6514 74.5722 92.5383 74.5399 92.4252 74.5035C90.7068 76.239 88.7916 77.7678 86.7185 79.059C87.1224 78.95 88.3986 78.5986 89.5739 78.215C94.5859 76.5753 94.8525 75.7918 101.427 75.7393C94.9938 82.7543 87.8897 81.1348 85.7129 79.6648C83.6417 80.8631 81.4814 81.9001 79.2509 82.7664C87.5747 82.2818 87.8614 81.4821 94.2184 83.6145C85.7371 88.5294 79.049 84.2001 78.0635 83.2107C75.8584 84.0184 73.621 84.7372 71.3835 85.4197C73.0636 85.4924 78.5199 85.7549 80.1394 86.2275C81.8842 86.7565 83.6814 87.7742 85.5998 89.1271C84.2092 89.5528 82.7788 89.8356 81.3308 89.9712C76.2219 90.3751 71.0362 86.9221 70.075 85.7994C68.0556 86.4011 65.6566 87.1038 63.4959 87.8187C72.1428 88.1094 74.1217 89.8379 76.9246 92.7901C75.5885 92.9933 74.237 93.0785 72.8859 93.0446C68.5726 92.879 63.1203 89.3735 62.1268 88.2912C55.4548 90.6658 52.8377 92.9032 50.8547 95.2456C50.9006 94.6898 50.9775 94.137 51.0849 93.5898Z" fill="#9C9FAF"/>
<path d="M101.569 42.2315C96.2133 39.138 94.5292 36.1131 93.8708 33.6375C97.8813 33.904 100.886 38.2131 101.569 42.2315Z" fill="#9C9FAF"/>
<path d="M96.2942 28.6619C96.9511 29.2394 97.5356 29.8944 98.0349 30.6125C98.7672 31.6915 99.3487 32.8655 99.7634 34.1018C99.4 33.9281 95.127 31.7312 94.2304 30.9275C92.9524 29.7035 91.9142 28.2517 91.1691 26.6466C93.144 26.481 94.8281 27.3453 96.2942 28.6619Z" fill="#9C9FAF"/>
<path d="M40.4428 64.9524C40.4582 64.955 40.4729 64.9606 40.4861 64.9689C40.4992 64.9772 40.5106 64.9881 40.5195 65.0009C40.5296 65.0254 40.5296 65.053 40.5195 65.0776C40.5162 65.1062 40.5017 65.1323 40.4792 65.1503C40.4654 65.1623 40.4494 65.1714 40.432 65.1769C40.4146 65.1825 40.3963 65.1844 40.3782 65.1826H35.9356C35.9061 65.1837 35.8772 65.1736 35.8548 65.1543C35.8355 65.137 35.8215 65.1146 35.8144 65.0897C35.8084 65.0778 35.8053 65.0647 35.8053 65.0513C35.8053 65.038 35.8084 65.0249 35.8144 65.013C35.84 64.9844 35.8739 64.9646 35.9114 64.9564L36.1618 64.8797C36.2876 64.8388 36.4052 64.7759 36.5091 64.6939C36.6219 64.5999 36.7094 64.4791 36.7635 64.3426C36.8297 64.1627 36.8297 63.9651 36.7635 63.7853C36.7393 63.7247 36.707 63.6318 36.6666 63.5106C36.6262 63.3895 36.5858 63.2522 36.5374 63.1068C36.4889 62.9614 36.4404 62.8039 36.3879 62.6464C36.3354 62.4889 36.2829 62.3435 36.2425 62.2102L36.1295 61.8669C36.0971 61.7741 36.077 61.7175 36.0729 61.6973C36.0685 61.6802 36.0586 61.665 36.0448 61.6541C36.0309 61.6432 36.0138 61.6371 35.9962 61.6367H32.9712C32.9526 61.6342 32.9337 61.6385 32.918 61.6489C32.9024 61.6593 32.8911 61.6751 32.8864 61.6933C32.8864 61.7498 32.8379 61.8427 32.7975 61.9719C32.7571 62.1012 32.7127 62.2546 32.6602 62.4162C32.6077 62.5777 32.5552 62.7554 32.5027 62.9372C32.4502 63.1189 32.3977 63.2845 32.3492 63.442C32.3008 63.5995 32.2604 63.7328 32.224 63.8458C32.1877 63.9589 32.1715 64.0356 32.1675 64.068C32.1245 64.2076 32.1331 64.3581 32.1917 64.492C32.2406 64.5969 32.3175 64.6864 32.4138 64.7505C32.5067 64.8124 32.609 64.8587 32.7167 64.8878L32.9833 64.9564C33.0003 64.9589 33.0166 64.9648 33.0312 64.9739C33.0458 64.9829 33.0583 64.9948 33.0681 65.0089C33.0777 65.035 33.0777 65.0636 33.0681 65.0897C33.0654 65.1029 33.0601 65.1154 33.0524 65.1265C33.0448 65.1376 33.035 65.1471 33.0237 65.1543C32.9999 65.1739 32.9697 65.1839 32.9389 65.1826H30.346C30.3139 65.185 30.282 65.1748 30.2572 65.1543C30.2387 65.1387 30.2259 65.1174 30.2208 65.0938C30.2219 65.0665 30.2303 65.04 30.2451 65.017C30.2542 65.0032 30.2661 64.9914 30.28 64.9824C30.2939 64.9734 30.3095 64.9673 30.3258 64.9645C30.4482 64.932 30.5682 64.8916 30.6853 64.8434C30.8016 64.7987 30.9116 64.7389 31.0124 64.6657C31.1165 64.5907 31.209 64.5009 31.287 64.3991C31.376 64.2885 31.4469 64.1644 31.4971 64.0316C31.5253 63.963 31.5859 63.7933 31.6788 63.5308C31.7717 63.2683 31.8888 62.9372 32.0261 62.5495C32.1634 62.1618 32.3129 61.7417 32.4785 61.2612L32.9752 59.8315C33.1408 59.3509 33.3024 58.8784 33.4639 58.422C33.6255 57.9657 33.7668 57.5538 33.8678 57.2105C33.9687 56.8672 34.0899 56.5643 34.1666 56.3422C34.2434 56.1201 34.2878 56.0029 34.2918 55.9908C34.3046 55.9455 34.3281 55.9039 34.3605 55.8697C34.3979 55.8306 34.448 55.8063 34.5019 55.801L34.8613 55.7243L35.2652 55.6193L35.7135 55.4941C35.8509 55.4538 35.9858 55.4053 36.1173 55.3487C36.1692 55.3167 36.2317 55.3065 36.291 55.3204C36.3326 55.347 36.3639 55.3869 36.3799 55.4335L36.497 55.7849C36.5697 56.007 36.6626 56.2978 36.7837 56.6491C36.9049 57.0005 37.0382 57.4124 37.1876 57.8607C37.337 58.309 37.4945 58.7855 37.6561 59.2701C37.8176 59.7548 37.9792 60.2354 38.1367 60.7159C38.2942 61.1965 38.4436 61.6367 38.581 62.0366C38.7183 62.4364 38.8273 62.7797 38.9202 63.0704L39.1181 63.6601C39.1812 63.8441 39.2652 64.0202 39.3685 64.1851C39.4586 64.3245 39.5657 64.452 39.6876 64.5647C39.795 64.6665 39.9176 64.751 40.051 64.8151C40.1747 64.8786 40.3065 64.9248 40.4428 64.9524ZM33.0843 61.0835C33.06 61.144 33.0843 61.1763 33.1408 61.1763H35.8266C35.8831 61.1763 35.9033 61.1481 35.8831 61.0915C35.8629 61.035 35.8589 61.0067 35.8185 60.8856C35.7781 60.7644 35.7256 60.5988 35.6569 60.405L35.4388 59.7427C35.3581 59.5003 35.2773 59.25 35.1925 58.9996L34.9461 58.2605C34.8653 58.0182 34.7926 57.8001 34.7321 57.6103L34.5746 57.1499C34.5342 57.0328 34.514 56.9682 34.514 56.9641C34.5131 56.9573 34.5107 56.9507 34.5071 56.9449C34.5034 56.939 34.4986 56.9341 34.4928 56.9302C34.4871 56.9264 34.4806 56.9239 34.4738 56.9227C34.467 56.9216 34.46 56.922 34.4534 56.9237C34.4401 56.925 34.4276 56.9303 34.4174 56.939C34.4073 56.9477 34.4001 56.9593 34.3969 56.9722C34.3969 56.9722 34.3645 57.0691 34.312 57.2307L34.098 57.8486C34.0172 58.103 33.9284 58.3817 33.8274 58.6886C33.7264 58.9955 33.6335 59.3025 33.5366 59.6013C33.4397 59.9002 33.3508 60.1869 33.27 60.4494C33.1893 60.7119 33.1368 60.926 33.0843 61.0835Z" fill="#9C9FAF"/>
<path d="M52.9062 55.6676C52.9209 55.6667 52.9356 55.6687 52.9495 55.6735C52.9634 55.6784 52.9761 55.686 52.987 55.6959C52.9979 55.7032 53.0072 55.7128 53.0141 55.7239C53.0211 55.735 53.0256 55.7475 53.0274 55.7605C53.0371 55.7852 53.0371 55.8126 53.0274 55.8373C53.0078 55.8633 52.9788 55.8807 52.9466 55.8857C52.7056 55.9459 52.4772 56.0484 52.2722 56.1886C52.0543 56.3469 51.8861 56.564 51.7875 56.8146C51.7229 56.9681 51.634 57.1821 51.525 57.4648C51.416 57.7475 51.2867 58.0706 51.1211 58.4381L50.6647 59.6497C50.5032 60.0778 50.3336 60.518 50.168 60.9622C50.0024 61.4064 49.8287 61.8466 49.6672 62.2828C49.5056 62.719 49.3481 63.1309 49.2027 63.5186C49.0573 63.9063 48.9281 64.2536 48.7989 64.5646C48.6696 64.8756 48.5889 65.13 48.5162 65.3158C48.5081 65.3401 48.4938 65.3619 48.4747 65.3789C48.4555 65.3959 48.4322 65.4076 48.4071 65.4127C48.3586 65.4127 48.3223 65.3885 48.2981 65.3238C48.2738 65.2592 48.2052 65.0452 48.1244 64.8311L47.8578 64.08C47.7569 63.8013 47.6478 63.4984 47.5347 63.1753C47.4217 62.8522 47.3045 62.5332 47.1915 62.2142C47.0784 61.8951 46.9693 61.5841 46.8603 61.2853C46.7512 60.9864 46.6543 60.7199 46.5735 60.4776C46.4928 60.2353 46.4241 60.0737 46.3676 59.9162C46.311 59.7587 46.2868 59.6901 46.2827 59.6739C46.2787 59.6577 46.2383 59.6214 46.2101 59.6254C46.1818 59.6295 46.1575 59.6537 46.1414 59.6941L45.7375 60.7805C45.6002 61.148 45.4629 61.5155 45.3337 61.8749C45.2044 62.2343 45.0671 62.5897 44.9298 62.9371C44.7925 63.2844 44.6794 63.6034 44.5663 63.9023C44.4532 64.2011 44.3563 64.4677 44.2634 64.71C44.1705 64.9523 44.0978 65.1502 44.0413 65.3037C44.0332 65.328 44.0189 65.3498 43.9998 65.3668C43.9806 65.3838 43.9573 65.3955 43.9322 65.4006C43.8838 65.4006 43.8474 65.3764 43.8232 65.3117L43.5809 64.6211L43.2376 63.6357C43.1083 63.2723 42.971 62.8805 42.8337 62.4686C42.6964 62.0567 42.5227 61.6164 42.3692 61.2126C42.2158 60.8087 42.0663 60.3685 41.9169 59.9566L41.4888 58.7895C41.3555 58.4341 41.2344 58.115 41.1213 57.8364C41.0082 57.5577 40.9193 57.3356 40.8426 57.174C40.7028 56.8417 40.5014 56.5389 40.2489 56.2815C40.0497 56.0787 39.7957 55.9383 39.5179 55.8777C39.5024 55.8772 39.4873 55.8729 39.4739 55.8652C39.4605 55.8574 39.4492 55.8464 39.4412 55.8332C39.4312 55.8072 39.4312 55.7785 39.4412 55.7525C39.4463 55.7235 39.4622 55.6976 39.4856 55.6798C39.4986 55.6679 39.5139 55.6588 39.5306 55.6533C39.5473 55.6477 39.565 55.6457 39.5825 55.6475H48.5C48.5147 55.6465 48.5294 55.6485 48.5433 55.6533C48.5572 55.6582 48.5699 55.6658 48.5808 55.6757C48.6012 55.6928 48.6166 55.7151 48.6252 55.7403C48.6349 55.765 48.6349 55.7924 48.6252 55.8171C48.6007 55.845 48.5683 55.8647 48.5323 55.8736L48.3869 55.914C48.3151 55.9359 48.2449 55.9629 48.1769 55.9948C48.0986 56.034 48.023 56.0786 47.9507 56.128C47.8756 56.1852 47.8125 56.2565 47.765 56.338C47.7141 56.4307 47.6813 56.5321 47.668 56.6369C47.6521 56.7726 47.6645 56.9101 47.7044 57.0408C47.7528 57.2225 47.8175 57.4446 47.9063 57.699C47.9952 57.9535 48.0881 58.2281 48.1931 58.5068C48.2981 58.7854 48.4031 59.0964 48.5121 59.3993C48.6212 59.7022 48.7302 59.9929 48.8352 60.2635C48.9402 60.5341 49.0331 60.7845 49.1179 61.0066C49.2027 61.2287 49.2674 61.4105 49.3118 61.5276C49.3118 61.572 49.3562 61.5922 49.3885 61.5882C49.404 61.5855 49.4184 61.5783 49.4299 61.5675C49.4414 61.5568 49.4494 61.5429 49.4531 61.5276C49.5016 61.3984 49.5703 61.2126 49.6551 60.9703C49.7399 60.728 49.8409 60.4614 49.9459 60.1626L50.2811 59.2256L50.6203 58.2644C50.7253 57.9535 50.8263 57.6667 50.9111 57.3962C50.9959 57.1256 51.0686 56.9075 51.1211 56.7338C51.1676 56.6032 51.1676 56.4606 51.1211 56.33C51.0722 56.225 50.9954 56.1356 50.899 56.0715C50.8027 56.0079 50.6961 55.9614 50.584 55.9342L50.3093 55.8655C50.2758 55.8586 50.2457 55.84 50.2245 55.813C50.2146 55.787 50.2146 55.7583 50.2245 55.7323C50.2284 55.707 50.2413 55.684 50.2609 55.6676C50.2857 55.6471 50.3176 55.637 50.3497 55.6394L52.9062 55.6676ZM44.9338 61.5639C44.9621 61.4832 45.0065 61.3701 45.059 61.2247C45.1115 61.0793 45.1721 60.9137 45.2408 60.732L45.4427 60.1585C45.5154 59.9566 45.576 59.7547 45.6325 59.581C45.6891 59.4074 45.7375 59.2337 45.7698 59.0843C45.8015 58.971 45.8205 58.8545 45.8264 58.737C45.8232 58.6006 45.8042 58.4651 45.7698 58.3331C45.7301 58.1854 45.6829 58.0399 45.6285 57.8969C45.576 57.7556 45.5194 57.6223 45.4629 57.4931C45.4063 57.3638 45.3619 57.271 45.3296 57.1902C45.2545 57.0194 45.164 56.8558 45.059 56.7015C44.9684 56.571 44.8596 56.454 44.7359 56.3542C44.6148 56.2636 44.4778 56.1965 44.332 56.1563C44.1678 56.1104 43.9977 56.0887 43.8272 56.0917C43.727 56.092 43.6275 56.1084 43.5324 56.1402C43.4371 56.1706 43.3519 56.2264 43.286 56.3017C43.2134 56.3882 43.1659 56.493 43.1487 56.6046C43.1224 56.7614 43.1349 56.9222 43.1851 57.0731C43.2335 57.2548 43.2981 57.4769 43.383 57.7314C43.4678 57.9858 43.5607 58.2604 43.6657 58.5391C43.7707 58.8177 43.8757 59.1287 43.9888 59.4316C44.1018 59.7345 44.2109 60.0253 44.3159 60.2958C44.4209 60.5664 44.5138 60.8168 44.5986 61.0389C44.6834 61.2611 44.748 61.4428 44.7925 61.5599C44.7925 61.6043 44.8369 61.6245 44.8692 61.6205C44.8842 61.6181 44.8982 61.6115 44.9096 61.6015C44.9211 61.5915 44.9295 61.5785 44.9338 61.5639Z" fill="#9C9FAF"/>
<path d="M61.9168 64.9524C61.9323 64.9545 61.9472 64.9599 61.9605 64.9682C61.9737 64.9766 61.985 64.9877 61.9935 65.0008C62.0032 65.0255 62.0032 65.0529 61.9935 65.0776C61.9884 65.1065 61.9725 65.1325 61.9491 65.1503C61.936 65.162 61.9206 65.1708 61.904 65.1764C61.8873 65.182 61.8697 65.1841 61.8522 65.1826H57.4096C57.3949 65.1835 57.3802 65.1815 57.3663 65.1767C57.3524 65.1718 57.3397 65.1642 57.3288 65.1543C57.307 65.1385 57.2913 65.1157 57.2844 65.0897C57.2747 65.065 57.2747 65.0376 57.2844 65.013C57.3089 64.9851 57.3413 64.9653 57.3773 64.9564L57.6277 64.8797C57.7539 64.8397 57.8717 64.7767 57.975 64.6939C58.089 64.6001 58.1779 64.4793 58.2335 64.3425C58.2919 64.1598 58.2833 63.9622 58.2093 63.7852L58.1164 63.5106C58.076 63.3894 58.0316 63.2521 57.9871 63.1067L57.8337 62.6464L57.6883 62.2102C57.6479 62.0769 57.6075 61.9638 57.5752 61.8669C57.5429 61.77 57.5227 61.7175 57.5187 61.6973C57.5149 61.6798 57.5052 61.6643 57.4912 61.6532C57.4772 61.6421 57.4598 61.6363 57.4419 61.6367H54.4008C54.3823 61.635 54.3638 61.6396 54.3483 61.6499C54.3329 61.6602 54.3214 61.6755 54.316 61.6933C54.316 61.7498 54.2675 61.8427 54.2271 61.9719C54.1867 62.1011 54.1423 62.2546 54.0898 62.4162C54.0373 62.5777 53.9848 62.7554 53.9323 62.9371C53.8798 63.1189 53.8273 63.2844 53.7788 63.4419C53.7303 63.5995 53.694 63.7327 53.6576 63.8458C53.6328 63.9185 53.6126 63.9927 53.5971 64.0679C53.5576 64.193 53.5603 64.3275 53.6048 64.4508C53.6493 64.5742 53.7332 64.6795 53.8434 64.7504C53.9363 64.8123 54.0386 64.8587 54.1463 64.8878L54.4169 64.9564C54.4505 64.9634 54.4805 64.982 54.5017 65.0089C54.5096 65.0353 54.5096 65.0633 54.5017 65.0897C54.4965 65.1154 54.4821 65.1383 54.4613 65.1543C54.4375 65.1738 54.4073 65.1839 54.3765 65.1826H51.7635C51.7314 65.1845 51.6997 65.1745 51.6746 65.1543C51.6653 65.147 51.6576 65.1379 51.6521 65.1274C51.6465 65.117 51.6432 65.1055 51.6423 65.0937C51.6337 65.0689 51.6337 65.0418 51.6423 65.017C51.6615 64.9897 51.6904 64.9709 51.7231 64.9645C51.8454 64.932 51.9655 64.8915 52.0825 64.8433C52.1989 64.7987 52.3089 64.7389 52.4097 64.6656C52.6308 64.5073 52.7995 64.2865 52.8943 64.0316C52.9226 63.9629 52.9832 63.7933 53.0761 63.5308C53.169 63.2683 53.2861 62.9371 53.4234 62.5494L53.8757 61.2611C54.04 60.7927 54.2056 60.3161 54.3725 59.8315L54.8612 58.422C55.0227 57.9616 55.1641 57.5578 55.2852 57.2104C55.4064 56.851 55.5074 56.5643 55.5841 56.3422C55.6608 56.12 55.7053 56.0029 55.7093 55.9908C55.7249 55.9458 55.7496 55.9046 55.782 55.8696C55.819 55.8367 55.8659 55.8168 55.9153 55.8131L56.2747 55.7364L56.6786 55.6314L57.1027 55.5062C57.2401 55.4659 57.375 55.4173 57.5065 55.3608C57.5584 55.3287 57.6209 55.3186 57.6802 55.3325C57.7217 55.3591 57.7531 55.3989 57.7691 55.4456C57.7691 55.4456 57.8135 55.5789 57.8862 55.797C57.9589 56.015 58.0558 56.3099 58.177 56.6612C58.2981 57.0126 58.4314 57.4245 58.5808 57.8728C58.7303 58.3211 58.8878 58.7976 59.0493 59.2822L59.534 60.728C59.6915 61.2086 59.8409 61.6488 59.9742 62.0486L60.3175 63.0825C60.4104 63.3693 60.475 63.5671 60.5154 63.6721C60.5767 63.8569 60.6609 64.0332 60.7658 64.1972C60.8545 64.3364 60.9603 64.4639 61.0808 64.5768C61.1897 64.6768 61.312 64.7611 61.4443 64.8272C61.5943 64.8934 61.7537 64.9356 61.9168 64.9524ZM54.5583 61.0834C54.534 61.144 54.5583 61.1763 54.6148 61.1763H57.3046C57.3611 61.1763 57.3773 61.148 57.3611 61.0915C57.345 61.035 57.3329 61.0067 57.2925 60.8855L57.1188 60.405C57.0502 60.2071 56.9775 60.0011 56.9007 59.7426L56.6503 58.9995C56.5655 58.7491 56.4847 58.5028 56.404 58.2605C56.3232 58.0182 56.2545 57.8001 56.1899 57.6103C56.1253 57.4205 56.0728 57.267 56.0364 57.1499C56.0001 57.0328 55.9759 56.9681 55.9759 56.9641C55.9729 56.9508 55.965 56.9392 55.9537 56.9317C55.9424 56.9242 55.9286 56.9213 55.9153 56.9237C55.9013 56.9241 55.8878 56.9291 55.8769 56.9378C55.866 56.9466 55.8582 56.9586 55.8547 56.9722C55.8547 56.9722 55.8224 57.0691 55.7699 57.2306L55.572 57.8485L55.3054 58.6886L55.0106 59.6013C54.9137 59.9055 54.8248 60.1882 54.7441 60.4494C54.6956 60.7119 54.6108 60.9259 54.5583 61.0834Z" fill="#9C9FAF"/>
<path d="M70.8503 64.286C70.9008 64.2656 70.9573 64.2656 71.0078 64.286C71.0603 64.3103 71.0724 64.3708 71.0482 64.4597C71.0139 64.579 70.9516 64.6884 70.8664 64.7787C70.7669 64.8931 70.6513 64.9924 70.5231 65.0735C70.3749 65.1665 70.2145 65.2385 70.0466 65.2876C69.859 65.3423 69.6644 65.3695 69.469 65.3684C69.2929 65.3682 69.1172 65.352 68.944 65.3199C68.7711 65.2878 68.6037 65.2307 68.4472 65.1503C68.1129 64.976 67.85 64.6903 67.7041 64.3426C67.6231 64.1564 67.5647 63.9611 67.5305 63.761C67.4856 63.5125 67.4546 63.2618 67.4376 63.0098C67.4078 62.5721 67.3375 62.1382 67.2276 61.7135C67.1629 61.4574 67.055 61.2143 66.9085 60.9946C66.8156 60.8549 66.6815 60.7476 66.5248 60.6877C66.3939 60.6476 66.2578 60.6272 66.1209 60.6271C66.0033 60.6142 65.8851 60.6459 65.7898 60.7159C65.7205 60.807 65.6887 60.9212 65.7009 61.035V63.862C65.6915 64.0508 65.7393 64.238 65.8382 64.3991C65.9254 64.5282 66.0382 64.6382 66.1694 64.7222C66.2815 64.7981 66.4058 64.8541 66.5369 64.8878C66.6621 64.9201 66.751 64.9403 66.8075 64.9483C66.8429 64.9566 66.8751 64.9748 66.9004 65.0008C66.9112 65.0093 66.9195 65.0205 66.9245 65.0333C66.9295 65.0461 66.9309 65.06 66.9287 65.0735C66.9282 65.087 66.9247 65.1002 66.9184 65.1121C66.9121 65.1239 66.9032 65.1343 66.8923 65.1422C66.8779 65.1543 66.8611 65.1634 66.8431 65.169C66.8251 65.1745 66.8061 65.1764 66.7873 65.1745H62.2761C62.2573 65.1766 62.2383 65.1749 62.2202 65.1693C62.2022 65.1637 62.1854 65.1545 62.1711 65.1422C62.1497 65.125 62.1354 65.1006 62.1307 65.0735C62.1301 65.0601 62.1323 65.0467 62.1372 65.0342C62.1421 65.0217 62.1495 65.0103 62.159 65.0008C62.1852 64.9739 62.219 64.9556 62.2559 64.9483C62.3458 64.9329 62.4347 64.9126 62.5225 64.8878C62.6548 64.8539 62.7804 64.7979 62.894 64.7222C63.0249 64.6392 63.1365 64.529 63.2212 64.3991C63.3215 64.2385 63.3708 64.0512 63.3625 63.862V56.9722C63.3702 56.7843 63.3209 56.5985 63.2212 56.4391C63.1365 56.3092 63.0249 56.199 62.894 56.116C62.7796 56.0417 62.6542 55.9858 62.5225 55.9504C62.4013 55.9181 62.3124 55.8939 62.2559 55.8858C62.2376 55.8852 62.2196 55.881 62.2029 55.8734C62.1863 55.8658 62.1714 55.8549 62.159 55.8414C62.1407 55.8185 62.1307 55.79 62.1307 55.7606C62.1354 55.7336 62.1497 55.7092 62.1711 55.692C62.2009 55.6686 62.2383 55.6571 62.2761 55.6597H66.6217H67.4295C67.6839 55.6639 67.9377 55.6869 68.1888 55.7283C68.4371 55.7718 68.6797 55.8436 68.9117 55.9424C69.1518 56.0488 69.3738 56.1918 69.57 56.3664C69.7454 56.523 69.8905 56.7106 69.9981 56.9197C70.2226 57.3476 70.314 57.8328 70.2606 58.313C70.1869 58.9227 69.8819 59.4807 69.4085 59.8719C69.1127 60.0867 68.7801 60.2454 68.4271 60.3403C68.3907 60.3403 68.3705 60.3646 68.3665 60.3848C68.3624 60.405 68.3665 60.4171 68.4069 60.4252L68.6048 60.4736C68.7147 60.5022 68.8215 60.5414 68.9238 60.5907C69.0504 60.6485 69.1686 60.7233 69.2752 60.8129C69.3963 60.9088 69.4966 61.0283 69.57 61.1642C69.68 61.3688 69.7512 61.592 69.78 61.8225C69.8215 62.1021 69.8458 62.384 69.8527 62.6666C69.8729 62.9896 69.8931 63.2602 69.9133 63.4743C69.9242 63.6479 69.9638 63.8184 70.0304 63.9791C70.0638 64.0671 70.1212 64.1441 70.196 64.2012C70.2601 64.2485 70.3328 64.2828 70.4101 64.3022C70.485 64.3142 70.5613 64.3142 70.6362 64.3022C70.708 64.3082 70.7802 64.3027 70.8503 64.286ZM65.8705 60.2232H66.2744C66.425 60.2124 66.5739 60.1853 66.7187 60.1425C66.8731 60.0943 67.0189 60.022 67.1508 59.9284C67.2996 59.8203 67.4247 59.6828 67.5183 59.5246C67.6353 59.3161 67.721 59.0916 67.7728 58.8582C67.8396 58.5327 67.8707 58.201 67.8657 57.8687C67.8716 57.5841 67.8458 57.2996 67.7889 57.0206C67.7511 56.8249 67.6756 56.6384 67.5668 56.4714C67.4807 56.3377 67.3571 56.2323 67.2114 56.1685C67.0631 56.1066 66.9036 56.0764 66.7429 56.0797C66.6064 56.0802 66.4705 56.0992 66.339 56.1362C66.2147 56.1733 66.1011 56.2398 66.0079 56.3301C65.915 56.4273 65.8435 56.5428 65.7979 56.6693C65.7456 56.8309 65.721 57.0002 65.7252 57.1701V60.0859C65.6928 60.1707 65.7454 60.2232 65.8544 60.2232H65.8705Z" fill="#9C9FAF"/>
<path d="M76.9286 55.6597C77.6408 55.6423 78.3493 55.7673 79.0126 56.0272C79.5655 56.247 80.0612 56.5894 80.4625 57.0287C80.8502 57.4594 81.1396 57.9693 81.3106 58.523C81.4967 59.1218 81.5893 59.7457 81.5852 60.3727C81.5898 61.0102 81.4916 61.6443 81.2944 62.2506C81.107 62.8154 80.8044 63.3352 80.4059 63.7772C79.9949 64.225 79.4902 64.5766 78.9277 64.807C78.2582 65.0705 77.5429 65.1982 76.8236 65.1826H71.8923C71.8735 65.1847 71.8545 65.183 71.8364 65.1774C71.8184 65.1718 71.8016 65.1626 71.7873 65.1503C71.766 65.1331 71.7516 65.1087 71.7469 65.0816C71.7463 65.0682 71.7486 65.0548 71.7534 65.0423C71.7583 65.0298 71.7657 65.0184 71.7752 65.0089C71.8014 64.982 71.8352 64.9637 71.8721 64.9564C71.962 64.941 72.051 64.9207 72.1387 64.8959C72.271 64.862 72.3966 64.806 72.5102 64.7303C72.6412 64.6472 72.7527 64.5371 72.8374 64.4072C72.9377 64.2465 72.987 64.0593 72.9787 63.8701V56.9722C72.9864 56.7843 72.9371 56.5985 72.8374 56.4391C72.7527 56.3092 72.6412 56.199 72.5102 56.116C72.3958 56.0417 72.2704 55.9858 72.1387 55.9504C72.0175 55.9181 71.9287 55.8939 71.8721 55.8858C71.8538 55.8853 71.8358 55.881 71.8192 55.8734C71.8025 55.8658 71.7876 55.8549 71.7752 55.8414C71.7569 55.8185 71.7469 55.79 71.7469 55.7606C71.7516 55.7336 71.766 55.7092 71.7873 55.692C71.8171 55.6686 71.8545 55.6571 71.8923 55.6597H76.9286ZM76.8155 64.7545C77.1585 64.7633 77.4929 64.647 77.7565 64.4274C78.0352 64.1814 78.2535 63.8747 78.3946 63.5308C78.575 63.0923 78.6972 62.632 78.7581 62.1617C78.8353 61.5848 78.8731 61.0032 78.8712 60.4211C78.8748 59.8498 78.8383 59.279 78.7622 58.7128C78.7014 58.2551 78.5861 57.8064 78.4189 57.3761C78.2871 57.0377 78.08 56.7338 77.8131 56.4876C77.567 56.2694 77.2564 56.1376 76.9286 56.112H76.6984H76.3793H75.7775C75.7154 56.1079 75.6531 56.1162 75.5942 56.1363C75.5353 56.1564 75.4809 56.1879 75.4343 56.2291C75.3905 56.2695 75.3563 56.319 75.3339 56.3742C75.3116 56.4293 75.3017 56.4887 75.305 56.5481V61.8225C75.3016 62.276 75.3273 62.7292 75.3818 63.1795C75.4154 63.4952 75.4999 63.8035 75.6322 64.0922C75.7286 64.3091 75.8912 64.49 76.0966 64.6091C76.3198 64.7186 76.5674 64.7686 76.8155 64.7545Z" fill="#9C9FAF"/>
<path d="M39.7724 43.6127C40.232 43.7189 40.6702 43.9019 41.0689 44.1539C41.3837 44.3586 41.6577 44.6202 41.8766 44.9253C42.0693 45.2033 42.2065 45.516 42.2805 45.8461C42.3583 46.1783 42.3976 46.5185 42.3976 46.8597C42.3996 47.3099 42.3174 47.7564 42.1553 48.1763C41.9867 48.6015 41.7163 48.9787 41.3677 49.2748C40.9515 49.6217 40.4672 49.8776 39.9461 50.026C39.2468 50.2271 38.521 50.321 37.7935 50.3046H31.4769C31.4252 50.3093 31.3735 50.2949 31.3315 50.2643C31.302 50.2401 31.2831 50.2053 31.279 50.1673C31.2772 50.1489 31.2796 50.1302 31.2858 50.1128C31.2921 50.0953 31.3022 50.0794 31.3154 50.0664C31.3527 50.0317 31.3988 50.008 31.4487 49.9977C31.5254 49.9977 31.6466 49.9573 31.8121 49.9169C31.9918 49.87 32.1624 49.7935 32.317 49.6908C32.4928 49.575 32.6438 49.4253 32.7612 49.2506C32.8997 49.0327 32.9674 48.7774 32.9551 48.5196V39.1299C32.9658 38.8736 32.8981 38.62 32.7612 38.403C32.6461 38.2264 32.4946 38.0764 32.317 37.9628C32.1606 37.8633 31.9905 37.7871 31.8121 37.7366C31.6479 37.6936 31.5267 37.6653 31.4487 37.6518C31.3975 37.6484 31.3498 37.6252 31.3154 37.5872C31.3025 37.5731 31.2927 37.5565 31.2865 37.5384C31.2802 37.5204 31.2777 37.5013 31.279 37.4822C31.2831 37.4443 31.302 37.4094 31.3315 37.3853C31.3729 37.3532 31.4247 37.3374 31.4769 37.3409H38.161C38.732 37.3258 39.3015 37.4078 39.8451 37.5832C40.2545 37.7183 40.6284 37.9432 40.9396 38.2415C41.2142 38.514 41.418 38.8495 41.5333 39.2188C41.6564 39.6107 41.7163 40.0196 41.711 40.4304C41.7101 40.7276 41.679 41.0239 41.6181 41.3148C41.5527 41.6106 41.4439 41.895 41.295 42.1589C41.1362 42.4412 40.9315 42.695 40.6892 42.91C40.4085 43.1528 40.0926 43.3516 39.7523 43.4997C39.7159 43.4997 39.6997 43.54 39.7038 43.5602C39.7078 43.5804 39.7523 43.6006 39.7724 43.6127ZM36.1376 42.7687C36.131 42.9252 36.1844 43.0784 36.287 43.1968C36.3435 43.2513 36.4108 43.2935 36.4845 43.3206C36.5582 43.3477 36.6368 43.3592 36.7151 43.3543C36.9051 43.3488 37.0925 43.3091 37.2684 43.2372C37.493 43.1438 37.6873 42.99 37.8298 42.7929C38.0304 42.5114 38.1769 42.1951 38.262 41.86C38.392 41.3468 38.4504 40.8182 38.4356 40.289C38.4356 40.0103 38.4356 39.7236 38.4074 39.4369C38.391 39.1701 38.3394 38.9066 38.2539 38.6534C38.1807 38.4359 38.0544 38.2402 37.8864 38.084C37.7031 37.9262 37.4653 37.8464 37.224 37.8618C37.0287 37.8542 36.8349 37.8988 36.6626 37.9911C36.5106 38.0853 36.3941 38.2273 36.3315 38.3949C36.2466 38.6037 36.1948 38.8244 36.178 39.0492C36.1538 39.3076 36.1376 39.6105 36.1376 39.9578V42.7687ZM37.4179 49.7594C37.6372 49.767 37.8542 49.7124 38.0439 49.6019C38.2048 49.4965 38.3423 49.359 38.4477 49.1981C38.5636 49.0188 38.6508 48.8226 38.7062 48.6165C38.7671 48.4051 38.8103 48.1889 38.8355 47.9704C38.8629 47.7627 38.8791 47.5538 38.8839 47.3444C38.8839 47.1451 38.8839 46.9755 38.8839 46.8355C38.8889 46.4286 38.8496 46.0224 38.7668 45.6239C38.7074 45.3326 38.6039 45.0521 38.4599 44.792C38.3595 44.5863 38.2195 44.4024 38.0479 44.2508C37.9055 44.1419 37.7476 44.0548 37.5794 43.9924C37.4331 43.9421 37.2812 43.9095 37.1271 43.8954H36.7676C36.5959 43.8865 36.4272 43.9428 36.2951 44.0529C36.2381 44.106 36.1928 44.1704 36.1622 44.2421C36.1316 44.3137 36.1163 44.391 36.1174 44.4689V47.4817C36.116 47.7962 36.1349 48.1106 36.174 48.4227C36.1971 48.6716 36.2627 48.9147 36.3678 49.1415C36.4575 49.3271 36.5974 49.4838 36.7717 49.5939C36.9607 49.7101 37.18 49.7677 37.4017 49.7594H37.4179Z" fill="#9C9FAF"/>
<path d="M54.9945 47.5421C55.0308 47.4371 55.0914 47.3927 55.1762 47.4007C55.261 47.4088 55.3014 47.4654 55.3014 47.5704V50.1227C55.3014 50.2439 55.2328 50.3045 55.0995 50.3045H44.9017C44.85 50.3091 44.7983 50.2947 44.7563 50.2641C44.7268 50.2399 44.7079 50.2051 44.7038 50.1672C44.702 50.1487 44.7044 50.13 44.7106 50.1126C44.7169 50.0951 44.727 50.0793 44.7402 50.0662C44.7775 50.0316 44.8236 50.0078 44.8735 49.9975C44.9502 49.9975 45.0714 49.9571 45.2369 49.9168C45.4166 49.8698 45.5872 49.7934 45.7418 49.6906C45.9185 49.5759 46.0697 49.4261 46.186 49.2504C46.3245 49.0325 46.3922 48.7772 46.3799 48.5194V39.1298C46.3906 38.8734 46.323 38.6198 46.186 38.4028C46.072 38.2254 45.9203 38.0751 45.7418 37.9626C45.5854 37.8631 45.4153 37.787 45.2369 37.7365C45.0727 37.6934 44.9515 37.6651 44.8735 37.6517C44.8223 37.6482 44.7746 37.625 44.7402 37.587C44.7273 37.5729 44.7175 37.5563 44.7113 37.5383C44.705 37.5202 44.7025 37.5011 44.7038 37.482C44.7079 37.4441 44.7268 37.4093 44.7563 37.3851C44.7977 37.353 44.8495 37.3372 44.9017 37.3407H54.2635C54.3967 37.3407 54.4654 37.4013 54.4654 37.5265V39.5215C54.4654 39.6184 54.4291 39.6709 54.3523 39.679C54.2756 39.6871 54.211 39.6507 54.1585 39.5619C54.106 39.473 54.0413 39.3438 53.9283 39.158C53.7925 38.9513 53.631 38.7626 53.4476 38.5967C53.2186 38.392 52.9599 38.2231 52.6803 38.0959C52.3313 37.9453 51.9537 37.8722 51.5737 37.8819C51.3025 37.8802 51.0319 37.906 50.7659 37.9586C50.5398 38.0006 50.3235 38.0841 50.1278 38.2049C49.9588 38.3125 49.8198 38.4612 49.724 38.6371C49.6217 38.8338 49.5717 39.0535 49.5786 39.2752V43.1845C49.5784 43.2025 49.5819 43.2204 49.5888 43.2371C49.5958 43.2538 49.606 43.2688 49.6189 43.2814C49.6315 43.2958 49.647 43.3073 49.6645 43.3149C49.6819 43.3226 49.7009 43.3263 49.7199 43.3258H50.9315C51.1776 43.337 51.4217 43.2767 51.6343 43.1522C51.8058 43.0503 51.9532 42.9126 52.0664 42.7483C52.1655 42.6091 52.2418 42.4551 52.2926 42.292C52.337 42.1385 52.3653 42.0254 52.3814 41.9487C52.3811 41.9268 52.3865 41.9052 52.3972 41.8861C52.4078 41.8669 52.4233 41.8509 52.442 41.8396C52.4724 41.8177 52.5097 41.8077 52.547 41.8114C52.5658 41.8117 52.5842 41.8162 52.601 41.8246C52.6178 41.833 52.6324 41.845 52.6439 41.8598C52.6588 41.8754 52.6703 41.8938 52.678 41.9139C52.6856 41.934 52.6891 41.9555 52.6884 41.977V45.2441C52.6891 45.2656 52.6856 45.2871 52.678 45.3072C52.6703 45.3273 52.6588 45.3457 52.6439 45.3613C52.6324 45.3761 52.6178 45.3881 52.601 45.3965C52.5842 45.4049 52.5658 45.4094 52.547 45.4097C52.5097 45.4134 52.4724 45.4034 52.442 45.3815C52.4233 45.3702 52.4078 45.3542 52.3972 45.335C52.3865 45.3159 52.3811 45.2943 52.3814 45.2724C52.3814 45.1957 52.337 45.0826 52.2926 44.9291C52.2418 44.766 52.1655 44.612 52.0664 44.4728C51.9532 44.3085 51.8058 44.1708 51.6343 44.0689C51.4217 43.9444 51.1776 43.8841 50.9315 43.8953H49.7199C49.7009 43.8948 49.6819 43.8985 49.6645 43.9062C49.647 43.9138 49.6315 43.9253 49.6189 43.9397C49.606 43.9523 49.5958 43.9674 49.5888 43.984C49.5819 44.0007 49.5784 44.0186 49.5786 44.0366V48.3377C49.5716 48.5487 49.6234 48.7575 49.7282 48.9408C49.8331 49.1241 49.9868 49.2746 50.1723 49.3756C50.6955 49.64 51.279 49.7625 51.8645 49.731C52.185 49.7338 52.5039 49.6861 52.8095 49.5896C53.0785 49.5037 53.3361 49.3857 53.5769 49.2383C53.7938 49.1063 53.9933 48.9476 54.1706 48.7658C54.3256 48.6073 54.47 48.4386 54.6027 48.261C54.7083 48.1241 54.8015 47.9781 54.8814 47.8248C54.9218 47.6915 54.9662 47.5986 54.9945 47.5421Z" fill="#9C9FAF"/>
<path d="M57.7609 50.2601V46.8394C57.7609 46.7304 57.7972 46.6698 57.8739 46.6537C57.9507 46.6375 58.0072 46.6537 58.0476 46.7627C58.2562 47.2493 58.509 47.7156 58.8029 48.156C59.0524 48.5357 59.3558 48.8772 59.7035 49.1697C60.0287 49.4369 60.3976 49.6459 60.7939 49.7876C61.2202 49.933 61.6683 50.004 62.1186 49.9976C62.3923 50.0001 62.6647 49.9606 62.9264 49.8805C63.1687 49.8013 63.3917 49.672 63.5806 49.5008C63.7775 49.3153 63.9318 49.0894 64.033 48.8385C64.1499 48.5277 64.2061 48.1973 64.1986 47.8652C64.2048 47.5398 64.1386 47.217 64.0047 46.9202C63.8718 46.6503 63.6927 46.4056 63.4756 46.1973C63.249 45.9808 62.9951 45.7948 62.7204 45.644C62.4377 45.4865 62.1509 45.3452 61.8561 45.2159C61.5613 45.0867 61.2099 44.9292 60.8909 44.7757C60.5718 44.6229 60.264 44.4475 59.97 44.2507C59.6766 44.0612 59.4056 43.839 59.1623 43.5884C58.918 43.3316 58.7125 43.0404 58.5525 42.7241C58.4089 42.4489 58.2952 42.1592 58.2132 41.8599C58.132 41.5625 58.0913 41.2555 58.092 40.9472C58.0949 40.4791 58.1768 40.0149 58.3344 39.5741C58.5041 39.1016 58.7805 38.6745 59.1421 38.3261C59.549 37.9285 60.0347 37.6203 60.5678 37.4215C61.2607 37.1687 61.9952 37.0495 62.7325 37.0702C63.2056 37.064 63.678 37.1073 64.142 37.1994C64.4818 37.2676 64.8155 37.3635 65.1396 37.4861C65.3519 37.5662 65.5561 37.6662 65.7494 37.785C65.8317 37.8374 65.9112 37.894 65.9877 37.9546C66.0217 37.9764 66.0497 38.0062 66.0694 38.0415C66.0892 38.0767 66.0999 38.1162 66.1008 38.1565V39.9012C66.1017 39.9419 66.0889 39.9817 66.0645 40.0143C66.0428 40.04 66.0128 40.0572 65.9796 40.0627C65.9478 40.0703 65.9146 40.0703 65.8827 40.0627C65.8473 40.0414 65.8202 40.0086 65.806 39.9698C65.6798 39.6745 65.5355 39.3872 65.3738 39.1096C65.2074 38.8245 64.9945 38.5693 64.7438 38.3544C64.4699 38.1106 64.1537 37.919 63.8109 37.789C63.3878 37.6424 62.9419 37.5727 62.4942 37.5831C61.9359 37.5482 61.3838 37.7159 60.9393 38.0556C60.7551 38.2115 60.609 38.4077 60.5124 38.6289C60.4158 38.8501 60.3712 39.0906 60.382 39.3318C60.3747 39.6089 60.427 39.8843 60.5355 40.1395C60.6555 40.393 60.8341 40.6145 61.0565 40.7856C61.3616 41.0232 61.6921 41.2264 62.0419 41.3914C62.4458 41.5933 62.9668 41.8195 63.5887 42.0699C64.1418 42.2949 64.6753 42.565 65.184 42.8776C65.6146 43.1323 66.0041 43.451 66.3391 43.8226C66.6492 44.1683 66.888 44.5718 67.0418 45.01C67.2063 45.4976 67.2855 46.0099 67.2761 46.5244C67.2802 47.0682 67.1773 47.6075 66.9732 48.1116C66.7694 48.6072 66.4527 49.0483 66.0483 49.3999C65.5878 49.7944 65.0519 50.0912 64.4732 50.2722C63.7488 50.4953 62.9936 50.6016 62.2358 50.5872C61.6907 50.587 61.1479 50.5178 60.6203 50.3813C60.0872 50.2439 59.5702 50.0905 59.0694 49.9249L58.8392 49.8482C58.7607 49.8236 58.6791 49.81 58.5969 49.8078C58.5332 49.8044 58.4696 49.8162 58.4113 49.8422C58.3531 49.8682 58.3018 49.9076 58.2617 49.9572C58.1827 50.0744 58.1151 50.1988 58.0597 50.3288C58.0493 50.3662 58.0254 50.3985 57.9926 50.4194C57.9598 50.4402 57.9204 50.4482 57.882 50.4418C57.8013 50.4176 57.7609 50.3611 57.7609 50.2601Z" fill="#9C9FAF"/>
<path d="M80.7412 37.5265V40.2121C80.7412 40.3131 80.6967 40.3696 80.616 40.3777C80.5352 40.3858 80.4706 40.3413 80.4342 40.2404L80.2969 39.9456C80.2186 39.7849 80.1296 39.6298 80.0304 39.4811C79.9086 39.2941 79.7736 39.1159 79.6265 38.948C79.451 38.7582 79.2545 38.5889 79.0409 38.4432C78.8059 38.2857 78.5522 38.1582 78.2856 38.0636C77.9852 37.9618 77.6699 37.9113 77.3527 37.9142C77.2143 37.9079 77.0763 37.9327 76.9488 37.9869C76.8523 38.0307 76.7678 38.0972 76.7025 38.1807C76.6415 38.2657 76.5976 38.3617 76.5732 38.4634C76.5489 38.5738 76.5327 38.6859 76.5248 38.7986V48.5194C76.5125 48.7773 76.5802 49.0326 76.7186 49.2504C76.8378 49.4251 76.9901 49.5746 77.1669 49.6906C77.3201 49.7933 77.4894 49.8697 77.6677 49.9168C77.8373 49.9572 77.9585 49.9854 78.0352 49.9976C78.084 50.0077 78.1288 50.0315 78.1645 50.0662C78.1776 50.0793 78.1877 50.0951 78.194 50.1126C78.2003 50.1301 78.2026 50.1487 78.2008 50.1672C78.1967 50.2051 78.1779 50.2399 78.1483 50.2641C78.1076 50.2941 78.0574 50.3085 78.007 50.3045H71.8641C71.8136 50.3085 71.7634 50.2941 71.7227 50.2641C71.6932 50.2399 71.6743 50.2051 71.6702 50.1672C71.6684 50.1487 71.6708 50.1301 71.677 50.1126C71.6833 50.0951 71.6934 50.0793 71.7066 50.0662C71.7423 50.0315 71.7871 50.0077 71.8358 49.9976C71.9126 49.9976 72.0337 49.9572 72.2033 49.9168C72.383 49.8698 72.5536 49.7934 72.7082 49.6906C72.884 49.5748 73.035 49.4252 73.1524 49.2504C73.2909 49.0326 73.3586 48.7773 73.3463 48.5194V45.6198C73.3463 45.1069 73.3463 44.5818 73.3463 44.0407C73.3463 43.4995 73.3463 42.9664 73.3463 42.4252V39.1944C73.3463 39.0369 73.3463 38.8754 73.3463 38.7178C73.3393 38.5792 73.3092 38.4428 73.2574 38.314C73.2072 38.1908 73.1214 38.0854 73.0111 38.0111C72.8694 37.9244 72.7044 37.8835 72.5385 37.894C72.2187 37.8907 71.9006 37.9412 71.5975 38.0434C71.3303 38.1363 71.0763 38.264 70.8423 38.423C70.6299 38.5687 70.4348 38.7381 70.2607 38.9279C70.1067 39.0951 69.9649 39.2732 69.8367 39.4609C69.7363 39.6096 69.6459 39.7648 69.5661 39.9254C69.5148 40.0198 69.4715 40.1185 69.4368 40.2202C69.3964 40.3212 69.3359 40.3696 69.251 40.3575C69.1662 40.3454 69.1299 40.2929 69.1299 40.1919V37.5265C69.1299 37.4013 69.1945 37.3407 69.3278 37.3407H80.5433C80.6725 37.3407 80.7412 37.3851 80.7412 37.5265Z" fill="#9C9FAF"/>
</svg>
