<svg width="112" height="112" viewBox="0 0 112 112" fill="none" xmlns="http://www.w3.org/2000/svg">
<path d="M44.7007 77.0439C45.4408 78.3289 45.9207 80.7405 43.7125 82.0581C53.7532 85.0918 45.7987 74.978 46.3274 73.392C44.5299 73.8515 42.0452 75.7832 42.9398 79.5164C43.1716 78.8251 43.8142 77.5278 44.7007 77.0439Z" fill="#9C9FAF"/>
<path d="M35.7987 74.0955C36.1322 74.7096 37.2384 77.3855 35.0342 78.8983C35.0342 78.8983 35.1115 78.9227 35.2497 78.9511C35.388 78.9796 35.5791 79.0243 35.8109 79.0609C43.5824 80.3013 36.6243 72.1476 37.1245 70.5209C35.1969 71.2366 33.4645 73.4652 34.2778 76.5802C34.4689 75.8686 35.0261 74.612 35.7987 74.0955Z" fill="#9C9FAF"/>
<path d="M28.7268 71.1472C29.3246 72.6559 29.3368 74.6405 27.7874 75.6897C35.1074 78.2069 29.5442 69.183 30.1339 67.7759C29.048 68.241 28.1591 69.0714 27.6214 70.1232C27.0836 71.1749 26.9308 72.3817 27.1896 73.5343C27.4336 72.782 28.0192 71.627 28.7268 71.1472Z" fill="#9C9FAF"/>
<path d="M23.2733 67.8003C23.5661 69.2195 23.3627 71.1309 21.8947 72.0093C28.0191 75.0797 24.0947 66.1858 25.0341 64.7502C23.9544 65.1146 23.0261 65.827 22.3947 66.7756C21.7632 67.7242 21.4644 68.8555 21.5449 69.9922C21.8296 69.3212 22.5128 68.2069 23.2733 67.8003Z" fill="#9C9FAF"/>
<path d="M18.8324 63.4001C18.9382 64.6526 18.5274 66.5559 17.0187 67.2838C22.159 70.9438 19.8369 61.7409 20.8414 60.5981C19.7363 60.8259 18.7422 61.4241 18.0234 62.2938C17.3046 63.1634 16.9042 64.2524 16.8885 65.3806C17.2668 64.734 18.0354 63.7336 18.8324 63.4001Z" fill="#9C9FAF"/>
<path d="M13.1187 59.9231C13.5538 59.2602 14.4201 58.3533 15.2334 58.093C15.2334 58.6786 14.8837 60.9397 13.1553 61.7043C17.6287 65.4456 16.2216 56.5477 17.4416 55.4904C15.4896 55.6815 13.5457 57.1943 13.1187 59.9231Z" fill="#9C9FAF"/>
<path d="M10.39 53.8597C10.878 53.2294 11.8215 52.3672 12.6673 52.1639C12.4315 53.5262 11.6669 54.9821 10.3534 55.5514C14.2534 59.4555 13.5051 50.7812 15.0626 49.6995C13.1269 49.7523 11.0569 51.1269 10.39 53.8597Z" fill="#9C9FAF"/>
<path d="M8.68195 49.0284C12.1427 52.8836 12.0858 44.3354 13.7572 43.3676C12.9192 43.395 12.0997 43.6213 11.3665 44.0279C10.6332 44.4345 10.0072 45.0097 9.54002 45.7059C9.47902 45.7954 9.41802 45.893 9.35702 45.9906C9.24315 46.1898 9.12928 46.3972 9.02355 46.6372C8.91029 46.8793 8.81117 47.1278 8.72668 47.3814C9.27568 46.7551 10.3086 45.9377 11.1667 45.7872C11.1301 46.0678 10.5323 48.2151 8.68195 49.0284Z" fill="#9C9FAF"/>
<path d="M8.07196 42.3103C11.3456 46.1736 11.7808 37.5563 13.4807 36.686C11.7808 36.6169 9.2513 37.719 8.10856 40.6755C8.73076 40.037 9.82877 39.248 10.7316 39.1342C10.5271 39.8164 10.1858 40.4498 9.72855 40.9959C9.2713 41.5419 8.70765 41.9891 8.07196 42.3103Z" fill="#9C9FAF"/>
<path d="M8.51123 33.8841C9.1131 33.3066 10.325 32.4648 11.3132 32.3713C10.8252 33.751 9.82475 34.8899 8.51936 35.5514C11.5206 38.9634 12.6145 30.6226 14.2656 29.8581C13.3181 29.8133 10.0728 30.2607 8.51123 33.8841Z" fill="#9C9FAF"/>
<path d="M45.4937 84.795C44.826 84.2009 44.0683 83.7164 43.2489 83.3595C43.9971 85.466 42.6104 87.1863 40.8414 87.8695C40.6428 87.2329 40.6175 86.5549 40.7682 85.9053C40.833 85.5445 40.9269 85.1895 41.0488 84.8438C37.9947 87.1863 38.7186 90.2363 39.7841 91.7247C40.5974 89.5693 46.9333 89.5734 46.4412 86.3607C46.3081 85.7481 45.9747 85.1972 45.4937 84.795Z" fill="#9C9FAF"/>
<path d="M35.2253 80.5982C35.026 80.4722 34.8511 80.3705 34.7291 80.3054L34.5299 80.1997C35.1805 82.8675 32.5494 84.0021 31.7645 84.2135C31.5205 83.3351 31.9394 82.0785 32.342 81.3465C28.6006 83.5181 29.6254 86.6698 30.2517 87.7109C31.1138 86.011 34.5543 86.4909 36.4412 84.8886C37.8727 83.6686 37.3766 82.5177 36.5429 81.6353C36.144 81.2412 35.702 80.8933 35.2253 80.5982Z" fill="#9C9FAF"/>
<path d="M27.1448 76.9341C27.2262 79.4636 24.6153 80.102 23.7329 80.1508C23.68 79.2033 24.4811 78.0646 24.9285 77.5726C23.2408 78.1256 21.7727 79.061 21.362 80.7893C21.243 81.3041 21.2223 81.8366 21.301 82.3591C21.3325 82.5895 21.3842 82.8168 21.4555 83.0382C22.3909 81.9076 34.4608 82.0866 27.1448 76.9341Z" fill="#9C9FAF"/>
<path d="M21.0366 73.1196C20.4469 75.3441 17.9621 75.3685 16.9699 75.153C17.2017 74.2461 18.3729 73.4124 18.8771 73.1196C16.4615 73.1888 14.355 74.0306 13.9239 76.373C13.8807 76.5871 13.8602 76.8052 13.8629 77.0237C14.2942 76.7907 14.7892 76.7037 15.274 76.7756C15.5585 76.8009 15.841 76.8443 16.1199 76.9057C16.4127 76.9627 16.7177 77.0318 17.0268 77.105C21.8662 78.2355 24.0134 76.5804 21.0366 73.1196Z" fill="#9C9FAF"/>
<path d="M15.9248 68.207C14.7373 69.8662 12.5453 69.3538 11.5612 68.8699C12.0858 68.1297 13.4603 67.7068 14.0338 67.5807C10.0037 66.56 8.39731 68.5689 8.03131 69.5775C9.00325 69.3091 19.3001 75.6328 15.9248 68.207Z" fill="#9C9FAF"/>
<path d="M11.8987 62.416C10.3371 63.5221 8.40946 62.5217 7.59612 61.8263C8.31999 61.2936 9.80433 61.2936 10.3737 61.3342C7.46192 59.6506 5.03003 60.1142 3.96863 61.3342C5.28624 61.3912 13.2773 69.8784 11.8987 62.416Z" fill="#9C9FAF"/>
<path d="M8.98697 56.0313C7.14476 56.5275 5.53842 54.9821 5.05855 54.2623C5.94102 53.9817 7.41316 54.4209 7.92557 54.608C5.55875 52.2493 3.00487 51.9402 1.65472 52.66C2.09393 52.7942 8.3607 62.7373 8.98697 56.0313Z" fill="#9C9FAF"/>
<path d="M7.24238 49.2725C5.71737 49.1505 4.46076 47.8532 3.93209 46.5112C4.89589 46.5112 6.25824 47.3245 6.69744 47.6499C4.95689 44.7707 2.48028 43.7581 1 43.9533C1.40667 44.2135 5.10329 54.8195 7.24238 49.2725Z" fill="#9C9FAF"/>
<path d="M6.60387 42.3387C5.19273 41.7368 4.25332 40.2078 4.04592 38.8088C5.01786 39.0569 6.1972 40.2403 6.56321 40.651C5.3432 37.0154 2.84625 35.6937 1.72791 35.4863C2.55751 36.2956 3.15125 46.8324 6.60387 42.3387Z" fill="#9C9FAF"/>
<path d="M6.82758 35.3603C6.24873 34.8516 5.79227 34.2187 5.49229 33.5089C5.19231 32.7991 5.05656 32.0307 5.09517 31.261C5.99797 31.7287 6.92111 33.1073 7.26678 33.701C6.78691 29.5733 4.25336 27.6986 3.47662 27.3245C3.84669 27.9019 2.83409 38.3289 6.82758 35.3603Z" fill="#9C9FAF"/>
<path d="M9.7515 26.5314C9.71744 28.2147 9.16186 29.8459 8.16142 31.2C12.8544 28.6542 10.6014 23.1194 11.8214 18.9999C10.8698 20.7242 6.35174 26.8649 7.96622 29.7116C8.29155 27.7026 9.32043 26.7469 9.7515 26.5314Z" fill="#9C9FAF"/>
<path d="M67.6246 83.5303C69.906 82.6925 72.3297 81.8426 74.8226 80.9154C91.8702 74.5591 102.545 64.9251 104.599 46.8487C105.089 42.1262 104.927 37.3588 104.119 32.6803L103.928 32.7128C104.691 37.4394 104.79 42.2494 104.221 47.0032C101.565 67.4912 88.2264 75.1935 73.6921 80.3501C67.2464 82.6315 61.2846 84.5022 56.0019 87.3001C50.7152 84.5022 44.7535 82.6315 38.3078 80.3501C23.7734 75.1935 10.4346 67.4912 7.77909 47.0032C7.21033 42.2494 7.30888 37.4394 8.07189 32.7128L7.88482 32.6803C7.07512 37.3586 6.91229 42.126 7.40088 46.8487C9.43423 64.9251 20.1296 74.5591 37.1772 80.9154C39.6742 81.8426 42.0979 82.6925 44.3793 83.5303C47.9471 84.7814 51.4312 86.2593 54.8104 87.9548C52.194 89.4199 49.7763 91.2143 47.6164 93.2944C48.5884 93.27 49.052 93.2944 49.4017 93.2944C51.4018 91.4628 53.6183 89.8827 56.0019 88.5892C58.3837 89.8837 60.5988 91.4637 62.5981 93.2944C62.9479 93.2944 63.4115 93.2619 64.3875 93.2944C62.227 91.2132 59.8078 89.4186 57.1894 87.9548C60.5697 86.2585 64.0552 84.7806 67.6246 83.5303Z" fill="#9C9FAF"/>
<path d="M68.2875 82.0581C66.0753 80.7405 66.5592 78.3289 67.2993 77.0439C68.1859 77.5278 68.8284 78.8251 69.0602 79.5164C69.9549 75.7832 67.4701 73.8515 65.6727 73.392C66.2054 74.978 58.2469 85.0918 68.2875 82.0581Z" fill="#9C9FAF"/>
<path d="M76.1932 79.0609C76.4209 79.0243 76.5999 78.9836 76.7544 78.9511C76.9089 78.9186 76.9659 78.8982 76.9659 78.8982C74.7617 77.3854 75.8719 74.7095 76.2054 74.0955C76.974 74.6119 77.5311 75.8685 77.7345 76.5843C78.5234 73.4692 76.8032 71.2406 74.8878 70.5249C75.4205 72.1556 68.4177 80.3012 76.1932 79.0609Z" fill="#9C9FAF"/>
<path d="M84.2127 75.6897C82.6673 74.6405 82.6754 72.6559 83.2773 71.1472C83.9849 71.627 84.5746 72.7738 84.8145 73.5343C85.0714 72.3813 84.9173 71.1748 84.3789 70.1233C83.8406 69.0719 82.9518 68.2416 81.8662 67.7759C82.4599 69.183 76.9129 78.2069 84.2127 75.6897Z" fill="#9C9FAF"/>
<path d="M90.1053 71.9971C88.6372 71.1187 88.4339 69.2073 88.7267 67.7881C89.4871 68.2232 90.1744 69.3212 90.4591 69.98C90.5382 68.8436 90.2388 67.7129 89.6075 66.7646C88.9763 65.8162 88.0488 65.1036 86.9699 64.738C87.9052 66.1736 83.9808 75.0674 90.1053 71.9971Z" fill="#9C9FAF"/>
<path d="M94.9813 67.2838C93.4726 66.5559 93.0618 64.6526 93.1676 63.4001C93.9809 63.7336 94.7536 64.734 95.1115 65.3806C95.0973 64.252 94.6975 63.1623 93.9784 62.2923C93.2594 61.4223 92.2643 60.8245 91.1586 60.5981C92.1672 61.7409 89.841 70.9276 94.9813 67.2838Z" fill="#9C9FAF"/>
<path d="M98.8528 61.7002C97.1244 60.9194 96.795 58.6746 96.7747 58.089C97.588 58.3493 98.4461 59.2602 98.8853 59.919C98.4543 57.1903 96.5104 55.6775 94.5706 55.4863C95.7906 56.5477 94.3998 65.4457 98.8528 61.7002Z" fill="#9C9FAF"/>
<path d="M101.647 55.5514C100.333 54.9821 99.5685 53.5181 99.3326 52.1639C100.178 52.3672 101.122 53.2294 101.614 53.8597C100.943 51.1431 98.8772 49.7523 96.9414 49.6995C98.4989 50.7812 97.7466 59.4555 101.647 55.5514Z" fill="#9C9FAF"/>
<path d="M103.261 47.3814C103.117 46.8965 102.918 46.4299 102.667 45.9906C102.606 45.893 102.549 45.7954 102.488 45.7059C102.02 45.0086 101.393 44.4327 100.658 44.0261C99.9235 43.6195 99.1024 43.3937 98.2631 43.3676C99.9345 44.3354 99.8897 52.8836 103.338 49.0284C101.488 48.2151 100.898 46.0678 100.833 45.775C101.679 45.9377 102.712 46.7551 103.261 47.3814Z" fill="#9C9FAF"/>
<path d="M98.5193 36.6861C100.219 37.5563 100.654 46.1737 103.928 42.3103C103.292 41.9892 102.729 41.5419 102.271 40.9959C101.814 40.4499 101.473 39.8164 101.268 39.1342C102.171 39.2481 103.269 40.037 103.891 40.6755C102.749 37.7068 100.227 36.6169 98.5193 36.6861Z" fill="#9C9FAF"/>
<path d="M103.481 35.5514C102.175 34.8898 101.175 33.7509 100.687 32.3712C101.679 32.4647 102.891 33.3065 103.493 33.884C101.927 30.2606 98.682 29.8173 97.7344 29.858C99.3896 30.6225 100.484 38.9633 103.481 35.5514Z" fill="#9C9FAF"/>
<path d="M70.9471 84.8438C71.0717 85.189 71.1669 85.5441 71.2318 85.9053C71.3812 86.5552 71.3545 87.2333 71.1545 87.8695C69.3855 87.1863 68.0029 85.466 68.7511 83.3595C67.9302 83.7158 67.1711 84.2004 66.5023 84.795C66.0227 85.1984 65.6896 85.7488 65.5547 86.3607C65.0626 89.5734 71.4026 89.5693 72.216 91.7247C73.2814 90.2363 74.0053 87.1863 70.9471 84.8438Z" fill="#9C9FAF"/>
<path d="M79.658 81.3465C80.0647 82.0785 80.4714 83.3351 80.2396 84.2135C79.4506 84.0021 76.8235 82.8675 77.4702 80.1997L77.275 80.3054C77.1489 80.3705 76.9781 80.4722 76.7788 80.5982C76.3001 80.8971 75.8567 81.249 75.4571 81.6474C74.6235 82.5177 74.1314 83.6808 75.5588 84.9008C77.4458 86.495 80.8862 86.0232 81.7483 87.7231C82.3746 86.6698 83.3994 83.5181 79.658 81.3465Z" fill="#9C9FAF"/>
<path d="M87.0715 77.5603C87.5188 78.0524 88.32 79.187 88.2671 80.1386C87.3846 80.0898 84.7738 79.4514 84.8592 76.9219C77.5392 82.0744 89.6132 81.8954 90.5526 83.0219C90.6263 82.8012 90.678 82.5737 90.7071 82.3428C90.7858 81.8204 90.7651 81.2878 90.6461 80.773C90.2273 79.061 88.7592 78.1256 87.0715 77.5603Z" fill="#9C9FAF"/>
<path d="M93.1188 73.1155C93.6271 73.4123 94.7943 74.246 95.0301 75.1488C94.0379 75.3644 91.5531 75.34 90.9634 73.1155C87.9866 76.5762 90.1501 78.2314 94.9651 77.0968C95.2782 77.0236 95.5791 76.9544 95.876 76.8975C96.1535 76.8361 96.4347 76.7927 96.7178 76.7674C97.2026 76.6949 97.6979 76.782 98.129 77.0154C98.1319 76.7972 98.1128 76.5792 98.072 76.3648C97.645 74.0264 95.5344 73.1846 93.1188 73.1155Z" fill="#9C9FAF"/>
<path d="M97.9662 67.5726C98.5396 67.6986 99.9142 68.1216 100.439 68.8617C99.4547 69.3456 97.2627 69.858 96.0752 68.1988C92.7202 75.6328 102.989 69.309 103.969 69.5693C103.603 68.5608 102 66.5518 97.9662 67.5726Z" fill="#9C9FAF"/>
<path d="M101.63 61.3343C102.2 61.2937 103.664 61.2937 104.404 61.8264C103.59 62.5218 101.667 63.5222 100.101 62.4161C98.7226 69.8785 106.718 61.3913 108.035 61.3506C106.97 60.1306 104.538 59.667 101.63 61.3343Z" fill="#9C9FAF"/>
<path d="M104.074 54.608C104.587 54.4209 106.063 53.9817 106.945 54.2623C106.461 54.9821 104.855 56.5275 103.013 56.0313C103.639 62.7373 109.926 52.778 110.333 52.66C108.995 51.9402 106.441 52.2493 104.074 54.608Z" fill="#9C9FAF"/>
<path d="M105.303 47.6499C105.742 47.3449 107.108 46.499 108.068 46.5112C107.539 47.8532 106.283 49.1505 104.758 49.2725C106.897 54.8195 110.593 44.2135 111 43.9533C109.52 43.7581 107.043 44.7707 105.303 47.6499Z" fill="#9C9FAF"/>
<path d="M105.396 42.3387C108.849 46.8121 109.463 36.2956 110.276 35.4863C109.158 35.6937 106.645 37.0154 105.441 40.651C105.803 40.2444 106.982 39.0569 107.958 38.8088C107.743 40.2078 106.811 41.7368 105.396 42.3387Z" fill="#9C9FAF"/>
<path d="M106.905 31.261C106.943 32.0307 106.808 32.7991 106.508 33.5089C106.208 34.2187 105.751 34.8516 105.172 35.3603C109.166 38.3289 108.137 27.9019 108.523 27.3245C107.755 27.6986 105.217 29.553 104.737 33.7092C105.083 33.1073 106.002 31.7287 106.905 31.261Z" fill="#9C9FAF"/>
<path d="M103.843 31.2C102.845 29.8449 102.292 28.2138 102.261 26.5314C102.692 26.7469 103.721 27.7026 104.038 29.7116C105.665 26.8649 101.138 20.7242 100.183 18.9999C101.403 23.1072 99.1497 28.642 103.843 31.2Z" fill="#9C9FAF"/>
<path d="M41.6141 60.0938C41.6296 60.0964 41.6444 60.1021 41.6576 60.1105C41.6709 60.1188 41.6824 60.1298 41.6914 60.1426C41.7015 60.1674 41.7015 60.1952 41.6914 60.2199C41.6871 60.2496 41.6727 60.2769 41.6507 60.2972C41.6226 60.318 41.588 60.3281 41.5531 60.3256H37.0797C37.0487 60.3274 37.0181 60.3172 36.9943 60.2972C36.9749 60.2798 36.9608 60.2572 36.9537 60.2321C36.9476 60.2201 36.9444 60.2069 36.9444 60.1935C36.9444 60.18 36.9476 60.1668 36.9537 60.1548C36.9811 60.1282 37.0146 60.1087 37.0513 60.0979L37.3034 60.0206C37.4308 59.9811 37.5495 59.9176 37.6531 59.8336C37.7667 59.7405 37.8548 59.6202 37.9093 59.4838C37.9797 59.3034 37.9797 59.1031 37.9093 58.9226C37.8849 58.8576 37.8524 58.7681 37.8158 58.642L37.6816 58.2354C37.6369 58.0849 37.584 57.9304 37.5311 57.7718C37.4783 57.6132 37.4254 57.4668 37.3847 57.3326L37.2709 56.9869C37.2383 56.8934 37.218 56.8364 37.2139 56.8201C37.2099 56.8039 37.1733 56.7551 37.1367 56.7551H34.0907C34.072 56.7525 34.0529 56.7568 34.0372 56.7673C34.0214 56.7778 34.0101 56.7937 34.0053 56.812C34.0053 56.869 33.9565 56.9625 33.9158 57.0967C33.8752 57.2309 33.8304 57.3773 33.7776 57.544C33.7247 57.7108 33.6718 57.8816 33.619 58.0646C33.5661 58.2476 33.5132 58.4143 33.4644 58.5729C33.4156 58.7315 33.375 58.8657 33.3424 58.9796C33.3174 59.0528 33.297 59.1275 33.2814 59.2032C33.2431 59.3376 33.2517 59.4811 33.3058 59.6099C33.3564 59.7147 33.4335 59.8044 33.5295 59.8702C33.6221 59.9342 33.7254 59.981 33.8345 60.0084L34.1029 60.0776C34.1476 60.0776 34.1761 60.106 34.1883 60.1345C34.1981 60.1593 34.1981 60.1869 34.1883 60.2118C34.1856 60.2251 34.1802 60.2377 34.1725 60.2488C34.1648 60.26 34.155 60.2695 34.1436 60.2768C34.132 60.2871 34.1185 60.295 34.1038 60.2999C34.0891 60.3048 34.0736 60.3066 34.0582 60.3053H31.4474C31.415 60.3077 31.3829 60.2975 31.3579 60.2768C31.3385 60.2618 31.3254 60.2401 31.3213 60.2158C31.3224 60.1884 31.3308 60.1617 31.3457 60.1386C31.3662 60.1125 31.3948 60.0939 31.427 60.0857C31.5496 60.0525 31.6704 60.0132 31.789 59.9678C31.9055 59.9197 32.016 59.8583 32.1184 59.7848C32.3366 59.6226 32.5056 59.403 32.6064 59.1504C32.6348 59.0772 32.6958 58.9104 32.7894 58.642C32.8829 58.3736 33.0008 58.0442 33.1391 57.6538L33.5946 56.3565C33.7572 55.8848 33.924 55.4049 34.0948 54.921C34.2656 54.4371 34.4282 53.9613 34.5868 53.4977C34.7454 53.0341 34.8918 52.6274 34.9935 52.2777L35.2945 51.4033C35.3717 51.1796 35.4165 51.0617 35.4205 51.0495C35.4333 51.0038 35.4571 50.962 35.4897 50.9275C35.5279 50.8959 35.5745 50.8762 35.6239 50.8706C35.7296 50.8706 35.8516 50.8258 35.9899 50.7933L36.3965 50.6876L36.8276 50.5615C36.966 50.5209 37.1018 50.4721 37.2343 50.4151C37.2865 50.3828 37.3494 50.3726 37.4091 50.3866C37.451 50.4134 37.4825 50.4535 37.4986 50.5005L37.6165 50.8584L37.9053 51.7286C38.0273 52.0865 38.1615 52.4932 38.3119 52.9487C38.4624 53.4041 38.6413 53.8921 38.8203 54.3801C38.9992 54.8681 39.1456 55.3561 39.3083 55.836C39.4709 56.3159 39.6173 56.7632 39.7515 57.1658C39.8857 57.5684 39.9996 57.9141 40.0931 58.2069L40.2924 58.8006C40.3576 58.9852 40.4421 59.1624 40.5446 59.3293C40.6342 59.4704 40.7422 59.599 40.8658 59.7116C40.9744 59.8136 41.0978 59.8986 41.2318 59.9637C41.3529 60.0238 41.4815 60.0676 41.6141 60.0938ZM34.2046 56.202C34.1802 56.263 34.2046 56.2915 34.2615 56.2915H36.9659C37.0228 56.2915 37.0431 56.263 37.0228 56.2061L36.9577 56.0068C36.9171 55.8807 36.8642 55.7181 36.7951 55.5229L36.5755 54.86L36.3274 54.1077C36.242 53.8555 36.1607 53.6075 36.0793 53.3635C35.998 53.1195 35.9248 52.8999 35.8638 52.7087L35.7052 52.2451C35.6645 52.1272 35.6442 52.0662 35.6442 52.0581C35.6432 52.0516 35.6409 52.0454 35.6375 52.0399C35.6341 52.0343 35.6296 52.0295 35.6243 52.0257C35.619 52.0219 35.613 52.0192 35.6066 52.0178C35.6003 52.0164 35.5937 52.0162 35.5873 52.0174C35.5732 52.0178 35.5596 52.0228 35.5486 52.0316C35.5376 52.0404 35.5298 52.0525 35.5263 52.0662L35.4409 52.3265L35.2416 52.9527L34.9691 53.7986L34.6763 54.7177C34.5787 55.0186 34.4892 55.3033 34.4079 55.5676C34.3266 55.8319 34.2574 56.0393 34.2046 56.202Z" fill="#9C9FAF"/>
<path d="M54.1639 50.7446C54.1787 50.7433 54.1936 50.7452 54.2076 50.7501C54.2216 50.755 54.2345 50.7628 54.2453 50.773C54.2564 50.7812 54.2657 50.7915 54.2727 50.8034C54.2797 50.8153 54.2842 50.8285 54.2859 50.8422C54.2954 50.8656 54.2954 50.8919 54.2859 50.9154C54.2662 50.9416 54.237 50.9591 54.2046 50.9642C53.9619 51.0247 53.7319 51.128 53.5255 51.2692C53.305 51.4291 53.1355 51.6494 53.0375 51.9036C52.9724 52.054 52.8829 52.2736 52.7731 52.5542C52.6633 52.8348 52.5332 53.1683 52.3664 53.5343C52.1997 53.9003 52.0696 54.307 51.9069 54.7543L51.427 56.0557C51.2562 56.503 51.0854 56.9463 50.9228 57.3855L50.4551 58.6299C50.3128 59.0366 50.1786 59.37 50.0484 59.6832C49.9183 59.9963 49.837 60.2525 49.7638 60.4396C49.7569 60.4647 49.7429 60.4874 49.7234 60.5047C49.7039 60.5221 49.6798 60.5333 49.654 60.5372C49.6052 60.5372 49.5686 60.5128 49.5442 60.4477C49.5198 60.3826 49.4506 60.1671 49.3693 59.9516L49.1009 59.1992C48.9992 58.9146 48.8894 58.6096 48.7756 58.2842C48.6617 57.9589 48.5438 57.6376 48.4299 57.3163C48.316 56.9951 48.2062 56.6819 48.0964 56.381C47.9866 56.0801 47.889 55.8157 47.8077 55.5677C47.7264 55.3196 47.6572 55.161 47.6003 54.9983C47.5433 54.8357 47.5189 54.7706 47.5149 54.7543C47.5108 54.7381 47.4701 54.7015 47.4417 54.7055C47.4132 54.7096 47.3888 54.734 47.3725 54.7787C47.2343 55.1325 47.096 55.4945 46.9659 55.8686C46.8357 56.2427 46.6893 56.6087 46.5592 56.9707C46.4291 57.3326 46.2908 57.6945 46.1525 58.0402C46.0143 58.3859 45.9004 58.7112 45.7906 59.0122L45.4815 59.8255C45.3921 60.0695 45.3148 60.2688 45.2579 60.4233C45.251 60.4485 45.237 60.4711 45.2175 60.4885C45.198 60.5058 45.1739 60.5171 45.1481 60.5209C45.0993 60.5209 45.0627 60.4965 45.0383 60.4314L44.7943 59.736L44.4445 58.7519C44.3144 58.3859 44.1761 57.9914 44.0379 57.5766C43.8996 57.1618 43.7369 56.7389 43.5865 56.3078L43.1269 55.0431C42.9765 54.6364 42.8301 54.2297 42.6958 53.8841C42.5616 53.5384 42.4396 53.2008 42.3258 52.9202C42.2119 52.6396 42.1224 52.416 42.0452 52.2574C41.9055 51.921 41.7026 51.6145 41.4474 51.3546C41.2487 51.1478 40.9921 51.006 40.7113 50.9479C40.6954 50.9467 40.6801 50.9416 40.6666 50.9331C40.6531 50.9246 40.642 50.9129 40.634 50.8991C40.624 50.8729 40.624 50.8439 40.634 50.8178C40.6392 50.7886 40.6552 50.7625 40.6788 50.7446C40.7063 50.7223 40.741 50.7107 40.7764 50.712H49.7556C49.7704 50.711 49.7852 50.7131 49.7992 50.7179C49.8132 50.7228 49.826 50.7305 49.837 50.7405C49.8577 50.7592 49.8731 50.783 49.8817 50.8096C49.8912 50.8331 49.8912 50.8594 49.8817 50.8828C49.8571 50.9109 49.8244 50.9308 49.7882 50.9398L49.6418 50.9804C49.5767 50.9804 49.5076 51.0292 49.4303 51.0618C49.3506 51.1012 49.2744 51.1475 49.2026 51.2C49.1261 51.255 49.0623 51.3257 49.0155 51.4074C48.9643 51.5007 48.9312 51.6028 48.9179 51.7084C48.9039 51.845 48.9163 51.9831 48.9545 52.115C49.0033 52.298 49.0684 52.5217 49.1578 52.7779C49.2473 53.0341 49.3408 53.3147 49.4466 53.5912C49.5523 53.8678 49.658 54.185 49.7678 54.49C49.8776 54.795 49.9874 55.0837 50.0932 55.3603C50.1989 55.6368 50.2924 55.8808 50.3778 56.1045L50.5771 56.6291C50.5934 56.6724 50.6178 56.6928 50.6503 56.6901C50.6788 56.6901 50.7032 56.6901 50.7154 56.6291C50.7642 56.4989 50.8333 56.3119 50.9187 56.0679C51.0041 55.8239 51.1058 55.5595 51.2115 55.2545L51.549 54.3111L51.8906 53.3432C52.0004 53.03 52.098 52.7413 52.1834 52.4688C52.2688 52.1964 52.342 51.9768 52.3949 51.8019C52.4418 51.6704 52.4418 51.5267 52.3949 51.3952C52.3457 51.2896 52.2683 51.1995 52.1712 51.135C52.0734 51.0725 51.9664 51.0259 51.854 50.9967L51.5775 50.9276C51.5605 50.9248 51.5442 50.9188 51.5295 50.9097C51.5148 50.9006 51.5021 50.8887 51.4921 50.8747C51.4827 50.8498 51.4827 50.8223 51.4921 50.7974C51.4958 50.7708 51.5087 50.7463 51.5287 50.7283C51.554 50.708 51.5859 50.6979 51.6182 50.6998L54.1639 50.7446ZM46.1403 56.6819C46.1688 56.6047 46.2135 56.4908 46.2664 56.3403L46.4494 55.8442L46.6527 55.2667C46.7259 55.0634 46.7869 54.8601 46.8439 54.6852C46.9008 54.5103 46.9496 54.3355 46.9821 54.185C47.0143 54.0709 47.0334 53.9536 47.0391 53.8353C47.0364 53.6979 47.0173 53.5614 46.9821 53.4286C46.9415 53.2781 46.8967 53.1317 46.8439 52.9853C46.791 52.8389 46.73 52.7088 46.6771 52.5786C46.6243 52.4485 46.5714 52.3509 46.5389 52.2736C46.4633 52.1004 46.3721 51.9343 46.2664 51.7775C46.1762 51.6464 46.0665 51.5299 45.9411 51.4318C45.8203 51.3379 45.6821 51.2688 45.5344 51.2285C45.369 51.1823 45.1978 51.1604 45.0261 51.1634C44.9251 51.1638 44.8249 51.1803 44.7292 51.2122C44.6332 51.2429 44.5475 51.2991 44.4811 51.3749C44.4074 51.4632 44.3595 51.5701 44.3429 51.684C44.3164 51.8405 44.3289 52.0011 44.3795 52.1516C44.4283 52.3346 44.4933 52.5583 44.5787 52.8145C44.6641 53.0707 44.7577 53.3513 44.8634 53.6278C44.9691 53.9044 45.0749 54.2216 45.1887 54.5266C45.3026 54.8316 45.4124 55.1203 45.5181 55.3969C45.6239 55.6734 45.7174 55.9174 45.8028 56.1411L46.0021 56.6657C46.0183 56.709 46.0427 56.7294 46.0753 56.7267C46.0997 56.7429 46.1403 56.7226 46.1403 56.6819Z" fill="#9C9FAF"/>
<path d="M63.2204 60.0939C63.236 60.096 63.251 60.1015 63.2644 60.1099C63.2777 60.1183 63.2891 60.1295 63.2977 60.1427C63.3074 60.1675 63.3074 60.1951 63.2977 60.22C63.2917 60.25 63.276 60.2771 63.2529 60.2972C63.2252 60.3188 63.1903 60.329 63.1553 60.3257H58.747C58.7323 60.3267 58.7174 60.3247 58.7035 60.3198C58.6895 60.3149 58.6767 60.3072 58.6657 60.2972C58.6451 60.2801 58.6296 60.2575 58.621 60.2322C58.6112 60.2073 58.6112 60.1797 58.621 60.1549C58.6467 60.1282 58.679 60.1086 58.7145 60.098C58.7633 60.098 58.8487 60.0614 58.9666 60.0207C59.0945 59.9821 59.2133 59.9185 59.3164 59.8336C59.4311 59.7408 59.5207 59.6205 59.5766 59.4839C59.6367 59.3003 59.6295 59.1014 59.5563 58.9227C59.5319 58.8576 59.4994 58.7682 59.4587 58.6421C59.4181 58.516 59.3733 58.3859 59.3286 58.2354C59.2838 58.085 59.2269 57.9304 59.1741 57.7718L59.0276 57.3326C58.987 57.1984 58.9463 57.0845 58.9138 56.9869C58.8812 56.8893 58.8609 56.8365 58.8568 56.8202C58.8539 56.8019 58.8445 56.7852 58.8303 56.7733C58.8161 56.7614 58.7981 56.7549 58.7796 56.7551H55.7174C55.6988 56.7534 55.6801 56.7581 55.6645 56.7684C55.649 56.7788 55.6375 56.7942 55.632 56.8121C55.632 56.869 55.5832 56.9625 55.5425 57.0967C55.5018 57.2309 55.4571 57.3773 55.4042 57.5441C55.3514 57.7108 55.2985 57.8816 55.2456 58.0646C55.1928 58.2476 55.1399 58.4144 55.0952 58.573C55.0504 58.7316 55.0057 58.8658 54.9691 58.9796C54.9441 59.0528 54.9237 59.1275 54.9081 59.2033C54.8736 59.3381 54.8821 59.4803 54.9325 59.61C54.9843 59.7139 55.0611 59.8034 55.1562 59.8702C55.2496 59.9327 55.3526 59.9794 55.4612 60.0085L55.7336 60.0776C55.7685 60.0845 55.7992 60.105 55.819 60.1346C55.8271 60.1597 55.8271 60.1867 55.819 60.2118C55.8172 60.2249 55.8127 60.2375 55.8057 60.2487C55.7987 60.2599 55.7894 60.2695 55.7784 60.2769C55.7544 60.2966 55.724 60.3067 55.693 60.3054H53.0537C53.0383 60.3067 53.0227 60.3048 53.008 60.2999C52.9934 60.295 52.9798 60.2872 52.9683 60.2769C52.9575 60.2707 52.9485 60.2618 52.9421 60.2511C52.9357 60.2405 52.9321 60.2283 52.9317 60.2159C52.9293 60.1886 52.9364 60.1612 52.952 60.1386C52.9725 60.1125 53.0011 60.0939 53.0333 60.0858C53.1559 60.0526 53.2767 60.0132 53.3953 59.9678C53.5127 59.919 53.6245 59.8576 53.7287 59.7848C53.9474 59.624 54.1154 59.4038 54.2127 59.1504C54.2412 59.0772 54.3021 58.9105 54.3997 58.6421C54.4973 58.3737 54.6072 58.0443 54.7454 57.6539L55.2009 56.3566C55.3676 55.8849 55.5344 55.405 55.7011 54.9211C55.8678 54.4371 56.0346 53.9613 56.1972 53.4977C56.3599 53.0341 56.4982 52.6274 56.6039 52.2777C56.7096 51.928 56.8276 51.627 56.9089 51.4034L57.0309 51.0496C57.0466 51.0043 57.0715 50.9627 57.1041 50.9276C57.1424 50.896 57.189 50.8762 57.2383 50.8706C57.34 50.8706 57.462 50.8259 57.6002 50.7934L58.0069 50.6876L58.438 50.5616C58.5762 50.5182 58.7118 50.4694 58.8446 50.4152C58.8649 50.3955 58.8901 50.3817 58.9176 50.3753C58.9451 50.369 58.9738 50.3702 59.0006 50.379C59.0275 50.3878 59.0514 50.4038 59.0698 50.4252C59.0881 50.4467 59.1003 50.4727 59.1049 50.5006L59.2228 50.8584C59.296 51.078 59.3936 51.3708 59.5157 51.7287C59.6377 52.0866 59.7719 52.4932 59.9223 52.9487C60.0728 53.4042 60.2314 53.88 60.3941 54.368C60.5567 54.856 60.7194 55.344 60.8821 55.8239C61.0447 56.3037 61.1911 56.7511 61.3253 57.1537C61.4595 57.5563 61.5775 57.902 61.671 58.1948C61.7645 58.4876 61.8296 58.6828 61.8703 58.7885C61.9321 58.9745 62.0168 59.1521 62.1224 59.3172C62.2119 59.4572 62.3185 59.5856 62.4396 59.6994C62.5482 59.8015 62.6716 59.8865 62.8056 59.9516C62.9366 60.0181 63.0762 60.066 63.2204 60.0939ZM55.8109 56.2021C55.7865 56.2631 55.8109 56.2915 55.8678 56.2915H58.5762C58.6332 56.2915 58.6494 56.2631 58.6332 56.2061C58.6169 56.1492 58.6047 56.1248 58.564 55.9987L58.4054 55.5148C58.3363 55.3196 58.2631 55.1081 58.1858 54.8519C58.1086 54.5957 58.0191 54.3558 57.9337 54.0996C57.8483 53.8434 57.767 53.5994 57.6856 53.3554C57.6043 53.1114 57.5352 52.8918 57.4701 52.7007L57.3156 52.237C57.2749 52.1191 57.2546 52.0581 57.2546 52.05C57.2546 52.0418 57.2261 52.0052 57.1936 52.0093C57.1795 52.0097 57.1659 52.0147 57.1549 52.0235C57.1439 52.0323 57.1361 52.0445 57.1326 52.0581L57.0472 52.3184L56.8479 52.9447C56.7666 53.1968 56.6771 53.4774 56.5795 53.7905C56.4819 54.1037 56.3802 54.4046 56.2826 54.7096C56.185 55.0146 56.0956 55.2952 56.0142 55.5595C55.9329 55.8239 55.9004 56.0394 55.8272 56.2021H55.8109Z" fill="#9C9FAF"/>
<path d="M72.2159 59.4269C72.2408 59.4158 72.2679 59.4101 72.2952 59.4101C72.3225 59.4101 72.3495 59.4158 72.3745 59.4269C72.4273 59.4554 72.4395 59.5123 72.4151 59.6018C72.3806 59.7219 72.3179 59.8321 72.2321 59.9231C72.133 60.0394 72.0164 60.1395 71.8865 60.2199C71.7376 60.3143 71.576 60.3868 71.4066 60.4355C71.2181 60.4923 71.0219 60.5197 70.8251 60.5168C70.6477 60.5165 70.4708 60.5002 70.2964 60.468C70.1222 60.4357 69.9537 60.3781 69.7962 60.2972C69.4564 60.1258 69.1905 59.8367 69.0479 59.4839C68.9663 59.2964 68.9076 59.0998 68.873 58.8983C68.8279 58.648 68.7966 58.3955 68.7795 58.1418C68.75 57.7024 68.6792 57.2667 68.568 56.8405C68.5028 56.5815 68.3942 56.3353 68.2468 56.1126C68.1479 55.9685 68.0053 55.8602 67.8401 55.8035C67.7083 55.7632 67.5713 55.7426 67.4334 55.7425C67.315 55.7299 67.1962 55.7618 67.1 55.832C67.031 55.9241 66.999 56.0387 67.0105 56.1532V58.9999C67.0009 59.1893 67.0507 59.377 67.1528 59.5367C67.2391 59.6678 67.3512 59.7798 67.4822 59.8661C67.5979 59.9401 67.724 59.9963 67.8564 60.0329L68.1248 60.0898C68.1604 60.0981 68.1928 60.1165 68.2183 60.1427C68.2288 60.1515 68.237 60.1628 68.242 60.1756C68.2469 60.1884 68.2486 60.2023 68.2468 60.2159C68.2458 60.2299 68.2421 60.2436 68.2358 60.2561C68.2296 60.2687 68.2208 60.2799 68.2102 60.2891C68.1793 60.3105 68.1419 60.3205 68.1044 60.3175H63.5985C63.5611 60.3205 63.5237 60.3105 63.4928 60.2891C63.4718 60.2696 63.4575 60.244 63.4521 60.2159C63.4523 60.1888 63.4624 60.1627 63.4806 60.1427C63.5076 60.1163 63.5414 60.098 63.5782 60.0898L63.8466 60.0329C63.979 59.9963 64.1051 59.9401 64.2208 59.8661C64.3518 59.7798 64.4639 59.6678 64.5502 59.5367C64.6523 59.377 64.7021 59.1893 64.6925 58.9999V52.0581C64.701 51.8688 64.6513 51.6815 64.5502 51.5213C64.4649 51.3905 64.3526 51.2795 64.2208 51.1959C64.1051 51.122 63.979 51.0658 63.8466 51.0292C63.7246 50.9967 63.6351 50.9723 63.5782 50.9641C63.5412 50.9621 63.5063 50.9461 63.4806 50.9194C63.463 50.8974 63.453 50.8703 63.4521 50.8421C63.4555 50.8133 63.4701 50.787 63.4928 50.7689C63.5232 50.7461 63.5606 50.7346 63.5985 50.7364H67.9743H68.7876C69.0438 50.7407 69.2994 50.7638 69.5522 50.8055C69.8024 50.8487 70.0467 50.9211 70.2801 51.0211C70.5241 51.1316 70.7492 51.2798 70.9471 51.4603C71.1237 51.6195 71.2698 51.8097 71.3781 52.0215C71.4885 52.2341 71.568 52.4614 71.614 52.6965C71.6581 52.9366 71.6677 53.1817 71.6425 53.4245C71.5665 54.0367 71.2595 54.5967 70.7844 54.9902C70.4866 55.2064 70.1516 55.3663 69.7962 55.4619C69.7596 55.4619 69.7393 55.4863 69.7352 55.5066C69.7311 55.527 69.7352 55.5432 69.7759 55.5473L69.9751 55.5961C70.0852 55.6267 70.1926 55.6661 70.2964 55.714C70.4231 55.7738 70.5419 55.8489 70.6502 55.9377C70.7721 56.0343 70.8731 56.1547 70.9471 56.2915C71.0583 56.4988 71.13 56.7249 71.1585 56.9584C71.2005 57.2386 71.2249 57.5211 71.2317 57.8043C71.2521 58.1337 71.2724 58.4021 71.2927 58.6177C71.3037 58.7924 71.3436 58.9642 71.4107 59.126C71.4431 59.2153 71.5011 59.2931 71.5774 59.3497C71.6427 59.3969 71.7156 59.4327 71.7929 59.4554C71.8684 59.4673 71.9452 59.4673 72.0207 59.4554C72.0866 59.4535 72.1521 59.444 72.2159 59.4269ZM67.2016 55.3318H67.6083C67.7602 55.3228 67.9104 55.2955 68.0556 55.2504C68.2115 55.2028 68.3584 55.1299 68.4908 55.0349C68.6425 54.9281 68.7688 54.7893 68.8608 54.6282C68.9786 54.4183 69.0649 54.1922 69.117 53.9572C69.1843 53.6309 69.2157 53.2981 69.2106 52.9649C69.2165 52.6769 69.1906 52.3892 69.1333 52.1069C69.0982 51.9033 69.0236 51.7085 68.9137 51.5335C68.8258 51.4015 68.7034 51.296 68.5599 51.2285C68.415 51.1645 68.2588 51.1299 68.1004 51.1268C67.9625 51.1267 67.8255 51.1473 67.6937 51.1878C67.5685 51.2251 67.4541 51.2921 67.3602 51.383C67.265 51.4795 67.1927 51.5963 67.1488 51.7246C67.0958 51.8873 67.071 52.0578 67.0756 52.2289V55.1935C67.039 55.283 67.0918 55.3318 67.2016 55.3318Z" fill="#9C9FAF"/>
<path d="M78.3526 50.7201C79.0709 50.7047 79.7852 50.8305 80.4551 51.0902C81.0042 51.3086 81.497 51.648 81.8969 52.0831C82.2968 52.5182 82.5935 53.0379 82.7649 53.6034C82.9521 54.2064 83.0453 54.8346 83.0415 55.466C83.0463 56.108 82.9475 56.7465 82.7487 57.357C82.5597 57.9248 82.2566 58.4479 81.8581 58.8942C81.4406 59.3465 80.9281 59.7007 80.3575 59.9312C79.6834 60.197 78.9631 60.3256 78.2387 60.3094H73.2814C73.2439 60.3131 73.2063 60.303 73.1757 60.2809C73.1547 60.2615 73.1404 60.2358 73.135 60.2077C73.1351 60.1807 73.1453 60.1546 73.1635 60.1345C73.1899 60.1074 73.2239 60.089 73.2611 60.0817L73.5295 60.0247C73.6615 59.9874 73.7875 59.9312 73.9036 59.858C74.0346 59.7717 74.1467 59.6596 74.233 59.5286C74.3335 59.3681 74.3831 59.181 74.3753 58.9918V52.0581C74.3818 51.869 74.3323 51.6823 74.233 51.5213C74.1478 51.3905 74.0354 51.2795 73.9036 51.1959C73.7875 51.1227 73.6615 51.0666 73.5295 51.0292C73.4075 50.9967 73.318 50.9723 73.2611 50.9641C73.2426 50.9636 73.2245 50.9593 73.2078 50.9516C73.191 50.9439 73.1759 50.933 73.1635 50.9194C73.1459 50.8974 73.1359 50.8703 73.135 50.8421C73.1384 50.8133 73.153 50.787 73.1757 50.7689C73.2057 50.7454 73.2434 50.7338 73.2814 50.7364L78.3526 50.7201ZM78.2387 59.8783C78.5841 59.8872 78.9208 59.7701 79.1862 59.5489C79.4678 59.3022 79.6879 58.993 79.8288 58.6461C80.0104 58.2045 80.1335 57.7411 80.1948 57.2675C80.2725 56.6865 80.3105 56.1009 80.3087 55.5148C80.3123 54.9395 80.2756 54.3647 80.1989 53.7946C80.1401 53.3345 80.024 52.8837 79.8532 52.4525C79.7205 52.1116 79.5135 51.8046 79.2473 51.5538C78.9974 51.3349 78.6837 51.2022 78.3526 51.1756H78.1208H77.1976C77.0702 51.1685 76.945 51.2107 76.8479 51.2935C76.8046 51.3346 76.7709 51.3846 76.7491 51.4401C76.7273 51.4957 76.718 51.5553 76.7218 51.6148V56.9259C76.7174 57.3811 76.7419 57.8361 76.795 58.2883C76.8283 58.6063 76.9135 58.9168 77.0472 59.2073C77.1455 59.4261 77.3087 59.6093 77.5148 59.7319C77.7387 59.8459 77.9876 59.9018 78.2387 59.8946V59.8783Z" fill="#9C9FAF"/>
<path d="M40.939 38.6054C41.4019 38.7136 41.8433 38.8992 42.2444 39.1544C42.5621 39.358 42.8381 39.6203 43.0577 39.9271C43.2511 40.2075 43.3891 40.5222 43.4644 40.8543C43.5428 41.1889 43.5824 41.5314 43.5823 41.875C43.5844 42.3283 43.5016 42.7779 43.3383 43.2008C43.1708 43.629 42.8998 44.0091 42.5494 44.3069C42.1321 44.6576 41.6458 44.9167 41.122 45.0674C40.4164 45.2699 39.6843 45.3645 38.9504 45.348H32.586C32.5334 45.3515 32.4813 45.3356 32.4396 45.3033C32.4099 45.2789 32.3909 45.2439 32.3867 45.2057C32.3849 45.1871 32.3873 45.1683 32.3936 45.1507C32.3999 45.1331 32.4101 45.1172 32.4233 45.104C32.4585 45.0644 32.5056 45.0372 32.5575 45.0267C32.6348 45.0267 32.7568 44.9861 32.9235 44.9413C33.1044 44.894 33.2762 44.8171 33.4319 44.7136C33.6107 44.5992 33.7632 44.4481 33.8792 44.2703C34.0186 44.051 34.0868 43.7939 34.0744 43.5343V34.0914C34.0852 33.8332 34.0171 33.5779 33.8792 33.3594C33.7632 33.1816 33.6107 33.0305 33.4319 32.9161C33.2744 32.8159 33.1031 32.7392 32.9235 32.6884C32.7582 32.645 32.6362 32.6165 32.5575 32.603C32.5061 32.5995 32.458 32.5762 32.4233 32.5379C32.41 32.524 32.3998 32.5073 32.3935 32.489C32.3872 32.4708 32.3849 32.4514 32.3867 32.4322C32.3909 32.394 32.4099 32.3589 32.4396 32.3346C32.4818 32.3037 32.5339 32.2892 32.586 32.2939H39.3164C39.8911 32.2776 40.4645 32.3588 41.0122 32.5338C41.4244 32.6699 41.8009 32.8964 42.1143 33.1967C42.3917 33.472 42.597 33.8114 42.7121 34.1849C42.8366 34.5794 42.897 34.9913 42.891 35.4049C42.8899 35.7028 42.8585 35.9999 42.7975 36.2915C42.7309 36.5904 42.6213 36.8781 42.4721 37.1455C42.3111 37.4278 42.105 37.6819 41.8621 37.8978C41.5805 38.148 41.2624 38.3537 40.9187 38.5078C40.8821 38.5078 40.8658 38.5485 40.8739 38.5688C40.8821 38.5892 40.9024 38.5932 40.939 38.6054ZM37.279 37.7555C37.2707 37.9126 37.3231 38.0669 37.4254 38.1866C37.4823 38.2415 37.55 38.2839 37.6242 38.3113C37.6984 38.3386 37.7775 38.3501 37.8564 38.3452C38.0475 38.3412 38.2363 38.3026 38.4136 38.2313C38.6399 38.1356 38.8354 37.9794 38.9788 37.7799C39.1824 37.4973 39.3301 37.1785 39.414 36.8405C39.5402 36.3258 39.5949 35.7963 39.5767 35.2667C39.5767 34.982 39.5767 34.6933 39.5482 34.4045C39.5313 34.1359 39.4793 33.8707 39.3937 33.6156C39.32 33.3966 39.1928 33.1995 39.0236 33.0422C38.8378 32.8862 38.5985 32.8089 38.3566 32.8266C38.16 32.819 37.9649 32.8639 37.7914 32.9568C37.6393 33.0528 37.5223 33.1955 37.4579 33.3635C37.3719 33.5721 37.3198 33.7931 37.3034 34.0182C37.279 34.2825 37.2668 34.5835 37.2668 34.9332L37.279 37.7555ZM38.564 44.7949C38.7837 44.7955 38.9991 44.735 39.1862 44.6201C39.3494 44.5152 39.488 44.3765 39.5929 44.2134C39.7097 44.0344 39.7975 43.8382 39.8532 43.6319C39.9182 43.4228 39.9685 43.2095 40.0037 42.9934C40.0281 42.7738 40.0443 42.5664 40.0484 42.3671C40.0525 42.1678 40.0484 41.993 40.0484 41.8506C40.0534 41.4409 40.0139 41.0318 39.9305 40.6306C39.8798 40.3198 39.7796 40.0191 39.6336 39.74C39.5237 39.5446 39.3774 39.372 39.2025 39.2317C39.0591 39.122 38.9001 39.0343 38.7308 38.9714C38.5834 38.9208 38.4305 38.888 38.2753 38.8738H37.9134C37.7405 38.8649 37.5705 38.9215 37.4376 39.0324C37.3802 39.0881 37.3354 39.1553 37.3059 39.2296C37.2765 39.3039 37.2631 39.3837 37.2668 39.4635V42.5054C37.2644 42.822 37.282 43.1385 37.3196 43.4529C37.3454 43.7018 37.4113 43.9449 37.5148 44.1727C37.6063 44.3599 37.7469 44.5187 37.9215 44.6323C38.1111 44.7471 38.3303 44.8037 38.5518 44.7949H38.564Z" fill="#9C9FAF"/>
<path d="M56.2664 42.5624C56.303 42.4566 56.364 42.4119 56.4494 42.42C56.5348 42.4282 56.5754 42.4892 56.5754 42.5908V45.161C56.5754 45.287 56.5063 45.348 56.3721 45.348H46.1037C46.0511 45.3515 45.999 45.3356 45.9573 45.3033C45.9275 45.279 45.9086 45.2439 45.9044 45.2057C45.9025 45.1867 45.9052 45.1676 45.9122 45.1499C45.9193 45.1322 45.9306 45.1164 45.9451 45.104C45.9798 45.0682 46.0257 45.0452 46.0752 45.039C46.1525 45.039 46.2745 44.9983 46.4412 44.9536C46.6221 44.9063 46.7939 44.8293 46.9496 44.7258C47.1284 44.6115 47.2809 44.4604 47.3969 44.2826C47.5363 44.0632 47.6045 43.8061 47.5921 43.5465V34.0914C47.6028 33.8333 47.5348 33.578 47.3969 33.3594C47.2809 33.1816 47.1284 33.0305 46.9496 32.9162C46.7921 32.816 46.6208 32.7393 46.4412 32.6884C46.2758 32.645 46.1538 32.6166 46.0752 32.603C46.0502 32.6016 46.0258 32.5952 46.0034 32.584C45.981 32.5728 45.9612 32.5571 45.9451 32.538C45.9305 32.5247 45.9193 32.5083 45.9122 32.4899C45.9052 32.4715 45.9025 32.4518 45.9044 32.4322C45.9086 32.394 45.9275 32.359 45.9573 32.3346C45.9995 32.3037 46.0516 32.2893 46.1037 32.2939H55.5303C55.6645 32.2939 55.7336 32.355 55.7336 32.477V34.4859C55.7336 34.5835 55.697 34.6364 55.6198 34.6486C55.5786 34.6509 55.5377 34.6405 55.5028 34.6186C55.4678 34.5968 55.4405 34.5646 55.4246 34.5266C55.3839 34.4398 55.3066 34.3043 55.1928 34.1199C55.0558 33.9131 54.8932 33.7245 54.7088 33.5587C54.478 33.3539 54.2175 33.1852 53.9361 33.0585C53.5856 32.9035 53.205 32.8285 52.8219 32.8389C52.5489 32.8391 52.2766 32.865 52.0085 32.9162C51.7809 32.9585 51.563 33.0426 51.366 33.1642C51.1954 33.2721 51.0554 33.4219 50.9593 33.5994C50.853 33.7964 50.8011 34.0182 50.8089 34.2419V38.1785C50.8086 38.1973 50.812 38.2159 50.819 38.2334C50.826 38.2508 50.8364 38.2667 50.8495 38.2801C50.8769 38.3063 50.9133 38.3209 50.9512 38.3208H52.1712C52.4196 38.3307 52.666 38.2716 52.8829 38.15C53.0528 38.0438 53.2005 37.9057 53.318 37.7433C53.416 37.6027 53.4915 37.4477 53.5417 37.2838C53.578 37.1704 53.6079 37.0549 53.6311 36.9381C53.6319 36.9163 53.6379 36.895 53.6485 36.8759C53.6591 36.8568 53.674 36.8405 53.6921 36.8283C53.7227 36.8062 53.7603 36.7961 53.7979 36.7998C53.8352 36.8041 53.8697 36.8213 53.8955 36.8486C53.9104 36.8643 53.9221 36.8829 53.9297 36.9031C53.9374 36.9234 53.941 36.9449 53.9402 36.9666V40.2565C53.942 40.3015 53.9259 40.3454 53.8955 40.3785C53.8697 40.4058 53.8352 40.4231 53.7979 40.4273C53.7602 40.4274 53.7233 40.4161 53.6921 40.3948C53.6733 40.3834 53.6577 40.3673 53.647 40.348C53.6363 40.3288 53.6308 40.307 53.6311 40.285C53.6078 40.1695 53.5779 40.0555 53.5417 39.9434C53.4923 39.7792 53.4168 39.624 53.318 39.4839C53.2017 39.3205 53.0537 39.1822 52.8829 39.0772C52.6671 38.9524 52.4202 38.8917 52.1712 38.9023H50.9512C50.9129 38.9041 50.8767 38.9201 50.8495 38.9471C50.836 38.9602 50.8254 38.976 50.8184 38.9936C50.8113 39.0111 50.8081 39.0299 50.8089 39.0487V43.3594C50.8018 43.5719 50.854 43.7822 50.9596 43.9668C51.0651 44.1513 51.2199 44.3029 51.4067 44.4046C51.9329 44.6728 52.5209 44.7963 53.1106 44.7624C53.4331 44.7665 53.7542 44.7199 54.0622 44.6242C54.333 44.5376 54.5924 44.4188 54.8349 44.2704C55.044 44.1395 55.2365 43.9838 55.4083 43.8068C55.5644 43.6471 55.7098 43.4773 55.8434 43.2984C55.9506 43.1612 56.0446 43.0141 56.124 42.8592C56.1932 42.7128 56.242 42.6193 56.2664 42.5624Z" fill="#9C9FAF"/>
<path d="M59.0521 45.2993V41.8549C59.0521 41.7451 59.0887 41.6841 59.1659 41.6678C59.2037 41.6593 59.2433 41.666 59.276 41.6866C59.3088 41.7072 59.3321 41.7399 59.3408 41.7776C59.5508 42.2675 59.8054 42.7372 60.1013 43.1806C60.3505 43.5681 60.6562 43.9162 61.0081 44.2135C61.3356 44.4826 61.7071 44.6931 62.1061 44.8357C62.5351 44.9835 62.9863 45.0564 63.44 45.0513C63.7159 45.0546 63.9906 45.0134 64.2534 44.9293C64.4995 44.8516 64.7257 44.7212 64.9162 44.547C65.1144 44.3602 65.2698 44.1326 65.3717 43.8801C65.4911 43.5689 65.5478 43.2372 65.5384 42.9041C65.5451 42.575 65.4785 42.2485 65.3432 41.9484C65.2108 41.6757 65.0303 41.4292 64.8105 41.2204C64.5769 40.9983 64.3159 40.807 64.0338 40.6511C63.7491 40.4925 63.4604 40.3502 63.1635 40.22C62.8666 40.0899 62.5128 39.9313 62.1916 39.7768C61.8768 39.6234 61.5725 39.4495 61.2806 39.2562C60.987 39.0628 60.7145 38.8393 60.4673 38.5893C60.2252 38.3248 60.0213 38.0278 59.8613 37.7068C59.7182 37.4291 59.6037 37.1375 59.5197 36.8365C59.4382 36.537 59.3972 36.2279 59.3977 35.9175C59.3999 35.4461 59.4824 34.9785 59.6417 34.5348C59.8115 34.0584 60.09 33.6281 60.4551 33.2782C60.8645 32.8764 61.3535 32.5647 61.8906 32.3632C62.5772 32.1149 63.3039 31.9963 64.0338 32.0134C64.8656 31.9917 65.6939 32.1298 66.4738 32.4201C66.6868 32.5024 66.8923 32.6031 67.0878 32.7211C67.1707 32.7739 67.2508 32.8309 67.3278 32.8919C67.3625 32.9136 67.3914 32.9435 67.4119 32.9789C67.4324 33.0144 67.4441 33.0543 67.4457 33.0952V34.8601C67.4469 34.9018 67.4324 34.9425 67.4051 34.974C67.3838 35.0005 67.3533 35.0179 67.3197 35.0228C67.2878 35.0323 67.2539 35.0323 67.2221 35.0228C67.1855 35.0024 67.1579 34.969 67.1448 34.9293C67.0193 34.6258 66.874 34.331 66.7096 34.0468C66.5396 33.7614 66.3224 33.507 66.0671 33.2945C65.7923 33.0589 65.4766 32.8756 65.1358 32.7536C64.7101 32.6045 64.2611 32.5329 63.8101 32.5421C63.248 32.5077 62.6923 32.6766 62.2444 33.0179C62.0591 33.1752 61.9122 33.3727 61.8149 33.5954C61.7177 33.8182 61.6726 34.0602 61.6832 34.303C61.6759 34.5821 61.7286 34.8594 61.8378 35.1163C61.9587 35.3717 62.1385 35.5947 62.3624 35.767C62.6696 36.0063 63.0024 36.2108 63.3546 36.377C63.7613 36.5803 64.2859 36.8081 64.9122 37.0602C65.4694 37.2859 66.0068 37.558 66.5185 37.8736C66.9533 38.1254 67.3492 38.4391 67.6938 38.8048C68.006 39.1529 68.2465 39.5592 68.4014 40.0004C68.567 40.4915 68.6468 41.0073 68.6373 41.5254C68.6415 42.073 68.5378 42.6161 68.3323 43.1237C68.1261 43.6233 67.8074 44.0686 67.401 44.425C66.936 44.8195 66.3968 45.1168 65.815 45.2993C65.0856 45.524 64.3251 45.6311 63.562 45.6165C63.0132 45.6163 62.4667 45.5466 61.9353 45.4091C61.3985 45.2709 60.878 45.1163 60.3737 44.9496C60.3046 44.9252 60.2273 44.8967 60.1419 44.8723C60.0641 44.8489 59.9833 44.8366 59.902 44.8357C59.8375 44.8312 59.7729 44.8422 59.7135 44.8676C59.6541 44.8931 59.6016 44.9323 59.5604 44.9821C59.4818 45.1007 59.4138 45.2259 59.3571 45.3563C59.3474 45.3947 59.3237 45.4282 59.2905 45.45C59.2574 45.4719 59.2173 45.4805 59.1781 45.4742C59.0927 45.4579 59.0521 45.401 59.0521 45.2993Z" fill="#9C9FAF"/>
<path d="M82.1915 32.4769V35.165C82.1915 35.2667 82.1468 35.3236 82.0655 35.3318C81.9841 35.3399 81.9191 35.2952 81.8825 35.1935C81.8459 35.0918 81.8093 35.039 81.7442 34.8966C81.6654 34.7349 81.5757 34.5786 81.4758 34.429C81.3532 34.2406 81.2173 34.0612 81.0691 33.8922C80.8924 33.701 80.6946 33.5305 80.4795 33.3838C80.2434 33.2244 79.9878 33.0959 79.719 33.0016C79.4163 32.9004 79.0987 32.8509 78.7796 32.8551C78.6407 32.8497 78.5022 32.8732 78.3729 32.9243C78.2764 32.9696 78.1916 33.0364 78.1248 33.1195C78.0634 33.2051 78.0193 33.3017 77.9947 33.4042C77.9702 33.5153 77.9539 33.6281 77.9459 33.7417V43.5465C77.9335 43.8061 78.0017 44.0632 78.1411 44.2826C78.2597 44.4596 78.4133 44.6105 78.5925 44.7258C78.7468 44.8292 78.9172 44.9062 79.0968 44.9536C79.2676 44.9983 79.3896 45.0227 79.4669 45.039C79.5161 45.0461 79.5617 45.0689 79.597 45.104C79.6102 45.1172 79.6204 45.1332 79.6267 45.1508C79.6331 45.1683 79.6354 45.1871 79.6336 45.2057C79.6322 45.2248 79.6268 45.2434 79.6177 45.2602C79.6086 45.2771 79.596 45.2917 79.5807 45.3033C79.5403 45.335 79.4897 45.3509 79.4384 45.348H73.257C73.2044 45.3515 73.1523 45.3356 73.1106 45.3033C73.0809 45.279 73.0619 45.2439 73.0577 45.2057C73.0559 45.1871 73.0583 45.1683 73.0646 45.1508C73.0709 45.1332 73.0811 45.1172 73.0943 45.104C73.1296 45.0689 73.1752 45.0461 73.2245 45.039C73.3017 45.039 73.4278 44.9983 73.5945 44.9536C73.7754 44.9063 73.9472 44.8293 74.1029 44.7258C74.2817 44.6115 74.4342 44.4604 74.5502 44.2826C74.6896 44.0632 74.7578 43.8061 74.7454 43.5465V40.6266C74.7454 40.1101 74.7454 39.5815 74.7454 39.0365C74.7454 38.4916 74.7454 37.9548 74.7454 37.4098V34.1565C74.7454 33.9979 74.7454 33.8352 74.7454 33.6807C74.7352 33.5412 74.7036 33.404 74.6519 33.274C74.6013 33.15 74.5149 33.0438 74.4038 32.969C74.2607 32.8831 74.0945 32.8434 73.928 32.8551C73.6062 32.8506 73.2859 32.9001 72.9805 33.0016C72.7113 33.0951 72.4557 33.2236 72.22 33.3838C72.0061 33.5305 71.8097 33.701 71.6344 33.8922C71.4793 34.0605 71.3366 34.2399 71.2074 34.429C71.1064 34.5787 71.0153 34.7349 70.9349 34.8966C70.8848 34.9925 70.8413 35.0917 70.8048 35.1935C70.7641 35.2952 70.7031 35.344 70.6177 35.3318C70.5323 35.3196 70.4957 35.2667 70.4957 35.165V32.4769C70.4957 32.3549 70.5608 32.2939 70.695 32.2939H81.9923C82.1224 32.2939 82.1915 32.3549 82.1915 32.4769Z" fill="#9C9FAF"/>
</svg>
