<svg width="112" height="112" viewBox="0 0 112 112" fill="none" xmlns="http://www.w3.org/2000/svg">
<path d="M54.0513 82.4424C39.9839 76.1446 -1.09841 74.1641 9.84331 39.1166C9.99599 38.6119 10.1317 38.12 10.2929 37.645C10.454 37.17 10.5982 36.7077 10.7594 36.2624C11.6866 33.6637 12.7845 31.1291 14.0461 28.6753C15.9715 27.6023 17.036 24.4555 17.1293 22C15.8952 22.8592 14.9104 24.0298 14.2751 25.3928C13.6347 26.7838 13.5923 27.7677 13.8256 28.5226C12.4846 30.9841 11.3142 33.5347 10.3225 36.1564C9.98751 37.0512 9.65671 38.0139 9.33864 39.036C-1.93812 75.2158 40.1875 77.9809 52.8935 84.1007C53.1692 84.2279 53.4321 84.3678 53.695 84.4993C57.7282 86.5986 63.7589 90.8862 63.7546 95.1866C64.4897 94.8115 65.1982 94.3864 65.8751 93.9143C64.501 88.4604 59.0853 84.9065 54.0513 82.4424Z" fill="#9C9FAF"/>
<path d="M40.1069 73.1419C41.1918 74.9001 42.6393 76.4065 44.3529 77.5605C46.0664 78.7146 48.0065 79.4897 50.0435 79.8342C50.8917 75.1691 43.5548 71.1656 38.7837 69.7661C39.0485 70.9527 39.4948 72.0914 40.1069 73.1419Z" fill="#9C9FAF"/>
<path d="M39.2375 76.8953C39.3273 76.0464 39.1806 75.1892 38.8134 74.4185C37.8974 72.4253 35.2001 69.499 30.0261 67.1453C30.306 71.9715 34.2756 76.679 39.2375 76.8953Z" fill="#9C9FAF"/>
<path d="M29.1015 73.8841C29.9497 70.3514 25.6706 65.8263 22.7698 63.5531C21.595 68.3327 24.6358 73.1844 29.1015 73.8841Z" fill="#9C9FAF"/>
<path d="M19.8732 69.3971C21.3406 66.6193 19.2794 61.4707 17.829 58.7947C17.5263 59.1636 17.254 59.5565 17.0148 59.9694C15.1021 63.3368 16.2387 67.8025 19.8732 69.3971Z" fill="#9C9FAF"/>
<path d="M15.2378 52.535C11.0689 54.7107 10.1232 59.8295 12.7695 62.5692C15.0766 60.7371 15.5771 55.3256 15.2378 52.535Z" fill="#9C9FAF"/>
<path d="M15.1657 44.9564C10.6364 45.8555 8.02394 50.0456 9.16901 53.4384C12.2013 52.7386 14.466 47.9718 15.1657 44.9564Z" fill="#9C9FAF"/>
<path d="M11.8748 38.595C10.3565 39.9012 9.47441 41.3516 9.39807 43.3152C12.6043 43.7393 15.8825 39.4983 17.3414 36.606C15.3401 36.5946 13.4009 37.3002 11.8748 38.595Z" fill="#9C9FAF"/>
<path d="M12.4091 33.3064C15.3184 34.4388 19.2158 30.9484 21.1455 28.336C17.494 27.7041 13.3421 29.7694 12.4091 33.3064Z" fill="#9C9FAF"/>
<path d="M42.1256 84.1304C41.239 84.8095 40.5 85.6621 39.9539 86.6363C39.4077 87.6105 39.0658 88.6857 38.9491 89.7964C43.101 89.6776 48.8984 87.2264 48.2792 83.0999C47.2489 82.7454 46.1463 82.654 45.0716 82.834C43.9969 83.0139 42.9842 83.4596 42.1256 84.1304Z" fill="#9C9FAF"/>
<path d="M29.284 83.3203C28.7012 84.1581 28.2837 85.0995 28.0541 86.0939C33.1093 86.518 38.8601 84.3126 37.9525 79.9996C36.3412 79.6424 34.6604 79.7667 33.1192 80.3571C31.5779 80.9475 30.2443 81.9779 29.284 83.3203Z" fill="#9C9FAF"/>
<path d="M16.9894 80.6612C23.4908 82.5442 27.8845 79.813 27.6554 76.5432C23.3593 75.0589 18.7239 77.0522 16.9894 80.6612Z" fill="#9C9FAF"/>
<path d="M18.0962 71.4159C14.309 68.9943 9.33436 69.5287 6.81946 71.84C12.214 75.8902 17.4389 74.7239 18.0962 71.4159Z" fill="#9C9FAF"/>
<path d="M10.6618 63.621C8.23594 60.0755 3.81684 58.5021 0.636108 59.3715C3.17221 64.079 8.32076 66.8568 10.6618 63.621Z" fill="#9C9FAF"/>
<path d="M6.28089 53.8371C6.5765 53.7672 6.86166 53.6588 7.12908 53.5148C6.66258 50.211 3.65996 46.6316 0 46.0634C0.69552 51.2925 3.81688 54.3545 6.28089 53.8371Z" fill="#9C9FAF"/>
<path d="M7.7695 42.8444C8.01341 41.1144 7.71139 39.3515 6.90554 37.8013C6.09969 36.2512 4.83019 34.9912 3.27406 34.197C2.76939 39.2268 4.86867 43.1328 7.7695 42.8444Z" fill="#9C9FAF"/>
<path d="M11.1962 32.6873C12.4685 29.6084 11.1538 25.7363 8.65163 23.7812C7.55322 27.5472 8.24026 32.1996 11.1962 32.6873Z" fill="#9C9FAF"/>
<path d="M57.9487 82.4424C72.016 76.1446 113.081 74.1725 102.157 39.1166C102.004 38.6119 101.868 38.12 101.707 37.645C101.546 37.17 101.402 36.7077 101.241 36.2624C100.318 33.664 99.2238 31.1295 97.9666 28.6753C96.0412 27.6023 94.9767 24.4555 94.8834 22C96.1175 22.8592 97.1023 24.0298 97.7376 25.3928C98.378 26.7838 98.4204 27.7677 98.1871 28.5226C99.5281 30.9841 100.698 33.5347 101.69 36.1564C102.025 37.0512 102.356 38.0139 102.674 39.036C113.951 75.2031 71.8252 77.9852 59.115 84.0879C58.8435 84.2152 58.5806 84.3551 58.3177 84.4866C54.2845 86.5859 48.2538 90.8735 48.2581 95.1739C47.523 94.7988 46.8145 94.3737 46.1376 93.9016C47.4989 88.4604 52.9147 84.9065 57.9487 82.4424Z" fill="#9C9FAF"/>
<path d="M71.8931 73.1419C70.8104 74.8977 69.3662 76.4026 67.6565 77.5565C65.9468 78.7105 64.0109 79.4869 61.9777 79.8342C61.1295 75.1691 68.4664 71.1656 73.2375 69.7661C72.9641 70.9534 72.5107 72.0918 71.8931 73.1419Z" fill="#9C9FAF"/>
<path d="M72.7625 76.8953C72.6727 76.0464 72.8195 75.1892 73.1866 74.4185C74.1026 72.4253 76.8084 69.4905 81.9739 67.1453C81.694 71.9715 77.7244 76.679 72.7625 76.8953Z" fill="#9C9FAF"/>
<path d="M82.8983 73.8841C82.0501 70.3514 86.3293 65.8263 89.2301 63.5531C90.4048 68.3327 87.3641 73.1844 82.8983 73.8841Z" fill="#9C9FAF"/>
<path d="M92.1269 69.3971C90.6595 66.6193 92.7206 61.4707 94.171 58.7947C94.4787 59.1672 94.7553 59.5643 94.998 59.9822C96.898 63.3368 95.7614 67.8025 92.1269 69.3971Z" fill="#9C9FAF"/>
<path d="M96.7622 52.535C100.935 54.7107 101.877 59.8295 99.2389 62.5692C96.9233 60.7371 96.4229 55.3256 96.7622 52.535Z" fill="#9C9FAF"/>
<path d="M96.8342 44.9564C101.364 45.8555 103.976 50.0456 102.831 53.4384C99.7987 52.7386 97.5425 47.9718 96.8342 44.9564Z" fill="#9C9FAF"/>
<path d="M100.129 38.595C101.648 39.9012 102.53 41.3516 102.606 43.3152C99.4 43.7393 96.1217 39.4983 94.6628 36.606C96.6642 36.5946 98.6034 37.3002 100.129 38.595Z" fill="#9C9FAF"/>
<path d="M99.5909 33.3064C96.6816 34.4388 92.7841 30.9484 90.8545 28.336C94.506 27.7041 98.6579 29.7694 99.5909 33.3064Z" fill="#9C9FAF"/>
<path d="M69.8743 84.1304C70.761 84.8095 71.4999 85.6621 72.0461 86.6363C72.5922 87.6105 72.9341 88.6857 73.0508 89.7964C68.8989 89.6776 63.1015 87.2264 63.7207 83.0999C64.7511 82.7454 65.8537 82.654 66.9283 82.834C68.003 83.0139 69.0157 83.4596 69.8743 84.1304Z" fill="#9C9FAF"/>
<path d="M82.6991 83.3203C83.2819 84.1581 83.6993 85.0995 83.929 86.0939C78.8737 86.518 73.123 84.3126 74.0306 79.9996C75.6419 79.6424 77.3227 79.7667 78.8639 80.3571C80.4051 80.9475 81.7388 81.9779 82.6991 83.3203Z" fill="#9C9FAF"/>
<path d="M94.9978 80.6612C88.4964 82.5442 84.1028 79.813 84.3318 76.5432C88.6364 75.0589 93.276 77.0522 94.9978 80.6612Z" fill="#9C9FAF"/>
<path d="M93.9037 71.4159C97.6909 68.9943 102.666 69.5287 105.18 71.84C99.7859 75.8902 94.5738 74.7239 93.9037 71.4159Z" fill="#9C9FAF"/>
<path d="M101.359 63.621C103.785 60.0755 108.217 58.5021 111.385 59.38C108.828 64.079 103.679 66.8568 101.359 63.621Z" fill="#9C9FAF"/>
<path d="M105.719 53.8371C105.416 53.769 105.124 53.6606 104.85 53.5148C105.337 50.211 108.34 46.6316 112 46.0634C111.304 51.2925 108.179 54.3545 105.719 53.8371Z" fill="#9C9FAF"/>
<path d="M104.231 42.8444C103.987 41.1144 104.289 39.3515 105.094 37.8013C105.9 36.2512 107.17 34.9912 108.726 34.197C109.231 39.2268 107.131 43.1328 104.231 42.8444Z" fill="#9C9FAF"/>
<path d="M100.804 32.6873C99.5315 29.6084 100.846 25.7363 103.348 23.7812C104.447 27.5472 103.76 32.1996 100.804 32.6873Z" fill="#9C9FAF"/>
<path d="M40.2384 59.6047C40.2708 59.6106 40.2997 59.6288 40.3189 59.6556C40.3294 59.6829 40.3294 59.7131 40.3189 59.7404C40.3119 59.7701 40.2955 59.7969 40.2723 59.8167C40.2436 59.84 40.2074 59.852 40.1705 59.8507H35.5054C35.4745 59.8514 35.4443 59.8409 35.4206 59.821C35.3977 59.8026 35.3813 59.7773 35.374 59.7489C35.3673 59.7373 35.3637 59.7241 35.3637 59.7107C35.3637 59.6973 35.3673 59.6841 35.374 59.6725C35.3976 59.6409 35.4325 59.6196 35.4715 59.6132L35.7345 59.5326C35.8668 59.488 35.9902 59.4206 36.0992 59.3333C36.2186 59.2362 36.3119 59.1108 36.3706 58.9685C36.4319 58.7766 36.4229 58.5692 36.3452 58.3833C36.3197 58.3197 36.29 58.2221 36.2476 58.0949L36.1077 57.6708C36.061 57.5181 36.0059 57.357 35.9507 57.1916C35.8956 57.0262 35.8405 56.8735 35.7981 56.7335C35.7557 56.5936 35.7132 56.4706 35.6793 56.3731C35.6454 56.2755 35.6242 56.2161 35.6199 56.1949C35.6169 56.1758 35.6071 56.1585 35.5923 56.146C35.5775 56.1336 35.5587 56.1268 35.5394 56.1271H32.3926C32.3734 56.1266 32.3546 56.1321 32.3387 56.1427C32.3227 56.1533 32.3105 56.1686 32.3035 56.1865C32.3035 56.2458 32.2526 56.3434 32.2102 56.4833C32.1678 56.6233 32.1211 56.776 32.066 56.9498C32.0109 57.1237 31.9557 57.3061 31.9006 57.4927C31.8455 57.6793 31.7903 57.8616 31.7394 58.0228C31.6886 58.184 31.6461 58.3282 31.6122 58.4469C31.5856 58.5231 31.5643 58.601 31.5486 58.6802C31.5056 58.8271 31.5146 58.9844 31.574 59.1255C31.6269 59.2335 31.7074 59.3257 31.8073 59.3926C31.9038 59.4594 32.0116 59.5082 32.1254 59.5368L32.4053 59.6132C32.4234 59.6149 32.4408 59.6208 32.4562 59.6304C32.4717 59.6399 32.4847 59.6529 32.4943 59.6683C32.5106 59.6925 32.5166 59.7222 32.511 59.7508C32.5054 59.7794 32.4888 59.8046 32.4647 59.821C32.4406 59.8402 32.4107 59.8507 32.3798 59.8507H29.6359C29.6025 59.8507 29.5699 59.8403 29.5426 59.821C29.5327 59.8125 29.5246 59.8021 29.5188 59.7905C29.513 59.7788 29.5095 59.7661 29.5087 59.7531C29.4992 59.7286 29.4992 59.7013 29.5087 59.6768C29.5181 59.6621 29.5306 59.6496 29.5452 59.6401C29.5598 59.6306 29.5763 59.6243 29.5935 59.6216C29.7214 59.5856 29.8474 59.5432 29.971 59.4944C30.0925 59.4443 30.2078 59.3803 30.3145 59.3036C30.5446 59.137 30.7214 58.9071 30.8234 58.642C30.8531 58.5699 30.9167 58.3918 31.0142 58.1119C31.1118 57.832 31.2348 57.4884 31.379 57.0813L31.854 55.7327C32.0236 55.2365 32.2017 54.736 32.3756 54.2314C32.5495 53.7267 32.7234 53.2305 32.8888 52.747C33.0542 52.2636 33.2068 51.8395 33.3341 51.4747C33.4613 51.11 33.5673 50.7962 33.6479 50.5672C33.7285 50.3381 33.7751 50.2109 33.7794 50.194C33.7944 50.1471 33.819 50.1038 33.8515 50.0667C33.8922 50.0331 33.9429 50.0137 33.9957 50.0116L34.3731 49.9268L34.7972 49.8165C34.9442 49.7769 35.0856 49.7345 35.2213 49.6893C35.3697 49.6384 35.5054 49.5917 35.6454 49.5366C35.7853 49.4815 35.7896 49.4857 35.8278 49.5069C35.8724 49.5337 35.9056 49.576 35.9211 49.6257L36.044 49.9946L36.3452 50.9022C36.4724 51.2754 36.6166 51.6995 36.7692 52.1745C36.9219 52.6495 37.0916 53.1499 37.2612 53.6588L37.7701 55.1771C37.9355 55.6818 38.0924 56.1398 38.2324 56.5597C38.3723 56.9795 38.4911 57.3442 38.5929 57.6454C38.6947 57.9465 38.7583 58.1585 38.7964 58.2645C38.8632 58.4583 38.9529 58.6434 39.0636 58.8159C39.1569 58.9633 39.268 59.0986 39.3944 59.2188C39.5087 59.3238 39.6372 59.4123 39.7761 59.4817C39.9233 59.5452 40.0791 59.5866 40.2384 59.6047ZM32.5113 55.5461C32.4859 55.6097 32.5113 55.6436 32.5707 55.6436H35.3909C35.4503 55.6436 35.4715 55.6139 35.4503 55.5546C35.4291 55.4952 35.4249 55.4655 35.3824 55.334L35.2001 54.8293C35.128 54.6258 35.0517 54.4052 34.9668 54.1381C34.882 53.8709 34.7972 53.6207 34.7081 53.3577L34.4494 52.5774C34.3646 52.3229 34.2925 52.0982 34.2247 51.8988L34.0593 51.4111C34.0363 51.3485 34.0165 51.2848 33.9999 51.2203C33.9999 51.1863 33.966 51.1694 33.9363 51.1736C33.9216 51.1741 33.9075 51.1793 33.896 51.1885C33.8845 51.1976 33.8763 51.2103 33.8727 51.2245L33.7836 51.4959L33.5758 52.149C33.491 52.412 33.3977 52.7089 33.2959 53.0312C33.1941 53.3535 33.0881 53.6758 32.9863 53.9896C32.8845 54.3035 32.7912 54.6003 32.7064 54.8802L32.5113 55.5461Z" fill="#9C9FAF"/>
<path d="M53.3303 49.8547C53.3609 49.8556 53.3905 49.866 53.4151 49.8844C53.4349 49.9039 53.4482 49.9291 53.4532 49.9565C53.4631 49.981 53.4631 50.0083 53.4532 50.0328C53.4327 50.0602 53.4022 50.0784 53.3684 50.0837C53.1157 50.1501 52.8762 50.2591 52.6602 50.406C52.4307 50.5715 52.254 50.7998 52.1513 51.0634C52.0834 51.2203 51.9901 51.4493 51.8756 51.7462C51.7611 52.043 51.6254 52.3823 51.4515 52.7682C51.2776 53.1542 51.1419 53.5698 50.9723 54.0405L50.4676 55.3934C50.2895 55.8599 50.1114 56.3222 49.9417 56.7845L49.454 58.0567C49.3056 58.4808 49.1656 58.8286 49.0299 59.1594L48.733 59.9482C48.7257 59.974 48.7109 59.997 48.6905 60.0143C48.6702 60.0317 48.6451 60.0426 48.6185 60.0458C48.5676 60.0458 48.5295 60.0246 48.504 59.9525C48.4786 59.8804 48.4065 59.6641 48.3259 59.4351C48.2453 59.2061 48.1478 58.9474 48.0418 58.6505L47.7025 57.7005C47.5795 57.3612 47.4607 57.0219 47.342 56.6869C47.2232 56.3519 47.1087 56.0253 46.9942 55.7115C46.8797 55.3977 46.7822 55.122 46.6931 54.8633C46.6041 54.6046 46.5362 54.4392 46.4811 54.2696C46.4259 54.0999 46.392 54.0321 46.3878 54.0193C46.3835 54.0066 46.3411 53.96 46.3114 53.9684C46.2817 53.9769 46.2563 53.9981 46.2393 54.0405C46.0951 54.4095 45.951 54.7912 45.8152 55.1771L45.3784 56.3519L44.9543 57.4673L44.5769 58.4766C44.4581 58.7862 44.3521 59.0703 44.2588 59.3248C44.1655 59.5793 44.0807 59.7871 44.0255 59.9525C44.017 59.9783 44.0013 60.0011 43.9803 60.0184C43.9592 60.0356 43.9338 60.0466 43.9068 60.05C43.8559 60.05 43.8177 60.0288 43.7923 59.9567L43.5378 59.2315L43.1731 58.2052L42.749 56.9795C42.5963 56.5554 42.4352 56.1059 42.2783 55.6564L41.799 54.3416C41.6421 53.9176 41.4894 53.4935 41.3495 53.1287C41.2095 52.764 41.0823 52.4205 40.9636 52.1236C40.8448 51.8267 40.7515 51.602 40.6709 51.4323C40.5253 51.0815 40.3136 50.7619 40.0475 50.4908C39.838 50.2782 39.5714 50.1309 39.2799 50.0667C39.2636 50.0663 39.2478 50.0618 39.2337 50.0536C39.2196 50.0455 39.2078 50.034 39.1993 50.0201C39.1893 49.9927 39.1893 49.9627 39.1993 49.9353C39.2045 49.9036 39.2211 49.875 39.246 49.8547C39.2747 49.8314 39.3108 49.8194 39.3477 49.8208H48.7118C48.7427 49.8207 48.7726 49.8312 48.7966 49.8505C48.8188 49.8695 48.835 49.8945 48.8433 49.9225C48.8493 49.9344 48.8524 49.9475 48.8524 49.9607C48.8524 49.974 48.8493 49.987 48.8433 49.9989C48.8186 50.0294 48.7842 50.0503 48.7458 50.0583L48.5931 50.1049C48.517 50.126 48.4431 50.1544 48.3725 50.1897C48.2903 50.2309 48.211 50.2777 48.1351 50.3297C48.0552 50.3886 47.9887 50.4638 47.94 50.5502C47.8858 50.6472 47.8512 50.7538 47.8382 50.864C47.823 51.0065 47.836 51.1506 47.8764 51.2881C47.9272 51.4832 47.9993 51.7122 48.0884 51.9794C48.1775 52.2466 48.2792 52.5392 48.3895 52.8276C48.4998 53.116 48.61 53.4468 48.7246 53.7649C48.8391 54.0829 48.9536 54.3841 49.0638 54.6724C49.1741 54.9608 49.2716 55.2195 49.3607 55.4485L49.5685 55.9999C49.5855 56.0423 49.6109 56.0635 49.6448 56.0635C49.6617 56.0609 49.6774 56.0535 49.6902 56.0422C49.703 56.031 49.7123 56.0163 49.7169 55.9999C49.7636 55.8599 49.8357 55.6648 49.9247 55.4146C50.0138 55.1644 50.1198 54.8803 50.2301 54.5664C50.3404 54.2526 50.4591 53.926 50.5821 53.5783L50.9383 52.5732C51.0528 52.2466 51.1546 51.9413 51.2437 51.6614C51.3328 51.3814 51.4091 51.1482 51.4642 50.9658C51.5121 50.838 51.5142 50.6976 51.4702 50.5684C51.4261 50.4393 51.3385 50.3294 51.2225 50.2576C51.1214 50.1907 51.0095 50.142 50.8917 50.1134L50.6033 50.0371C50.5853 50.035 50.568 50.029 50.5526 50.0194C50.5372 50.0099 50.5241 49.9971 50.5142 49.9819C50.5061 49.9557 50.5061 49.9276 50.5142 49.9013C50.5193 49.874 50.5326 49.8488 50.5524 49.8292C50.5797 49.8099 50.6123 49.7995 50.6457 49.7996L53.3303 49.8547ZM44.9543 56.0508L45.0816 55.6945C45.1409 55.5418 45.2003 55.368 45.2724 55.1771C45.3445 54.9863 45.4123 54.7827 45.4844 54.5707C45.5565 54.3586 45.6286 54.1466 45.688 53.9684C45.7474 53.7903 45.794 53.5995 45.8322 53.4468C45.8624 53.3259 45.8809 53.2023 45.8873 53.0778C45.884 52.9347 45.8641 52.7923 45.828 52.6537C45.7856 52.4968 45.7389 52.3441 45.6838 52.1957C45.6286 52.0473 45.5693 51.9031 45.5099 51.7716L45.3657 51.4535C45.2868 51.2728 45.1917 51.0997 45.0816 50.9361C44.9875 50.7994 44.8731 50.6778 44.7423 50.5757C44.6154 50.479 44.4716 50.4071 44.3182 50.3636C44.1453 50.3172 43.967 50.2944 43.7881 50.2958C43.6824 50.2954 43.5775 50.3141 43.4785 50.3509C43.3781 50.3822 43.2885 50.441 43.2198 50.5205C43.1437 50.6115 43.0939 50.7215 43.0756 50.8386C43.0499 51.0019 43.063 51.169 43.1137 51.3263C43.1646 51.5214 43.2325 51.7504 43.3215 52.0176C43.4106 52.2848 43.5124 52.5774 43.6184 52.8658C43.7244 53.1542 43.8432 53.485 43.9619 53.803C44.0807 54.1211 44.1909 54.4222 44.3012 54.7106C44.4115 54.999 44.509 55.2577 44.5981 55.4867L44.8059 56.038C44.8229 56.0805 44.8483 56.1017 44.8822 56.1017C44.8976 56.1002 44.9124 56.0947 44.925 56.0858C44.9377 56.0768 44.9478 56.0648 44.9543 56.0508Z" fill="#9C9FAF"/>
<path d="M62.7876 59.6047C62.8039 59.6069 62.8195 59.6126 62.8334 59.6214C62.8473 59.6301 62.8592 59.6418 62.8682 59.6556C62.8786 59.6829 62.8786 59.7131 62.8682 59.7404C62.8628 59.7708 62.8461 59.798 62.8215 59.8167C62.8076 59.8288 62.7915 59.838 62.774 59.8438C62.7566 59.8497 62.7381 59.852 62.7197 59.8507H58.1013C58.0705 59.8507 58.0406 59.8402 58.0165 59.821C57.9949 59.8015 57.9788 59.7766 57.9698 59.7489C57.9599 59.7244 57.9599 59.697 57.9698 59.6725C57.9945 59.6421 58.029 59.6211 58.0674 59.6132L58.3346 59.5326C58.4656 59.488 58.5876 59.4205 58.6951 59.3333C58.8157 59.2374 58.9092 59.1116 58.9665 58.9685C59.0359 58.7796 59.0359 58.5722 58.9665 58.3833C58.941 58.3197 58.9071 58.2221 58.8647 58.0949C58.8223 57.9677 58.7756 57.8235 58.729 57.6708C58.6823 57.5181 58.6272 57.357 58.5678 57.1916L58.4152 56.7335C58.3727 56.5894 58.3346 56.4706 58.2964 56.3731L58.237 56.1949C58.2349 56.1754 58.2253 56.1575 58.2103 56.1449C58.1953 56.1323 58.176 56.1259 58.1565 56.1271H54.963C54.9439 56.1266 54.925 56.1321 54.9091 56.1427C54.8932 56.1533 54.8809 56.1686 54.8739 56.1865C54.8739 56.2458 54.823 56.3434 54.7849 56.4833C54.7467 56.6233 54.6916 56.776 54.6364 56.9498C54.5813 57.1237 54.5304 57.3061 54.471 57.4927C54.4117 57.6793 54.3608 57.8616 54.3141 58.0228L54.1827 58.4469C54.156 58.5231 54.1348 58.601 54.119 58.6802C54.0784 58.8274 54.0873 58.9838 54.1445 59.1255C54.1986 59.2327 54.2788 59.3245 54.3777 59.3926C54.4751 59.4578 54.5826 59.5065 54.6958 59.5368L54.98 59.6132C54.9961 59.614 55.0119 59.6183 55.0262 59.6259C55.0405 59.6335 55.053 59.6442 55.0627 59.6571C55.0724 59.6701 55.0792 59.685 55.0824 59.7009C55.0857 59.7167 55.0855 59.7331 55.0817 59.7489C55.0799 59.7631 55.0752 59.7769 55.0679 59.7893C55.0607 59.8017 55.0509 59.8125 55.0393 59.821C55.0132 59.8395 54.9822 59.8498 54.9503 59.8507H52.2106C52.177 59.852 52.144 59.8415 52.1173 59.821C52.0961 59.8043 52.0824 59.7799 52.0791 59.7531C52.0697 59.7286 52.0697 59.7013 52.0791 59.6768C52.0886 59.6621 52.101 59.6496 52.1156 59.6401C52.1302 59.6306 52.1467 59.6243 52.1639 59.6216C52.292 59.5863 52.418 59.5438 52.5414 59.4944C52.6643 59.4444 52.781 59.3803 52.8892 59.3036C53.1196 59.1384 53.2954 58.9079 53.3938 58.642C53.4235 58.5699 53.4871 58.3918 53.5889 58.1119C53.6907 57.832 53.8052 57.4884 53.9494 57.0813L54.4244 55.7327C54.5969 55.2351 54.7707 54.7346 54.946 54.2314L55.4634 52.747C55.6288 52.2678 55.7773 51.8395 55.8875 51.4747C55.9978 51.11 56.1208 50.7962 56.2056 50.5672C56.2904 50.3381 56.3286 50.2109 56.3328 50.194C56.3492 50.1467 56.3752 50.1034 56.4092 50.0667C56.4486 50.0337 56.4977 50.0143 56.5491 50.0116L56.9266 49.9268L57.3507 49.8165C57.4991 49.7783 57.6518 49.7359 57.8002 49.6893C57.9486 49.6426 58.0844 49.5917 58.2243 49.5366C58.3643 49.4815 58.3685 49.4857 58.4024 49.5069C58.447 49.5337 58.4803 49.576 58.4957 49.6257C58.4957 49.6257 58.5424 49.7614 58.6187 49.9946C58.6951 50.2279 58.7968 50.529 58.9241 50.9022C59.0513 51.2754 59.1913 51.6995 59.3482 52.1745C59.5051 52.6495 59.6705 53.1499 59.8401 53.6588C60.0098 54.1678 60.1794 54.6724 60.349 55.1771L60.8113 56.5597C60.9513 56.9838 61.0742 57.3442 61.1718 57.6454C61.2693 57.9465 61.3372 58.1585 61.3796 58.2645C61.4432 58.4588 61.5316 58.6441 61.6425 58.8159C61.737 58.9624 61.848 59.0976 61.9733 59.2188C62.0877 59.3238 62.2161 59.4123 62.355 59.4817C62.4928 59.5424 62.6384 59.5838 62.7876 59.6047ZM55.0605 55.5461C55.0351 55.6097 55.0605 55.6436 55.1199 55.6436H57.9444C58.0038 55.6436 58.0207 55.6139 58.0038 55.5546L57.9317 55.334L57.7663 54.8293L57.5373 54.1381C57.4524 53.8794 57.3676 53.6207 57.2786 53.3577L57.0156 52.5774C56.935 52.3229 56.8587 52.0982 56.7909 51.8988C56.723 51.6995 56.6721 51.5341 56.6297 51.4111L56.5661 51.2203C56.5651 51.213 56.5626 51.206 56.5588 51.1997C56.555 51.1934 56.55 51.1879 56.5441 51.1835C56.5382 51.1792 56.5314 51.1761 56.5243 51.1744C56.5171 51.1727 56.5097 51.1724 56.5025 51.1736C56.488 51.1747 56.4741 51.1801 56.4628 51.1892C56.4514 51.1983 56.4431 51.2106 56.4389 51.2245L56.3498 51.4959L56.142 52.149C56.0572 52.412 55.9639 52.7089 55.8621 53.0312C55.7603 53.3535 55.6543 53.6758 55.5525 53.9896C55.4507 54.3035 55.3574 54.6003 55.2726 54.8802C55.1878 55.1601 55.1326 55.3764 55.0605 55.5461Z" fill="#9C9FAF"/>
<path d="M72.1518 58.8965C72.1783 58.8841 72.2073 58.8776 72.2366 58.8776C72.2659 58.8776 72.2949 58.8841 72.3214 58.8965C72.3723 58.922 72.385 58.9814 72.3596 59.0747C72.3235 59.2003 72.2598 59.3162 72.173 59.4139C72.0658 59.5318 71.9431 59.6345 71.8083 59.7193C71.6523 59.8174 71.484 59.8944 71.3078 59.9483C71.1108 60.0058 70.9066 60.0343 70.7014 60.0331C70.5176 60.0337 70.3342 60.0152 70.1543 59.978C69.9718 59.9445 69.7948 59.886 69.6284 59.8041C69.4617 59.719 69.3111 59.6056 69.1831 59.4691C69.0408 59.3185 68.9272 59.1431 68.8481 58.9517C68.7624 58.7549 68.7011 58.5484 68.6657 58.3367C68.6233 58.1077 68.5936 57.8448 68.5682 57.5479C68.537 57.0897 68.4631 56.6353 68.3476 56.1908C68.2817 55.922 68.1698 55.6666 68.0168 55.4359C67.9137 55.2857 67.765 55.1727 67.5927 55.1136C67.4561 55.0677 67.3128 55.0448 67.1686 55.0457C67.0432 55.0331 66.9177 55.0679 66.8166 55.1433C66.7442 55.2374 66.7108 55.3559 66.7233 55.4741V58.4427C66.7127 58.6416 66.7646 58.8389 66.8718 59.0068C66.963 59.1413 67.0797 59.2565 67.2153 59.3461C67.335 59.4249 67.4668 59.4837 67.6055 59.52C67.6976 59.5461 67.791 59.5673 67.8854 59.5836C67.9236 59.59 67.959 59.6078 67.9871 59.6345C67.9986 59.6436 68.0079 59.6552 68.0143 59.6684C68.0206 59.6816 68.024 59.6961 68.024 59.7108C68.024 59.7255 68.0206 59.74 68.0143 59.7532C68.0079 59.7664 67.9986 59.778 67.9871 59.7871C67.9555 59.811 67.9165 59.823 67.8769 59.8211H63.1652C63.1256 59.823 63.0865 59.811 63.0549 59.7871C63.0434 59.778 63.0341 59.7664 63.0277 59.7532C63.0214 59.74 63.0181 59.7255 63.0181 59.7108C63.0181 59.6961 63.0214 59.6816 63.0277 59.6684C63.0341 59.6552 63.0434 59.6436 63.0549 59.6345C63.083 59.6078 63.1184 59.59 63.1567 59.5836C63.251 59.5673 63.3445 59.5461 63.4366 59.52C63.5752 59.4837 63.707 59.4249 63.8267 59.3461C63.9623 59.2565 64.079 59.1413 64.1703 59.0068C64.2774 58.8389 64.3293 58.6416 64.3187 58.4427V51.2246C64.3284 51.0285 64.2765 50.8342 64.1703 50.669C64.0826 50.5305 63.9653 50.4132 63.8267 50.3255C63.7061 50.2484 63.5746 50.1898 63.4366 50.1516L63.1567 50.0838C63.1374 50.0832 63.1185 50.0787 63.1011 50.0707C63.0836 50.0627 63.0679 50.0513 63.0549 50.0371C63.0359 50.0145 63.0255 49.986 63.0252 49.9565C63.0308 49.9272 63.0457 49.9005 63.0676 49.8802C63.0998 49.8579 63.1388 49.8474 63.1779 49.8505H68.5766C68.8454 49.8545 69.1135 49.88 69.3782 49.9269C69.6375 49.971 69.8908 50.045 70.1331 50.1474C70.3852 50.2646 70.6182 50.419 70.8244 50.6054C71.0082 50.7692 71.1593 50.9663 71.2697 51.1864C71.3873 51.4086 71.4703 51.6474 71.5156 51.8947C71.5617 52.1436 71.5717 52.3978 71.5453 52.6496C71.5186 52.8973 71.4527 53.1392 71.3502 53.3663C71.1987 53.7262 70.9579 54.0415 70.6505 54.2823C70.3419 54.5087 69.9939 54.6755 69.6242 54.7743C69.5817 54.7743 69.5605 54.7997 69.5563 54.8252C69.5521 54.8506 69.5563 54.8591 69.5987 54.8634L69.8065 54.9143C69.9213 54.9462 70.0334 54.9873 70.1416 55.0372C70.2728 55.1011 70.3965 55.1793 70.5105 55.2705C70.6369 55.3748 70.7433 55.5013 70.8244 55.6437C70.937 55.8594 71.0103 56.0935 71.0406 56.335C71.0843 56.6286 71.1098 56.9246 71.117 57.2213C71.1382 57.5606 71.1594 57.8448 71.1806 58.0695C71.1928 58.2517 71.2343 58.4307 71.3036 58.5997C71.3401 58.6901 71.4001 58.7692 71.4775 58.8287C71.6093 58.9293 71.775 58.975 71.9397 58.9559C72.0135 58.9494 72.0854 58.9293 72.1518 58.8965ZM66.9227 54.6556C67.0499 54.6556 67.1941 54.6556 67.3468 54.6556C67.5051 54.6462 67.6618 54.6177 67.8133 54.5707C67.9756 54.5225 68.1289 54.448 68.267 54.3502C68.4239 54.2374 68.5554 54.0929 68.653 53.9261C68.7772 53.7079 68.8673 53.4719 68.9202 53.2263C68.9906 52.886 69.0233 52.539 69.0177 52.1915C69.0237 51.8912 68.9966 51.5911 68.9371 51.2967C68.8966 51.0914 68.8174 50.8957 68.7039 50.7199C68.6121 50.5834 68.4844 50.4748 68.3349 50.4061C68.1794 50.34 68.0119 50.3068 67.8429 50.3085C67.6921 50.3064 67.5419 50.3279 67.3976 50.3722C67.2682 50.4108 67.1502 50.4807 67.0541 50.5757C66.9521 50.675 66.875 50.7971 66.8294 50.932C66.7744 51.1017 66.7486 51.2795 66.753 51.4579V54.5156C66.754 54.5363 66.7593 54.5566 66.7685 54.5751C66.7778 54.5936 66.7909 54.61 66.8068 54.6232C66.8228 54.6363 66.8414 54.646 66.8613 54.6516C66.8813 54.6572 66.9022 54.6585 66.9227 54.6556Z" fill="#9C9FAF"/>
<path d="M78.5513 49.8505C79.3001 49.8327 80.0451 49.9624 80.7439 50.2322C81.3183 50.4582 81.8337 50.8121 82.2511 51.2669C82.6685 51.7218 82.9768 52.2656 83.1528 52.8573C83.5407 54.1363 83.5303 55.503 83.1231 56.776C82.927 57.3686 82.6108 57.9143 82.1943 58.3791C81.759 58.8508 81.2245 59.2201 80.6294 59.4605C79.9273 59.7412 79.1757 59.8768 78.4198 59.8592H73.2628C73.2232 59.8611 73.1842 59.8491 73.1525 59.8253C73.1411 59.8161 73.1318 59.8045 73.1254 59.7913C73.119 59.7781 73.1157 59.7636 73.1157 59.7489C73.1157 59.7343 73.119 59.7198 73.1254 59.7066C73.1318 59.6933 73.1411 59.6817 73.1525 59.6726C73.18 59.645 73.2157 59.6271 73.2543 59.6217C73.3487 59.6054 73.4421 59.5842 73.5342 59.5581C73.6729 59.5218 73.8047 59.463 73.9244 59.3842C74.06 59.2947 74.1767 59.1794 74.2679 59.0449C74.3751 58.877 74.427 58.6798 74.4164 58.4809V51.2246C74.426 51.0284 74.3741 50.8342 74.2679 50.669C74.1803 50.5305 74.0629 50.4131 73.9244 50.3255C73.8038 50.2483 73.6722 50.1897 73.5342 50.1516L73.2543 50.0837C73.235 50.0836 73.216 50.0794 73.1984 50.0714C73.1808 50.0634 73.1652 50.0517 73.1525 50.0371C73.1336 50.0145 73.1231 49.986 73.1229 49.9565C73.1285 49.9272 73.1433 49.9004 73.1653 49.8802C73.1975 49.8578 73.2364 49.8473 73.2755 49.8505H78.5513ZM78.4326 59.3969C78.7919 59.4058 79.1426 59.2854 79.4207 59.0576C79.7148 58.799 79.9442 58.4751 80.0908 58.1119C80.2802 57.6514 80.4085 57.1681 80.4725 56.6742C80.5535 56.0698 80.5932 55.4605 80.5912 54.8506C80.5948 54.2493 80.5566 53.6484 80.4767 53.0524C80.415 52.5728 80.2939 52.1027 80.1162 51.6529C79.9805 51.2973 79.7642 50.9779 79.4843 50.7199C79.2235 50.4913 78.8968 50.3517 78.5513 50.3212H78.3096H77.9745H77.3469C77.2133 50.3141 77.0823 50.3598 76.9821 50.4485C76.9376 50.4908 76.9027 50.5423 76.88 50.5994C76.8573 50.6565 76.8473 50.7179 76.8507 50.7793V56.301C76.8459 56.7757 76.8714 57.2503 76.927 57.7217C76.961 58.0544 77.0484 58.3795 77.1857 58.6844C77.2918 58.9091 77.4613 59.0978 77.6734 59.2273C77.9074 59.3488 78.1691 59.4073 78.4326 59.3969Z" fill="#9C9FAF"/>
<path d="M39.5344 37.1997C40.0169 37.3112 40.4772 37.5033 40.8958 37.768C41.2261 37.9815 41.5138 38.2548 41.744 38.5738C41.9448 38.8666 42.0886 39.1947 42.1681 39.5407C42.2494 39.8897 42.2907 40.2469 42.2911 40.6052C42.2936 41.0779 42.2073 41.5469 42.0366 41.9878C41.8635 42.4353 41.5806 42.832 41.2139 43.1413C40.7787 43.507 40.2715 43.7772 39.7253 43.9344C38.9895 44.1459 38.2259 44.2445 37.4606 44.227H30.8235C30.7686 44.2307 30.7143 44.2141 30.6708 44.1804C30.6398 44.155 30.62 44.1184 30.6157 44.0786C30.6136 44.0594 30.6164 44.04 30.6238 44.0223C30.6312 44.0045 30.643 43.9888 30.6581 43.9768C30.6939 43.9381 30.7417 43.9127 30.7938 43.9047C30.8744 43.9047 31.0016 43.8623 31.1755 43.8199C31.3634 43.7687 31.5423 43.6886 31.7056 43.5824C31.8913 43.4603 32.05 43.3016 32.1721 43.1159C32.3169 42.8884 32.3879 42.6218 32.3757 42.3525V32.488C32.3873 32.22 32.3163 31.955 32.1721 31.7289C32.0524 31.5412 31.8932 31.382 31.7056 31.2623C31.5404 31.1596 31.3621 31.0797 31.1755 31.0248C31.0002 30.9796 30.8729 30.9499 30.7938 30.9358C30.768 30.9351 30.7426 30.9292 30.7192 30.9182C30.6959 30.9073 30.6751 30.8916 30.6581 30.8722C30.643 30.8574 30.6315 30.8394 30.6241 30.8196C30.6168 30.7998 30.6139 30.7787 30.6157 30.7577C30.621 30.7193 30.6407 30.6845 30.6708 30.6601C30.7143 30.6264 30.7686 30.6098 30.8235 30.6135H37.8423C38.4415 30.5987 39.0391 30.6832 39.6108 30.8637C40.0406 31.0056 40.4333 31.2418 40.7601 31.555C41.0512 31.848 41.2666 32.2075 41.3877 32.6025C41.5137 33.0147 41.5752 33.4438 41.5701 33.8748C41.5712 34.187 41.5385 34.4984 41.4726 34.8036C41.4014 35.102 41.2886 35.389 41.1375 35.656C40.9695 35.9504 40.7547 36.2154 40.5014 36.4406C40.2077 36.7015 39.8759 36.916 39.5175 37.0767C39.4793 37.0979 39.4623 37.1191 39.4708 37.1446C39.4793 37.17 39.4963 37.187 39.5344 37.1997ZM35.7175 36.3091C35.7127 36.3907 35.7241 36.4724 35.7511 36.5496C35.778 36.6267 35.8199 36.6978 35.8745 36.7587C35.9302 36.8136 35.9966 36.8565 36.0695 36.885C36.1424 36.9134 36.2203 36.9267 36.2986 36.9241C36.5036 36.9224 36.7064 36.8821 36.8965 36.8053C37.1325 36.7055 37.3365 36.5426 37.486 36.3346C37.6991 36.0419 37.8533 35.7106 37.9398 35.3591C38.0761 34.8202 38.1375 34.2651 38.1222 33.7094C38.1222 33.4125 38.1222 33.1157 38.0925 32.8103C38.0753 32.5315 38.0211 32.2563 37.9313 31.9918C37.8534 31.7627 37.721 31.5561 37.5454 31.3896C37.3519 31.2258 37.103 31.1424 36.8499 31.1563C36.6448 31.1483 36.4413 31.1952 36.2604 31.292C36.1029 31.3935 35.9813 31.5418 35.9126 31.7161C35.825 31.9358 35.7707 32.1674 35.7515 32.4032C35.726 32.6746 35.7133 32.9927 35.7133 33.3531L35.7175 36.3091ZM37.0577 43.6502C37.2894 43.6583 37.5187 43.601 37.7193 43.4848C37.8905 43.3769 38.0354 43.232 38.1434 43.0607C38.2639 42.8714 38.3568 42.6657 38.419 42.45C38.481 42.2261 38.5263 41.9979 38.5548 41.7673C38.5802 41.5425 38.5972 41.3432 38.6057 41.1141C38.6141 40.8851 38.6057 40.7282 38.6057 40.5798C38.6124 40.144 38.5712 39.7088 38.4827 39.282C38.4193 38.9845 38.3106 38.6984 38.1604 38.4338C38.0606 38.2201 37.9193 38.0284 37.7447 37.8698C37.5978 37.7514 37.4313 37.6596 37.2528 37.5984C37.1002 37.5418 36.9402 37.5076 36.7778 37.4966C36.6294 37.4966 36.5021 37.4966 36.4003 37.4966C36.2212 37.4862 36.0449 37.5454 35.9084 37.662C35.843 37.7178 35.7908 37.7875 35.7556 37.866C35.7204 37.9445 35.7031 38.0298 35.7048 38.1158V41.2838C35.7022 41.614 35.7206 41.944 35.76 42.2719C35.785 42.5323 35.8553 42.7864 35.9678 43.0226C36.0613 43.219 36.2083 43.3851 36.3919 43.5018C36.5906 43.6134 36.8175 43.6649 37.045 43.6502H37.0577Z" fill="#9C9FAF"/>
<path d="M55.5186 41.3219C55.561 41.2159 55.6246 41.165 55.7094 41.1777C55.7943 41.1904 55.8409 41.2455 55.8409 41.3516V44.0531C55.8409 44.1803 55.7688 44.2439 55.6289 44.2439H44.9204C44.8655 44.2476 44.8112 44.231 44.7677 44.1973C44.7367 44.1719 44.7169 44.1353 44.7126 44.0955C44.7116 44.0764 44.7148 44.0574 44.7222 44.0398C44.7295 44.0221 44.7407 44.0064 44.755 43.9937C44.7914 43.9558 44.8389 43.9305 44.8907 43.9216C44.9713 43.9216 45.0985 43.8792 45.2724 43.8368C45.4603 43.7856 45.6392 43.7055 45.8025 43.5993C45.9886 43.4763 46.1485 43.3177 46.2733 43.1328C46.4148 42.9041 46.4843 42.6381 46.4726 42.3694V32.4879C46.4837 32.2206 46.4142 31.9562 46.2733 31.7288C46.1509 31.5419 45.9905 31.3829 45.8025 31.2623C45.6374 31.1595 45.459 31.0796 45.2724 31.0248C45.0999 30.9796 44.9727 30.9499 44.8907 30.9357C44.865 30.9346 44.8398 30.9284 44.8165 30.9175C44.7932 30.9066 44.7723 30.8911 44.755 30.8721C44.7264 30.841 44.7112 30.7999 44.7126 30.7576C44.7179 30.7193 44.7376 30.6844 44.7677 30.6601C44.8112 30.6264 44.8655 30.6098 44.9204 30.6134H54.751C54.8952 30.6134 54.963 30.677 54.963 30.8043V32.9035C54.963 33.0011 54.9249 33.0605 54.8443 33.0689C54.8014 33.0714 54.7587 33.0605 54.7223 33.0377C54.6858 33.0149 54.6573 32.9814 54.6407 32.9417C54.5696 32.7952 54.4888 32.6535 54.399 32.5176C54.2597 32.2993 54.0897 32.1022 53.8943 31.9324C53.6538 31.7174 53.3821 31.5401 53.0885 31.4065C52.723 31.2449 52.326 31.1666 51.9265 31.1775C51.6416 31.177 51.3574 31.2054 51.0783 31.2623C50.8406 31.3032 50.6131 31.3896 50.4082 31.5167C50.2315 31.6306 50.0858 31.7866 49.9841 31.9705C49.8738 32.1762 49.8197 32.4073 49.8272 32.6406V36.7459C49.8264 36.7659 49.8301 36.7859 49.8382 36.8043C49.8463 36.8227 49.8585 36.839 49.8739 36.8519C49.8873 36.8666 49.9037 36.8783 49.922 36.8863C49.9402 36.8944 49.9599 36.8985 49.9799 36.8985H51.2522C51.5117 36.9076 51.7686 36.8444 51.9943 36.7162C52.1715 36.6054 52.3256 36.4614 52.4481 36.2921C52.5503 36.1455 52.629 35.9838 52.6814 35.8129C52.7212 35.6966 52.7524 35.5775 52.7747 35.4566C52.7758 35.4333 52.7821 35.4106 52.7931 35.3901C52.8041 35.3695 52.8195 35.3517 52.8383 35.3379C52.8712 35.3169 52.9096 35.3066 52.9486 35.3082C52.9874 35.3126 53.0235 35.3306 53.0503 35.3591C53.0662 35.3761 53.0786 35.3961 53.0866 35.418C53.0946 35.4398 53.0981 35.463 53.097 35.4863V38.9215C53.0981 38.9447 53.0946 38.968 53.0866 38.9898C53.0786 39.0117 53.0662 39.0317 53.0503 39.0487C53.0235 39.0772 52.9874 39.0952 52.9486 39.0996C52.9096 39.1012 52.8712 39.0908 52.8383 39.0699C52.8195 39.0561 52.8041 39.0383 52.7931 39.0177C52.7821 38.9972 52.7758 38.9745 52.7747 38.9512C52.7524 38.8303 52.7212 38.7112 52.6814 38.5949C52.629 38.424 52.5503 38.2623 52.4481 38.1157C52.3256 37.9464 52.1715 37.8024 51.9943 37.6916C51.7686 37.5634 51.5117 37.5002 51.2522 37.5092H49.9799C49.9599 37.5093 49.9402 37.5134 49.922 37.5215C49.9037 37.5295 49.8873 37.5412 49.8739 37.5559C49.8587 37.569 49.8467 37.5854 49.8386 37.6037C49.8306 37.622 49.8267 37.6419 49.8272 37.6619V42.1616C49.8202 42.3826 49.8748 42.6012 49.9849 42.7929C50.095 42.9846 50.2562 43.142 50.4506 43.2473C50.9994 43.5271 51.6127 43.6559 52.2276 43.6205C52.5639 43.6248 52.8988 43.5761 53.22 43.4763C53.5024 43.3861 53.7729 43.2622 54.0258 43.1073C54.255 42.9673 54.4659 42.7992 54.6534 42.6069C54.815 42.4408 54.9665 42.2652 55.1072 42.081C55.2161 41.9344 55.314 41.7799 55.3999 41.6188C55.4423 41.483 55.4932 41.3813 55.5186 41.3219Z" fill="#9C9FAF"/>
<path d="M58.4237 44.1761V40.5883C58.4237 40.4738 58.4619 40.4059 58.5425 40.3889C58.623 40.372 58.6866 40.3889 58.7248 40.5077C58.9429 41.0177 59.2084 41.5062 59.5179 41.9666C59.7801 42.3652 60.0986 42.7238 60.4636 43.0311C60.8039 43.3145 61.1915 43.5356 61.6087 43.6842C62.0568 43.8347 62.527 43.9093 62.9997 43.9047C63.2804 43.9059 63.5594 43.863 63.8267 43.7775C64.0834 43.6965 64.3193 43.5605 64.518 43.3788C64.7256 43.1848 64.8878 42.9473 64.993 42.6833C65.1198 42.3593 65.1803 42.0133 65.1711 41.6655C65.1773 41.3233 65.1063 40.9841 64.9633 40.6731C64.8252 40.3875 64.637 40.1289 64.4077 39.9097C64.1696 39.6837 63.903 39.4898 63.6147 39.3329C63.3208 39.1662 63.0178 39.0161 62.7071 38.8834C62.3636 38.735 62.0285 38.578 61.6935 38.4169C61.3645 38.2585 61.047 38.0771 60.7435 37.874C60.4364 37.6737 60.152 37.4405 59.8953 37.1785C59.6399 36.9079 59.4243 36.6023 59.2549 36.271C59.1048 35.9817 58.9854 35.6775 58.8987 35.3634C58.8134 35.0511 58.7706 34.7287 58.7715 34.4049C58.7737 33.9133 58.8598 33.4257 59.0259 32.963C59.198 32.4688 59.4809 32.0206 59.8529 31.6525C60.2799 31.2335 60.7899 30.9085 61.35 30.6983C62.0777 30.4333 62.849 30.3081 63.6231 30.3293C64.1215 30.3222 64.6192 30.3691 65.1075 30.4693C65.4628 30.5414 65.8117 30.6421 66.1508 30.7704C66.3737 30.8545 66.5881 30.9595 66.7912 31.0842C66.8778 31.1375 66.9613 31.1955 67.0414 31.2581C67.0776 31.2808 67.1077 31.312 67.1291 31.3489C67.1505 31.3859 67.1626 31.4275 67.1644 31.4702V33.3065C67.1645 33.3486 67.1495 33.3892 67.122 33.421C67.0998 33.4486 67.068 33.4668 67.0329 33.4719C66.9942 33.4753 66.9554 33.466 66.9224 33.4453C66.8895 33.4247 66.8643 33.3938 66.8505 33.3574C66.7198 33.0464 66.5682 32.7446 66.3967 32.4541C66.222 32.1534 65.9984 31.8839 65.7352 31.6568C65.4485 31.4111 65.1194 31.22 64.764 31.0927C64.3197 30.9388 63.8515 30.8655 63.3814 30.8764C62.796 30.8412 62.2172 31.0156 61.7486 31.3684C61.555 31.533 61.4017 31.7398 61.3002 31.9728C61.1988 32.2058 61.152 32.4589 61.1634 32.7128C61.1573 33.0037 61.2122 33.2926 61.3245 33.561C61.4507 33.8296 61.6398 34.0638 61.8759 34.2438C62.1947 34.4934 62.5404 34.7068 62.9064 34.8799C63.3305 35.092 63.8776 35.3252 64.5307 35.5882C65.1157 35.8174 65.6803 36.0955 66.2186 36.4194C66.6684 36.687 67.0769 37.0184 67.4315 37.4033C67.7554 37.7676 68.0059 38.191 68.1695 38.6501C68.3421 39.1637 68.4253 39.7031 68.4155 40.2448C68.4194 40.8144 68.3113 41.3793 68.0974 41.9072C67.8834 42.4289 67.5509 42.8935 67.1262 43.2643C66.6423 43.6772 66.0796 43.9874 65.4722 44.1761C64.7118 44.412 63.9187 44.5251 63.1227 44.5112C62.5501 44.5112 61.9799 44.437 61.4263 44.2906C60.8665 44.1465 60.3237 43.9895 59.7978 43.8114L59.556 43.7308C59.4749 43.7064 59.3906 43.6935 59.3058 43.6927C59.2382 43.6885 59.1706 43.7005 59.1086 43.7278C59.0467 43.7551 58.9921 43.7969 58.9496 43.8496C58.8666 43.9711 58.7956 44.1003 58.7375 44.2355C58.7284 44.2762 58.7038 44.3117 58.669 44.3346C58.6342 44.3575 58.5919 44.3661 58.5509 44.3585C58.4661 44.3458 58.4237 44.2822 58.4237 44.1761Z" fill="#9C9FAF"/>
<path d="M82.5548 30.8044V33.6077C82.5548 33.7179 82.5082 33.7731 82.4234 33.7858C82.3386 33.7985 82.2707 33.7476 82.2325 33.6373L82.0883 33.332C82.0079 33.161 81.9143 32.9966 81.8084 32.84C81.6716 32.6445 81.5229 32.4575 81.3631 32.2802C81.1797 32.0812 80.9732 31.9047 80.7482 31.7543C80.5029 31.5864 80.2362 31.4523 79.9551 31.3557C79.6402 31.2467 79.3087 31.1936 78.9755 31.1988C78.8302 31.1921 78.6852 31.2182 78.5514 31.2751C78.4515 31.3198 78.3642 31.3882 78.2969 31.4744C78.2294 31.5622 78.1817 31.6634 78.1569 31.7713C78.1304 31.8884 78.1148 32.0076 78.1103 32.1276V42.3568C78.0967 42.6257 78.1663 42.8922 78.3096 43.1202C78.4343 43.3051 78.5943 43.4636 78.7804 43.5867C78.9422 43.6928 79.1196 43.773 79.3063 43.8242C79.4844 43.8666 79.6116 43.8963 79.6922 43.909C79.744 43.9179 79.7915 43.9432 79.8279 43.9811C79.8416 43.994 79.8522 44.0099 79.8588 44.0275C79.8655 44.0452 79.8679 44.0641 79.8661 44.0829C79.8647 44.1028 79.859 44.1222 79.8495 44.1397C79.84 44.1573 79.8269 44.1726 79.8109 44.1847C79.769 44.2181 79.716 44.2347 79.6625 44.2313H73.2374C73.1825 44.235 73.1282 44.2184 73.0847 44.1847C73.0537 44.1593 73.0339 44.1227 73.0296 44.0829C73.0277 44.0641 73.0302 44.0452 73.0368 44.0275C73.0435 44.0099 73.054 43.994 73.0678 43.9811C73.1058 43.9431 73.1547 43.9179 73.2077 43.909C73.2883 43.909 73.4155 43.8666 73.5894 43.8242C73.7774 43.773 73.9562 43.6929 74.1195 43.5867C74.3052 43.4646 74.464 43.3059 74.586 43.1202C74.7308 42.8927 74.8019 42.6261 74.7896 42.3568V39.3075C74.7896 38.7689 74.7896 38.2134 74.7896 37.6451C74.7896 37.0768 74.7896 36.517 74.7896 35.9487V32.6025C74.7896 32.4329 74.7896 32.2675 74.7896 32.1021C74.7811 31.9494 74.7482 31.7991 74.6921 31.6568C74.6396 31.5285 74.5512 31.4181 74.4376 31.3387C74.2863 31.2503 74.1121 31.209 73.9372 31.22C73.6012 31.2148 73.2669 31.2679 72.949 31.3769C72.6676 31.4727 72.4007 31.6068 72.156 31.7756C71.9331 31.9271 71.7282 32.1035 71.5453 32.3014C71.3913 32.4782 71.2496 32.6652 71.1212 32.8612C71.0129 33.0178 70.9165 33.1823 70.8328 33.3532C70.7799 33.4514 70.7346 33.5535 70.6971 33.6585C70.6547 33.7688 70.591 33.8155 70.5062 33.807C70.4214 33.7985 70.3748 33.7391 70.3748 33.6289V30.8044C70.3748 30.6771 70.4426 30.6135 70.5868 30.6135H82.364C82.4828 30.6135 82.5548 30.6771 82.5548 30.8044Z" fill="#9C9FAF"/>
</svg>
