<svg width="112" height="112" viewBox="0 0 112 112" fill="none" xmlns="http://www.w3.org/2000/svg">
<path d="M26.94 79.3268C28.0363 76.2424 27.6027 70.8469 23.8966 67.2921C21.2377 71.8982 24.0439 77.1587 26.94 79.3268Z" fill="#9C9FAF"/>
<path d="M19.4338 60.4077C18.0511 61.8763 15.9854 67.7709 20.5873 72.6019C22.0109 69.133 22.3258 63.8152 19.4338 60.4077Z" fill="#9C9FAF"/>
<path d="M15.4289 18C9.70206 23.9601 8.93302 28.6561 10.5652 34.4934C13.0973 32.0513 15.2326 25.0277 15.4289 18Z" fill="#9C9FAF"/>
<path d="M16.1653 53.2449C13.0687 55.0857 13.4164 60.9925 15.2449 64.0646C17.3107 61.2012 18.8202 57.6464 16.1653 53.2449Z" fill="#9C9FAF"/>
<path d="M15.5926 46.0823C13.7191 46.7204 10.2747 50.357 11.8456 55.6094C14.2222 53.6786 17.0938 49.6125 15.5926 46.0823Z" fill="#9C9FAF"/>
<path d="M15.4577 38.0441C14.0791 38.4531 10.1398 41.7011 10.8475 47.5343C13.4369 46.0413 16.5294 43.2474 15.4577 38.0441Z" fill="#9C9FAF"/>
<path d="M10.7248 39.7949C13.1791 38.67 16.8321 33.9822 16.1612 30.1615C13.6946 30.9019 10.5775 35.4548 10.7248 39.7949Z" fill="#9C9FAF"/>
<path d="M27.5168 80.2963C23.8352 76.807 17.9284 75.5062 15.1467 76.6434C18.9224 83.0616 24.8865 81.8753 27.5168 80.2963Z" fill="#9C9FAF"/>
<path d="M34.3972 84.4851C34.7326 81.2576 33.44 75.7353 29.6357 74.6921C28.7112 76.4593 28.5435 81.4703 34.3972 84.4851Z" fill="#9C9FAF"/>
<path d="M35.7104 85.5282C33.0556 84.1783 26.6865 82.3212 22.6204 84.3706C28.2573 89.5207 34.3482 86.7227 35.7104 85.5282Z" fill="#9C9FAF"/>
<path d="M42.5662 88.0768C42.2799 84.8043 40.5495 80.5336 35.7962 79.511C35.2808 81.2945 35.9476 86.146 42.5662 88.0768Z" fill="#9C9FAF"/>
<path d="M43.8998 88.8702C40.9545 88.0521 32.9083 87.0745 29.4108 89.897C36.3403 94.7689 42.8076 90.257 43.8998 88.8702Z" fill="#9C9FAF"/>
<path d="M52.5269 90.2366C51.6802 86.0273 47.3646 84.1497 43.9816 83.3684C43.6871 87.5409 47.9454 89.8971 52.5269 90.2366Z" fill="#9C9FAF"/>
<path d="M40.3696 92.6459C49.005 96.0003 52.4861 92.8218 52.5147 90.8092C49.4549 90.5515 42.145 90.1138 40.3696 92.6459Z" fill="#9C9FAF"/>
<path d="M10.2707 67.0875C9.95572 74.2462 17.3843 73.8535 20.8736 73.8985C19.7773 72.4054 13.6946 66.9526 10.2707 67.0875Z" fill="#9C9FAF"/>
<path d="M6.36824 57.1842C6.13098 62.997 10.9743 65.9382 15.6417 65.8604C14.2304 63.0338 10.4875 57.6792 6.36824 57.1842Z" fill="#9C9FAF"/>
<path d="M11.7924 56.9961C11.1461 54.4844 10.2298 50.0297 6.1678 47.8617C4.62973 53.0936 9.12942 56.6525 11.7924 56.9961Z" fill="#9C9FAF"/>
<path d="M10.5366 48.7206C10.328 45.9921 8.60581 40.572 6.00416 39.7212C3.90158 46.123 8.75716 48.2134 10.5366 48.7206Z" fill="#9C9FAF"/>
<path d="M10.2993 41.7543C10.4998 39.2672 10.7616 33.4503 7.4359 30.0347C5.0756 37.8764 9.01079 41.1162 10.2993 41.7543Z" fill="#9C9FAF"/>
<path d="M86.0292 79.3268C84.9289 76.2424 85.3666 70.8469 89.0727 67.2921C91.7316 71.8982 88.9336 77.1587 86.0292 79.3268Z" fill="#9C9FAF"/>
<path d="M93.5356 60.4077C94.9182 61.8763 96.984 67.7709 92.382 72.6019C90.9789 69.133 90.6435 63.8152 93.5356 60.4077Z" fill="#9C9FAF"/>
<path d="M97.5239 18C103.251 23.9601 104.02 28.6561 102.388 34.4934C99.8719 32.0513 97.7366 25.0277 97.5239 18Z" fill="#9C9FAF"/>
<path d="M96.804 53.2449C99.9006 55.0857 99.5529 60.9925 97.7244 64.0646C95.6586 61.2012 94.1491 57.6464 96.804 53.2449Z" fill="#9C9FAF"/>
<path d="M97.3767 46.0823C99.2502 46.7204 102.694 50.357 101.124 55.6094C98.7511 53.6786 95.8877 49.6125 97.3767 46.0823Z" fill="#9C9FAF"/>
<path d="M97.524 38.0441C98.9026 38.4531 102.842 41.7011 102.134 47.5343C99.5325 46.0413 96.4318 43.2474 97.524 38.0441Z" fill="#9C9FAF"/>
<path d="M102.244 39.7949C99.7901 38.67 96.1331 33.9822 96.808 30.1615C99.2747 30.9019 102.392 35.4548 102.244 39.7949Z" fill="#9C9FAF"/>
<path d="M85.4525 80.2963C89.1341 76.807 95.041 75.5062 97.8226 76.6434C94.0469 83.0616 88.0828 81.8753 85.4525 80.2963Z" fill="#9C9FAF"/>
<path d="M78.572 84.4851C78.2325 81.2576 79.5293 75.7353 83.3335 74.6921C84.258 76.4593 84.4339 81.4703 78.572 84.4851Z" fill="#9C9FAF"/>
<path d="M77.2589 85.5282C79.9137 84.1783 86.2829 82.3212 90.3285 84.3706C84.712 89.5207 78.6211 86.7227 77.2589 85.5282Z" fill="#9C9FAF"/>
<path d="M70.4031 88.0768C70.6894 84.8043 72.4198 80.5336 77.169 79.511C77.6885 81.2945 77.0217 86.146 70.4031 88.0768Z" fill="#9C9FAF"/>
<path d="M69.0696 88.8702C72.0148 88.0521 80.057 87.0745 83.5586 89.897C76.6291 94.7689 70.1618 90.257 69.0696 88.8702Z" fill="#9C9FAF"/>
<path d="M60.4464 90.2366C61.2932 86.0273 65.6047 84.1497 68.9917 83.3684C69.2985 87.5409 65.0238 89.8971 60.4464 90.2366Z" fill="#9C9FAF"/>
<path d="M72.5956 92.6459C63.9644 96.0003 60.4832 92.8218 60.4546 90.8092C63.5144 90.5515 70.8243 90.1138 72.5956 92.6459Z" fill="#9C9FAF"/>
<path d="M102.699 67.0875C103.014 74.2462 95.585 73.8535 92.0957 73.8985C93.192 72.4054 99.2748 66.9526 102.699 67.0875Z" fill="#9C9FAF"/>
<path d="M106.601 57.1842C106.838 63.0093 101.995 65.9382 97.3276 65.8482C98.7512 63.0338 102.482 57.6792 106.601 57.1842Z" fill="#9C9FAF"/>
<path d="M101.177 56.9961C101.823 54.4844 102.74 50.042 106.802 47.8617C108.335 53.0936 103.84 56.6525 101.177 56.9961Z" fill="#9C9FAF"/>
<path d="M102.433 48.7206C102.641 45.9921 104.364 40.572 106.965 39.7212C109.068 46.123 104.224 48.2134 102.433 48.7206Z" fill="#9C9FAF"/>
<path d="M102.67 41.7543C102.466 39.2672 102.208 33.4503 105.533 30.0347C107.886 37.8764 103.954 41.1162 102.67 41.7543Z" fill="#9C9FAF"/>
<path d="M40.0341 67.2554C40.05 67.2569 40.0653 67.2622 40.0788 67.2707C40.0923 67.2792 40.1036 67.2908 40.1118 67.3045C40.1216 67.3294 40.1216 67.3572 40.1118 67.3822C40.1058 67.4123 40.09 67.4397 40.0668 67.4599C40.0391 67.482 40.0039 67.4922 39.9686 67.4885H35.4689C35.4541 67.4895 35.4392 67.4875 35.4251 67.4826C35.4111 67.4777 35.3981 67.4699 35.3871 67.4599C35.3664 67.4426 35.3509 67.42 35.3421 67.3944C35.3369 67.3829 35.3343 67.3703 35.3343 67.3576C35.3343 67.3449 35.3369 67.3324 35.3421 67.3208C35.3667 67.2903 35.4017 67.2699 35.4403 67.2635L35.6939 67.1817C35.8208 67.1419 35.9389 67.078 36.0416 66.9936C36.1802 66.8911 36.2796 66.7445 36.3235 66.5779C36.3674 66.4113 36.3531 66.2347 36.283 66.0773C36.2584 66.0118 36.2257 65.9218 36.1848 65.795C36.1439 65.6682 36.0989 65.5373 36.0539 65.3859C36.0089 65.2346 35.9557 65.0832 35.8985 64.9237L35.7512 64.4778C35.7103 64.3428 35.6735 64.2283 35.6367 64.1342C35.5998 64.0401 35.5876 63.9788 35.5794 63.9624C35.5773 63.9436 35.5681 63.9263 35.5536 63.9141C35.5392 63.9019 35.5206 63.8958 35.5017 63.897H32.4828C32.4643 63.8965 32.4462 63.9018 32.4308 63.912C32.4154 63.9223 32.4036 63.937 32.3969 63.9542C32.3969 64.0115 32.3478 64.1056 32.311 64.2406L32.1678 64.6905C32.1187 64.8583 32.0655 65.0301 32.0083 65.2141C31.951 65.3982 31.9019 65.57 31.8569 65.7255C31.8119 65.8809 31.7669 66.02 31.7301 66.1345C31.7042 66.2093 31.6837 66.2859 31.6687 66.3636C31.6329 66.4991 31.6415 66.6425 31.6933 66.7727C31.7454 66.8773 31.8227 66.9672 31.9183 67.0345C32.0122 67.0973 32.1159 67.1443 32.2251 67.1736L32.4991 67.2472C32.5165 67.2492 32.5332 67.255 32.548 67.2642C32.5629 67.2734 32.5755 67.2857 32.585 67.3004C32.5932 67.3256 32.5932 67.3528 32.585 67.3781C32.5832 67.3913 32.5787 67.4039 32.5716 67.4152C32.5646 67.4265 32.5552 67.4361 32.5441 67.4435C32.52 67.4633 32.4894 67.4735 32.4582 67.4722H29.8116C29.7954 67.4738 29.7791 67.4721 29.7636 67.4672C29.7481 67.4623 29.7338 67.4542 29.7216 67.4435C29.7112 67.4368 29.7025 67.4277 29.6961 67.4171C29.6898 67.4065 29.6859 67.3945 29.6848 67.3822C29.6824 67.3547 29.6896 67.3272 29.7052 67.3045C29.7259 67.2782 29.7547 67.2595 29.7871 67.2513C29.9105 67.2185 30.0321 67.1789 30.1511 67.1326C30.3914 67.0388 30.603 66.8837 30.7647 66.6827C30.8511 66.5688 30.9213 66.4436 30.9733 66.3104C31.002 66.2368 31.0633 66.0691 31.1615 65.7991C31.2597 65.5291 31.3742 65.1978 31.5092 64.8051L31.9674 63.5002C32.1351 63.0256 32.3028 62.543 32.4705 62.0562L32.9696 60.6244C33.1291 60.1622 33.2723 59.749 33.3786 59.3973C33.485 59.0455 33.6036 58.7428 33.6854 58.5178C33.7672 58.2928 33.8041 58.1742 33.8081 58.1619C33.8239 58.1163 33.849 58.0745 33.8818 58.0392C33.9203 58.0074 33.9672 57.9875 34.0168 57.9819C34.1231 57.9819 34.2418 57.9369 34.3808 57.9042L34.7899 57.7978C34.9331 57.761 35.0803 57.716 35.2235 57.671C35.3627 57.6302 35.4993 57.581 35.6326 57.5237C35.6578 57.5076 35.686 57.4967 35.7155 57.4918C35.7451 57.4869 35.7753 57.488 35.8044 57.4951C35.8474 57.5209 35.8794 57.5617 35.8944 57.6096L36.013 57.9696C36.0866 58.1946 36.1848 58.485 36.3075 58.845C36.4302 59.205 36.5652 59.6141 36.7166 60.0722C36.8679 60.5304 37.0275 61.0131 37.1911 61.4998C37.3547 61.9866 37.5184 62.4816 37.682 62.9684C37.8456 63.4552 37.9929 63.897 38.1279 64.3019C38.2629 64.7069 38.3815 65.0546 38.4756 65.3491C38.5696 65.6437 38.6392 65.84 38.676 65.9464C38.7382 66.1335 38.8234 66.3121 38.9296 66.4781C39.0197 66.619 39.1268 66.7482 39.2487 66.8627C39.3579 66.9653 39.482 67.0508 39.6169 67.1163C39.749 67.1812 39.8894 67.228 40.0341 67.2554ZM32.581 63.3406C32.5564 63.402 32.581 63.4306 32.6382 63.4306H35.3462C35.4035 63.4306 35.4199 63.402 35.4035 63.3447C35.3871 63.2874 35.3749 63.2629 35.334 63.1361L35.1744 62.6493L34.9535 61.9825L34.704 61.2258L34.4504 60.4772C34.3727 60.2317 34.299 60.0108 34.2336 59.8186C34.1681 59.6263 34.119 59.4709 34.0781 59.3523C34.0372 59.2336 34.0168 59.1723 34.0168 59.1641C34.0158 59.1572 34.0135 59.1505 34.0098 59.1446C34.0061 59.1387 34.0012 59.1336 33.9953 59.1298C33.9895 59.1259 33.983 59.1233 33.9761 59.1222C33.9692 59.121 33.9622 59.1214 33.9554 59.1232C33.9414 59.1242 33.9281 59.1295 33.9171 59.1382C33.9062 59.147 33.8981 59.1589 33.8941 59.1723L33.8081 59.4341L33.6077 60.064C33.53 60.3176 33.4359 60.5999 33.3377 60.9149C33.2395 61.2299 33.1373 61.5326 33.0432 61.8394C32.9491 62.1462 32.8509 62.4284 32.7691 62.6943C32.6873 62.9602 32.6341 63.177 32.581 63.3406Z" fill="#9C9FAF"/>
<path d="M52.662 57.851C52.6768 57.85 52.6917 57.852 52.7058 57.8569C52.7199 57.8618 52.7328 57.8695 52.7438 57.8796C52.7635 57.8986 52.7776 57.9227 52.7847 57.9491C52.7938 57.9728 52.7938 57.9991 52.7847 58.0228C52.7648 58.0491 52.7355 58.0668 52.7029 58.0718C52.4603 58.137 52.2296 58.2406 52.0197 58.3786C51.8004 58.5411 51.6317 58.7623 51.533 59.0168C51.4634 59.1681 51.3775 59.389 51.263 59.6754C51.1484 59.9617 51.0216 60.289 50.8785 60.6612C50.7353 61.0335 50.5757 61.4344 50.4121 61.868L49.909 63.1933L49.4017 64.531C49.2354 64.9782 49.0799 65.3954 48.9354 65.7827L48.5263 66.8422L48.24 67.603C48.2319 67.6277 48.2174 67.6497 48.198 67.667C48.1786 67.6842 48.155 67.696 48.1295 67.7012C48.0805 67.7012 48.0436 67.6767 48.0191 67.6112L47.8432 67.1122L47.5732 66.3554L47.2419 65.435C47.1273 65.1077 47.0087 64.7846 46.8942 64.4614C46.7796 64.1383 46.6692 63.8233 46.5587 63.5206C46.4483 63.2179 46.3542 62.952 46.2724 62.7024L46.0638 62.1298C46.0106 61.9825 45.9779 61.9007 45.9738 61.8884C45.9697 61.8761 45.9329 61.8311 45.9042 61.8352C45.8756 61.8393 45.8511 61.8639 45.8306 61.9089C45.6915 62.2647 45.5524 62.6288 45.4215 63.0052L45.0125 64.1178L44.6034 65.1896C44.4725 65.5414 44.3498 65.8645 44.2393 66.1672C44.1289 66.4699 44.0266 66.7399 43.9326 66.9853C43.8385 67.2308 43.7648 67.4312 43.7076 67.5867C43.6994 67.6113 43.6849 67.6334 43.6655 67.6506C43.6462 67.6679 43.6225 67.6797 43.5971 67.6848C43.548 67.6848 43.5112 67.6603 43.4867 67.5948C43.4253 67.419 43.3435 67.1858 43.2371 66.8954C43.1308 66.6049 43.0203 66.2736 42.8894 65.9054C42.7585 65.5373 42.6195 65.1405 42.4804 64.7232C42.3413 64.306 42.1777 63.8806 42.0222 63.4469C41.8668 63.0133 41.7154 62.592 41.56 62.1748C41.4045 61.7575 41.2655 61.3566 41.1509 61.0089C41.0364 60.6612 40.8891 60.3217 40.7787 60.0394C40.6682 59.7572 40.57 59.5322 40.4964 59.3727C40.3377 59.0419 40.1169 58.7447 39.846 58.4973C39.6445 58.2914 39.3871 58.1492 39.1056 58.0882C39.0895 58.0874 39.0739 58.0824 39.0603 58.0738C39.0467 58.0652 39.0356 58.0533 39.0279 58.0391C39.0197 58.0125 39.0197 57.984 39.0279 57.9573C39.0313 57.9283 39.046 57.9019 39.0688 57.8837C39.0977 57.8606 39.1341 57.849 39.1711 57.851H48.2032C48.2331 57.8498 48.2623 57.8601 48.285 57.8796C48.3047 57.8986 48.3188 57.9227 48.3259 57.9491C48.3317 57.9605 48.3346 57.9732 48.3346 57.9859C48.3346 57.9987 48.3317 58.0113 48.3259 58.0228C48.3 58.0517 48.2657 58.0718 48.2277 58.08L48.0805 58.1209C48.009 58.1447 47.9393 58.1734 47.8718 58.2068C47.7904 58.2426 47.7135 58.2879 47.6428 58.3418C47.5648 58.396 47.5005 58.4674 47.4546 58.5505C47.3994 58.6444 47.3645 58.7489 47.3523 58.8572C47.3373 58.995 47.3512 59.1343 47.3932 59.2663C47.4382 59.4504 47.5078 59.6754 47.5978 59.9331C47.6878 60.1908 47.7818 60.4731 47.8841 60.7512C47.9864 61.0294 48.0968 61.3484 48.2114 61.6552C48.3259 61.962 48.4323 62.2525 48.5345 62.5306L48.8209 63.2792L49.0213 63.8069C49.0431 63.8533 49.0677 63.8737 49.0949 63.8683C49.1277 63.8683 49.1481 63.8683 49.1645 63.8069C49.2136 63.676 49.279 63.4879 49.369 63.2424C49.459 62.997 49.5531 62.7311 49.6594 62.4243C49.7658 62.1175 49.8803 61.8066 49.999 61.4753L50.3426 60.5017C50.453 60.1908 50.5512 59.8963 50.6412 59.6263L50.8498 58.9513C50.8991 58.829 50.9027 58.693 50.8599 58.5683C50.8171 58.4436 50.7307 58.3385 50.6167 58.2723C50.5212 58.2058 50.4145 58.1573 50.3017 58.1291L49.9908 58.0882C49.9753 58.0867 49.9603 58.0821 49.9467 58.0746C49.9331 58.0671 49.9211 58.057 49.9115 58.0447C49.902 58.0325 49.895 58.0184 49.891 58.0034C49.8871 57.9884 49.8862 57.9727 49.8885 57.9573C49.8903 57.9436 49.8948 57.9303 49.9018 57.9183C49.9089 57.9064 49.9182 57.896 49.9294 57.8878C49.9417 57.8771 49.956 57.869 49.9714 57.8641C49.9869 57.8592 50.0033 57.8575 50.0194 57.8591L52.662 57.851ZM44.5871 63.8151C44.6157 63.7374 44.6566 63.6228 44.7139 63.4756C44.7711 63.3283 44.8284 63.1606 44.8939 62.9724C44.9593 62.7843 45.0288 62.592 45.1025 62.3916C45.1761 62.1911 45.2375 61.9825 45.2947 61.8107C45.352 61.6389 45.397 61.4548 45.4338 61.3035C45.4652 61.1887 45.483 61.0706 45.487 60.9517C45.4843 60.8135 45.4651 60.6762 45.4297 60.5426C45.3914 60.3916 45.345 60.2427 45.2906 60.0967C45.2375 59.9535 45.1802 59.8186 45.1229 59.6877L44.9879 59.3809C44.9091 59.2158 44.8175 59.0571 44.7139 58.9063C44.6228 58.7734 44.511 58.6559 44.3825 58.5586C44.2612 58.4637 44.1221 58.3942 43.9735 58.3541C43.807 58.3079 43.6348 58.2859 43.4621 58.2887C43.3593 58.289 43.2571 58.3056 43.1594 58.3377C43.0636 58.3721 42.9779 58.4297 42.9099 58.5055C42.838 58.5941 42.7902 58.6998 42.7708 58.8123C42.7479 58.9701 42.7619 59.1311 42.8117 59.2827C42.8567 59.4668 42.9263 59.6917 43.0122 59.9495C43.0981 60.2072 43.1921 60.4894 43.2985 60.7676C43.4049 61.0457 43.5112 61.3648 43.6258 61.6716C43.7403 61.9784 43.8507 62.2688 43.953 62.547L44.2393 63.2956L44.4398 63.8233C44.4616 63.8696 44.4862 63.8901 44.5134 63.8846C44.5502 63.8846 44.5707 63.8642 44.5871 63.8151Z" fill="#9C9FAF"/>
<path d="M61.7882 67.2553C61.8037 67.2579 61.8186 67.2636 61.832 67.272C61.8453 67.2805 61.8569 67.2915 61.8659 67.3044C61.874 67.3297 61.874 67.3569 61.8659 67.3821C61.8616 67.412 61.8472 67.4394 61.825 67.4599C61.7955 67.4814 61.7591 67.4916 61.7227 67.4885H57.223C57.1931 67.4896 57.1639 67.4794 57.1412 67.4599C57.1217 67.4423 57.1075 67.4196 57.1003 67.3944C57.0942 67.3831 57.091 67.3704 57.091 67.3576C57.091 67.3447 57.0942 67.3321 57.1003 67.3208C57.1249 67.2903 57.1598 67.2699 57.1985 67.2635L57.4521 67.1817C57.5794 67.1428 57.6976 67.0788 57.7998 66.9935C57.9175 66.9023 58.008 66.7806 58.0616 66.6417C58.122 66.4571 58.1148 66.257 58.0411 66.0772C58.0166 66.0118 57.9839 65.9218 57.943 65.795C57.9021 65.6682 57.8612 65.5373 57.8121 65.3859L57.6607 64.9237C57.6035 64.76 57.5544 64.6128 57.5135 64.4778L57.3989 64.1342L57.3416 63.9624C57.3416 63.9174 57.3007 63.8969 57.2639 63.8969H54.1837C54.165 63.8951 54.1462 63.8999 54.1306 63.9103C54.1149 63.9207 54.1033 63.9362 54.0978 63.9542C54.0773 64.0115 54.0487 64.1055 54.0078 64.2405C53.9669 64.3755 53.9219 64.5228 53.8687 64.6905C53.8155 64.8582 53.7623 65.03 53.7092 65.2141C53.656 65.3982 53.6028 65.57 53.5537 65.7254C53.5046 65.8809 53.4637 66.02 53.4269 66.1345C53.4037 66.2098 53.3846 66.2862 53.3696 66.3636C53.33 66.4986 53.3387 66.6433 53.3942 66.7726C53.4437 66.8789 53.5215 66.9695 53.6192 67.0344C53.7123 67.0988 53.8162 67.1459 53.926 67.1735L54.196 67.2471C54.2136 67.2478 54.2309 67.2531 54.2459 67.2624C54.261 67.2717 54.2734 67.2848 54.2819 67.3003C54.2917 67.3253 54.2917 67.3531 54.2819 67.378C54.2791 67.3914 54.2737 67.4041 54.266 67.4153C54.2582 67.4266 54.2483 67.4361 54.2369 67.4435C54.2127 67.4633 54.1821 67.4735 54.151 67.4721H51.5084C51.4758 67.4745 51.4436 67.4643 51.4184 67.4435C51.3989 67.4284 51.3857 67.4065 51.3816 67.3821C51.3827 67.3545 51.3912 67.3277 51.4061 67.3044C51.4261 67.2774 51.4552 67.2585 51.4879 67.2512C51.6112 67.2179 51.7327 67.1783 51.852 67.1326C51.9692 67.0843 52.0804 67.0225 52.1834 66.9485C52.2877 66.8729 52.3813 66.7835 52.4615 66.6826C52.5493 66.569 52.6209 66.4437 52.6742 66.3104C52.7029 66.2368 52.7642 66.069 52.8583 65.7991C52.9524 65.5291 53.071 65.1977 53.2101 64.805C53.3492 64.4123 53.5005 63.9869 53.6642 63.5001L54.1714 62.0561C54.3391 61.5653 54.5027 61.0907 54.6664 60.6244C54.83 60.1581 54.9732 59.749 55.0754 59.3972L55.3781 58.5177C55.4559 58.2968 55.4968 58.1741 55.505 58.1618C55.5179 58.1159 55.5417 58.0738 55.5745 58.0391C55.613 58.0074 55.6599 57.9875 55.7095 57.9819C55.8158 57.9819 55.9386 57.9369 56.0736 57.9041L56.4826 57.7978C56.6299 57.761 56.7731 57.716 56.9162 57.671C57.0554 57.6302 57.192 57.581 57.3253 57.5237C57.3778 57.4912 57.4411 57.481 57.5012 57.4951C57.5433 57.522 57.575 57.5624 57.5912 57.6096C57.5912 57.6096 57.6321 57.7446 57.7098 57.9696C57.7875 58.1946 57.8775 58.485 58.0002 58.845C58.123 59.205 58.258 59.614 58.4093 60.0722C58.5607 60.5303 58.7202 61.013 58.8838 61.4998C59.0474 61.9866 59.2111 62.4816 59.3706 62.9683C59.5301 63.4551 59.6815 63.8969 59.8206 64.3019C59.9597 64.7069 60.0701 65.0546 60.1642 65.3491L60.3646 65.9463C60.4285 66.1327 60.5136 66.3111 60.6182 66.4781C60.7084 66.6201 60.8171 66.7494 60.9414 66.8626C61.0492 66.967 61.1736 67.0528 61.3096 67.1162C61.4605 67.1884 61.6221 67.2354 61.7882 67.2553ZM54.335 63.3406C54.3105 63.4019 54.335 63.4306 54.3923 63.4306H57.1126C57.1698 63.4306 57.1903 63.4019 57.1698 63.3447C57.1494 63.2874 57.1412 63.2629 57.1044 63.1361C57.0676 63.0092 57.0103 62.8456 56.9408 62.6493L56.7199 61.9825L56.4703 61.2257L56.2208 60.4771C56.139 60.2317 56.0654 60.0108 56.004 59.8186L55.8445 59.3522C55.8036 59.2336 55.7831 59.1722 55.7831 59.164C55.7822 59.1571 55.7798 59.1505 55.7761 59.1446C55.7724 59.1387 55.7675 59.1336 55.7617 59.1297C55.7559 59.1258 55.7493 59.1233 55.7424 59.1221C55.7355 59.121 55.7285 59.1213 55.7218 59.1231C55.7083 59.1244 55.6956 59.1298 55.6853 59.1386C55.6751 59.1474 55.6678 59.1591 55.6645 59.1722C55.631 59.2578 55.6024 59.3452 55.5786 59.434C55.5254 59.5977 55.4559 59.8063 55.3781 60.064L55.1041 60.9148L54.8095 61.8393L54.5355 62.6943C54.4537 62.9643 54.3841 63.177 54.335 63.3406Z" fill="#9C9FAF"/>
<path d="M70.8203 66.5845C70.8454 66.5734 70.8725 66.5676 70.9 66.5676C70.9275 66.5676 70.9547 66.5734 70.9798 66.5845C71.0289 66.6132 71.0412 66.6704 71.0166 66.7604C70.9843 66.8826 70.9225 66.995 70.8366 67.0877C70.7341 67.2023 70.6156 67.3015 70.4848 67.3822C70.3355 67.4779 70.1728 67.5509 70.0021 67.599C69.8125 67.6562 69.6152 67.6838 69.4172 67.6808C69.2401 67.6808 69.0635 67.6644 68.8895 67.6317C68.7143 67.5992 68.5448 67.5414 68.3863 67.4599C68.0421 67.2895 67.7727 66.9983 67.6296 66.6418C67.5508 66.4524 67.4931 66.2548 67.4578 66.0528C67.4169 65.8319 67.3841 65.5782 67.3596 65.2919C67.3289 64.8503 67.2591 64.4122 67.151 63.9829C67.0863 63.7233 66.9769 63.4769 66.8278 63.2548C66.7311 63.1073 66.5867 62.9975 66.4187 62.9439C66.2868 62.9004 66.1487 62.8783 66.0097 62.8784C65.9503 62.871 65.8901 62.8755 65.8325 62.8917C65.7749 62.9078 65.7211 62.9353 65.6742 62.9725C65.6025 63.0626 65.5688 63.177 65.5802 63.2916V66.155C65.5719 66.3454 65.6218 66.5338 65.7233 66.695C65.8101 66.8268 65.9229 66.9395 66.0547 67.0263C66.1705 67.1016 66.2975 67.1582 66.431 67.1941L66.701 67.2554C66.7385 67.2596 66.7733 67.277 66.7992 67.3045C66.809 67.314 66.8166 67.3254 66.8216 67.3382C66.8265 67.3509 66.8287 67.3645 66.8278 67.3781C66.8233 67.4067 66.8088 67.4328 66.7869 67.4518C66.7563 67.4743 66.7183 67.4845 66.6805 67.4804H62.1522C62.1132 67.4841 62.0741 67.4739 62.0418 67.4518C62.0208 67.4326 62.0077 67.4064 62.0049 67.3781C62.0041 67.3645 62.0062 67.3509 62.0112 67.3382C62.0161 67.3254 62.0238 67.314 62.0336 67.3045C62.0584 67.2779 62.0916 67.2606 62.1277 67.2554L62.4017 67.1941C62.5352 67.1582 62.6622 67.1016 62.7781 67.0263C62.908 66.9373 63.0204 66.8249 63.1094 66.695C63.2109 66.5338 63.2609 66.3454 63.2526 66.155V59.1723C63.2591 58.9821 63.2093 58.7943 63.1094 58.6323C63.0215 58.5026 62.9089 58.3914 62.7781 58.3051C62.6613 58.2314 62.5346 58.175 62.4017 58.1374L62.1277 58.0719C62.0917 58.0697 62.0579 58.0536 62.0336 58.0269C62.0143 58.0057 62.004 57.9779 62.0049 57.9492C62.0059 57.9351 62.0096 57.9213 62.0159 57.9087C62.0223 57.896 62.031 57.8848 62.0418 57.8756C62.0736 57.852 62.1127 57.8404 62.1522 57.8429H66.5537H67.3719C67.6311 57.8463 67.8897 57.8709 68.145 57.9165C68.3955 57.9572 68.6401 58.0286 68.8731 58.1292C69.1222 58.237 69.3527 58.3834 69.5563 58.5628C69.7327 58.7242 69.8794 58.9152 69.9899 59.1273C70.0996 59.3414 70.1781 59.57 70.223 59.8064C70.2692 60.0476 70.2788 60.2945 70.2517 60.5386C70.2278 60.7779 70.1642 61.0115 70.0635 61.2299C69.9174 61.576 69.6868 61.8798 69.3926 62.1135C69.0921 62.3295 68.7555 62.4902 68.3986 62.588C68.3618 62.588 68.3372 62.6125 68.3332 62.633C68.3291 62.6534 68.3332 62.6698 68.3782 62.6739L68.5786 62.723C68.688 62.7538 68.7947 62.7935 68.8977 62.8416C69.0259 62.9025 69.1467 62.978 69.2576 63.0666C69.3789 63.1651 69.4803 63.2859 69.5563 63.4225C69.6668 63.6312 69.7375 63.8587 69.7649 64.0933C69.8065 64.3753 69.8324 64.6594 69.8426 64.9442C69.8426 65.2755 69.8794 65.5455 69.904 65.7623C69.9139 65.9379 69.9526 66.1106 70.0185 66.2737C70.054 66.363 70.1135 66.4408 70.1903 66.4986C70.255 66.5477 70.3287 66.5839 70.4071 66.605C70.483 66.6173 70.5603 66.6173 70.6362 66.605C70.6981 66.6045 70.7598 66.5976 70.8203 66.5845ZM65.7724 62.4653H66.1815C66.3341 62.4556 66.4851 62.4281 66.6315 62.3835C66.7857 62.3344 66.9318 62.2627 67.0651 62.1708C67.2174 62.063 67.3444 61.9235 67.4373 61.7617C67.5572 61.5512 67.6441 61.3236 67.695 61.0867C67.7663 60.759 67.7993 60.424 67.7932 60.0886C67.7978 59.7988 67.7704 59.5093 67.7114 59.2255C67.6741 59.027 67.5976 58.8378 67.4864 58.6692C67.3997 58.5358 67.276 58.4306 67.1305 58.3665C66.9812 58.3004 66.8192 58.2683 66.656 58.2724C66.5105 58.2709 66.3657 58.2916 66.2265 58.3337C66.1025 58.373 65.9891 58.4402 65.8951 58.5301C65.7979 58.6261 65.725 58.7439 65.6824 58.8737C65.6256 59.0366 65.5993 59.2085 65.6047 59.3809V62.3303C65.617 62.4162 65.6661 62.4653 65.7724 62.4653Z" fill="#9C9FAF"/>
<path d="M76.9931 57.8428C77.7143 57.8273 78.4315 57.9538 79.1039 58.2151C79.6631 58.4392 80.1649 58.7859 80.5724 59.2295C80.9632 59.6688 81.256 60.1861 81.4314 60.7472C81.6201 61.3522 81.714 61.9828 81.7096 62.6166C81.7151 63.2627 81.6142 63.9054 81.411 64.5187C81.2242 65.0913 80.919 65.6182 80.5151 66.065C80.0953 66.52 79.5797 66.8762 79.0057 67.1081C78.3291 67.3754 77.6059 67.5048 76.8786 67.4885H71.8921C71.853 67.4922 71.814 67.4821 71.7816 67.4599C71.7607 67.4408 71.7475 67.4145 71.7448 67.3863C71.744 67.3727 71.7461 67.359 71.751 67.3463C71.756 67.3336 71.7636 67.3221 71.7734 67.3126C71.7983 67.286 71.8315 67.2687 71.8675 67.2636L72.1416 67.2022C72.2741 67.1671 72.3998 67.1104 72.5139 67.0345C72.646 66.9468 72.7599 66.8342 72.8493 66.7031C72.9508 66.5419 73.0008 66.3535 72.9925 66.1632V59.1723C72.999 58.9821 72.9492 58.7943 72.8493 58.6323C72.761 58.5015 72.6468 58.3901 72.5139 58.3051C72.3989 58.2308 72.2734 58.1742 72.1416 58.1373L71.8675 58.0719C71.8315 58.0697 71.7978 58.0535 71.7734 58.0269C71.7542 58.0057 71.7439 57.9778 71.7448 57.9492C71.7457 57.9351 71.7495 57.9213 71.7558 57.9087C71.7621 57.896 71.7709 57.8848 71.7816 57.8755C71.8134 57.8519 71.8526 57.8403 71.8921 57.8428H76.9931ZM76.8786 67.0549C77.2239 67.0632 77.5607 66.9471 77.8276 66.7277C78.1112 66.4782 78.3326 66.1658 78.4739 65.8155C78.6604 65.3725 78.7843 64.9058 78.8421 64.4287C78.992 63.2691 78.992 62.095 78.8421 60.9353C78.785 60.4722 78.6681 60.0185 78.4944 59.5854C78.3634 59.2424 78.1548 58.9344 77.8849 58.6855C77.637 58.4618 77.3219 58.3265 76.989 58.301H76.7518H76.4327H75.8436C75.7148 58.2941 75.5884 58.3381 75.4918 58.4237C75.4488 58.4645 75.4152 58.5142 75.3933 58.5693C75.3714 58.6244 75.3618 58.6836 75.365 58.7428V64.0892C75.3596 64.5443 75.3828 64.9993 75.4346 65.4514C75.47 65.771 75.5556 66.083 75.6882 66.3759C75.7884 66.5964 75.954 66.7806 76.1627 66.9036C76.3845 67.0143 76.6309 67.0664 76.8786 67.0549Z" fill="#9C9FAF"/>
<path d="M39.3591 45.6403C39.8214 45.7518 40.2622 45.9383 40.6641 46.1926C40.9839 46.397 41.2617 46.6608 41.4822 46.9698C41.6757 47.2523 41.8144 47.5687 41.8912 47.9025C41.9687 48.2392 42.0071 48.5837 42.0058 48.9292C42.0071 49.3847 41.9254 49.8366 41.7644 50.2628C41.5945 50.6927 41.322 51.0747 40.9709 51.3754C40.549 51.7273 40.0587 51.9878 39.5309 52.1404C38.8213 52.3443 38.0848 52.4395 37.3465 52.4226H30.9529C30.9011 52.4267 30.8498 52.4106 30.8097 52.3776C30.7789 52.3533 30.7585 52.3182 30.7524 52.2794C30.7531 52.2415 30.7677 52.2051 30.7933 52.1772C30.8288 52.1419 30.8747 52.1189 30.9242 52.1117C31.002 52.1117 31.1247 52.0708 31.2924 52.0258C31.6868 51.9285 32.0309 51.6879 32.2578 51.3509C32.3946 51.1289 32.4616 50.8709 32.4501 50.6105V41.0997C32.4601 40.8407 32.3932 40.5845 32.2578 40.3634C32.1385 40.1853 31.984 40.0335 31.8037 39.9175C31.6462 39.8132 31.4738 39.7332 31.2924 39.6803C31.1233 39.6339 31.0006 39.6053 30.9242 39.5944C30.8737 39.5907 30.8266 39.5671 30.7933 39.5289C30.7671 39.4997 30.7525 39.4618 30.7524 39.4226C30.7601 39.3844 30.7803 39.3499 30.8097 39.3244C30.8504 39.2929 30.9017 39.2782 30.9529 39.2835H37.7229C38.3009 39.2685 38.8775 39.3501 39.4287 39.5248C39.8445 39.6616 40.2246 39.8894 40.5413 40.1916C40.8204 40.4685 41.0269 40.8099 41.1427 41.1856C41.2659 41.5829 41.3266 41.9969 41.3226 42.4128C41.3224 42.7128 41.2894 43.0118 41.2245 43.3046C41.0994 43.9377 40.7703 44.5124 40.2877 44.9408C40.0038 45.1916 39.6839 45.3984 39.3387 45.5544C39.2978 45.5762 39.2814 45.5967 39.2896 45.6158C39.2978 45.6117 39.3182 45.6281 39.3591 45.6403ZM35.6776 44.7854C35.6729 44.8641 35.6839 44.9429 35.7099 45.0173C35.7359 45.0917 35.7763 45.1603 35.8289 45.219C35.8859 45.2747 35.9539 45.3177 36.0287 45.3452C36.1034 45.3727 36.1831 45.384 36.2625 45.3785C36.4534 45.3748 36.642 45.336 36.8189 45.264C37.0478 45.168 37.2459 45.0109 37.3915 44.8099C37.5839 44.5223 37.7225 44.2021 37.8006 43.865C37.9285 43.346 37.9862 42.8122 37.9724 42.2778C37.9724 41.9915 37.9724 41.701 37.9438 41.4106C37.9328 41.1408 37.8846 40.8737 37.8006 40.617C37.7278 40.3971 37.6013 40.1989 37.4324 40.0402C37.2464 39.8812 37.0059 39.8005 36.7616 39.8153C36.5637 39.8071 36.3674 39.8524 36.193 39.9462C36.04 40.0428 35.9223 40.1863 35.8576 40.3552C35.7711 40.5651 35.7186 40.7874 35.7021 41.0138C35.6722 41.3197 35.6586 41.6269 35.6612 41.9342L35.6776 44.7854ZM36.9702 51.8663C37.1937 51.8741 37.4148 51.8188 37.6083 51.7067C37.7796 51.6033 37.9262 51.4637 38.0379 51.2977C38.1535 51.1167 38.2417 50.9196 38.2997 50.7127C38.3613 50.4971 38.4051 50.2769 38.4306 50.0541C38.4551 49.8332 38.4715 49.6451 38.4797 49.4242C38.4878 49.2033 38.4797 49.0478 38.4797 48.9087C38.4875 48.4886 38.4491 48.0688 38.3651 47.657C38.3032 47.3625 38.1984 47.0786 38.0542 46.8143C37.8528 46.4555 37.529 46.1811 37.142 46.0412C36.9955 45.99 36.8428 45.9584 36.688 45.9471C36.5407 45.9471 36.418 45.9471 36.3198 45.9471C36.147 45.9371 35.9769 45.9943 35.8453 46.1067C35.7862 46.1618 35.7399 46.2292 35.7095 46.3041C35.6792 46.379 35.6655 46.4596 35.6694 46.5403V49.596C35.667 49.9145 35.6848 50.2328 35.7226 50.5491C35.7492 50.7998 35.8169 51.0444 35.923 51.2731C36.016 51.4607 36.1572 51.6202 36.3321 51.7354C36.5229 51.8366 36.7384 51.8819 36.9538 51.8663H36.9702Z" fill="#9C9FAF"/>
<path d="M54.7728 49.6207C54.8137 49.5184 54.875 49.4693 54.9609 49.4775C55.0468 49.4857 55.0836 49.547 55.0836 49.6493V52.2387C55.0836 52.3614 55.0182 52.4227 54.8832 52.4227H44.5503C44.4986 52.426 44.4476 52.41 44.4071 52.3778C44.3931 52.3651 44.3818 52.3496 44.3742 52.3324C44.3665 52.3151 44.3625 52.2964 44.3625 52.2775C44.3625 52.2586 44.3665 52.24 44.3742 52.2227C44.3818 52.2054 44.3931 52.19 44.4071 52.1773C44.4426 52.142 44.4885 52.1191 44.538 52.1119C44.6157 52.1119 44.7384 52.071 44.9102 52.026C45.0907 51.9799 45.2622 51.9038 45.4175 51.801C45.5969 51.6823 45.7512 51.5294 45.8715 51.351C46.0117 51.1303 46.0803 50.8717 46.0679 50.6106V41.0999C46.0787 40.8402 46.0102 40.5834 45.8715 40.3636C45.7523 40.1854 45.5977 40.0337 45.4175 39.9177C45.2559 39.8126 45.0794 39.7326 44.8939 39.6804C44.7221 39.6354 44.5993 39.6068 44.5216 39.5945C44.4711 39.5908 44.424 39.5673 44.3907 39.5291C44.3773 39.515 44.3671 39.4983 44.3607 39.4799C44.3543 39.4615 44.352 39.442 44.3539 39.4227C44.3581 39.3843 44.3772 39.349 44.4071 39.3245C44.448 39.2934 44.4991 39.2788 44.5503 39.2836H54.0364C54.1714 39.2836 54.241 39.345 54.241 39.4677V41.4885C54.241 41.5867 54.2001 41.6398 54.1223 41.6521C54.0809 41.6545 54.0398 41.6439 54.0047 41.622C53.9695 41.6 53.942 41.5676 53.926 41.5294C53.8584 41.3875 53.7805 41.2507 53.6928 41.1203C53.5567 40.9123 53.3945 40.7226 53.2101 40.5558C52.9765 40.3497 52.7131 40.1801 52.4288 40.0527C52.0728 39.8995 51.687 39.8282 51.2998 39.844C51.0253 39.8444 50.7514 39.8704 50.4817 39.9218C50.2531 39.9658 50.0342 40.0503 49.8354 40.1713C49.6657 40.2821 49.5253 40.4322 49.4263 40.609C49.3218 40.8081 49.2697 41.0305 49.2749 41.2553V45.215C49.2759 45.2537 49.2921 45.2905 49.3199 45.3173C49.3331 45.3309 49.3491 45.3416 49.3667 45.3487C49.3843 45.3557 49.4032 45.359 49.4222 45.3582H50.6494C50.8994 45.3693 51.1475 45.3097 51.3653 45.1864C51.537 45.0807 51.6858 44.9416 51.803 44.7773C51.9027 44.636 51.98 44.4801 52.032 44.3151C52.0677 44.2011 52.0964 44.0849 52.1179 43.9674C52.1203 43.9454 52.1274 43.9242 52.1387 43.9051C52.15 43.8861 52.1652 43.8696 52.1834 43.857C52.2146 43.8357 52.2521 43.8256 52.2897 43.8283C52.3272 43.8326 52.362 43.8499 52.3879 43.8774C52.4027 43.894 52.414 43.9135 52.421 43.9346C52.428 43.9557 52.4307 43.978 52.4288 44.0001V47.3054C52.4307 47.3275 52.428 47.3498 52.421 47.3709C52.414 47.392 52.4027 47.4115 52.3879 47.4281C52.362 47.4555 52.3272 47.4729 52.2897 47.4772C52.2516 47.4784 52.2142 47.4668 52.1834 47.4444C52.1644 47.4326 52.1485 47.4164 52.1371 47.3972C52.1258 47.378 52.1192 47.3563 52.1179 47.334C52.0963 47.2178 52.0676 47.1031 52.032 46.9904C51.98 46.8254 51.9027 46.6695 51.803 46.5281C51.687 46.3629 51.5379 46.2236 51.3653 46.1191C51.1487 45.9924 50.9 45.9313 50.6494 45.9432H49.4222C49.3838 45.9452 49.3475 45.9613 49.3203 45.9885C49.2931 46.0157 49.2769 46.052 49.2749 46.0904V50.4265C49.2678 50.6408 49.3207 50.8528 49.4277 51.0385C49.5346 51.2243 49.6914 51.3765 49.8804 51.4778C50.4082 51.7477 50.9984 51.872 51.5902 51.8378C51.9147 51.8425 52.2378 51.7956 52.5474 51.6987C52.8202 51.6125 53.0812 51.4929 53.3247 51.3428C53.5465 51.2088 53.75 51.0466 53.9301 50.8601C54.0881 50.7005 54.2344 50.5296 54.3678 50.3488C54.4736 50.2094 54.568 50.0616 54.65 49.907C54.7032 49.7761 54.7482 49.6779 54.7728 49.6207Z" fill="#9C9FAF"/>
<path d="M57.5748 52.3613V48.9088C57.5748 48.7984 57.6157 48.737 57.6935 48.7207C57.7712 48.7043 57.8284 48.7411 57.8694 48.8311C58.0809 49.323 58.3355 49.7953 58.6302 50.2424C58.8833 50.6279 59.1921 50.9739 59.5465 51.2691C59.8739 51.5405 60.2463 51.7524 60.6469 51.895C61.0798 52.0436 61.535 52.117 61.9927 52.1118C62.2703 52.1151 62.5465 52.0737 62.8108 51.9891C63.0581 51.9101 63.2855 51.779 63.4776 51.6046C63.6757 51.4164 63.8306 51.1875 63.9317 50.9337C64.0532 50.621 64.1116 50.2873 64.1035 49.9519C64.1115 49.6217 64.0429 49.294 63.903 48.9947C63.7719 48.718 63.5902 48.4683 63.3672 48.2584C63.138 48.0405 62.8824 47.8522 62.6063 47.698C62.3219 47.5463 62.0297 47.4097 61.7309 47.2889C61.3996 47.1458 61.0723 46.9944 60.7533 46.839C60.4349 46.6856 60.1274 46.5106 59.8329 46.3154C59.5374 46.121 59.2632 45.8961 59.0147 45.6445C58.7667 45.3848 58.5585 45.0898 58.3971 44.7691C58.2489 44.4916 58.1336 44.1979 58.0534 43.8937C57.9714 43.5924 57.9302 43.2815 57.9307 42.9692C57.9335 42.4954 58.0151 42.0254 58.1721 41.5784C58.3472 41.1014 58.6267 40.6695 58.9902 40.3144C59.4028 39.9112 59.8945 39.5978 60.4342 39.394C61.1361 39.1384 61.88 39.0176 62.6268 39.0381C63.1073 39.0319 63.5871 39.0758 64.0585 39.169C64.4013 39.2398 64.7379 39.3383 65.0648 39.4635C65.28 39.5426 65.4868 39.6426 65.6825 39.7622C65.7675 39.8147 65.8495 39.872 65.9279 39.934C65.9623 39.9561 65.9907 39.9863 66.0107 40.022C66.0307 40.0576 66.0416 40.0976 66.0424 40.1385V41.8893C66.0441 41.9294 66.031 41.9687 66.0056 41.9997C65.9823 42.0261 65.9504 42.0434 65.9156 42.0488C65.8836 42.0584 65.8495 42.0584 65.8175 42.0488C65.7807 42.0283 65.7529 41.9948 65.7397 41.9547C65.6144 41.6557 65.4681 41.366 65.302 41.0875C64.9522 40.4746 64.393 40.0084 63.7271 39.7744C63.2987 39.6256 62.847 39.555 62.3936 39.5658C61.8288 39.5308 61.2701 39.6991 60.8187 40.0403C60.63 40.1944 60.4789 40.3893 60.3769 40.6105C60.2748 40.8316 60.2245 41.0731 60.2297 41.3166C60.2248 41.5971 60.2777 41.8756 60.3851 42.1347C60.5095 42.3921 60.6915 42.6174 60.9169 42.7933C61.2332 43.0319 61.5748 43.2349 61.9354 43.3987C62.3445 43.6033 62.8722 43.8323 63.4981 44.086C64.0579 44.3064 64.5984 44.5733 65.1139 44.8836C65.5495 45.1442 65.9449 45.4666 66.2879 45.8409C66.5925 46.1936 66.8259 46.602 66.9751 47.0435C67.1431 47.5372 67.2247 48.0561 67.2165 48.5775C67.2207 49.1283 67.1164 49.6746 66.9097 50.1851C66.7019 50.6885 66.3797 51.1367 65.9688 51.4941C65.5049 51.8847 64.9683 52.1794 64.3898 52.3613C63.6562 52.5876 62.8912 52.6953 62.1236 52.6804C61.5716 52.6801 61.0218 52.61 60.4874 52.4718C59.9433 52.3327 59.4197 52.1772 58.9166 52.0095L58.6629 51.9523C58.5847 51.9283 58.5034 51.9159 58.4216 51.9154C58.3568 51.9095 58.2915 51.9203 58.2321 51.9468C58.1726 51.9733 58.121 52.0146 58.0821 52.0668C58.0005 52.1831 57.9319 52.3079 57.8775 52.439C57.8366 52.529 57.7794 52.57 57.6975 52.5577C57.6157 52.5454 57.5748 52.4759 57.5748 52.3613Z" fill="#9C9FAF"/>
<path d="M80.8505 39.4758V42.1797C80.8505 42.282 80.8096 42.3393 80.7237 42.3515C80.6378 42.3638 80.5806 42.3106 80.5397 42.2084L80.4047 41.9138C80.3264 41.7485 80.2347 41.5898 80.1306 41.4393C80.0087 41.2488 79.8719 41.0683 79.7215 40.8994C79.539 40.7074 79.336 40.5359 79.1161 40.388C78.8782 40.2285 78.6212 40.0993 78.3512 40.0035C78.0454 39.9014 77.7245 39.8516 77.4021 39.8563C77.2624 39.8502 77.123 39.8739 76.9931 39.9258C76.8947 39.9692 76.8089 40.0367 76.7435 40.1221C76.6798 40.207 76.6351 40.3047 76.6126 40.4085C76.588 40.5203 76.5716 40.6338 76.5636 40.748V50.6105C76.5511 50.8717 76.6197 51.1303 76.7599 51.3509C76.8776 51.5301 77.0308 51.6832 77.2099 51.8009C77.3666 51.9038 77.5394 51.9799 77.7212 52.0259C77.8889 52.0709 78.0116 52.0954 78.0894 52.1118C78.1392 52.1181 78.1853 52.1412 78.2203 52.1773C78.2346 52.1899 78.2457 52.2058 78.2528 52.2235C78.2599 52.2413 78.2628 52.2605 78.2612 52.2795C78.257 52.318 78.2379 52.3532 78.208 52.3777C78.1661 52.4102 78.1137 52.4262 78.0607 52.4227H71.8634C71.8105 52.4262 71.7581 52.4102 71.7162 52.3777C71.6862 52.3532 71.6671 52.318 71.663 52.2795C71.6637 52.2416 71.6782 52.2052 71.7039 52.1773C71.7394 52.142 71.7853 52.119 71.8348 52.1118C71.9125 52.1118 72.0352 52.0709 72.2029 52.0259C72.5974 51.9286 72.9415 51.688 73.1683 51.3509C73.3052 51.129 73.3722 50.871 73.3606 50.6105V47.6735C73.3606 47.158 73.3606 46.6222 73.3606 46.074C73.3606 45.5259 73.3606 44.9859 73.3606 44.4378V41.1653C73.3606 41.0057 73.3606 40.8462 73.3606 40.6867C73.3516 40.5465 73.3213 40.4086 73.2706 40.2776C73.2197 40.1528 73.1328 40.046 73.0211 39.9708C72.8751 39.8855 72.7071 39.8456 72.5384 39.8563C72.2147 39.8523 71.8926 39.9021 71.5853 40.0035C71.3145 40.0976 71.0574 40.2269 70.8203 40.388C70.6054 40.539 70.4079 40.7132 70.2313 40.9075C70.074 41.0759 69.9304 41.2564 69.8017 41.4475C69.6979 41.5989 69.605 41.7575 69.5236 41.922C69.4581 42.0611 69.4131 42.1593 69.3927 42.2166C69.3722 42.2738 69.2945 42.3679 69.2086 42.3597C69.1227 42.3515 69.0818 42.2902 69.0818 42.1879V39.4758C69.0818 39.3531 69.1513 39.2917 69.2863 39.2917H80.646C80.781 39.2917 80.8505 39.3531 80.8505 39.4758Z" fill="#9C9FAF"/>
</svg>
