<svg width="24" height="24" viewBox="0 0 24 24" fill="none" xmlns="http://www.w3.org/2000/svg">
<mask id="mask0_380_7" style="mask-type:alpha" maskUnits="userSpaceOnUse" x="0" y="0" width="24" height="24">
<rect width="24" height="24" fill="#D9D9D9"/>
</mask>
<g mask="url(#mask0_380_7)">
<path d="M20.7029 7.48105C20.7164 7.67634 20.7164 7.87163 20.7164 8.06872C20.7164 14.074 16.1535 21 7.81015 21V20.9964C5.34549 21 2.93202 20.2926 0.857178 18.9589C1.21556 19.0021 1.57574 19.0237 1.93682 19.0246C3.97933 19.0264 5.96345 18.3398 7.57033 17.0753C5.62932 17.0384 3.92723 15.7704 3.33262 13.9192C4.01256 14.0506 4.71316 14.0236 5.38052 13.841C3.26436 13.4126 1.74191 11.5497 1.74191 9.38623C1.74191 9.36643 1.74191 9.34754 1.74191 9.32864C2.37244 9.68051 3.07843 9.8758 3.80058 9.8974C1.80747 8.56278 1.19311 5.90615 2.39669 3.82908C4.69968 6.6684 8.09758 8.3945 11.7452 8.57718C11.3796 6.99868 11.879 5.34459 13.0574 4.23496C14.8844 2.51427 17.7577 2.60246 19.4751 4.43205C20.491 4.23136 21.4646 3.85788 22.3556 3.32872C22.017 4.38075 21.3083 5.27439 20.3616 5.84226C21.2607 5.73606 22.1392 5.49488 22.9664 5.1268C22.3574 6.04114 21.5904 6.83759 20.7029 7.48105Z" fill="#5E128C"/>
</g>
</svg>
