<svg width="160" height="16" viewBox="0 0 160 16" fill="none" xmlns="http://www.w3.org/2000/svg">
<g clip-path="url(#clip0_73_1374)">
<path d="M142.1 15.7V3.8H145.4L145.7 5.2H145.8C146.3 4.7 146.8 4.3 147.3 4C147.9 3.7 148.5 3.5 149.3 3.5C150.1 3.5 150.8 3.7 151.3 4C151.8 4.3 152.3 4.8 152.6 5.4C153.1 4.9 153.6 4.5 154.2 4.1C154.8 3.7 155.5 3.5 156.3 3.5C157.6 3.5 158.6 3.9 159.1 4.8C159.7 5.7 160 6.8 160 8.3V15.6H155.9V8.9C155.9 8.1 155.8 7.6 155.6 7.4C155.4 7.2 155.2 7 154.7 7C154.5 7 154.2 7.1 153.9 7.2C153.6 7.3 153.3 7.6 153 7.9V15.7H149V8.9C149 8.1 148.9 7.6 148.7 7.4C148.5 7.1 148.2 7 147.8 7C147.3 7 146.7 7.3 146.1 7.9V15.7H142.1Z" fill="#000080"/>
<path d="M133.2 16C132.2 16 131.2 15.8 130.3 15.3C129.4 14.8 128.7 14.1 128.1 13.2C127.5 12.3 127.3 11.1 127.3 9.79995C127.3 8.49995 127.6 7.39995 128.1 6.49995C128.7 5.59995 129.4 4.89995 130.3 4.39995C131.2 3.89995 132.2 3.69995 133.2 3.69995C134.2 3.69995 135.2 3.89995 136 4.39995C136.9 4.89995 137.6 5.59995 138.2 6.49995C138.8 7.39995 139.1 8.49995 139.1 9.79995C139.1 11.1 138.8 12.2 138.2 13.2C137.6 14.1 136.9 14.8 136 15.3C135.1 15.8 134.2 16 133.2 16ZM133.2 12.7C133.6 12.7 133.9 12.6 134.2 12.3C134.5 12.1 134.6 11.7 134.7 11.3C134.8 10.9 134.9 10.3 134.9 9.69995C134.9 9.09995 134.8 8.59995 134.7 8.09995C134.6 7.69995 134.4 7.29995 134.2 7.09995C133.9 6.89995 133.6 6.69995 133.2 6.69995C132.8 6.69995 132.5 6.79995 132.2 7.09995C131.9 7.29995 131.8 7.69995 131.7 8.09995C131.6 8.49995 131.5 9.09995 131.5 9.69995C131.5 10.3 131.6 10.8 131.7 11.3C131.8 11.7 132 12.1 132.2 12.3C132.4 12.6 132.8 12.7 133.2 12.7Z" fill="#000080"/>
<path d="M121.9 16C120.7 16 119.7 15.8 118.8 15.3C117.9 14.8 117.2 14.1 116.6 13.2C116.1 12.3 115.8 11.1 115.8 9.79995C115.8 8.49995 116.1 7.39995 116.7 6.49995C117.3 5.59995 118.1 4.89995 119 4.39995C120 3.89995 121 3.69995 122.1 3.69995C122.8 3.69995 123.5 3.79995 124 3.99995C124.6 4.19995 125.1 4.49995 125.5 4.89995L123.6 7.39995C123.4 7.29995 123.2 7.09995 123 7.09995C122.8 6.99995 122.6 6.99995 122.3 6.99995C121.8 6.99995 121.4 7.09995 121 7.39995C120.6 7.59995 120.4 7.99995 120.1 8.39995C119.9 8.79995 119.8 9.39995 119.8 9.99995C119.8 10.6 119.9 11.1 120.1 11.6C120.3 12 120.6 12.4 120.9 12.6C121.2 12.8 121.6 13 122.1 13C122.4 13 122.7 12.9 123 12.8C123.3 12.7 123.6 12.5 123.9 12.3L125.5 14.8C125 15.2 124.4 15.6 123.7 15.8C123.3 15.9 122.6 16 121.9 16Z" fill="#000080"/>
<path d="M110.6 16C109.9 16 109.4 15.8 108.9 15.3C108.5 14.8 108.2 14.2 108.2 13.5C108.2 12.8 108.4 12.2 108.9 11.7C109.4 11.2 109.9 11 110.6 11C111.3 11 111.9 11.2 112.3 11.7C112.7 12.2 113 12.8 113 13.5C113 14.2 112.8 14.8 112.3 15.3C111.9 15.8 111.3 16 110.6 16Z" fill="#000080"/>
<path d="M96 15.7V0.300049H101.6C102.7 0.300049 103.8 0.500049 104.7 0.800049C105.6 1.10005 106.4 1.60005 107 2.40005C107.6 3.10005 107.9 4.20005 107.9 5.50005C107.9 6.80005 107.6 7.80005 107 8.60005C106.4 9.40005 105.7 10 104.7 10.4C103.8 10.8 102.8 11 101.7 11H100V15.9H96V15.7ZM100 7.60005H101.5C102.3 7.60005 102.9 7.40005 103.3 7.00005C103.7 6.60005 103.9 6.10005 103.9 5.40005C103.9 4.70005 103.7 4.20005 103.3 3.90005C102.9 3.60005 102.3 3.50005 101.5 3.50005H100V7.60005Z" fill="#EA2F9F"/>
<path d="M88.9 0.300049H84L79.3 15.7H83.5L84.3 12.4H88.6L89.4 15.7H93.7L88.9 0.300049ZM84.9 9.30005L85.2 8.20005C85.4 7.50005 85.6 6.70005 85.8 5.80005C86 4.90005 86.2 4.10005 86.3 3.30005H86.4C86.6 4.10005 86.8 4.90005 87 5.80005C87.2 6.70005 87.4 7.50005 87.6 8.20005L87.9 9.30005H84.9Z" fill="#EA2F9F"/>
<path d="M71.8 16C70.8 16 69.8 15.8 68.7 15.5C67.7 15.1 66.8 14.6 65.9 13.8L68 11.1C68.6 11.5 69.2 11.9 69.8 12.1C70.5 12.3 71.1 12.5 71.7 12.5C72.3 12.5 72.8 12.4 73 12.2C73.3 12 73.4 11.7 73.4 11.4C73.4 11.1 73.3 10.9 73.1 10.8C72.9 10.6 72.7 10.5 72.4 10.4C72.1 10.3 71.7 10.1 71.3 9.9L69.4 9.1C68.8 8.9 68.3 8.6 67.9 8.2C67.4 7.8 67 7.3 66.8 6.8C66.5 6.2 66.4 5.6 66.4 4.8C66.4 3.9 66.6 3.1 67.1 2.4C67.6 1.7 68.3 1.1 69.1 0.7C70 0.3 71 0 72.1 0C73 0 73.9 0.2 74.8 0.5C75.7 0.8 76.5 1.3 77.2 1.9L75.1 4.6C74.6 4.2 74.1 4 73.6 3.8C73.1 3.6 72.6 3.5 72.2 3.5C71.7 3.5 71.3 3.6 71 3.8C70.7 4 70.6 4.2 70.6 4.6C70.6 4.8 70.7 5 70.9 5.2C71.1 5.4 71.4 5.5 71.7 5.7C72 5.8 72.4 6 72.9 6.2L74.8 6.9C75.4 7.2 76 7.5 76.4 7.9C76.8 8.3 77.2 8.7 77.4 9.3C77.6 9.8 77.8 10.5 77.8 11.2C77.8 12.1 77.6 12.9 77.1 13.6C76.6 14.3 76 14.9 75.1 15.4C74.1 15.8 73.1 16 71.8 16Z" fill="#EA2F9F"/>
<path d="M59.8 0.300049H54.9L50.2 15.7H54.4L55.2 12.4H59.5L60.3 15.7H64.6L59.8 0.300049ZM55.8 9.30005L56.1 8.20005C56.3 7.50005 56.5 6.70005 56.7 5.80005C56.9 4.90005 57.1 4.10005 57.2 3.30005H57.3C57.5 4.10005 57.7 4.90005 57.9 5.80005C58.1 6.70005 58.3 7.50005 58.5 8.20005L58.8 9.30005H55.8Z" fill="#EA2F9F"/>
<path d="M42.9 16.0001C42.1 16.0001 41.3 15.8001 40.5 15.5001C39.7 15.2001 38.9 14.7001 38.3 14.1001L40 11.8001C40.6 12.2001 41.1 12.5001 41.6 12.7001C42.1 12.8001 42.6 12.9001 43 12.9001C43.4 12.9001 43.7 12.8001 43.9 12.7001C44.1 12.6001 44.2 12.4001 44.2 12.2001C44.2 12.0001 44.1 11.8001 43.9 11.7001C43.7 11.6001 43.5 11.4001 43.1 11.3001C42.8 11.2001 42.4 11.0001 42 10.9001C41.4 10.7001 40.9 10.4001 40.5 10.1001C40 9.9001 39.6 9.5001 39.4 9.0001C39.1 8.5001 39 8.0001 39 7.4001C39 6.2001 39.4 5.3001 40.3 4.6001C41.2 3.9001 42.3 3.6001 43.7 3.6001C44.6 3.6001 45.4 3.8001 46.2 4.1001C46.9 4.4001 47.6 4.8001 48.1 5.2001L46.4 7.5001C46 7.2001 45.5 7.0001 45.1 6.8001C44.7 6.7001 44.3 6.6001 43.9 6.6001C43.6 6.6001 43.3 6.7001 43.1 6.8001C42.9 6.9001 42.8 7.1001 42.8 7.3001C42.8 7.5001 42.9 7.6001 43 7.8001C43.1 7.9001 43.4 8.1001 43.7 8.2001C44 8.3001 44.4 8.4001 44.9 8.6001C45.5 8.8001 46 9.1001 46.5 9.4001C47 9.7001 47.3 10.1001 47.6 10.6001C47.9 11.1001 48 11.6001 48 12.2001C48 12.9001 47.8 13.6001 47.4 14.2001C47 14.8001 46.5 15.3001 45.7 15.6001C44.9 15.8001 44 16.0001 42.9 16.0001Z" fill="#000080"/>
<path d="M33.4 16C31.9 16 30.8 15.6 30.1 14.7C29.4 13.8 29.1 12.6 29.1 11.2V7.00005H27.5V4.00005L29.3 3.90005L29.8 0.300049H33.2V3.90005H35.9V7.00005H33.2V11.1C33.2 11.7 33.3 12.2 33.6 12.5C33.9 12.8 34.2 12.9 34.6 12.9C34.8 12.9 35 12.9 35.1 12.9C35.3 12.9 35.5 12.8 35.6 12.8L36.2 15.6C35.9 15.7 35.5 15.8 35 15.9C34.6 15.9 34.1 16 33.4 16Z" fill="#000080"/>
<path d="M24.8 6.4C24.4 5.5 23.9 4.8 23.1 4.3C22.3 3.8 21.4 3.5 20.2 3.5C19.2 3.5 18.3 3.8 17.5 4.3C16.6 4.8 15.9 5.5 15.4 6.5C14.9 7.4 14.6 8.5 14.6 9.8C14.6 11.1 14.9 12.2 15.4 13.2C15.9 14.1 16.7 14.8 17.6 15.3C18.5 15.8 19.6 16 20.7 16C21.4 16 22.1 15.9 22.9 15.6C23.7 15.4 24.4 15 25 14.6L23.7 12.2C23.3 12.4 22.9 12.6 22.4 12.7C22 12.8 21.6 12.9 21.2 12.9C20.7 12.9 20.3 12.8 19.9 12.7C19.5 12.5 19.1 12.2 18.8 11.8C18.7 11.6 18.5 11.3 18.5 11H25.3C25.3 10.8 25.4 10.6 25.4 10.3C25.4 10 25.5 9.6 25.5 9.3C25.4 8.2 25.2 7.3 24.8 6.4ZM18.4 8.4C18.4 8.2 18.5 8.1 18.5 7.9C18.7 7.4 19 7.1 19.3 6.9C19.6 6.7 20 6.6 20.3 6.6C20.9 6.6 21.3 6.8 21.6 7.1C21.8 7.4 22 7.8 22 8.3H18.4V8.4Z" fill="#000080"/>
<path d="M4.5 15.7L0 0.300049H4.3L5.8 7.00005C5.9 7.50005 6 8.10005 6.2 8.60005C6.3 9.10005 6.5 9.70005 6.6 10.2C6.7 10.7 6.9 11.3 7 11.8H7.1C7.2 11.2 7.4 10.7 7.5 10.2C7.6 9.70005 7.8 9.10005 7.9 8.60005C7.9 8.10005 8.1 7.60005 8.2 7.00005L9.9 0.300049H14L9.4 15.7H4.5Z" fill="#000080"/>
</g>
<defs>
<clipPath id="clip0_73_1374">
<rect width="160" height="16" fill="white"/>
</clipPath>
</defs>
</svg>
