<svg width="80" height="80" viewBox="0 0 80 80" fill="none" xmlns="http://www.w3.org/2000/svg">
<mask id="path-1-inside-1_131_780" fill="white">
<path d="M13.1377 49.9008C13.2237 49.7165 13.3179 49.5365 13.3928 49.3493C13.982 47.8905 15.0537 47.0496 16.5705 46.8712C17.9832 46.7051 19.1964 47.2255 20.0046 48.4078C21.4105 50.4622 22.4184 52.6752 22.2687 55.2939C22.1772 56.8846 21.6503 58.3122 20.9765 59.7186C20.7505 60.1894 20.5523 60.7366 20.5551 61.2485C20.5592 62.4635 21.5477 63.348 22.7664 63.2219C23.8825 63.1072 24.9847 62.8547 26.0342 62.6732C26.1784 61.4852 26.2366 60.3539 26.4668 59.2593C26.8411 57.4787 27.7076 55.9305 28.8722 54.5538C29.4448 53.8761 30.0285 53.2056 30.5414 52.4826C30.7286 52.2188 30.8423 51.7879 30.7841 51.4731C30.3016 48.9083 30.5706 46.4797 31.792 44.1561C33.7926 40.3467 35.7516 36.513 37.7454 32.6568C36.4476 31.4475 35.5409 30.0127 35.1069 28.269C34.7451 26.8143 34.7894 25.3738 35.1791 23.9447C35.3259 23.4074 35.2734 23.0091 34.935 22.5327C32.4367 19.0294 31.1432 15.098 31.0572 10.7555C31.0461 10.204 31.1293 9.71203 31.6492 9.42706C32.1663 9.14351 32.6128 9.33206 33.0536 9.65674C35.1638 11.212 37.2878 12.7488 39.395 14.3084C39.7611 14.5791 40.0356 14.6529 40.4835 14.4076C42.0001 13.581 43.6251 13.2181 45.3457 13.5258C45.8017 13.6066 46.0347 13.479 46.2455 13.0366C47.4017 10.6066 48.5857 8.18938 49.7905 5.78346C49.9806 5.40351 50.327 5.10578 50.6015 4.76978C50.8775 4.76978 51.1548 4.76978 51.4306 4.76978C51.5999 4.95408 51.7995 5.11854 51.9311 5.32695C53.7861 8.2546 55.0297 11.4162 55.2905 14.9208C55.4334 16.8376 55.6413 18.6551 56.48 20.4798C57.8927 23.552 57.4075 26.6356 55.5483 29.4526C55.2974 29.8327 55.285 30.0666 55.5483 30.4309C56.5035 31.7509 57.2744 33.2056 57.488 34.8288C57.8955 37.9279 58.2366 41.0413 58.446 44.1603C58.6526 47.234 58.0121 50.1943 56.828 53.0311C56.7143 53.3021 56.7047 53.6763 56.7822 53.964C57.8471 57.8841 57.2648 61.5107 54.9785 64.8439C54.7594 65.1629 54.5377 65.479 54.2894 65.8362C57.4491 66.1949 59.2806 67.9117 59.7977 70.855C59.9711 71.8419 59.6438 72.7067 58.3129 72.7011C50.1691 72.6598 42.0237 72.6797 33.8785 72.6797C32.2897 72.6797 30.6995 72.6541 29.1107 72.691C28.3343 72.7096 27.9086 72.3579 27.691 71.6376C27.5024 71.0139 27.2958 70.3942 27.0893 69.7493C26.7801 69.8145 26.5139 69.8656 26.2505 69.9293C24.5008 70.3447 22.7553 70.7529 20.9377 70.3517C14.807 69.002 11.8234 62.4081 14.7972 56.7358C15.1854 55.9957 15.1743 55.3351 14.7557 54.612C14.1844 53.628 13.6756 52.6059 13.1405 51.6007C13.1405 51.0349 13.1405 50.4694 13.1405 49.9021L13.1377 49.9008ZM39.6462 33.9624C39.6073 34.022 39.5379 34.1115 39.4867 34.2092C37.4722 38.0968 35.3746 41.9416 33.482 45.89C32.4395 48.0661 32.445 50.4099 33.6249 52.6157C35.2151 55.5888 36.8441 58.5391 38.4385 61.5092C38.6327 61.8707 38.7713 62.2833 38.8433 62.6902C39.0623 63.9393 39.2606 65.1954 39.4131 66.4543C39.4644 66.8782 39.3425 67.3207 39.3285 67.756C39.3036 68.5172 39.2801 69.2784 39.3065 70.0384C39.3106 70.1688 39.5628 70.3942 39.7057 70.3971C40.8494 70.4269 41.9947 70.4141 43.1578 70.4141C43.1801 70.2284 43.2065 70.1149 43.2065 70.0002C43.2091 66.5819 43.2161 63.1624 43.1966 59.7441C43.1953 59.4352 43.0609 59.1033 42.9167 58.8212C41.547 56.1291 40.1576 53.448 38.7824 50.7585C38.401 50.0128 38.5424 49.3763 39.1317 49.0403C39.7515 48.6873 40.367 48.9253 40.7718 49.701C41.4318 50.9669 42.0752 52.243 42.7295 53.5117C43.2466 54.5169 43.7694 55.5208 44.3419 56.6252C45.3152 54.7565 46.2331 52.9957 47.1507 51.2348C47.6484 50.2794 48.131 49.3152 48.6523 48.3738C48.9837 47.7771 49.5785 47.6027 50.1274 47.8792C50.6916 48.1626 50.8899 48.7949 50.6113 49.4442C50.5378 49.6159 50.4436 49.7789 50.3576 49.9447C48.8159 52.9163 47.2673 55.8851 45.7422 58.8653C45.5801 59.1814 45.483 59.5713 45.4801 59.9285C45.4607 63.1822 45.4677 66.436 45.4705 69.6897C45.4705 69.9164 45.4926 70.142 45.5024 70.3475C45.6049 70.3772 45.6479 70.4014 45.6909 70.4014C46.4506 70.4056 47.2103 70.4099 47.9715 70.4099C49.2318 70.4099 49.4009 70.2397 49.4273 68.9383C49.4286 68.8447 49.4384 68.7454 49.4148 68.6562C49.0308 67.2725 49.3177 65.9086 49.5008 64.5347C49.7017 63.0334 50.0665 61.6141 50.7791 60.256C51.9963 57.938 53.0888 55.5504 54.2506 53.2028C55.6066 50.4637 56.3609 47.5587 56.2083 44.4949C56.0641 41.6056 55.7591 38.7205 55.4181 35.8482C55.2322 34.2757 54.5763 32.8482 53.588 31.5893C49.2983 34.7494 44.694 35.5787 39.6446 33.9568L39.6462 33.9624ZM51.059 8.34531C50.9024 8.64588 50.7915 8.84578 50.6916 9.05135C49.6823 11.1128 48.6787 13.177 47.6652 15.2356C47.2825 16.0125 46.861 16.2379 46.1096 16.0196C44.1728 15.4596 42.3758 15.7389 40.7246 16.917C40.1576 17.3211 39.6309 17.314 39.0763 16.8943C38.243 16.2648 37.3958 15.6552 36.5517 15.0399C35.5465 14.3069 34.5398 13.5754 33.4904 12.8112C33.6664 15.2568 34.7436 18.4609 36.5336 20.8059C37.554 22.1428 37.7327 23.3266 37.3057 24.9216C36.4878 27.9825 38.3345 31.2744 41.3347 32.0472C45.6979 33.1715 49.6297 32.1563 52.978 29.0287C53.8819 28.1852 54.4324 27.0921 54.7457 25.8857C55.2211 24.0511 55.0214 22.2732 54.13 20.6216C53.459 19.3768 53.0971 18.1164 53.1222 16.6689C53.1719 13.771 52.4316 11.0433 51.059 8.34531ZM26.5444 64.9019C25.6612 65.0706 24.7822 65.2294 23.9074 65.4094C21.0361 65.9979 18.7596 64.488 18.3035 61.6709C18.0941 60.3808 18.6307 59.282 19.1936 58.1917C20.7686 55.1379 20.0019 52.3635 18.1787 49.7448C17.717 49.0827 16.7937 48.9666 16.1268 49.3833C15.4281 49.8199 15.1577 50.6989 15.5417 51.4746C15.8537 52.1025 16.2641 52.6796 16.5802 53.3049C16.8519 53.8421 17.1181 54.3993 17.2692 54.9792C17.5521 56.0708 17.1639 57.0448 16.6675 58.0089C14.1997 62.7923 17.663 68.4264 22.9397 68.1613C24.1417 68.1005 25.3285 67.7304 26.5208 67.4907C26.8439 67.4254 27.16 67.3207 27.501 67.2284C27.16 66.3991 26.8605 65.6688 26.5444 64.9019ZM36.9577 70.4141C36.9577 69.5012 36.9453 68.683 36.9619 67.8651C36.9771 67.1518 37.0978 66.4331 37.0437 65.7271C36.9106 63.9576 36.4518 62.3047 35.5077 60.7593C34.3542 58.8681 33.367 56.8704 32.305 54.921C32.2107 54.748 32.0998 54.5865 31.9903 54.4091C28.2552 58.1435 27.6563 61.8751 29.1606 65.2096C33.8619 63.8315 36.4629 65.7568 36.0331 70.3687C36.3464 70.3844 36.6582 70.3999 36.9577 70.4141ZM33.5361 70.4141C33.9355 69.477 34.153 68.5837 33.4668 67.7304C32.8429 66.9535 31.2444 66.7408 30.2794 67.2923C29.3796 67.8068 29.0871 68.815 29.5502 69.9803C29.6264 70.1704 29.912 70.3872 30.1075 70.3942C31.2305 70.4339 32.3563 70.4141 33.5361 70.4141ZM57.3104 70.3816C56.5341 68.0523 54.37 67.9473 51.7273 68.2534C51.6706 68.9566 51.6137 69.6528 51.5554 70.3816H57.3104ZM51.7149 65.4803C53.7154 62.9553 55.2724 60.3963 54.9202 57.0775C53.7905 59.8093 51.7467 62.1714 51.7149 65.4803Z"/>
</mask>
<path d="M13.1377 49.9008C13.2237 49.7165 13.3179 49.5365 13.3928 49.3493C13.982 47.8905 15.0537 47.0496 16.5705 46.8712C17.9832 46.7051 19.1964 47.2255 20.0046 48.4078C21.4105 50.4622 22.4184 52.6752 22.2687 55.2939C22.1772 56.8846 21.6503 58.3122 20.9765 59.7186C20.7505 60.1894 20.5523 60.7366 20.5551 61.2485C20.5592 62.4635 21.5477 63.348 22.7664 63.2219C23.8825 63.1072 24.9847 62.8547 26.0342 62.6732C26.1784 61.4852 26.2366 60.3539 26.4668 59.2593C26.8411 57.4787 27.7076 55.9305 28.8722 54.5538C29.4448 53.8761 30.0285 53.2056 30.5414 52.4826C30.7286 52.2188 30.8423 51.7879 30.7841 51.4731C30.3016 48.9083 30.5706 46.4797 31.792 44.1561C33.7926 40.3467 35.7516 36.513 37.7454 32.6568C36.4476 31.4475 35.5409 30.0127 35.1069 28.269C34.7451 26.8143 34.7894 25.3738 35.1791 23.9447C35.3259 23.4074 35.2734 23.0091 34.935 22.5327C32.4367 19.0294 31.1432 15.098 31.0572 10.7555C31.0461 10.204 31.1293 9.71203 31.6492 9.42706C32.1663 9.14351 32.6128 9.33206 33.0536 9.65674C35.1638 11.212 37.2878 12.7488 39.395 14.3084C39.7611 14.5791 40.0356 14.6529 40.4835 14.4076C42.0001 13.581 43.6251 13.2181 45.3457 13.5258C45.8017 13.6066 46.0347 13.479 46.2455 13.0366C47.4017 10.6066 48.5857 8.18938 49.7905 5.78346C49.9806 5.40351 50.327 5.10578 50.6015 4.76978C50.8775 4.76978 51.1548 4.76978 51.4306 4.76978C51.5999 4.95408 51.7995 5.11854 51.9311 5.32695C53.7861 8.2546 55.0297 11.4162 55.2905 14.9208C55.4334 16.8376 55.6413 18.6551 56.48 20.4798C57.8927 23.552 57.4075 26.6356 55.5483 29.4526C55.2974 29.8327 55.285 30.0666 55.5483 30.4309C56.5035 31.7509 57.2744 33.2056 57.488 34.8288C57.8955 37.9279 58.2366 41.0413 58.446 44.1603C58.6526 47.234 58.0121 50.1943 56.828 53.0311C56.7143 53.3021 56.7047 53.6763 56.7822 53.964C57.8471 57.8841 57.2648 61.5107 54.9785 64.8439C54.7594 65.1629 54.5377 65.479 54.2894 65.8362C57.4491 66.1949 59.2806 67.9117 59.7977 70.855C59.9711 71.8419 59.6438 72.7067 58.3129 72.7011C50.1691 72.6598 42.0237 72.6797 33.8785 72.6797C32.2897 72.6797 30.6995 72.6541 29.1107 72.691C28.3343 72.7096 27.9086 72.3579 27.691 71.6376C27.5024 71.0139 27.2958 70.3942 27.0893 69.7493C26.7801 69.8145 26.5139 69.8656 26.2505 69.9293C24.5008 70.3447 22.7553 70.7529 20.9377 70.3517C14.807 69.002 11.8234 62.4081 14.7972 56.7358C15.1854 55.9957 15.1743 55.3351 14.7557 54.612C14.1844 53.628 13.6756 52.6059 13.1405 51.6007C13.1405 51.0349 13.1405 50.4694 13.1405 49.9021L13.1377 49.9008ZM39.6462 33.9624C39.6073 34.022 39.5379 34.1115 39.4867 34.2092C37.4722 38.0968 35.3746 41.9416 33.482 45.89C32.4395 48.0661 32.445 50.4099 33.6249 52.6157C35.2151 55.5888 36.8441 58.5391 38.4385 61.5092C38.6327 61.8707 38.7713 62.2833 38.8433 62.6902C39.0623 63.9393 39.2606 65.1954 39.4131 66.4543C39.4644 66.8782 39.3425 67.3207 39.3285 67.756C39.3036 68.5172 39.2801 69.2784 39.3065 70.0384C39.3106 70.1688 39.5628 70.3942 39.7057 70.3971C40.8494 70.4269 41.9947 70.4141 43.1578 70.4141C43.1801 70.2284 43.2065 70.1149 43.2065 70.0002C43.2091 66.5819 43.2161 63.1624 43.1966 59.7441C43.1953 59.4352 43.0609 59.1033 42.9167 58.8212C41.547 56.1291 40.1576 53.448 38.7824 50.7585C38.401 50.0128 38.5424 49.3763 39.1317 49.0403C39.7515 48.6873 40.367 48.9253 40.7718 49.701C41.4318 50.9669 42.0752 52.243 42.7295 53.5117C43.2466 54.5169 43.7694 55.5208 44.3419 56.6252C45.3152 54.7565 46.2331 52.9957 47.1507 51.2348C47.6484 50.2794 48.131 49.3152 48.6523 48.3738C48.9837 47.7771 49.5785 47.6027 50.1274 47.8792C50.6916 48.1626 50.8899 48.7949 50.6113 49.4442C50.5378 49.6159 50.4436 49.7789 50.3576 49.9447C48.8159 52.9163 47.2673 55.8851 45.7422 58.8653C45.5801 59.1814 45.483 59.5713 45.4801 59.9285C45.4607 63.1822 45.4677 66.436 45.4705 69.6897C45.4705 69.9164 45.4926 70.142 45.5024 70.3475C45.6049 70.3772 45.6479 70.4014 45.6909 70.4014C46.4506 70.4056 47.2103 70.4099 47.9715 70.4099C49.2318 70.4099 49.4009 70.2397 49.4273 68.9383C49.4286 68.8447 49.4384 68.7454 49.4148 68.6562C49.0308 67.2725 49.3177 65.9086 49.5008 64.5347C49.7017 63.0334 50.0665 61.6141 50.7791 60.256C51.9963 57.938 53.0888 55.5504 54.2506 53.2028C55.6066 50.4637 56.3609 47.5587 56.2083 44.4949C56.0641 41.6056 55.7591 38.7205 55.4181 35.8482C55.2322 34.2757 54.5763 32.8482 53.588 31.5893C49.2983 34.7494 44.694 35.5787 39.6446 33.9568L39.6462 33.9624ZM51.059 8.34531C50.9024 8.64588 50.7915 8.84578 50.6916 9.05135C49.6823 11.1128 48.6787 13.177 47.6652 15.2356C47.2825 16.0125 46.861 16.2379 46.1096 16.0196C44.1728 15.4596 42.3758 15.7389 40.7246 16.917C40.1576 17.3211 39.6309 17.314 39.0763 16.8943C38.243 16.2648 37.3958 15.6552 36.5517 15.0399C35.5465 14.3069 34.5398 13.5754 33.4904 12.8112C33.6664 15.2568 34.7436 18.4609 36.5336 20.8059C37.554 22.1428 37.7327 23.3266 37.3057 24.9216C36.4878 27.9825 38.3345 31.2744 41.3347 32.0472C45.6979 33.1715 49.6297 32.1563 52.978 29.0287C53.8819 28.1852 54.4324 27.0921 54.7457 25.8857C55.2211 24.0511 55.0214 22.2732 54.13 20.6216C53.459 19.3768 53.0971 18.1164 53.1222 16.6689C53.1719 13.771 52.4316 11.0433 51.059 8.34531ZM26.5444 64.9019C25.6612 65.0706 24.7822 65.2294 23.9074 65.4094C21.0361 65.9979 18.7596 64.488 18.3035 61.6709C18.0941 60.3808 18.6307 59.282 19.1936 58.1917C20.7686 55.1379 20.0019 52.3635 18.1787 49.7448C17.717 49.0827 16.7937 48.9666 16.1268 49.3833C15.4281 49.8199 15.1577 50.6989 15.5417 51.4746C15.8537 52.1025 16.2641 52.6796 16.5802 53.3049C16.8519 53.8421 17.1181 54.3993 17.2692 54.9792C17.5521 56.0708 17.1639 57.0448 16.6675 58.0089C14.1997 62.7923 17.663 68.4264 22.9397 68.1613C24.1417 68.1005 25.3285 67.7304 26.5208 67.4907C26.8439 67.4254 27.16 67.3207 27.501 67.2284C27.16 66.3991 26.8605 65.6688 26.5444 64.9019ZM36.9577 70.4141C36.9577 69.5012 36.9453 68.683 36.9619 67.8651C36.9771 67.1518 37.0978 66.4331 37.0437 65.7271C36.9106 63.9576 36.4518 62.3047 35.5077 60.7593C34.3542 58.8681 33.367 56.8704 32.305 54.921C32.2107 54.748 32.0998 54.5865 31.9903 54.4091C28.2552 58.1435 27.6563 61.8751 29.1606 65.2096C33.8619 63.8315 36.4629 65.7568 36.0331 70.3687C36.3464 70.3844 36.6582 70.3999 36.9577 70.4141ZM33.5361 70.4141C33.9355 69.477 34.153 68.5837 33.4668 67.7304C32.8429 66.9535 31.2444 66.7408 30.2794 67.2923C29.3796 67.8068 29.0871 68.815 29.5502 69.9803C29.6264 70.1704 29.912 70.3872 30.1075 70.3942C31.2305 70.4339 32.3563 70.4141 33.5361 70.4141ZM57.3104 70.3816C56.5341 68.0523 54.37 67.9473 51.7273 68.2534C51.6706 68.9566 51.6137 69.6528 51.5554 70.3816H57.3104ZM51.7149 65.4803C53.7154 62.9553 55.2724 60.3963 54.9202 57.0775C53.7905 59.8093 51.7467 62.1714 51.7149 65.4803Z" fill="#EA2F9F" stroke="#EA2F9F" stroke-width="4.5" mask="url(#path-1-inside-1_131_780)"/>
</svg>
