<svg width="80" height="80" viewBox="0 0 80 80" fill="none" xmlns="http://www.w3.org/2000/svg">
<path d="M27.0181 27.4304C26.3999 27.4304 25.7817 27.8425 25.7817 28.6668C25.7817 29.285 26.3999 29.9031 27.0181 29.9031C27.6363 29.9031 28.2545 29.285 28.2545 28.6668C28.2545 28.0486 27.8423 27.4304 27.0181 27.4304Z" fill="#EA2F9F"/>
<path d="M23.515 72.1455C22.8969 71.9394 22.4847 71.7333 21.8666 71.5273C19.806 70.497 18.7757 68.2303 19.3938 65.9637C20.2181 62.8727 20.8363 59.7818 21.6605 56.6909C21.8666 56.2788 21.6605 55.8667 21.2484 55.6606C18.1575 52.5697 15.0666 49.4788 12.7999 45.7697C11.7696 44.1212 10.9454 42.4728 10.5332 40.4121C10.3272 38.7637 10.5332 37.3212 10.9454 35.6728C11.5635 32.3758 12.3878 29.0788 13.006 25.9879C14.0363 22.0728 17.1272 19.1879 21.0423 18.7758C21.2484 18.7758 21.2484 18.7758 21.2484 18.7758C21.2484 17.7455 20.8363 16.9212 20.6302 15.8909C20.2181 12.594 22.0726 9.50306 25.3696 8.2667C28.4605 7.03034 31.9635 8.2667 33.8181 11.1515C34.0241 11.5637 34.2302 11.5637 34.6423 11.3576C36.4969 10.7394 38.3514 10.5334 40.206 10.7394C42.4726 10.9455 44.1211 12.8 44.1211 15.0667C44.1211 17.3334 42.2666 19.394 39.9999 19.1879C36.0847 18.9818 33.406 21.0425 31.1393 23.9273C30.7272 24.3394 30.5211 24.5455 30.315 24.7515C29.9029 25.1637 29.0787 24.9576 28.8726 24.5455C28.4605 24.1334 28.2544 23.5152 28.8726 22.897C29.6969 21.8667 30.5211 20.8364 31.5514 20.0122C33.1999 18.5697 35.2605 17.5394 37.5272 17.1273C38.1454 17.1273 38.7635 17.1273 39.3817 17.1273C40.6181 17.1273 41.4423 16.5091 41.4423 15.4788C41.4423 14.4485 40.8241 13.6243 39.5878 13.6243C36.7029 13.4182 34.2302 14.2425 31.9635 15.4788C29.0787 16.9212 27.0181 19.1879 25.1635 21.8667C24.9575 21.8667 24.9575 22.2788 24.7514 22.4849C24.3393 23.1031 23.7211 23.3091 23.1029 22.897C22.4847 22.6909 22.2787 22.0728 22.4847 21.4546C22.4847 21.4546 22.4847 21.2485 22.4847 21.0425C19.806 21.0425 17.9514 22.0728 16.3029 24.1334C15.6847 25.3697 15.4787 26.6061 15.0666 27.8425C14.4484 30.5212 13.8302 33.4061 13.212 36.0849C13.212 36.2909 13.212 36.497 13.212 36.7031C13.4181 36.7031 13.6241 36.7031 13.8302 36.7031C16.509 36.7031 19.3938 36.7031 22.0726 36.7031C22.4847 36.7031 22.6908 36.497 22.8969 36.0849C23.1029 35.2606 23.515 34.4364 23.7211 33.6121C24.1332 32.7879 24.9575 32.5818 25.5757 32.7879C26.1938 32.994 26.606 33.8182 26.1938 34.6424C25.7817 35.4667 25.5757 36.497 25.1635 37.3212C24.9575 37.7334 24.9575 38.1455 25.1635 38.7637C26.812 42.0606 28.4605 45.5637 30.315 48.8606C31.9635 51.7455 32.1696 54.8364 31.3454 58.1333C30.5211 61.4303 29.6969 64.7273 28.8726 68.2303C28.4605 70.2909 27.2241 71.7333 24.9575 72.3515C24.9575 72.3515 24.9575 72.3515 24.7514 72.3515C24.5454 72.1455 23.9272 72.1455 23.515 72.1455ZM13.006 39.3818C13.006 39.794 13.006 40 13.006 40.2061C13.212 41.6485 14.0363 42.8849 14.6544 44.1212C17.1272 48.0364 20.2181 51.3334 23.7211 54.4243C24.3393 55.0424 24.5454 55.4546 24.3393 56.2788C23.515 59.5758 22.6908 62.8727 21.8666 66.3758C21.6605 66.994 21.8666 67.6121 22.0726 68.2303C22.4847 69.2606 23.309 69.6727 24.3393 69.6727C25.3696 69.6727 26.1938 68.8485 26.606 67.8182C27.4302 64.1091 28.4605 60.4 29.2847 56.6909C29.6969 54.6303 29.4908 52.5697 28.6666 50.7152C26.812 47.0061 24.9575 43.5031 23.309 39.794C23.1029 39.3818 22.8969 39.3818 22.4847 39.3818C20.2181 39.3818 18.1575 39.3818 15.8908 39.3818C14.8605 39.3818 13.8302 39.3818 13.006 39.3818ZM24.5454 18.1576C25.5757 17.1273 26.606 15.8909 27.8423 15.0667C29.0787 14.0364 30.315 13.4182 31.5514 12.594C30.7272 11.1515 29.0787 10.3273 27.2241 10.5334C25.3696 10.5334 23.9272 11.9758 23.309 13.6243C22.8969 15.2728 23.309 17.3334 24.5454 18.1576Z" fill="#EA2F9F"/>
<path d="M52.5696 72.1456C50.7151 71.7335 49.6848 70.291 49.2726 68.4365C49.0666 66.788 48.4484 65.1395 48.4484 63.491C48.2423 61.2244 48.8605 58.9577 50.0969 57.1032C50.3029 56.8971 50.3029 56.485 50.0969 56.2789C49.4787 54.4244 48.6545 52.3638 48.0363 50.5092C47.8302 50.0971 47.6242 49.891 47.212 49.891C43.2969 48.6547 39.7938 46.8001 36.909 43.9153C35.4666 42.4729 35.2605 40.2062 36.4969 38.5577C37.7332 36.9092 39.9999 36.7032 41.6484 37.7335C43.0908 38.7638 44.7393 39.7941 46.1817 40.6183C46.5939 40.8244 47.006 41.0304 47.4181 41.2365C47.6242 40.4122 48.0363 39.588 48.2423 38.9698C48.2423 38.7638 48.2423 38.5577 48.0363 38.3516C47.4181 37.5274 46.7999 36.9092 46.3878 36.085C44.9454 34.0244 45.1514 31.3456 47.006 29.9032C47.4181 29.6971 47.6242 29.285 48.0363 29.0789C49.0666 28.2547 50.509 28.4607 51.3332 29.285C51.7454 29.9032 52.3635 30.1092 53.1878 30.1092C55.4545 30.1092 57.309 30.9335 58.7514 32.5819C59.1636 32.9941 59.5757 33.6122 59.9878 34.0244C61.4302 36.085 61.4302 38.9698 59.5757 40.8244C59.1635 41.2365 59.1635 41.4425 59.3696 41.8547C60.606 45.3577 61.6363 48.6547 62.8726 52.1577C63.4908 54.2183 63.9029 56.0729 63.2848 58.1335V58.3395C64.9332 58.1335 66.5817 56.691 66.9939 55.0425C67.1999 54.2183 67.8181 53.8062 68.6423 53.8062C69.4666 54.0122 69.6726 54.6304 69.4666 55.4547C68.6423 58.5456 66.3757 60.1941 63.4908 60.6062C62.2545 60.8122 61.4302 61.0183 60.606 62.0486C59.7817 62.8729 58.5454 63.491 57.5151 63.6971C57.1029 63.9032 56.8969 63.9032 56.8969 64.3153C56.8969 65.3456 56.8969 66.5819 56.8969 67.6122C56.8969 69.6729 55.8666 70.9092 54.012 71.5274H53.806C53.3939 72.1456 52.9817 72.1456 52.5696 72.1456ZM50.9211 39.3819C50.509 40.6183 50.0969 41.8547 49.6848 43.091C49.2726 44.1213 48.8605 44.3274 47.8302 44.1213C46.5938 43.7092 45.3575 43.091 44.1211 42.4729C42.8848 41.6486 41.6484 40.8244 40.412 40.0001C39.7939 39.588 38.9696 39.588 38.5575 40.2062C38.1454 40.8244 38.1454 41.6486 38.7635 42.0607C40.412 43.5032 42.2666 44.9456 44.1211 45.7698C45.9757 46.5941 48.0363 47.6244 50.3029 47.6244C51.5393 47.6244 51.9514 48.0365 52.1575 48.6547C52.1575 49.4789 51.9514 49.891 50.7151 50.0971C51.3332 51.9516 51.9514 53.8062 52.7757 55.6607C52.9817 56.485 52.9817 56.8971 52.5696 57.7213C51.5393 59.1638 51.1272 61.0183 50.9211 62.8729C50.9211 64.9335 51.5393 66.788 52.1575 68.6426C52.3635 69.2607 52.9817 69.4668 53.5999 69.4668C54.2181 69.2607 54.6302 68.8486 54.6302 68.2304C54.6302 66.9941 54.6302 65.5516 54.6302 64.3153C54.6302 62.2547 54.6302 62.2547 56.6908 61.6365C56.6908 61.6365 56.6908 61.6365 56.8969 61.6365C60.606 60.4001 62.2545 57.1032 61.0181 53.3941C59.7817 50.0971 58.7514 46.8001 57.5151 43.2971C57.5151 43.091 57.309 42.885 57.309 42.885C53.806 44.3274 50.9211 42.2668 50.9211 39.3819ZM51.1272 38.1456C51.5393 36.9092 52.3635 36.291 53.1878 35.4668C54.012 34.8486 55.0423 34.0244 55.8666 33.2001V32.9941C55.0423 32.788 54.2181 32.3759 53.5999 32.3759C51.9514 32.3759 50.7151 32.1698 49.6848 30.9335C49.4787 31.1395 49.0666 31.3456 48.8605 31.5516C47.8302 32.3759 47.6242 33.6122 48.4484 34.6425C49.4787 36.085 50.3029 37.1153 51.1272 38.1456ZM57.7211 35.2607C56.4848 36.291 55.2484 37.3213 54.012 38.3516C53.5999 38.7638 53.3939 39.3819 53.806 40.0001C54.012 40.6183 54.6302 40.8244 55.2484 40.8244C55.6605 40.8244 56.0726 40.6183 56.2787 40.6183C56.8969 40.2062 57.5151 39.7941 57.9272 39.1759C58.9575 38.1456 58.9575 36.291 57.7211 35.2607Z" fill="#EA2F9F"/>
<path d="M27.0181 27.4304C27.6363 27.4304 28.2545 28.0486 28.2545 28.6668C28.2545 29.285 27.6363 29.9031 27.0181 29.9031C26.3999 29.9031 25.7817 29.285 25.7817 28.6668C25.7817 28.0486 26.3999 27.4304 27.0181 27.4304Z" fill="#EA2F9F"/>
</svg>
