<svg width="80" height="80" viewBox="0 0 80 80" fill="none" xmlns="http://www.w3.org/2000/svg">
<path d="M7.37451 56.0327C7.83557 54.2542 8.96505 53.18 10.7294 52.6611C11.7572 52.3584 12.5479 51.6372 13.2292 50.8091C14.9872 48.6699 16.7516 46.5372 18.5198 44.4072C20.413 42.1263 23.5941 41.1809 26.4377 42.0387C30.4379 43.2442 34.4379 44.4469 38.4394 45.6499C38.54 45.6808 38.643 45.7051 38.8373 45.7593C38.8515 45.5018 38.8748 45.2815 38.8748 45.0612C38.8773 40.8112 38.8682 36.5614 38.8864 32.3114C38.8888 31.8193 38.7743 31.612 38.2488 31.5166C34.6852 30.8675 31.1306 30.1721 27.5697 29.5051C26.4802 29.3015 25.5401 28.8314 24.7647 28.0445C23.5142 26.776 22.2701 25.4997 21.0247 24.2273C19.9661 23.1455 19.4445 21.8524 19.4754 20.3353C19.4883 19.6914 19.4754 19.0474 19.478 18.4035C19.487 16.5528 20.6268 15.3847 22.4904 15.3744C25.6238 15.3577 28.7585 15.3306 31.8918 15.3873C33.2879 15.4117 34.3775 14.9855 35.2803 13.9127C36.4818 12.4831 38.057 11.8134 39.9333 11.8327C41.7582 11.8508 43.5819 11.8224 45.4069 11.8417C46.4461 11.8533 47.3258 11.5275 48.1088 10.8424C49.8012 9.36387 51.5179 7.91243 53.2243 6.45068C53.5243 6.45068 53.8258 6.45068 54.1258 6.45068C54.7827 6.87311 55.0157 7.47197 54.9719 8.24599C54.9255 9.05865 54.9951 9.87774 54.9552 10.6917C54.8573 12.7008 55.0403 14.6712 55.6403 16.5992C55.7215 16.8606 55.7679 17.1504 55.7473 17.4208C55.7009 18.0236 55.1985 18.4988 54.6139 18.5555C53.957 18.6198 53.4058 18.2541 53.2321 17.5625C52.7685 15.7144 52.2055 13.8805 52.3821 11.9332C52.4181 11.5391 52.3872 11.1386 52.3872 10.5616C51.4882 11.3292 50.7052 11.9487 49.9776 12.6299C48.6176 13.9024 47.0245 14.4626 45.1712 14.4214C43.4119 14.3814 41.6515 14.4278 39.8909 14.4072C38.7846 14.3943 37.8806 14.7936 37.18 15.6371C35.8264 17.2676 34.107 18.03 31.9806 17.9553C30.5228 17.9038 29.0624 17.945 27.6019 17.945H26.927C26.354 21.1209 25.9341 21.5382 22.699 22.1795C22.8149 22.3238 22.9038 22.4577 23.0145 22.5711C24.1517 23.7405 25.258 24.9433 26.4493 26.0548C26.8936 26.4695 27.5079 26.8224 28.0978 26.9421C32.0888 27.7521 36.0942 28.4914 40.0943 29.2526C41.0951 29.4432 41.4506 29.8463 41.4518 30.8766C41.457 36.3075 41.4582 41.7372 41.4518 47.1684C41.4506 48.5154 40.7318 49.0409 39.4518 48.6545C36.5797 47.789 33.7091 46.9197 30.8384 46.0542C30.6169 45.9872 30.3915 45.9332 30.1055 45.8572C29.9112 47.252 29.7206 48.603 29.5324 49.9539C29.477 50.357 29.4925 50.7845 29.3637 51.162C29.1036 51.9218 29.477 52.1884 30.1082 52.4705C33.1206 53.8163 36.1058 55.2251 39.1155 56.5788C39.9051 56.9342 40.2876 57.452 40.2231 58.3239C40.1858 58.83 40.2167 59.3426 40.2167 59.8075C41.1994 59.8733 42.1267 59.8526 43.0203 60.0123C45.1943 60.4024 46.9033 61.5693 48.1321 63.3969C48.4037 63.8012 48.6369 63.8412 49.067 63.7317C53.5191 62.6009 57.6212 66.5199 56.7351 71.0211C56.6127 71.6418 56.3113 72.0706 55.7988 72.3902H55.0261C54.1954 71.8557 54.0124 71.4885 54.1658 70.6605C54.7091 67.7048 52.3279 65.5026 49.4391 66.2894C48.1733 66.6333 47.0657 66.2933 46.3445 65.3312C46.19 65.1266 46.0597 64.9036 45.913 64.6924C44.7939 63.0839 42.4718 61.9442 40.2167 62.6266V63.313C40.2167 65.7563 40.1922 68.1993 40.2309 70.6412C40.2437 71.4333 40.0081 72.009 39.3152 72.3902H38.5424C37.8445 72.0115 37.6203 71.4333 37.6267 70.6399C37.6591 66.8626 37.6397 63.0851 37.6436 59.3091C37.6436 58.9742 37.6306 58.7321 37.2403 58.5557C34.2127 57.1905 31.2273 55.7288 28.1737 54.4254C25.5903 53.3218 23.0995 53.6024 20.8676 55.4157C19.8682 56.2272 18.8354 57.0039 17.8901 57.8745C16.2519 59.3824 14.3046 60.1733 12.1551 60.579C10.4422 60.9036 8.72936 60.1488 7.89739 58.6266C7.67459 58.2169 7.5458 57.7572 7.37451 57.3206C7.37451 56.8918 7.37451 56.4615 7.37451 56.0327ZM26.7545 51.2496C27.0352 49.203 27.3173 47.1527 27.6006 45.096C25.8826 44.5551 24.2431 43.8403 22.4543 44.7057C23.3738 46.7948 24.2651 48.8373 25.1769 50.8696C25.249 51.0293 25.4525 51.207 25.6173 51.2329C25.9689 51.2881 26.336 51.2496 26.7545 51.2496ZM13.6169 54.1563C12.6342 54.5864 11.7185 54.9818 10.8106 55.3888C10.1795 55.6721 9.84338 56.3251 9.98117 56.9587C10.1228 57.6078 10.7088 58.159 11.3566 58.0688C12.5119 57.9091 13.6555 57.6503 14.7103 57.023C14.3342 56.0378 13.9723 55.0875 13.6169 54.1563ZM22.6333 51.5123C21.8773 49.7994 21.1162 48.075 20.319 46.2706C19.4625 47.3087 18.7066 48.2242 17.9248 49.1709C19.0388 49.9603 20.1245 50.6829 21.1522 51.48C21.6545 51.869 22.0795 51.9127 22.6333 51.5123ZM16.8469 55.3824C17.711 54.6727 18.4954 54.0275 19.3376 53.3345C18.2674 52.576 17.2822 51.8781 16.1347 51.0654C15.9557 51.5805 15.6324 52.0184 15.7225 52.3403C16.0007 53.3463 16.4373 54.3109 16.8469 55.3824ZM22.1207 19.4428C23.7589 19.721 24.5368 19.1569 24.1285 17.9424C23.8645 17.9424 23.5876 17.9424 23.312 17.9424C22.3796 17.9424 21.9705 18.425 22.0847 19.39C22.0872 19.408 22.1078 19.4261 22.1207 19.4428Z" fill="#EA2F9F"/>
<path d="M73.3125 64.1469C72.4147 65.3384 71.5673 65.3151 70.6967 64.0723C68.3722 60.7508 65.9985 57.4617 63.7446 54.0926C62.7261 52.569 61.9276 50.896 61.0673 49.2693C60.8818 48.919 60.7285 48.7748 60.31 48.7902C55.734 48.9565 52.0328 45.9466 51.2343 41.4417C50.5864 37.7802 52.5621 33.9629 56.0161 32.2887C56.5249 32.0427 56.6628 31.8135 56.4876 31.2714C56.257 30.5605 56.1256 29.816 55.9531 29.0871C55.6825 27.9487 55.9737 27.2351 56.7812 27.0535C57.6325 26.8617 58.194 27.3253 58.4643 28.4624C59.7613 33.9024 61.0776 39.3387 62.341 44.7875C63.0094 47.6699 64.184 50.3023 65.8864 52.7157C68.1364 55.9059 70.367 59.1102 72.604 62.3105C72.8488 62.6608 73.078 63.0202 73.3137 63.3756L73.3125 64.1469ZM57.2589 34.5502C54.4758 35.793 53.094 38.9754 53.9774 41.8911C54.884 44.8842 57.8913 46.4412 60.0215 46.1578C59.1046 42.3045 58.1888 38.4563 57.2589 34.5502Z" fill="#EA2F9F"/>
<path d="M55.8372 24.2085C55.1545 24.2149 54.5493 23.6353 54.5311 22.9592C54.5132 22.2509 55.1211 21.6366 55.8308 21.6469C56.5351 21.6572 57.0929 22.2212 57.0902 22.9206C57.0877 23.6225 56.5248 24.202 55.8372 24.2085Z" fill="#EA2F9F"/>
<path d="M40.3399 20.0765C39.6523 20.0726 39.0689 19.4905 39.0623 18.8053C39.0559 18.0789 39.6483 17.5007 40.3774 17.52C41.0817 17.5393 41.6356 18.1124 41.6226 18.8092C41.6098 19.5021 41.0236 20.0803 40.3399 20.0765Z" fill="#EA2F9F"/>
</svg>
