<svg width="80" height="80" viewBox="0 0 80 80" fill="none" xmlns="http://www.w3.org/2000/svg">
<path d="M74 35.3764C73.8286 36.4646 73.6958 37.5596 73.4804 38.6386C71.919 46.4774 67.8502 52.6896 61.2606 57.1624C54.5592 61.711 47.7782 66.14 41.0384 70.63C40.4472 71.0234 39.9064 71.139 39.2738 70.7218C32.437 66.2158 25.5417 61.7974 18.7674 57.1984C11.8747 52.5196 7.76734 45.9312 6.50629 37.6964C5.88041 33.6064 5.70633 29.4179 6.73484 25.3596C8.6364 17.8558 13.2833 12.8208 20.9453 11.298C28.4996 9.79644 34.805 12.2827 39.5476 18.4763C39.6818 18.6517 39.8132 18.8298 39.9488 19.0039C39.974 19.0371 40.014 19.0597 40.1096 19.1381C40.4006 18.7607 40.689 18.3833 40.9814 18.0073C44.237 13.8321 48.4998 11.4136 53.7526 10.9658C61.3802 10.3147 68.2196 14.345 71.6054 21.32C72.8306 23.8448 73.6186 26.4958 73.8804 29.2983C73.8924 29.4232 73.9602 29.5415 74.0014 29.6637L74 35.3764ZM50.3708 34.7198C50.3708 36.8474 50.2566 38.9056 50.3988 40.9468C50.5794 43.546 51.0446 46.1238 51.2438 48.7218C51.426 51.083 50.788 53.2716 49.3954 55.221C49.232 55.451 49.1522 55.7898 49.1484 56.0782C49.127 58.005 49.1364 59.9318 49.139 61.8586C49.139 62.0232 49.1708 62.1868 49.1934 62.4126C49.406 62.285 49.5562 62.2014 49.6998 62.1056C53.0284 59.8958 56.3546 57.6806 59.6858 55.4734C62.1576 53.8364 64.3234 51.8698 66.1346 49.5164C69.6972 44.8868 71.5138 39.6312 71.7304 33.799C71.8806 29.7594 71.3158 25.8699 69.4926 22.2103C64.3048 11.7923 50.7722 10.0263 43.2842 18.8125C42.5108 19.7201 41.841 20.7141 41.1076 21.6562C40.4724 22.4721 39.7084 22.4774 39.0744 21.6722C38.5682 21.029 38.1018 20.3566 37.5994 19.7121C33.3672 14.2932 27.8194 12.1963 21.1539 13.6035C14.7769 14.951 10.8941 19.1593 9.09218 25.3344C8.07032 28.8372 8.27496 32.4542 8.59652 36.0194C9.07756 41.376 11.1266 46.1438 14.5377 50.3044C16.0579 52.158 17.8053 53.766 19.8344 55.1666C20.2171 54.5938 20.5759 54.0582 20.9453 53.5068C20.6729 53.2862 20.4709 53.1174 20.2623 52.9554C17.994 51.1934 16.0818 49.0858 14.345 46.8096C14.0181 46.3804 13.9823 45.9086 14.2613 45.4462C14.5337 44.993 14.9882 44.8242 15.4612 44.9732C15.7709 45.0714 16.0552 45.3332 16.2851 45.583C17.5369 46.9518 18.7395 48.3682 20.0204 49.709C20.6689 50.388 21.4436 50.9448 22.2103 51.5974C23.0276 50.3722 23.7398 49.2028 24.5571 48.1118C25.2015 47.252 25.466 46.3604 25.3955 45.292C25.2573 43.2124 25.3955 41.1488 26.5888 39.3536C27.2838 38.309 28.1408 37.3736 28.9236 36.3876C29.2532 35.9744 29.6544 35.7604 30.1952 35.896C30.7428 36.0328 30.9594 36.4368 31.079 36.9416C31.2968 37.8652 31.5294 38.7848 31.7592 39.7044C31.96 40.507 32.5154 40.661 33.1186 40.0738C33.7206 39.4878 34.2496 38.8086 34.9152 38.309C36.3756 37.2114 36.9868 35.8228 36.6626 34.021C36.6468 33.9346 36.66 33.8442 36.6626 33.7552C36.7318 30.8078 37.646 28.1648 39.4864 25.8526C40.6346 24.4109 42.0032 23.3744 43.9472 23.3797C44.8522 23.3824 45.7572 23.3757 46.662 23.3956C47.9364 23.4235 49.0074 23.9378 49.9138 24.8201C50.5622 25.4513 51.1056 26.331 51.8804 26.6526C52.655 26.9755 53.661 26.739 54.5646 26.7562C55.4642 26.7735 55.9186 27.2001 55.9426 28.093C55.9652 28.978 55.9798 29.8657 55.9386 30.7506C55.8284 33.14 54.1752 34.704 51.7794 34.7212C51.317 34.7238 50.8546 34.7212 50.3734 34.7212L50.3708 34.7198ZM21.7453 56.4502C25.7264 59.064 29.6478 61.6392 33.4734 64.1508C33.4136 63.3468 33.387 62.5654 33.29 61.7934C33.0762 60.0778 33.5134 58.5856 34.6376 57.262C35.3684 56.401 35.5864 55.3446 35.5664 54.2244C35.5452 53.0298 35.5518 51.8338 35.569 50.638C35.5796 49.9482 35.9438 49.531 36.583 49.4698C38.8312 49.2546 39.0306 47.7252 38.9004 46.193C38.8898 46.0748 38.7104 45.9126 38.5788 45.87C37.3098 45.4674 36.3198 44.7074 35.5598 43.6178C35.112 42.9758 34.4688 42.6782 33.6888 42.6782C32.8716 42.6782 32.0556 42.6836 31.2384 42.6756C30.441 42.669 30.0902 42.3858 29.883 41.6018C29.7022 40.9188 29.5256 40.2358 29.3462 39.5516C29.2598 39.533 29.1734 39.5142 29.0884 39.4956C28.687 40.3648 28.0784 41.1992 27.9296 42.1094C27.6812 43.623 27.7582 45.187 27.6306 46.7246C27.5868 47.2468 27.4472 47.8222 27.1668 48.254C25.4048 50.9794 23.591 53.6716 21.7453 56.4476V56.4502ZM35.8228 40.7354C36.3504 41.2392 36.9576 41.6988 37.4094 42.2782C38.1044 43.1698 38.9124 43.7306 40.0698 43.7746C40.7834 43.8024 41.2218 44.2502 41.2338 44.9718C41.2498 45.9432 41.2418 46.9198 41.1462 47.8846C41.0226 49.1404 40.3622 50.1302 39.3548 50.8584C38.899 51.188 38.3636 51.4072 37.8294 51.6956C37.8294 52.4172 37.7882 53.172 37.8374 53.9202C37.9596 55.7698 37.5038 57.4588 36.3158 58.8634C35.3884 59.9596 35.5824 61.1688 35.597 62.6172C36.4792 61.7044 37.234 60.9376 37.9688 60.155C38.3728 59.7244 38.8446 59.5384 39.396 59.7576C39.9674 59.9848 40.0936 60.4778 40.0884 61.0598C40.071 63.3176 40.0804 65.5752 40.083 67.833C40.083 68.0176 40.107 68.201 40.1242 68.4614C40.7488 68.0482 41.2844 67.6628 41.8518 67.3306C42.2212 67.1154 42.3514 66.8588 42.3474 66.4256C42.3248 63.8796 42.3474 61.335 42.3288 58.789C42.3248 58.199 42.5308 57.7856 43.0024 57.4428C44.0736 56.6642 45.098 55.8176 46.1876 55.0668C48.129 53.73 48.9636 51.7954 48.9304 49.5576C48.8958 47.2746 48.5742 44.9958 48.383 42.7606C47.2892 42.653 46.3472 42.5866 45.4116 42.4616C43.142 42.156 41.1554 41.0916 39.1488 40.0764C38.5296 39.7628 37.812 39.1994 37.262 39.3176C36.6932 39.4412 36.272 40.2544 35.8216 40.7302L35.8228 40.7354ZM53.6012 29.0817C52.9806 29.0817 52.4492 29.0551 51.9228 29.0883C51.2318 29.1322 50.6938 28.9103 50.226 28.388C49.6506 27.7475 49.0154 27.1615 48.4082 26.5489C47.8194 25.955 47.1206 25.6453 46.274 25.6653C45.5458 25.6826 44.8176 25.6772 44.0894 25.6666C43.223 25.6533 42.5016 25.9683 41.9022 26.5875C39.4174 29.1601 38.701 32.2842 39.0518 35.8228C39.4492 35.8228 39.8412 35.8348 40.2306 35.8202C40.9256 35.795 41.1594 35.549 41.1766 34.8328C41.1874 34.413 41.1794 33.9916 41.1794 33.5704C41.1794 32.8264 41.1794 32.0836 41.1794 31.3288H43.5074C43.5074 32.1646 43.4662 32.9578 43.5154 33.7458C43.6522 35.941 43.0942 37.666 40.584 38.1842C42.9108 39.5182 45.2548 40.4378 47.987 40.3396C47.987 40.067 47.987 39.8306 47.987 39.594C47.987 37.6686 47.979 35.7418 47.9908 33.8162C47.9976 32.829 48.3868 32.4582 49.361 32.4542C50.1994 32.4502 51.0392 32.4716 51.8764 32.4476C52.8 32.421 53.5202 31.8284 53.5892 31.0084C53.641 30.3986 53.6012 29.7806 53.6012 29.0817ZM46.8454 57.4442C46.1478 57.965 45.5538 58.353 45.033 58.8248C44.8096 59.0268 44.6302 59.3988 44.6236 59.6978C44.5852 61.4014 44.6038 63.1076 44.6064 64.8124C44.6064 64.9972 44.633 65.182 44.6542 65.4582C45.3744 64.9786 46.019 64.5614 46.6474 64.1202C46.7498 64.0484 46.8362 63.8716 46.8362 63.7428C46.8482 61.6898 46.8454 59.638 46.8454 57.4442ZM37.7934 63.7442C36.684 64.2518 36.4926 65.1486 36.7676 66.1188C36.866 66.4628 37.3776 66.6888 37.7934 67.0476V63.7442Z" fill="#EA2F9F"/>
<path d="M44.623 30.142H46.813V27.9746H44.623V30.142Z" fill="white"/>
<path d="M66.0776 46.2804C65.998 46.4212 65.8544 46.7388 65.6538 47.0126C62.563 51.2316 58.5604 54.3544 53.9668 56.7662C53.6544 56.9296 53.3608 57.129 53.0432 57.279C52.4466 57.5622 51.806 57.3548 51.511 56.806C51.22 56.2664 51.3596 55.6632 51.923 55.307C52.63 54.8592 53.3582 54.4434 54.0944 54.046C57.8762 51.9996 61.0694 49.2662 63.6724 45.8366C63.9994 45.4046 64.2956 44.909 64.9654 44.9356C65.6206 44.9608 66.0856 45.4168 66.0776 46.2804Z" fill="#EA2F9F"/>
<path d="M10.6796 35.5737C10.6796 35.2853 10.6663 34.9971 10.6823 34.7113C10.7208 34.0549 11.2191 33.5673 11.8264 33.5713C12.4204 33.5751 12.924 34.0243 12.9346 34.6635C12.9718 36.9119 13.3001 39.1017 14.0495 41.2293C14.2568 41.8193 13.8595 42.4611 13.2708 42.6405C12.7154 42.8105 12.0603 42.5329 11.8942 41.9189C11.4915 40.4319 11.1434 38.9303 10.8231 37.4235C10.6956 36.8229 10.7035 36.1929 10.6504 35.5777C10.6597 35.5777 10.669 35.5751 10.6796 35.5737Z" fill="#EA2F9F"/>
<path d="M69.4912 35.5594C69.426 37.671 69.0592 39.728 68.355 41.7212C68.0786 42.504 67.486 42.8482 66.848 42.6196C66.193 42.3844 65.9246 41.7664 66.193 40.989C66.8694 39.029 67.1816 37.0106 67.2162 34.9416C67.2294 34.0938 67.6534 33.5862 68.3284 33.5716C69.0286 33.557 69.4844 34.1004 69.4924 34.9616C69.4938 35.1608 69.4912 35.3602 69.4912 35.5594Z" fill="#EA2F9F"/>
<path d="M67.2291 29.6201C67.2291 29.3995 67.2119 29.1776 67.2331 28.9597C67.2957 28.3139 67.7381 27.9192 68.3679 27.9259C68.9767 27.9325 69.4417 28.3617 69.4855 28.9929C69.5121 29.3876 69.5081 29.7862 69.4881 30.1822C69.4563 30.8466 68.9779 31.329 68.3693 31.3422C67.7687 31.3542 67.2757 30.8732 67.2279 30.2142C67.2133 30.0174 67.2253 29.8181 67.2253 29.6201C67.2265 29.6201 67.2277 29.6201 67.2291 29.6201Z" fill="#EA2F9F"/>
<path d="M32.1758 47.1631V44.9717H34.4016V47.1631H32.1758Z" fill="#EA2F9F"/>
<path d="M44.623 30.142V27.9746H46.813V30.142H44.623Z" fill="#EA2F9F"/>
</svg>
