<svg width="80" height="80" viewBox="0 0 80 80" fill="none" xmlns="http://www.w3.org/2000/svg">
<path d="M77.2081 12.1518C76.7387 13.7218 75.4955 14.5372 74.1478 15.2121C72.9798 15.7958 72.3234 16.6851 72.2916 17.9842C72.2655 19.0429 72.1902 20.119 72.3395 21.1589C73.1567 26.8261 71.3047 31.5549 67.2925 35.4813C65.8376 36.9049 64.1901 38.1404 62.5787 39.3946C62.0888 39.7756 61.8977 40.1144 62.0049 40.7156C62.4034 42.9531 62.528 45.2067 62.3092 47.4734C62.2744 47.8311 62.2599 48.1961 62.1773 48.5451C61.7237 50.4684 61.8208 52.37 62.4222 54.2384C63.1656 56.5471 62.97 58.8122 62.0599 61.0035C61.3716 62.6618 60.5457 64.2636 59.7428 65.8727C59.3299 66.7011 58.6388 67.1009 57.6737 66.998C57.1969 66.9475 56.7 66.9228 56.2304 67.0024C55.0814 67.1966 54.1019 65.6931 54.893 64.717C56.0768 63.2571 55.9929 61.493 56.3536 59.8449C56.713 58.1953 56.045 57.0902 54.3511 56.0937C54.238 56.6745 54.1409 57.2351 54.0192 57.7912C53.2758 61.1556 51.3848 63.8987 49.2316 66.484C48.9953 66.7677 48.5028 66.9184 48.1086 66.9692C47.4928 67.0488 46.8522 66.9401 46.2321 67.0009C45.0903 67.1139 44.4976 65.8859 44.9163 65.0197C45.041 64.762 45.1728 64.4968 45.3554 64.281C46.7741 62.6039 47.0044 60.5618 47.1015 58.498C47.1204 58.1054 46.8566 57.6767 46.6551 57.3002C45.8263 55.7535 44.9569 54.2283 44.1368 52.6758C43.9368 52.2962 43.7123 52.2587 43.3354 52.3181C41.0315 52.6801 38.7319 53.0886 36.4162 53.3449C34.3137 53.578 32.1939 53.6403 30.0811 53.7735C29.8927 53.7851 29.7044 53.775 29.4566 53.775C29.6362 54.9424 29.8405 56.0459 29.971 57.1568C30.2681 59.6798 30.3347 62.1983 29.629 64.6779C29.5436 64.9777 29.4319 65.2702 29.316 65.5585C28.9175 66.5492 28.2844 67.1168 27.1121 66.9894C26.3281 66.904 25.524 66.9923 24.7284 67.0038C23.5734 67.0213 23.0692 66.2811 23.5213 65.2007C23.6299 64.9387 23.7619 64.63 23.9777 64.4795C24.595 64.048 24.5676 63.5018 24.3517 62.9123C23.7648 61.3177 23.1634 59.7291 22.5533 58.1446C22.4723 57.933 22.3086 57.7534 22.149 57.5058C21.7347 58.5862 21.4434 59.6406 20.9421 60.5835C19.9075 62.5315 18.7613 64.4201 17.6614 66.3347C17.3644 66.8518 16.9123 67.03 16.3312 67.0141C15.5125 66.9908 14.6924 67.0155 13.8722 67.0069C12.8564 66.9937 12.2928 66.3869 12.4971 65.3789C12.6057 64.8372 12.8246 64.1739 13.2259 63.8639C14.2518 63.0703 14.4837 61.9637 14.6895 60.8398C15.4024 56.9221 15.5893 52.9537 15.6777 48.9839C15.6908 48.3872 15.3618 47.7196 15.0256 47.1895C13.352 44.558 11.2205 42.4927 8.05577 41.7294C6.92408 41.4556 5.88947 40.9356 5.07655 40.0536C3.66084 38.5154 3.68548 36.6385 5.16929 35.1757C5.61415 34.7369 5.84889 34.2705 5.94742 33.6231C6.23433 31.7634 7.29357 30.3543 8.84259 29.3216C9.33092 28.9958 9.61205 28.6482 9.72216 28.0311C9.85982 27.262 10.167 26.5105 10.4887 25.7907C11.1712 24.2641 12.8985 23.9585 14.0229 25.207C14.9054 26.186 15.8371 27.1868 16.4413 28.3383C18.3584 31.9937 21.5825 33.513 25.4094 34.1184C29.274 34.7311 33.1415 34.4444 37.0061 34.0576C42.2718 33.5318 47.5087 32.5846 52.8311 32.8396C54.0757 32.899 55.3088 33.1582 56.5536 33.2697C57.1375 33.3219 57.7983 33.4044 58.3141 33.1974C62.3106 31.597 65.2652 28.9102 66.5288 24.7C66.8432 23.6529 66.7142 22.4624 66.7185 21.3371C66.7257 19.3659 66.5274 17.3817 66.6853 15.425C66.9519 12.133 68.8095 9.84322 71.8076 8.57739C74.2869 7.53026 76.1127 8.37463 77.2081 10.8512V12.1518ZM57.0983 65.1805C58.0852 65.2921 58.123 65.3123 58.6287 64.3331C59.1895 63.2455 59.6921 62.1274 60.182 61.0049C61.1238 58.8441 61.4006 56.6572 60.624 54.3485C60.1082 52.8133 59.9356 51.1795 60.2226 49.5705C60.7355 46.6928 60.7572 43.8207 60.2486 40.956C60.0082 39.6018 60.4572 38.682 61.5701 37.9637C63.7712 36.54 65.6955 34.7977 67.3533 32.77C69.521 30.1197 70.9033 27.1738 70.7064 23.6515C70.618 22.0656 70.4817 20.4811 70.4557 18.8952C70.4165 16.5055 71.2004 14.5575 73.5595 13.5133C74.0362 13.3018 74.4725 12.9745 74.8825 12.6457C75.4359 12.2025 75.5301 11.5841 75.3128 10.9425C75.1071 10.3356 74.6158 10.0199 73.9913 9.9895C73.5899 9.96922 73.1553 9.97936 72.7842 10.1112C70.4978 10.9208 68.9501 12.5241 68.5676 14.8964C68.2879 16.6329 68.4371 18.4433 68.4619 20.2204C68.4864 22.0453 68.7616 23.889 68.1299 25.6587C66.6505 29.8098 63.7278 32.6411 59.8284 34.5369C58.5809 35.1439 57.2781 35.2495 55.8929 34.9961C54.5495 34.7499 53.1729 34.5949 51.8095 34.5703C46.5421 34.4776 41.3589 35.448 36.1367 35.9274C32.3865 36.2722 28.6408 36.4821 24.9022 35.8346C20.5653 35.0845 16.992 33.2262 14.8619 29.1319C14.3823 28.2092 13.6186 27.4257 12.9361 26.6206C12.4478 26.0441 12.2218 26.0977 11.9609 26.8334C11.7059 27.5546 11.4581 28.2919 11.332 29.0422C11.2176 29.7257 10.9191 30.1428 10.3105 30.4803C8.87593 31.2753 7.86305 32.4427 7.6515 34.1271C7.53992 35.0149 7.1849 35.7173 6.53428 36.314C5.57937 37.1903 5.57357 38.281 6.61398 39.0587C7.21389 39.5061 7.94564 39.8335 8.66871 40.0478C12.8057 41.2702 15.64 43.9279 17.2745 47.8586C18.1295 49.9138 19.2105 51.8053 20.8522 53.3014C23.8213 56.0054 25.5122 59.3728 26.247 63.2657C26.3672 63.9059 26.6686 64.5795 26.0021 65.1616C27.7584 65.2659 27.638 65.4527 28.0178 63.8422C28.593 61.3961 28.5147 58.9006 28.0728 56.4543C27.7164 54.4789 27.1078 52.5496 26.5919 50.6047C26.4427 50.0412 26.5078 49.5618 27.0903 49.3546C27.6656 49.1505 28.0685 49.4474 28.2699 50.0006C28.4423 50.4742 28.5524 50.9754 28.774 51.4243C28.8829 51.6459 29.1886 51.9269 29.3958 51.9183C31.8447 51.827 34.3051 51.8082 36.7352 51.5272C40.1722 51.1303 43.5861 50.5278 47.0102 50.0195C47.6608 49.9224 48.3172 49.8544 48.9867 49.7719C48.9287 49.5849 48.8999 49.4938 48.8737 49.401C48.6679 48.6653 48.8345 48.1816 49.3489 48.0237C49.9082 47.8513 50.2344 48.1526 50.5836 48.8305C51.0415 49.7198 51.5009 50.6581 52.1746 51.3737C53.4904 52.7741 54.9321 54.0589 56.3652 55.3436C57.2954 56.1778 58.0939 57.1235 58.1273 58.3778C58.1605 59.6074 57.9418 60.8515 57.7548 62.0767C57.594 63.1253 57.3187 64.1564 57.0983 65.1805ZM45.7568 51.882C46.6611 53.5838 47.5291 55.132 48.3057 56.7238C48.6129 57.3538 48.8939 58.0852 48.8867 58.7658C48.8621 61.0253 48.1535 63.1354 47.2262 65.1805C47.7319 65.3224 48.1028 65.1747 48.4694 64.704C50.6894 61.8478 52.3992 58.7775 52.6934 55.0857C52.715 54.8221 52.6078 54.4817 52.4383 54.2805C51.7413 53.4535 51.0125 52.6525 50.2589 51.8762C50.0909 51.7024 49.7765 51.5678 49.5373 51.5808C48.3144 51.6488 47.0971 51.769 45.7568 51.882ZM17.4615 52.1746C17.1731 54.8481 16.9572 57.5565 16.5616 60.2388C16.3037 61.9884 16.1544 63.8566 14.5243 65.0603C14.5069 65.0733 14.533 65.1428 14.5431 65.2209C14.9967 65.2209 15.4546 65.2515 15.9067 65.208C16.1139 65.1877 16.3834 65.0748 16.4964 64.9139C18.3918 62.2216 19.906 59.3466 20.5928 56.0937C20.632 55.9069 20.6175 55.6273 20.5045 55.5013C19.4872 54.3601 18.4439 53.242 17.4615 52.1746Z" fill="#EA2F9F"/>
<path d="M9.23913 34.7296C9.04931 34.7166 8.85079 34.7339 8.67256 34.6818C8.5581 34.6486 8.38131 34.4428 8.3871 34.4356C8.66821 34.0779 8.91891 33.6622 9.28405 33.4218C9.442 33.3175 9.8999 33.5144 10.1057 33.7014C10.2274 33.8113 10.223 34.256 10.0999 34.3964C9.91004 34.6137 9.56951 34.6991 9.29275 34.8397C9.27391 34.802 9.25653 34.7659 9.23769 34.7282L9.23913 34.7296Z" fill="#EA2F9F"/>
<path d="M28.1878 30.5408C28.1878 30.7711 28.1705 31.0043 28.1907 31.2331C28.2371 31.7589 28.6255 32.1311 29.1616 32.1876C29.6296 32.2368 30.1021 31.9284 30.2425 31.4577C30.2932 31.2867 30.3049 31.0999 30.3064 30.9204C30.315 29.8862 30.4122 28.8579 30.6367 27.8513C31.722 22.9893 34.4405 19.3251 38.7803 16.8789C40.4902 15.9158 42.3334 15.306 44.2852 15.0656C45.0459 14.9714 45.8139 14.9483 46.579 14.8889C47.1934 14.8411 47.6325 14.3791 47.6164 13.8099C47.5991 13.2074 47.1253 12.7642 46.492 12.7671C44.975 12.7743 43.4795 12.9583 42.0116 13.3406C38.2861 14.3125 35.1418 16.2402 32.6349 19.1585C29.8266 22.4259 28.3705 26.2394 28.1864 30.5422L28.1878 30.5408ZM33.3653 30.5698C33.3653 30.7595 33.3581 30.9492 33.3653 31.1389C33.3942 31.8255 33.9826 32.2933 34.6534 32.1645C35.1272 32.0731 35.4793 31.6618 35.488 31.1636C35.5156 29.4589 35.8329 27.8136 36.6227 26.2944C38.5673 22.5534 41.645 20.4779 45.8588 20.1101C46.1718 20.0825 46.4905 20.1014 46.7963 20.0434C47.3107 19.945 47.6686 19.425 47.6107 18.9268C47.5426 18.3489 47.1078 17.9289 46.5239 17.9535C45.8168 17.9839 45.1024 18.023 44.4068 18.1404C40.7785 18.7559 37.8964 20.588 35.7634 23.5744C34.2739 25.66 33.5043 28.0062 33.3653 30.5655V30.5698ZM38.5659 30.9086C38.5659 30.942 38.5659 30.9754 38.5659 31.0072C38.5615 31.6981 38.9947 32.1861 39.6192 32.1933C40.2366 32.2006 40.6756 31.7082 40.7003 31.0245C40.7133 30.6552 40.7438 30.2802 40.8249 29.9224C41.4493 27.1619 43.7013 25.3355 46.5326 25.2732C47.1412 25.2603 47.6135 24.7997 47.6209 24.2146C47.6267 23.6222 47.1412 23.1472 46.5225 23.1472C45.6329 23.1472 44.7707 23.3094 43.9273 23.5904C40.8597 24.6114 38.5976 27.6934 38.5659 30.9086Z" fill="white"/>
<path d="M28.1882 30.5407C28.3721 26.2377 29.8284 22.4257 32.6366 19.1568C35.1449 16.2385 38.2879 14.3107 42.0134 13.3389C43.4813 12.9551 44.9766 12.7727 46.4938 12.7654C47.1271 12.7625 47.6009 13.2071 47.6182 13.8082C47.6357 14.3774 47.1952 14.8394 46.5808 14.8872C45.8157 14.9466 45.0477 14.9697 44.287 15.0639C42.3352 15.3043 40.4933 15.914 38.7821 16.8772C34.4422 19.3234 31.7237 22.9876 30.6385 27.8496C30.4138 28.8576 30.3168 29.8844 30.308 30.9186C30.3066 31.0982 30.295 31.285 30.2443 31.4559C30.1037 31.9266 29.6313 32.2351 29.1633 32.1858C28.6271 32.1308 28.2374 31.7572 28.1925 31.2314C28.1721 31.0025 28.1896 30.7693 28.1896 30.5392L28.1882 30.5407Z" fill="#EA2F9F"/>
<path d="M33.366 30.5691C33.5037 28.0099 34.2746 25.6636 35.7641 23.578C37.8971 20.5901 40.7794 18.7595 44.4077 18.1439C45.1047 18.0252 45.8177 17.9861 46.5248 17.9571C47.1087 17.9325 47.5435 18.3525 47.6115 18.9304C47.6695 19.4286 47.3116 19.9485 46.7972 20.047C46.4914 20.1064 46.1727 20.0861 45.8597 20.1136C41.6459 20.48 38.5682 22.5569 36.6234 26.298C35.8338 27.8157 35.5165 29.4611 35.4889 31.1672C35.4802 31.6653 35.1281 32.0767 34.6543 32.168C33.9849 32.2969 33.3951 31.829 33.366 31.1425C33.3588 30.9528 33.366 30.7631 33.366 30.5734V30.5691Z" fill="#EA2F9F"/>
<path d="M38.5657 30.9085C38.5976 27.6933 40.858 24.6112 43.9256 23.5902C44.7705 23.3092 45.6312 23.147 46.5208 23.147C47.1396 23.147 47.6251 23.622 47.6193 24.2144C47.6135 24.7995 47.1396 25.2601 46.531 25.2731C43.6996 25.334 41.4479 27.1618 40.8232 29.9221C40.7422 30.2813 40.7117 30.6565 40.6987 31.0244C40.6739 31.7093 40.235 32.2004 39.6177 32.1932C38.9945 32.1858 38.5613 31.6978 38.5642 31.0071C38.5642 30.9737 38.5657 30.9403 38.5657 30.9085Z" fill="#EA2F9F"/>
</svg>
