<svg width="80" height="80" viewBox="0 0 80 80" fill="none" xmlns="http://www.w3.org/2000/svg">
<path d="M39.4182 63.0788C41.7455 63.0788 44.0728 62.691 46.2061 61.7213C53.5758 58.6182 57.6485 52.994 58.4243 44.8485C58.4243 43.8788 58.4243 42.7152 58.2304 41.7455C58.2304 40.9698 57.4546 40.3879 56.6789 40.3879C55.9031 40.3879 55.3213 41.1637 55.3213 41.9395C55.3213 42.3273 55.3213 42.7152 55.5152 43.1031C55.9031 50.0849 51.6364 56.4849 45.2364 59.0061C42.7152 59.9758 40.194 60.3637 37.4789 59.9758C36.5092 59.7819 35.9273 60.3637 35.7334 61.1395C35.7334 61.9152 36.1213 62.691 37.091 62.691C37.8667 63.0788 38.6425 63.0788 39.4182 63.0788Z" fill="#EA2F9F"/>
<path d="M14.2061 17.8909C14.4 17.503 14.4 16.9212 14.5939 16.5333C15.5636 12.8485 18.0848 10.7152 21.5758 9.93941C26.0364 8.77577 29.9151 10.3273 32.8242 13.8182C34.1818 15.3697 35.1515 17.1152 36.1212 18.8606C37.2848 20.6061 38.2545 22.5455 39.6121 24.2909C40.1939 25.0667 40.9697 26.0364 41.7455 26.6182C43.6848 28.3636 46.0121 28.7515 48.5333 27.9758C50.6667 27.394 52.4121 26.4243 54.1576 25.2606C54.3515 25.0667 54.5455 25.0667 54.7394 24.8727C55.5151 24.4849 56.2909 24.4849 56.8727 25.2606C57.2606 26.0364 57.0667 26.8121 56.2909 27.2C55.1273 27.9758 53.9636 28.5576 52.8 29.1394C51.0545 30.1091 49.1151 30.6909 46.9818 30.8849C43.6848 31.0788 40.7758 29.9152 38.6424 27.394C37.2848 25.8424 36.1212 23.903 34.9576 22.1576C33.7939 20.4121 32.8242 18.4727 31.4667 16.5333C30.1091 14.594 28.3636 13.0424 26.0364 12.2667C22.9333 11.6849 19.4424 13.2364 17.697 15.9515C16.7273 17.697 16.9212 19.4424 18.0848 20.994C18.2788 21.1879 18.4727 21.3818 18.6667 21.1879C19.8303 20.8 20.9939 21.1879 21.9636 21.9636C22.9333 22.9333 23.903 23.903 24.6788 24.6788C24.6788 24.6788 24.6788 24.6788 24.8727 24.8727C25.2606 24.4849 25.4545 24.2909 25.8424 23.903C26.6182 23.1273 27.3939 23.1273 28.1697 23.903C31.0788 26.8121 34.1818 29.7212 37.0909 32.8243C40.1939 36.1212 44.0727 38.8364 47.7576 41.3576C48.9212 42.1333 49.697 43.103 49.8909 44.4606C50.0848 45.2364 50.2788 46.2061 50.4727 46.9818C50.6667 47.5636 50.4727 48.1455 50.0848 48.7273C48.1455 50.6667 46.2061 52.6061 44.2667 54.5455C43.6848 55.1273 43.297 55.1273 42.5212 54.9333C41.3576 54.5455 40 54.3515 38.8364 53.9637C38.4485 53.7697 37.8667 53.5758 37.6727 53.1879C35.7333 50.6667 33.9879 48.1455 32.0485 45.4303C31.8545 45.0424 31.4667 44.8485 31.2727 44.4606C27.3939 40.5818 23.5151 36.703 19.6364 32.8243C18.6667 31.8546 18.6667 31.0788 19.6364 30.1091C19.8303 29.9152 20.2182 29.7212 20.6061 29.3333C19.6364 28.3636 18.6667 27.394 17.697 26.4243C16.5333 25.8424 16.1454 24.8727 16.3394 23.7091C16.3394 23.5152 16.3394 23.3212 16.3394 23.3212C15.1758 22.1576 14.4 20.6061 14.2061 18.8606C14.2061 18.4727 14.2061 18.0849 14.2061 17.8909ZM44.8485 42.9091C43.6848 42.1333 42.7151 41.3576 41.7455 40.5818C40 39.2243 38.2545 37.8667 36.703 36.3152C33.7939 33.2121 30.6909 30.303 27.5879 27.2C27.2 27.0061 27.2 26.8121 27.0061 26.6182C26.6182 27.0061 26.4242 27.394 26.0364 27.5879C25.2606 28.3636 24.4848 28.3636 23.5151 27.5879C22.3515 26.6182 21.3818 25.4546 20.2182 24.2909C20.0242 24.097 19.6364 23.7091 19.2485 23.903C18.8606 24.4849 19.4424 24.6788 19.6364 24.8727C20.8 26.0364 21.9636 27.2 23.1273 28.3636C23.903 29.1394 23.903 29.9152 23.1273 30.6909C22.7394 31.0788 22.3515 31.2727 22.1576 31.6606C24.2909 33.794 26.4242 35.9273 28.3636 37.8667C31.6606 40.9697 34.9576 44.2667 37.2848 48.3394C37.4788 48.7273 37.6727 48.9212 37.8667 49.3091C37.8667 49.503 38.0606 49.503 38.2545 49.697C39.6121 46.594 41.7455 44.2667 44.8485 42.9091ZM40.5818 51.6364C41.1636 51.8303 41.7455 52.0243 42.3273 52.0243C42.5212 52.0243 42.7151 52.0243 42.9091 51.8303C44.4606 50.2788 46.0121 48.9212 47.3697 47.3697C47.5636 47.1758 47.5636 47.1758 47.5636 46.9818C47.3697 46.4 47.1758 45.8182 46.9818 45.0424C43.6848 46.2061 41.7455 48.5333 40.5818 51.6364Z" fill="#EA2F9F"/>
<path d="M37.4789 70.6424C37.2849 70.6424 37.2849 70.6424 37.091 70.6424C36.3152 70.4485 35.7334 69.8666 35.7334 69.0909C35.7334 68.3151 36.5092 67.7333 37.2849 67.7333C38.6425 67.7333 40.0001 67.7333 41.3576 67.7333C48.1455 67.1515 53.5758 64.0485 57.8425 58.6182C61.5273 53.9636 63.0788 48.5333 62.8849 42.5212C62.8849 41.3575 63.2728 40.5818 64.2425 40.5818C65.2122 40.5818 65.794 41.1636 65.794 42.3272C66.1819 53.3818 61.5273 61.7212 52.0243 67.3454C48.9213 69.0909 45.4304 70.0606 41.7455 70.4485C41.5516 70.4485 41.3576 70.4485 41.1637 70.6424C40.0001 70.6424 38.8364 70.6424 37.4789 70.6424Z" fill="#EA2F9F"/>
<path d="M39.4182 63.0788C38.6425 63.0788 37.8667 63.0788 37.2849 62.8848C36.3152 62.6909 35.7334 62.1091 35.9273 61.3333C35.9273 60.5575 36.7031 59.9757 37.6728 60.1697C40.3879 60.3636 42.9091 60.1697 45.4303 59.2C51.8303 56.6788 56.097 50.2788 55.7091 43.2969C55.7091 42.9091 55.7091 42.5212 55.5152 42.1333C55.5152 41.3575 56.097 40.7757 56.8728 40.5818C57.6485 40.5818 58.4243 40.9697 58.4243 41.9394C58.4243 42.9091 58.6182 44.0727 58.6182 45.0424C58.0364 53.1879 53.7697 58.8121 46.4 61.9151C44.0728 62.6909 41.7455 63.0788 39.4182 63.0788Z" fill="#EA2F9F"/>
</svg>
