<svg width="80" height="80" viewBox="0 0 80 80" fill="none" xmlns="http://www.w3.org/2000/svg">
<path d="M3.92505 60.5399C4.11005 60.1699 4.29505 59.7999 4.48005 59.4299C5.03505 58.6899 5.77505 58.5049 6.51505 58.5049C7.44005 58.5049 8.36505 58.5049 9.29005 58.5049C9.29005 58.1349 9.29005 57.9499 9.29005 57.5799C9.29005 46.6649 9.29005 35.5649 9.29005 24.6499C9.29005 21.1349 11.51 18.9149 15.025 18.9149C24.46 18.9149 33.895 18.9149 43.33 18.9149C44.255 18.9149 44.625 19.0999 44.625 19.8399C44.995 20.3949 44.6251 20.9499 43.8851 20.9499C43.7001 20.9499 43.515 20.9499 43.33 20.9499C34.08 20.9499 24.645 20.9499 15.395 20.9499C12.99 20.9499 11.695 22.2449 11.695 24.6499C11.695 35.5649 11.695 46.6649 11.695 57.5799V58.3199H14.1C14.1 58.1349 14.1 57.7649 14.1 57.5799C14.1 53.1399 14.1 48.8849 14.1 44.4449C14.1 44.2599 14.1 43.8899 14.1 43.7049C14.1 43.1499 14.47 42.7799 15.025 42.9649C15.58 42.9649 15.95 43.3349 15.95 43.8899C15.95 44.0749 15.95 44.4449 15.95 44.6299C15.95 48.8849 15.95 53.1399 15.95 57.5799V58.5049H24.09C24.09 57.3949 24.275 56.2849 24.275 55.3599C24.645 52.5849 26.495 50.5499 29.27 49.9949C31.305 49.6249 33.34 49.0699 35.375 48.6999C35.375 48.3299 35.375 47.7749 35.375 47.4049C35.375 47.0349 35.19 46.6649 35.005 46.4799C33.71 45.3699 32.785 43.8899 32.415 42.2249C32.415 42.0399 32.23 41.8549 32.045 41.6699C31.305 41.1149 30.75 40.3749 30.75 39.4499C30.75 37.5999 30.565 35.7499 30.75 33.8999C31.12 30.3849 33.34 27.9799 36.855 27.7949C38.52 27.6099 40 27.7949 41.665 27.7949C41.85 27.7949 41.85 27.7949 41.85 27.7949C43.33 28.7199 44.995 28.9049 46.475 29.4599C47.955 30.0149 48.88 31.3099 49.065 32.9749C49.065 35.1949 49.065 37.4149 49.065 39.6349C49.065 40.5599 48.5101 41.1149 47.7701 41.6699C47.5851 41.8549 47.4 42.0399 47.4 42.2249C47.03 43.7049 46.475 44.9999 45.18 46.1099C44.255 46.8499 44.07 47.5899 44.44 48.5149C45.735 48.6999 47.0301 49.0699 48.5101 49.4399C49.4351 49.6249 50.175 49.8099 51.1 49.9949C53.505 50.5499 55.355 52.7699 55.54 55.1749C55.725 56.2849 55.725 57.3949 55.725 58.3199H63.68V27.4249C62.94 27.4249 62.2001 27.4249 61.4601 27.7949C58.5001 29.4599 55.54 31.3099 52.58 32.9749C52.025 33.1599 51.47 33.3449 50.915 33.3449C49.805 33.1599 49.25 31.8649 49.805 30.7549C49.99 30.1999 50.3601 29.6449 50.5451 29.0899C50.7301 28.5349 51.1001 27.9799 51.2851 27.4249C50.9151 27.4249 50.545 27.2399 50.175 27.2399C49.065 27.0549 48.1401 26.4999 47.5851 25.7599C47.4001 25.3899 47.0301 25.3899 46.6601 25.3899C36.67 25.3899 26.68 25.3899 16.875 25.3899C15.95 25.3899 15.95 25.3899 15.95 26.3149C15.95 30.5699 15.95 34.8249 15.95 39.2649C15.95 39.4499 15.95 39.8199 15.95 40.0049C15.95 40.5599 15.58 40.9299 15.025 40.9299C14.47 40.9299 13.915 40.5599 13.915 40.0049C13.915 39.8199 13.915 39.6349 13.915 39.4499C13.915 35.0099 13.915 30.5699 13.915 26.3149C13.915 24.4649 14.84 23.3549 16.875 23.3549C26.495 23.3549 36.1151 23.3549 45.7351 23.3549C46.1051 23.3549 46.2901 23.3549 46.6601 23.3549C46.6601 22.9849 46.6601 22.7999 46.6601 22.6149C46.6601 19.8399 46.6601 16.8799 46.6601 14.1049C46.6601 11.1449 48.5101 9.29492 51.4701 9.29492C57.7601 9.29492 63.865 9.29492 70.155 9.29492C73.115 9.29492 74.9651 11.1449 74.9651 14.1049C74.9651 17.0649 74.9651 20.2099 74.9651 23.1699C74.9651 25.9449 73.1151 27.7949 70.3401 27.7949C68.8601 27.7949 67.38 27.7949 65.9 27.7949V58.8749H68.305C68.305 58.5049 68.305 58.3199 68.305 57.9499C68.305 49.0699 68.305 40.1899 68.305 31.3099C68.305 31.1249 68.305 30.7549 68.305 30.5699C68.305 30.0149 68.6751 29.6449 69.4151 29.6449C69.9701 29.6449 70.34 30.0149 70.525 30.5699C70.525 30.7549 70.525 31.1249 70.525 31.3099C70.525 40.1899 70.525 49.0699 70.525 57.9499V58.8749C71.265 58.8749 72.0051 58.8749 72.7451 58.8749C75.7051 58.6899 76.2601 60.9099 75.8901 62.9449C75.3351 65.9049 73.115 67.9399 70.155 68.4949C70.155 68.4949 69.9701 68.4949 69.9701 68.6799H10.03C9.84505 68.6799 9.84505 68.4949 9.66005 68.4949C7.99505 68.3099 6.70005 67.5699 5.59005 66.4599C4.66505 65.5349 4.29505 64.2399 3.92505 63.1299C3.92505 61.8349 3.92505 61.2799 3.92505 60.5399ZM52.3951 30.3849C52.3951 30.5699 52.3951 30.5699 52.3951 30.3849C52.7651 30.3849 52.9501 30.1999 53.1351 30.1999C55.7251 28.7199 58.5 27.0549 61.275 25.5749C61.83 25.2049 62.3851 25.2049 62.9401 25.2049C65.5301 25.2049 68.12 25.2049 70.525 25.2049C72.005 25.2049 72.93 24.4649 72.93 22.7999C72.93 19.6549 72.93 16.6949 72.93 13.5499C72.93 12.0699 72.005 11.1449 70.525 11.1449C67.38 11.1449 64.42 11.1449 61.275 11.1449C57.945 11.1449 54.6151 11.1449 51.2851 11.1449C49.8051 11.1449 49.065 11.8849 49.065 13.3649C49.065 16.5099 49.065 19.6549 49.065 22.9849C49.065 24.2799 49.805 25.0199 51.1 25.2049C51.655 25.2049 52.395 25.2049 52.95 25.2049C54.06 25.2049 54.6151 25.9449 54.0601 27.0549C53.8751 27.4249 53.69 27.6099 53.69 27.9799C53.135 28.7199 52.7651 29.6449 52.3951 30.3849ZM40 65.9049C49.62 65.9049 59.055 65.9049 68.675 65.9049C69.045 65.9049 69.415 65.9049 69.785 65.9049C71.82 65.7199 73.67 63.8699 73.855 61.8349C73.855 60.9099 73.6701 60.7249 72.7451 60.7249C65.7151 60.7249 58.5001 60.7249 51.4701 60.7249C51.1001 60.7249 50.915 60.7249 50.73 61.2799C50.36 63.1299 48.88 64.4249 47.03 64.4249C42.405 64.4249 37.5951 64.4249 32.9701 64.4249C31.1201 64.4249 29.64 63.1299 29.27 61.4649C29.085 60.9099 28.9 60.7249 28.345 60.7249C21.315 60.7249 14.47 60.7249 7.44005 60.7249C6.33005 60.7249 5.96005 61.0949 6.14505 62.3899C6.70005 64.6099 8.55005 66.0899 10.955 66.0899C20.575 65.9049 30.195 65.9049 40 65.9049ZM53.69 58.3199C53.69 57.3949 53.505 56.4699 53.505 55.5449C53.505 53.8799 52.2101 52.3999 50.5451 51.8449C49.2501 51.4749 47.9551 51.2899 46.6601 50.9199C45.9201 50.7349 44.995 50.5499 44.255 50.3649C43.33 52.3999 42.2201 53.3249 40.3701 53.3249C38.1501 53.5099 36.6701 52.3999 35.7451 50.1799C33.5251 50.7349 31.305 51.1049 29.27 51.6599C27.975 52.0299 27.05 52.9549 26.865 54.0649C26.495 55.3599 26.495 56.6549 26.495 57.9499H53.69V58.3199ZM33.155 38.1549C33.155 38.5249 33.155 38.8949 33.155 39.2649C33.155 39.4499 33.34 39.8199 33.525 39.8199C34.265 40.0049 34.635 40.3749 34.635 41.1149C35.005 43.7049 36.485 45.3699 39.075 46.1099C39.63 46.2949 40.185 46.2949 40.555 46.2949C43.145 45.9249 45.18 43.7049 45.55 41.1149C45.735 40.3749 45.9201 39.8199 46.6601 39.6349C46.8451 39.6349 47.03 39.2649 47.03 39.0799C47.03 38.7099 47.2151 38.1549 46.6601 37.9699C45.9201 37.5999 45.18 37.0449 44.625 36.4899C44.07 35.9349 43.5151 35.9349 42.9601 36.3049C40 37.9699 36.67 38.8949 33.155 38.1549ZM47.215 35.7499C47.215 35.0099 47.215 34.2699 47.215 33.7149C47.215 32.0499 46.4751 31.1249 44.8101 31.1249C43.8851 31.1249 43.145 30.7549 42.405 30.1999C42.035 30.0149 41.48 29.8299 40.925 29.6449C39.815 29.6449 38.5201 29.6449 37.41 29.6449C36.3 29.6449 35.375 30.1999 34.45 30.9399C32.97 32.2349 32.97 33.8999 33.155 35.7499C33.155 35.9349 33.525 36.1199 33.525 36.1199C34.635 36.1199 35.745 36.3049 36.855 36.3049C38.705 36.1199 40.3701 35.3799 42.0351 34.4549C43.5151 33.7149 44.995 33.8999 46.29 35.0099C46.475 35.1949 46.845 35.3799 47.215 35.7499ZM48.6951 60.5399H31.305C31.49 61.4649 32.23 62.0199 33.155 62.0199C37.78 62.0199 42.405 62.0199 47.03 62.0199C47.77 62.2049 48.5101 61.6499 48.6951 60.5399ZM37.78 47.9599C37.78 49.2549 37.595 50.3649 38.89 51.1049C39.63 51.6599 40.74 51.4749 41.48 50.9199C42.59 50.1799 42.405 49.0699 42.405 47.9599C40.74 48.6999 39.26 48.6999 37.78 47.9599Z" fill="#EA2F9F"/>
<path d="M60.9051 14.2898C58.6851 14.2898 56.2802 14.2898 54.0602 14.2898C53.6902 14.2898 53.1352 14.4748 52.9502 14.8448C52.3952 15.5848 52.9502 16.5098 54.0602 16.5098C58.6852 16.5098 63.3101 16.5098 67.9351 16.5098C68.8601 16.5098 69.2301 16.1398 69.2301 15.3998C69.2301 14.6598 68.6751 14.2898 67.7501 14.2898C65.5301 14.2898 63.3101 14.2898 60.9051 14.2898ZM57.3901 19.8398C56.2801 19.8398 55.1702 19.8398 53.8752 19.8398C53.1352 19.8398 52.7652 20.2098 52.7652 20.9498C52.7652 21.6898 53.1352 22.0598 53.8752 22.0598C56.0952 22.0598 58.5002 22.0598 60.7202 22.0598C61.4602 22.0598 62.0151 21.6898 62.0151 20.9498C62.0151 20.3948 61.4602 20.0248 60.7202 19.8398C59.6102 19.8398 58.5001 19.8398 57.3901 19.8398Z" fill="white"/>
<path d="M60.9051 14.2898C63.1251 14.2898 65.5301 14.2898 67.7501 14.2898C68.6751 14.2898 69.2301 14.6598 69.2301 15.3998C69.2301 16.1398 68.6751 16.5098 67.9351 16.5098C63.3101 16.5098 58.6852 16.5098 54.0602 16.5098C52.9502 16.5098 52.3952 15.5848 52.9502 14.8448C53.1352 14.4748 53.6902 14.2898 54.0602 14.2898C56.4652 14.2898 58.6851 14.2898 60.9051 14.2898Z" fill="#EA2F9F"/>
<path d="M57.3901 19.8398C58.5001 19.8398 59.6101 19.8398 60.7201 19.8398C61.4601 19.8398 62.0151 20.2098 62.0151 20.9498C62.0151 21.6898 61.4601 22.0598 60.7201 22.0598C58.5001 22.0598 56.0951 22.0598 53.8751 22.0598C53.1351 22.0598 52.7651 21.6898 52.7651 20.9498C52.7651 20.2098 53.1351 19.8398 53.8751 19.8398C55.1701 19.8398 56.2801 19.8398 57.3901 19.8398Z" fill="#EA2F9F"/>
</svg>
