<svg width="80" height="80" viewBox="0 0 80 80" fill="none" xmlns="http://www.w3.org/2000/svg">
<mask id="mask0_131_888" style="mask-type:luminance" maskUnits="userSpaceOnUse" x="8" y="7" width="64" height="65">
<path d="M72 7.43652H8V71.4365H72V7.43652Z" fill="white"/>
</mask>
<g mask="url(#mask0_131_888)">
<path d="M35.2 7.43652C35.995 7.65777 36.8138 7.81777 37.58 8.11527C39.285 8.77777 40.6662 9.88902 41.7588 11.3565C42.0938 11.8065 42.4362 12.2503 42.7688 12.7028C44.26 14.7278 46.2788 15.6628 48.775 15.664C49.7476 15.664 50.7438 15.6315 51.6888 15.8203C54.1526 16.3115 55.9 18.5453 55.9062 21.0678C55.9088 21.8978 55.9688 22.744 55.8376 23.5565C55.5362 25.4203 54.4888 26.7828 52.7938 27.6316C49.3288 29.3678 45.865 31.1078 42.3912 32.8278C41.5 33.269 40.8938 33.889 40.645 34.8778C40.4362 35.704 39.7412 36.0952 38.9926 35.899C38.2376 35.7016 37.8676 35.0352 38.0588 34.204C38.4538 32.4902 39.4788 31.284 41.0362 30.5052C44.4312 28.8078 47.8126 27.0802 51.2276 25.4228C52.6276 24.7428 53.3288 23.7328 53.2338 22.1753C53.2126 21.8228 53.24 21.4678 53.2226 21.1153C53.1388 19.4365 52.09 18.4015 50.3962 18.3415C49.6076 18.314 48.8162 18.3453 48.0276 18.3103C44.9962 18.1753 42.5812 16.8528 40.7276 14.4728C40.345 13.9815 39.975 13.479 39.5988 12.9815C38.2538 11.2028 36.4862 10.2103 34.24 10.1365C33.3476 10.1078 32.4526 10.134 31.5588 10.114C31.2026 10.1053 31.1062 10.2603 31.0762 10.5915C30.62 15.6165 30.1538 20.6415 29.6876 25.6653C29.525 27.4228 29.3676 29.1816 29.1862 30.9366C29.025 32.494 27.9263 33.7302 26.5025 34.0002C24.9175 34.3002 23.455 33.604 22.7225 32.1228C21.5738 29.799 20.4663 27.4552 19.34 25.1203C19.235 24.904 19.1175 24.694 18.8688 24.4965C18.8688 24.794 18.8713 25.0915 18.8688 25.3878C18.7838 35.8778 15.725 45.5228 10.5638 54.5666C9.93125 55.674 8.86375 55.6302 8 54.4828V53.609C9.8475 50.454 11.4263 47.169 12.7088 43.7452C14.7463 38.304 15.9588 32.6878 16.1213 26.8715C16.2138 23.5253 16.1588 20.1765 16.2413 16.8303C16.3338 13.054 18.1225 10.2578 21.435 8.50152C22.4038 7.98777 23.5375 7.78277 24.595 7.43652C28.13 7.43652 31.665 7.43652 35.2 7.43652ZM28.425 10.1515C27.3475 10.1515 26.3513 10.104 25.3613 10.1603C22.89 10.3003 20.9988 11.4853 19.815 13.6278C18.795 15.4753 18.4075 17.4278 19.5713 19.4178C19.915 20.0065 20.1725 20.6465 20.4688 21.2628C21.9775 24.4003 23.4913 27.5366 24.9913 30.6778C25.1825 31.079 25.44 31.3228 25.9013 31.2628C26.3613 31.2028 26.4725 30.889 26.51 30.4678C26.6938 28.3802 26.9013 26.2953 27.1013 24.209C27.3325 21.7928 27.5688 19.3765 27.7963 16.9603C28.0088 14.7115 28.2114 12.464 28.425 10.1515Z" fill="#EA2F9F"/>
<path d="M54.5837 43.0764C56.1037 41.2276 57.9699 40.0738 60.2437 39.5676C65.5237 38.3914 70.9725 42.1564 71.7687 47.4938C72.2213 50.5238 71.2463 53.1902 69.8149 55.7476C67.8787 59.2076 65.3125 62.1864 62.4575 64.9002C60.2913 66.9588 57.9813 68.8688 55.7099 70.8164C54.8313 71.5688 54.3637 71.5376 53.4463 70.8164C48.9163 67.2614 44.7086 63.3788 41.2698 58.7264C39.5824 56.4426 38.1674 54.0114 37.5098 51.2076C36.0062 44.7952 41.3962 38.6814 47.9312 39.4114C50.4448 39.6926 52.5625 40.7876 54.2463 42.6914C54.3413 42.7988 54.4349 42.9064 54.5837 43.0764ZM54.5163 68.3588C58.3863 65.2464 61.8725 61.9888 64.8713 58.2364C66.4437 56.2676 67.8513 54.1914 68.6899 51.7852C69.4375 49.6426 69.4325 47.5302 68.2425 45.5452C66.8487 43.2188 64.7525 42.0164 62.0337 42.0914C59.2375 42.1676 57.1975 43.5352 55.9313 46.0252C55.6413 46.5964 55.2675 46.9738 54.6099 46.9838C53.9875 46.9938 53.5687 46.6952 53.2849 46.1326C51.8125 43.2176 49.3286 41.8464 46.0662 42.1214C42.4562 42.4264 39.4798 46.2126 39.9974 49.7852C40.2398 51.4588 40.8524 52.9814 41.6812 54.4302C43.6824 57.9302 46.3736 60.8714 49.2649 63.6326C50.9599 65.2502 52.7463 66.7726 54.5163 68.3588Z" fill="#EA2F9F"/>
</g>
</svg>
