<svg width="112" height="112" viewBox="0 0 112 112" fill="none" xmlns="http://www.w3.org/2000/svg">
<path d="M40.3951 74.8689C46.6256 79.6531 47.4019 84.5885 47.4019 84.5885C42.4257 82.4599 41.1837 80.6663 40.3951 74.8689Z" fill="#9C9FAF"/>
<path d="M34.7162 72.4136C40.3338 77.541 41.0856 82.4518 41.0856 82.4518C40.3624 82.0819 39.66 81.6728 38.9815 81.2261C36.9551 79.9188 35.0921 78.5991 34.7162 72.4136Z" fill="#9C9FAF"/>
<path d="M29.5562 69.476C34.3772 74.873 34.9533 79.9309 34.9573 79.9309C30.7819 77.4183 29.2253 75.3959 29.5562 69.476Z" fill="#9C9FAF"/>
<path d="M25.0334 65.9828C28.739 71.6454 29.07 76.8749 29.07 76.8749C25.0007 73.7699 23.9548 71.2123 25.0334 65.9828Z" fill="#9C9FAF"/>
<path d="M21.385 61.9054C22.843 65.4809 23.6109 69.3 23.6484 73.1611C20.2329 69.6884 19.4362 66.7386 21.385 61.9054Z" fill="#9C9FAF"/>
<path d="M18.668 57.1866C19.283 60.984 19.3545 64.8496 18.8805 68.6671C16.0043 64.459 15.9961 61.5092 18.668 57.1866Z" fill="#9C9FAF"/>
<path d="M16.8909 51.8794C16.8378 60.8676 15.3629 60.5898 15.0728 63.3884C13.3732 59.2824 13.2874 56.1406 16.8909 51.8794Z" fill="#9C9FAF"/>
<path d="M16.1229 46.2577C14.5949 54.6249 13.3488 54.5963 12.3969 57.444C11.5103 53.0275 12.213 49.7059 16.1229 46.2577Z" fill="#9C9FAF"/>
<path d="M16.3638 40.4358C13.7001 48.1984 12.7767 47.8348 10.8524 51.0909C10.8524 46.4947 12.0985 43.4509 16.3638 40.4358Z" fill="#9C9FAF"/>
<path d="M17.5323 34.5525C14.7583 40.2723 13.8553 40.9341 10.4929 44.558C11.3427 39.8964 13.0832 37.2122 17.5323 34.5525Z" fill="#9C9FAF"/>
<path d="M19.5179 28.7389C16.658 33.3556 14.4845 35.5332 11.2161 38.0336C12.7808 33.1881 15.51 30.7817 19.5179 28.7389Z" fill="#9C9FAF"/>
<path d="M22.2021 23.1375C19.6772 26.3569 16.6866 29.5967 12.8748 31.664C15.2934 27.031 17.9368 24.9106 22.2021 23.1375Z" fill="#9C9FAF"/>
<path d="M35.0349 89.3931C43.2632 90.8354 47.3488 86.5006 47.3488 86.5006C41.3716 85.2545 40.3666 86.0471 35.0349 89.3931Z" fill="#9C9FAF"/>
<path d="M28.1875 86.0879C36.3586 88.7149 39.7905 84.327 40.9426 84.3556C39.5249 83.9961 36.8326 83.4976 35.3577 83.5385C35.0549 83.5389 34.7527 83.5663 34.4548 83.6202C33.0044 83.8858 29.8953 85.3116 28.1875 86.0879Z" fill="#9C9FAF"/>
<path d="M21.5403 81.9492C29.9443 85.7038 33.0902 81.8103 34.655 81.8225C33.0534 81.3241 29.8176 80.3558 28.118 80.4621C26.8924 80.5519 24.7434 81.1157 21.5403 81.9492Z" fill="#9C9FAF"/>
<path d="M15.3588 76.7565C22.9048 81.9411 27.0639 78.644 28.5919 78.7339C22.0305 75.9026 22.2266 76.4378 15.3588 76.7565Z" fill="#9C9FAF"/>
<path d="M10.0558 70.3789C16.5028 77.0915 21.193 74.6565 22.909 74.9384C16.9481 71.1306 16.2332 71.5637 10.0558 70.3789Z" fill="#9C9FAF"/>
<path d="M6.13354 62.984C11.0852 70.9549 15.9675 69.7129 17.855 70.2808C12.5315 65.4639 11.8778 65.5824 6.13354 62.984Z" fill="#9C9FAF"/>
<path d="M3.81714 55.1478C6.39104 63.1678 12.5807 64.2096 13.7287 64.7816C9.28362 58.7268 8.76476 58.8984 3.81714 55.1478Z" fill="#9C9FAF"/>
<path d="M3 47.0503C4.26244 55.1397 8.31124 56.9047 10.8075 58.5348C6.86495 51.0174 8.22544 53.2358 3 47.0503Z" fill="#9C9FAF"/>
<path d="M3.62109 39.108V39.345C3.62109 39.5002 3.62109 39.725 3.62109 40.0028C3.62109 40.2806 3.64969 40.6156 3.67421 40.9874C3.69872 41.3592 3.74366 41.7759 3.80086 42.2131C3.92405 43.1571 4.11521 44.0911 4.37284 45.0076C5.30435 48.3618 6.97534 49.8653 9.09984 51.8959C7.30219 45.4366 6.59539 44.3948 5.33295 42.1477L4.80999 41.2407L3.62109 39.108Z" fill="#9C9FAF"/>
<path d="M5.45134 31.5251C5.45134 31.5251 5.45134 31.6069 5.41457 31.758C5.3778 31.9092 5.36554 32.1257 5.33286 32.3954C5.26749 32.9428 5.19803 33.7068 5.16944 34.5771C5.0387 38.5973 5.81904 41.4572 8.65442 45.0525C7.74334 37.9436 7.89451 38.5687 6.23577 33.7926L5.45134 31.5251Z" fill="#9C9FAF"/>
<path d="M8.19281 24.3591C6.7792 29.1474 6.67707 33.711 9.30408 38.2174C9.50019 30.6182 9.43891 31.4272 8.19281 24.3591Z" fill="#9C9FAF"/>
<path d="M11.7471 17.6343C9.20591 23.3132 9.56544 28.4937 10.9586 31.5701C12.1271 24.1916 11.9065 24.5797 11.7471 17.6343Z" fill="#9C9FAF"/>
<path d="M14.223 26.2752C17.7897 23.734 18.7662 18.9702 20.1144 16C17.5773 17.7976 13.459 22.8801 14.223 26.2752Z" fill="#9C9FAF"/>
<path d="M38.0664 81.9818C49.1628 86.476 65.7625 88.4411 65.8728 96.7593C65.4111 96.9268 64.7901 96.9677 64.3202 97.127C64.0751 88.8538 49.7593 87.7302 37.0123 82.3291C9.39799 70.6158 3.40855 47.6426 15.3016 24.0812C3.34726 48.0267 9.94545 70.5259 38.0664 81.9818Z" fill="#9C9FAF"/>
<path d="M71.6047 74.8689C65.3742 79.6531 64.6021 84.5885 64.6021 84.5885C69.5946 82.4599 70.8203 80.6663 71.6047 74.8689Z" fill="#9C9FAF"/>
<path d="M77.2838 72.4136C71.6661 77.541 70.9185 82.4518 70.9185 82.4518C71.6416 82.0819 72.344 81.6728 73.0225 81.2261C75.049 79.9188 76.9079 78.5991 77.2838 72.4136Z" fill="#9C9FAF"/>
<path d="M82.4601 69.476C77.6392 74.873 77.0631 79.9309 77.0631 79.9309C81.214 77.4183 82.7747 75.3959 82.4601 69.476Z" fill="#9C9FAF"/>
<path d="M86.9665 65.9828C83.2568 71.6454 82.9299 76.879 82.9299 76.879C86.9992 73.7699 88.0451 71.2123 86.9665 65.9828Z" fill="#9C9FAF"/>
<path d="M90.6272 61.9054C89.1668 65.4803 88.3974 69.2996 88.3597 73.1611C91.7712 69.6884 92.5638 66.7386 90.6272 61.9054Z" fill="#9C9FAF"/>
<path d="M93.336 57.1866C92.721 60.9839 92.6481 64.8493 93.1194 68.6671C95.9997 64.459 96.0038 61.5092 93.336 57.1866Z" fill="#9C9FAF"/>
<path d="M95.1172 51.8794C95.1744 60.8676 96.6493 60.5898 96.9393 63.3884C98.6308 59.2824 98.7125 56.1406 95.1172 51.8794Z" fill="#9C9FAF"/>
<path d="M95.8812 46.2577C97.4092 54.6249 98.6512 54.5963 99.6236 57.444C100.494 53.0275 99.787 49.7059 95.8812 46.2577Z" fill="#9C9FAF"/>
<path d="M95.6362 40.4358C98.3 48.1984 99.2234 47.8348 101.148 51.0909C101.148 46.4947 99.9016 43.4509 95.6362 40.4358Z" fill="#9C9FAF"/>
<path d="M94.4677 34.5525C97.2458 40.2723 98.1692 40.9341 101.511 44.558C100.645 39.8964 98.9168 37.2122 94.4677 34.5525Z" fill="#9C9FAF"/>
<path d="M92.4739 28.7389C95.3338 33.3556 97.5114 35.5332 100.776 38.0336C99.2191 33.1881 96.4941 30.7817 92.4739 28.7389Z" fill="#9C9FAF"/>
<path d="M89.7937 23.1375C92.3186 26.3569 95.3092 29.5967 99.121 31.664C96.7106 27.031 94.0631 24.9106 89.7937 23.1375Z" fill="#9C9FAF"/>
<path d="M76.9692 89.3931C68.7368 90.8354 64.6512 86.5006 64.6512 86.5006C70.6325 85.2545 71.6376 86.0471 76.9692 89.3931Z" fill="#9C9FAF"/>
<path d="M83.8166 86.0879C75.6455 88.7149 72.2136 84.327 71.0574 84.3556C72.4791 83.9961 75.1675 83.4976 76.6423 83.5385C76.9465 83.5389 77.25 83.5663 77.5493 83.6202C78.9915 83.8858 82.1047 85.3116 83.8166 86.0879Z" fill="#9C9FAF"/>
<path d="M90.4597 81.9492C82.0598 85.7038 78.9098 81.8103 77.3491 81.8225C78.9466 81.3241 82.1864 80.3558 83.886 80.4621C85.1199 80.5519 87.2566 81.1157 90.4597 81.9492Z" fill="#9C9FAF"/>
<path d="M96.6412 76.7565C89.0951 81.9411 84.9401 78.644 83.4121 78.7339C89.9735 75.9026 89.7733 76.4378 96.6412 76.7565Z" fill="#9C9FAF"/>
<path d="M101.944 70.3789C95.4972 77.0915 90.8111 74.6565 89.0911 74.9384C95.056 71.1306 95.7669 71.5637 101.944 70.3789Z" fill="#9C9FAF"/>
<path d="M105.866 62.984C100.915 70.9549 96.0365 69.7129 94.1489 70.2808C99.4683 65.4639 100.122 65.5824 105.866 62.984Z" fill="#9C9FAF"/>
<path d="M108.199 55.1478C105.613 63.1678 99.4193 64.2178 98.2712 64.7816C102.716 58.7268 103.239 58.8984 108.199 55.1478Z" fill="#9C9FAF"/>
<path d="M109 47.0503C107.738 55.1397 103.689 56.9047 101.193 58.5348C105.139 51.0174 103.779 53.2358 109 47.0503Z" fill="#9C9FAF"/>
<path d="M108.379 39.108V39.345C108.379 39.5002 108.379 39.725 108.379 40.0028C108.379 40.2806 108.35 40.6156 108.326 40.9874C108.301 41.3592 108.252 41.7759 108.199 42.2131C108.078 43.1574 107.887 44.0915 107.627 45.0076C106.7 48.3618 105.029 49.8653 102.9 51.8959C104.698 45.4447 105.409 44.4029 106.671 42.1722C106.851 41.8576 107.027 41.543 107.19 41.2489C107.86 40.0436 108.379 39.108 108.379 39.108Z" fill="#9C9FAF"/>
<path d="M106.573 31.5251C106.573 31.5251 106.573 31.6069 106.606 31.758C106.638 31.9092 106.659 32.1257 106.692 32.3954C106.753 32.9428 106.822 33.7068 106.851 34.5771C106.982 38.5973 106.201 41.4572 103.37 45.0525C104.277 37.9436 104.126 38.5687 105.785 33.7926C106.226 32.5016 106.573 31.5251 106.573 31.5251Z" fill="#9C9FAF"/>
<path d="M103.807 24.3591C105.221 29.1474 105.343 33.711 102.696 38.2174C102.504 30.6182 102.561 31.4272 103.807 24.3591Z" fill="#9C9FAF"/>
<path d="M100.257 17.6343C102.798 23.3132 102.434 28.4937 101.041 31.5701C99.8728 24.1916 100.093 24.5797 100.257 17.6343Z" fill="#9C9FAF"/>
<path d="M97.7851 26.2752C94.2143 23.734 93.2379 18.9702 91.8896 16C94.4227 17.7976 98.5409 22.8801 97.7851 26.2752Z" fill="#9C9FAF"/>
<path d="M73.9336 81.9818C62.8412 86.476 46.2375 88.4411 46.1272 96.7593C46.593 96.9268 47.2099 96.9677 47.6797 97.127C47.9289 88.8538 62.2407 87.7302 74.9876 82.3291C102.606 70.6158 108.596 47.6426 96.7024 24.0812C108.653 48.0267 102.046 70.5259 73.9336 81.9818Z" fill="#9C9FAF"/>
<path d="M40.2971 63.8011C40.3129 63.8027 40.3282 63.8079 40.3417 63.8164C40.3552 63.8249 40.3665 63.8365 40.3747 63.8501C40.3845 63.8751 40.3845 63.9028 40.3747 63.9278C40.3697 63.9583 40.3537 63.9859 40.3298 64.0054C40.3023 64.0281 40.2673 64.0398 40.2317 64.0381H35.7376C35.7079 64.0381 35.6791 64.028 35.6559 64.0095C35.635 63.9907 35.6195 63.9667 35.6109 63.94C35.6014 63.9164 35.6014 63.8901 35.6109 63.8665C35.6347 63.8371 35.6679 63.8169 35.7049 63.8093L35.9582 63.7317C36.0861 63.6896 36.2051 63.6245 36.3096 63.5396C36.4258 63.4472 36.5159 63.3261 36.571 63.1883C36.6379 63.0063 36.6379 62.8065 36.571 62.6245C36.5465 62.5632 36.5138 62.4692 36.473 62.3467C36.4321 62.2241 36.3872 62.0852 36.3423 61.9381C36.2973 61.791 36.2442 61.6358 36.187 61.4764L36.0399 61.0311C35.9991 60.8963 35.9623 60.7819 35.9255 60.6879C35.8888 60.5939 35.8765 60.5327 35.8683 60.5163C35.8654 60.4979 35.8559 60.4812 35.8417 60.4692C35.8274 60.4572 35.8093 60.4507 35.7907 60.451H32.7388C32.7203 60.4505 32.7022 60.4558 32.6869 60.466C32.6715 60.4763 32.6597 60.491 32.653 60.5082C32.653 60.5654 32.604 60.6593 32.5672 60.7941C32.5304 60.929 32.4773 61.076 32.4242 61.2436C32.3711 61.4111 32.3221 61.5867 32.2649 61.7665C32.2077 61.9463 32.1586 62.122 32.1137 62.2772L31.987 62.6858C31.9614 62.7591 31.9409 62.8342 31.9258 62.9105C31.8866 63.0523 31.8952 63.203 31.9503 63.3395C32.0035 63.442 32.0806 63.5302 32.175 63.5968C32.2688 63.6596 32.3723 63.7066 32.4814 63.7357L32.7551 63.8093C32.7725 63.8113 32.7891 63.8171 32.804 63.8263C32.8188 63.8354 32.8314 63.8478 32.8409 63.8624C32.8488 63.8877 32.8488 63.9147 32.8409 63.94C32.8392 63.9538 32.8347 63.967 32.8276 63.979C32.8206 63.9909 32.8112 64.0013 32.8001 64.0095C32.7749 64.0273 32.7451 64.0373 32.7143 64.0381H30.0832C30.0521 64.0387 30.0218 64.0286 29.9974 64.0095C29.9769 63.9934 29.9637 63.9699 29.9606 63.9441C29.9577 63.9179 29.965 63.8915 29.981 63.8706C29.9901 63.8564 30.0021 63.8444 30.0162 63.8352C30.0303 63.8261 30.0461 63.82 30.0627 63.8175C30.1894 63.7807 30.3079 63.7398 30.4264 63.6949C30.5447 63.6467 30.6571 63.585 30.7614 63.511C30.9834 63.3519 31.1527 63.1299 31.2476 62.8737C31.2762 62.8002 31.3374 62.6326 31.4355 62.363C31.5335 62.0934 31.6439 61.7624 31.7828 61.3702L32.2403 60.0669C32.4079 59.593 32.5754 59.1109 32.7429 58.6247L33.2413 57.1948C33.4006 56.7331 33.5436 56.3204 33.6499 55.9691C33.7561 55.6177 33.8746 55.3154 33.9563 55.0907C34.038 54.866 34.0748 54.7516 34.0789 54.7352C34.0946 54.6897 34.1196 54.648 34.1524 54.6127C34.1908 54.581 34.2377 54.5611 34.2872 54.5555C34.3894 54.5555 34.5119 54.5105 34.6508 54.4779L35.0594 54.3716C35.2024 54.3349 35.3495 54.294 35.4925 54.245C35.6314 54.2055 35.7678 54.1578 35.901 54.102C35.9786 54.0611 36.0399 54.053 36.0726 54.0734C36.1156 54.0992 36.1476 54.1399 36.1625 54.1878L36.281 54.5432C36.3545 54.7679 36.4526 55.058 36.5751 55.4175C36.6977 55.7771 36.8325 56.1856 36.9837 56.6432C37.1349 57.1008 37.2942 57.5829 37.4576 58.0732L37.9479 59.5358L38.3932 60.8677C38.528 61.2762 38.6465 61.6235 38.7405 61.9136C38.8344 62.2037 38.8998 62.4079 38.9407 62.5101C39.0019 62.6973 39.0871 62.8758 39.194 63.0412C39.2849 63.1824 39.3919 63.3126 39.5127 63.4293C39.6238 63.5292 39.7474 63.6143 39.8804 63.6826C40.0131 63.7412 40.1534 63.781 40.2971 63.8011ZM32.8532 59.8912C32.8287 59.9525 32.8532 59.9852 32.9104 59.9852H35.6314C35.6886 59.9852 35.7049 59.9566 35.6886 59.8994L35.6191 59.687L35.4598 59.2008L35.2392 58.5348C35.1574 58.2856 35.0757 58.0364 34.9899 57.7831L34.7366 57.0313C34.659 56.7862 34.5855 56.5697 34.5201 56.3736C34.4547 56.1775 34.4057 56.0263 34.3648 55.9078L34.3036 55.724C34.3026 55.7169 34.3002 55.7102 34.2965 55.7041C34.2929 55.6981 34.2881 55.6928 34.2824 55.6886C34.2767 55.6844 34.2702 55.6814 34.2633 55.6797C34.2564 55.6781 34.2493 55.6779 34.2423 55.679C34.2281 55.6795 34.2145 55.6845 34.2035 55.6933C34.1924 55.7021 34.1845 55.7143 34.181 55.728L34.0952 55.9895L33.895 56.6187C33.8133 56.872 33.7234 57.158 33.6254 57.4685C33.5273 57.779 33.4252 58.0854 33.3271 58.3918C33.2291 58.6982 33.1392 58.9802 33.0575 59.2498C32.9757 59.5194 32.9063 59.7156 32.8532 59.8912Z" fill="#9C9FAF"/>
<path d="M52.9092 54.4044C52.9389 54.4044 52.9677 54.4145 52.9909 54.433C53.0105 54.4521 53.0247 54.4761 53.0318 54.5025C53.0409 54.5261 53.0409 54.5524 53.0318 54.576C53.0119 54.6024 52.9826 54.62 52.95 54.6251C52.7069 54.6898 52.4763 54.7948 52.2678 54.9356C52.0479 55.0952 51.879 55.3152 51.7816 55.5688C51.7121 55.72 51.6222 55.9406 51.5119 56.2266C51.4016 56.5126 51.2709 56.8394 51.1279 57.2112C50.9849 57.583 50.8255 57.9834 50.6621 58.4369L50.1596 59.7606C49.988 60.21 49.8205 60.6554 49.653 61.1007C49.4855 61.546 49.3302 61.9586 49.1872 62.3468L48.7787 63.409C48.6602 63.7236 48.5621 63.9769 48.4927 64.1689C48.4843 64.193 48.4697 64.2144 48.4503 64.2309C48.4309 64.2475 48.4075 64.2585 48.3824 64.2629C48.3334 64.2629 48.2925 64.2629 48.2721 64.173L48.0964 63.6746C48.0188 63.4581 47.9289 63.2047 47.8227 62.9188C47.7164 62.6328 47.6143 62.3263 47.4958 61.9995L47.1485 61.0271C47.0341 60.7044 46.9238 60.3898 46.8135 60.0875C46.7032 59.7851 46.6092 59.5196 46.5275 59.2703L46.3192 58.6984C46.262 58.5513 46.2334 58.4696 46.2293 58.4573C46.2252 58.4451 46.1884 58.4001 46.1598 58.4042C46.1428 58.4101 46.1273 58.4197 46.1146 58.4325C46.1018 58.4452 46.0921 58.4607 46.0863 58.4777C45.9474 58.8332 45.8085 59.2009 45.6777 59.5727C45.547 59.9445 45.3999 60.3162 45.2692 60.684C45.1384 61.0517 44.9954 61.4071 44.8606 61.7585L44.497 62.7308C44.3867 63.0291 44.2846 63.3028 44.1906 63.5479C44.0966 63.7931 44.0231 63.9933 43.9659 64.1526C43.9575 64.1767 43.9429 64.1981 43.9235 64.2146C43.9041 64.2311 43.8807 64.2421 43.8556 64.2466C43.8065 64.2466 43.7657 64.2466 43.7453 64.1567L43.496 63.4581C43.3939 63.168 43.2795 62.837 43.1488 62.4693C43.018 62.1016 42.875 61.7094 42.7402 61.2886C42.6054 60.8678 42.4379 60.447 42.2826 60.0139C42.1274 59.5808 41.9762 59.16 41.821 58.7433C41.6657 58.3266 41.5268 57.9262 41.4124 57.5789C41.298 57.2316 41.1509 56.8925 41.0406 56.6106C40.9303 56.3287 40.8323 56.104 40.7587 55.9447C40.6155 55.6073 40.4104 55.2997 40.1541 55.0377C39.9528 54.8321 39.6957 54.6901 39.4146 54.6291C39.3991 54.6281 39.384 54.6234 39.3706 54.6156C39.3571 54.6079 39.3456 54.5971 39.3369 54.5842C39.3291 54.5561 39.3291 54.5265 39.3369 54.4984C39.3403 54.4695 39.355 54.443 39.3778 54.4249C39.4067 54.4019 39.443 54.3902 39.4799 54.3922H48.5009C48.5304 54.393 48.5589 54.403 48.5826 54.4208C48.6022 54.4398 48.6163 54.4638 48.6234 54.4902C48.6292 54.5016 48.6322 54.5142 48.6322 54.527C48.6322 54.5398 48.6292 54.5524 48.6234 54.5638C48.5989 54.5942 48.564 54.6146 48.5254 54.621L48.3783 54.6659C48.3063 54.6863 48.2366 54.7137 48.1699 54.7476C48.0889 54.7839 48.0122 54.8292 47.9411 54.8824C47.8633 54.9365 47.799 55.0078 47.7532 55.0908C47.698 55.1847 47.6632 55.2891 47.6511 55.3972C47.6361 55.5348 47.65 55.6739 47.6919 55.8058C47.7369 55.9937 47.8063 56.2143 47.8921 56.4717L48.1822 57.2888C48.2884 57.583 48.3946 57.8853 48.509 58.1918C48.6234 58.4982 48.7297 58.7882 48.8318 59.0661L49.1178 59.8137L49.318 60.3448C49.318 60.3857 49.3629 60.4061 49.3915 60.402C49.4201 60.398 49.4446 60.3816 49.461 60.3448C49.51 60.21 49.5754 60.0221 49.6652 59.781L49.9553 58.9639C50.0656 58.6657 50.1759 58.3511 50.2944 58.0161L50.6376 57.0478C50.7479 56.7332 50.846 56.439 50.9359 56.1694C51.0257 55.8998 51.0911 55.675 51.1442 55.4994C51.192 55.3764 51.1949 55.2406 51.1523 55.1157C51.1097 54.9909 51.0243 54.8851 50.9113 54.8171C50.8154 54.7528 50.7089 54.7057 50.5968 54.6782L50.3189 54.6046C50.3015 54.6029 50.2847 54.5972 50.2699 54.588C50.255 54.5788 50.2424 54.5663 50.2331 54.5515C50.2237 54.5265 50.2237 54.4989 50.2331 54.4739C50.2349 54.4601 50.2394 54.4469 50.2464 54.435C50.2535 54.423 50.2628 54.4126 50.274 54.4044C50.2997 54.3847 50.3315 54.3746 50.3639 54.3758L52.9092 54.4044ZM44.8443 60.3734L44.9668 60.0303C45.024 59.8832 45.0853 59.7157 45.1507 59.5318C45.2161 59.348 45.2855 59.1519 45.3591 58.9476C45.4326 58.7433 45.4939 58.539 45.5511 58.3674C45.6083 58.1958 45.6532 58.012 45.69 57.8649C45.7211 57.7488 45.739 57.6296 45.7431 57.5095C45.7399 57.3715 45.7207 57.2344 45.6859 57.1009C45.6482 56.9512 45.6019 56.8039 45.547 56.6597C45.4939 56.5126 45.4367 56.3778 45.3795 56.2511C45.3223 56.1245 45.2773 56.0264 45.2447 55.9447C45.1674 55.7705 45.0744 55.6036 44.9668 55.4463C44.8774 55.3136 44.767 55.1963 44.64 55.099C44.5174 55.0065 44.379 54.9373 44.2314 54.8947C44.0669 54.8454 43.8966 54.8179 43.7248 54.813C43.6217 54.8127 43.5194 54.8307 43.4225 54.8661C43.3258 54.8963 43.2395 54.9529 43.1733 55.0295C43.1 55.1172 43.052 55.2231 43.0344 55.3359C43.0115 55.4936 43.0254 55.6544 43.0752 55.8058C43.1202 55.9937 43.1896 56.2143 43.2754 56.4717C43.3612 56.7291 43.4552 57.011 43.5573 57.2888C43.6595 57.5667 43.7739 57.8853 43.8883 58.1918C44.0027 58.4982 44.113 58.7882 44.2151 59.0661L44.5011 59.8137L44.7013 60.3448C44.7217 60.3857 44.7462 60.4061 44.7748 60.402C44.8034 60.398 44.8279 60.4143 44.8443 60.3775V60.3734Z" fill="#9C9FAF"/>
<path d="M62.0241 63.8011C62.0397 63.8037 62.0545 63.8094 62.0679 63.8178C62.0812 63.8262 62.0927 63.8372 62.1017 63.8501C62.1099 63.8754 62.1099 63.9025 62.1017 63.9278C62.0982 63.9578 62.0836 63.9854 62.0609 64.0054C62.032 64.0284 61.9956 64.04 61.9587 64.0381H57.4646C57.4349 64.0381 57.4061 64.028 57.3829 64.0095C57.3633 63.9905 57.3491 63.9664 57.3421 63.94C57.3363 63.9286 57.3333 63.916 57.3333 63.9033C57.3333 63.8905 57.3363 63.8779 57.3421 63.8665C57.3666 63.836 57.4015 63.8157 57.4401 63.8093L57.6934 63.7317C57.82 63.6896 57.9377 63.6245 58.0407 63.5396C58.1582 63.4485 58.2486 63.327 58.3022 63.1883C58.3691 63.0063 58.3691 62.8065 58.3022 62.6245C58.2777 62.5632 58.245 62.4692 58.2041 62.3467C58.1633 62.2241 58.1224 62.0852 58.0734 61.9381L57.9222 61.4764C57.865 61.3171 57.816 61.17 57.7751 61.0311L57.6607 60.6879C57.628 60.5899 57.6076 60.5327 57.6035 60.5163C57.5994 60.5 57.5627 60.451 57.5259 60.451H54.4781C54.4594 60.4492 54.4406 60.4539 54.425 60.4643C54.4094 60.4747 54.3978 60.4902 54.3923 60.5082C54.3719 60.5654 54.3433 60.6593 54.3024 60.7941C54.2615 60.929 54.2166 61.076 54.1635 61.2436L54.0001 61.7665C53.947 61.9504 53.8979 62.122 53.8489 62.2772L53.7222 62.6858C53.6992 62.7596 53.6801 62.8346 53.665 62.9105C53.6215 63.0518 53.6302 63.204 53.6896 63.3395C53.7403 63.4437 53.8179 63.5325 53.9143 63.5968C54.0073 63.6611 54.1111 63.7082 54.2207 63.7357L54.4903 63.8093C54.508 63.81 54.5252 63.8152 54.5402 63.8245C54.5553 63.8338 54.5677 63.8469 54.5761 63.8624C54.5855 63.8874 54.5855 63.915 54.5761 63.94C54.5691 63.9674 54.5533 63.9918 54.5312 64.0095C54.5061 64.0273 54.4762 64.0373 54.4454 64.0381H51.8061C51.7738 64.0387 51.7422 64.0286 51.7162 64.0095C51.6972 63.9923 51.6843 63.9693 51.6795 63.9441C51.6781 63.9174 51.6868 63.8911 51.704 63.8706C51.7126 63.8561 51.7245 63.8437 51.7386 63.8345C51.7528 63.8253 51.7689 63.8195 51.7857 63.8175C51.9083 63.7807 52.0308 63.7398 52.1493 63.6949C52.2664 63.6466 52.3774 63.5849 52.4802 63.511C52.5844 63.4355 52.6779 63.3462 52.7581 63.2455C52.8457 63.132 52.9172 63.0068 52.9705 62.8737C52.9991 62.8002 53.0604 62.6326 53.1544 62.363C53.2483 62.0934 53.3668 61.7624 53.5057 61.3702C53.6446 60.978 53.7958 60.5531 53.9592 60.0669L54.4658 58.6247C54.6333 58.1344 54.7967 57.6605 54.9602 57.1948C55.1236 56.729 55.2625 56.3204 55.3892 55.9691L55.6915 55.0907C55.7691 54.8701 55.81 54.7516 55.8181 54.7352C55.831 54.6894 55.8549 54.6473 55.8876 54.6127C55.926 54.581 55.9729 54.5611 56.0224 54.5555C56.1286 54.5555 56.2512 54.5105 56.386 54.4779L56.7946 54.3716C56.9417 54.3349 57.0847 54.294 57.2277 54.245C57.3666 54.2055 57.503 54.1578 57.6362 54.102C57.7179 54.0611 57.7751 54.053 57.8119 54.0734C57.8549 54.0992 57.8869 54.1399 57.9018 54.1878L58.0162 54.5432C58.0897 54.7679 58.1878 55.058 58.3103 55.4175C58.4329 55.7771 58.5677 56.1856 58.7189 56.6432C58.8701 57.1008 59.0294 57.5829 59.1928 58.0732C59.3562 58.5634 59.5197 59.0496 59.679 59.5358C59.8383 60.022 59.9895 60.4632 60.1284 60.8677C60.2673 61.2722 60.3776 61.6235 60.4716 61.9136C60.5656 62.2037 60.635 62.4079 60.6718 62.5101C60.7346 62.6966 60.8196 62.875 60.9251 63.0412C61.0162 63.1834 61.1246 63.3138 61.2479 63.4293C61.3576 63.531 61.4815 63.6163 61.6156 63.6826C61.7455 63.741 61.8831 63.7809 62.0241 63.8011ZM54.5802 59.8912C54.5557 59.9525 54.5802 59.9852 54.6374 59.9852H57.338C57.3952 59.9852 57.4156 59.9566 57.3952 59.8994C57.3747 59.8422 57.3666 59.8136 57.3298 59.687C57.293 59.5603 57.2317 59.401 57.1664 59.2008L56.9458 58.5348C56.864 58.2856 56.7823 58.0364 56.6965 57.7831L56.4473 57.0313C56.3656 56.7862 56.2921 56.5697 56.2308 56.3736L56.0714 55.9078L56.0102 55.724C56.0092 55.7169 56.0068 55.7102 56.0031 55.7041C55.9995 55.6981 55.9947 55.6928 55.989 55.6886C55.9833 55.6844 55.9768 55.6814 55.9699 55.6797C55.963 55.6781 55.9559 55.6779 55.9489 55.679C55.9355 55.6803 55.9227 55.6857 55.9125 55.6945C55.9023 55.7032 55.895 55.715 55.8917 55.728C55.8583 55.8135 55.8296 55.9008 55.8059 55.9895C55.7528 56.1529 55.6833 56.3654 55.6057 56.6187C55.5281 56.872 55.4341 57.158 55.332 57.4685L55.0378 58.3918L54.7641 59.2498C54.6987 59.5154 54.6292 59.7156 54.5802 59.8912Z" fill="#9C9FAF"/>
<path d="M71.0451 63.1311C71.0702 63.1199 71.0973 63.1142 71.1247 63.1142C71.1522 63.1142 71.1793 63.1199 71.2044 63.1311C71.2534 63.1597 71.2657 63.2169 71.2412 63.3067C71.2073 63.4281 71.1457 63.54 71.0614 63.6336C70.959 63.748 70.8407 63.8471 70.7101 63.9277C70.5602 64.023 70.398 64.0972 70.228 64.1484C70.0382 64.2037 69.8414 64.2313 69.6437 64.2301C69.4667 64.2306 69.2901 64.2128 69.1167 64.177C68.9417 64.1445 68.7724 64.0867 68.6142 64.0054C68.4525 63.925 68.3059 63.8172 68.1811 63.6867C68.045 63.5408 67.9358 63.3721 67.8583 63.1883C67.7791 62.9979 67.7215 62.7991 67.6867 62.5959C67.6459 62.3752 67.6132 62.1219 67.5887 61.8359C67.5577 61.3949 67.488 60.9574 67.3803 60.5286C67.3157 60.2693 67.2065 60.0232 67.0576 59.8013C66.9636 59.66 66.8279 59.5515 66.6694 59.4908C66.5376 59.4473 66.3997 59.4253 66.2609 59.4255C66.1413 59.4128 66.0214 59.4464 65.9259 59.5194C65.8542 59.6093 65.8205 59.7237 65.8319 59.8381V62.698C65.8235 62.8894 65.8734 63.0789 65.9749 63.2414C66.0628 63.3709 66.1752 63.482 66.3058 63.5682C66.4216 63.6434 66.5484 63.7 66.6817 63.7357C66.8043 63.7684 66.8941 63.7848 66.9513 63.797C66.9888 63.8012 67.0235 63.8186 67.0494 63.846C67.0592 63.8555 67.0669 63.867 67.0718 63.8797C67.0767 63.8924 67.0788 63.906 67.078 63.9196C67.0746 63.9485 67.0599 63.975 67.0371 63.9931C67.007 64.0167 66.9691 64.0284 66.9309 64.0258H62.3878C62.3483 64.0283 62.3092 64.0167 62.2775 63.9931C62.2667 63.9839 62.258 63.9727 62.2517 63.9601C62.2454 63.9474 62.2416 63.9337 62.2407 63.9196C62.2398 63.906 62.242 63.8924 62.2469 63.8797C62.2518 63.867 62.2595 63.8555 62.2693 63.846C62.2941 63.8195 62.3273 63.8022 62.3633 63.797C62.4205 63.797 62.5103 63.7684 62.637 63.7357C62.7693 63.7007 62.8949 63.6441 63.0088 63.5682C63.1397 63.481 63.2533 63.3701 63.3438 63.2414C63.4453 63.0789 63.4951 62.8894 63.4868 62.698V55.728C63.494 55.5393 63.4442 55.3528 63.3438 55.1928C63.2568 55.06 63.1426 54.9472 63.0088 54.8619C62.894 54.7877 62.7686 54.7312 62.637 54.6944L62.3633 54.629C62.3273 54.6268 62.2936 54.6107 62.2693 54.5841C62.2594 54.5738 62.2517 54.5616 62.2468 54.5483C62.2419 54.5349 62.2398 54.5207 62.2407 54.5064C62.2434 54.4782 62.2565 54.452 62.2775 54.4329C62.3098 54.4108 62.3488 54.4006 62.3878 54.4043H67.5846C67.8436 54.4077 68.1018 54.4323 68.3568 54.4778C68.6066 54.5204 68.8506 54.5917 69.084 54.6903C69.3329 54.7995 69.5631 54.947 69.7663 55.1274C69.9435 55.2861 70.0902 55.4758 70.1994 55.6872C70.3096 55.9021 70.388 56.132 70.4322 56.3695C70.4787 56.609 70.4883 56.8542 70.4608 57.0967C70.437 57.3357 70.3735 57.569 70.2729 57.7871C70.127 58.1328 69.8966 58.4363 69.6029 58.6696C69.3037 58.8869 68.9672 59.0475 68.6101 59.1436C68.5733 59.1436 68.5488 59.1681 68.5447 59.1926C68.5406 59.2171 68.5447 59.2253 68.5897 59.2293L68.7898 59.2784C68.8991 59.3092 69.0057 59.3488 69.1085 59.3969C69.2358 59.4592 69.3562 59.5345 69.4681 59.6216C69.5896 59.7212 69.6909 59.8432 69.7663 59.9811C69.8748 60.1889 69.9454 60.4144 69.9747 60.647C70.0162 60.93 70.0421 61.2151 70.0523 61.5009C70.0523 61.8278 70.0891 62.1015 70.1136 62.318C70.1234 62.4921 70.1621 62.6633 70.228 62.8246C70.2635 62.9127 70.3212 62.9901 70.3955 63.0494C70.5243 63.1458 70.685 63.1896 70.8449 63.1719C70.9132 63.1679 70.9806 63.1541 71.0451 63.1311ZM66.0035 59.021C66.1301 59.021 66.265 59.021 66.4121 59.021C66.5645 59.0113 66.7153 58.9839 66.8615 58.9393C67.0162 58.892 67.1624 58.8202 67.2945 58.7268C67.4467 58.6193 67.5735 58.4798 67.6663 58.3183C67.786 58.108 67.8728 57.8807 67.9237 57.6441C67.9949 57.3168 68.0278 56.9822 68.0218 56.6473C68.0264 56.3578 67.999 56.0687 67.9401 55.7852C67.9028 55.5869 67.8264 55.398 67.7153 55.2296C67.6269 55.098 67.5039 54.9934 67.3599 54.9272C67.2102 54.8632 67.0488 54.8312 66.886 54.8333C66.7475 54.8336 66.6099 54.8542 66.4774 54.8946C66.3536 54.9338 66.2404 55.0009 66.1465 55.0907C66.0495 55.1874 65.9755 55.3047 65.93 55.4339C65.877 55.5974 65.8522 55.7687 65.8564 55.9405V58.8862C65.8585 58.9234 65.8751 58.9583 65.9026 58.9835C65.93 59.0086 65.9662 59.0221 66.0035 59.021Z" fill="#9C9FAF"/>
<path d="M77.2103 54.4043C77.9303 54.3876 78.6466 54.5125 79.3184 54.772C79.876 54.9977 80.3768 55.3437 80.7851 55.7852C81.1746 56.2245 81.467 56.741 81.6431 57.301C81.8316 57.9053 81.9253 58.5351 81.9209 59.1681C81.9248 59.8133 81.8241 60.4549 81.6227 61.0679C81.4361 61.6397 81.1313 62.1659 80.7279 62.6122C80.3086 63.0666 79.7937 63.4225 79.2204 63.654C78.5454 63.9241 77.8227 64.0547 77.0959 64.0381H72.1156C72.0761 64.0406 72.037 64.029 72.0053 64.0054C71.994 63.9967 71.9848 63.9856 71.9784 63.9729C71.972 63.9601 71.9686 63.9461 71.9685 63.9319C71.9667 63.9182 71.9683 63.9043 71.9733 63.8914C71.9783 63.8786 71.9865 63.8672 71.9971 63.8583C72.0219 63.8317 72.0551 63.8144 72.0911 63.8093C72.1483 63.8093 72.2381 63.7807 72.3648 63.748C72.4968 63.7122 72.6223 63.6556 72.7366 63.5805C72.8675 63.4932 72.9811 63.3824 73.0716 63.2537C73.1731 63.0912 73.2229 62.9017 73.2146 62.7103V55.728C73.2218 55.5393 73.172 55.3528 73.0716 55.1928C72.9847 55.06 72.8705 54.9472 72.7366 54.8619C72.6214 54.7884 72.4962 54.732 72.3648 54.6944L72.0911 54.629C72.0551 54.6268 72.0214 54.6107 71.9971 54.5841C71.9865 54.5744 71.9783 54.5623 71.9733 54.5488C71.9684 54.5353 71.9667 54.5207 71.9685 54.5065C71.9689 54.4923 71.9725 54.4783 71.9788 54.4656C71.9851 54.453 71.9942 54.4418 72.0053 54.4329C72.0376 54.4108 72.0766 54.4007 72.1156 54.4043H77.2103ZM77.0959 63.6009C77.4408 63.6092 77.7772 63.4932 78.0437 63.2741C78.327 63.0249 78.5481 62.7129 78.6892 62.363C78.8755 61.9206 78.9992 61.4545 79.057 60.978C79.1371 60.3959 79.1753 59.8088 79.1713 59.2212C79.1748 58.6419 79.138 58.0631 79.061 57.4889C79.004 57.0264 78.8873 56.5732 78.7138 56.1407C78.583 55.7981 78.3746 55.4904 78.105 55.2419C77.8563 55.0202 77.5423 54.8854 77.2103 54.8578H76.9733H76.6506H76.0459C75.9172 54.8509 75.791 54.8949 75.6945 54.9804C75.6516 55.0212 75.618 55.0708 75.5962 55.1258C75.5743 55.1808 75.5646 55.2399 75.5679 55.2991V60.6389C75.5633 61.0962 75.5879 61.5534 75.6414 62.0076C75.6775 62.3279 75.7629 62.6408 75.8947 62.935C75.9961 63.1533 76.1614 63.3356 76.3687 63.4579C76.5946 63.5678 76.8452 63.6171 77.0959 63.6009Z" fill="#9C9FAF"/>
<path d="M39.623 42.2171C40.0878 42.3245 40.5312 42.5096 40.9345 42.7646C41.253 42.9699 41.5302 43.2332 41.7516 43.5408C41.9449 43.823 42.0834 44.139 42.1601 44.4723C42.2372 44.8087 42.2755 45.1528 42.2745 45.4978C42.2759 45.9528 42.1942 46.4041 42.0335 46.8297C41.8637 47.2592 41.5916 47.6406 41.2409 47.941C40.8196 48.2925 40.3299 48.5526 39.8028 48.705C39.094 48.9087 38.3584 49.0038 37.6211 48.9869H31.2272C31.1755 48.991 31.1242 48.9749 31.0842 48.942C31.0534 48.9177 31.033 48.8826 31.027 48.8439C31.0277 48.806 31.0422 48.7697 31.0678 48.7418C31.103 48.7123 31.1452 48.6925 31.1904 48.6846C31.268 48.6846 31.3906 48.6437 31.5581 48.6029C31.7395 48.5544 31.9119 48.4771 32.0688 48.3741C32.248 48.2555 32.4021 48.1028 32.5223 47.9246C32.6586 47.7043 32.7255 47.4481 32.7143 47.1892V37.678C32.725 37.4205 32.6581 37.1658 32.5223 36.9467C32.4045 36.7667 32.2499 36.6135 32.0688 36.4973C31.9101 36.3976 31.7382 36.3206 31.5581 36.2685C31.3919 36.2249 31.2694 36.1963 31.1904 36.1827C31.1409 36.1785 31.0945 36.1568 31.0597 36.1214C31.0338 36.0905 31.0193 36.0515 31.0188 36.0111C31.0258 35.9739 31.0461 35.9405 31.076 35.9172C31.0953 35.9001 31.1181 35.8872 31.1427 35.8795C31.1673 35.8717 31.1933 35.8693 31.219 35.8722H37.9888C38.5661 35.8573 39.1419 35.9387 39.6925 36.1133C40.107 36.2489 40.4855 36.4766 40.7996 36.7792C41.0796 37.0556 41.2872 37.3965 41.4043 37.772C41.5274 38.1688 41.588 38.5823 41.5841 38.9977C41.5838 39.2986 41.5509 39.5986 41.486 39.8924C41.351 40.514 41.0236 41.0772 40.5504 41.5021C40.2668 41.7526 39.9473 41.9591 39.6026 42.115C39.5617 42.115 39.5454 42.1558 39.5535 42.1803C39.5617 42.2049 39.5821 42.2008 39.623 42.2171ZM35.946 41.3591C35.9408 41.4375 35.9511 41.516 35.9764 41.5903C36.0016 41.6646 36.0413 41.7333 36.0931 41.7922C36.1499 41.8478 36.2179 41.8908 36.2926 41.9182C36.3672 41.9457 36.4468 41.957 36.5261 41.9515C36.7168 41.9475 36.9051 41.9087 37.0818 41.8372C37.3098 41.7421 37.5065 41.585 37.6497 41.3837C37.855 41.1017 38.0034 40.7826 38.0868 40.444C38.2181 39.9248 38.2772 39.39 38.2625 38.8547C38.2625 38.5687 38.2625 38.2827 38.2339 37.9885C38.2189 37.7185 38.1667 37.4517 38.0787 37.1959C38.005 36.9767 37.8788 36.7789 37.711 36.6199C37.5239 36.4632 37.2846 36.383 37.0409 36.3952C36.8433 36.3871 36.6472 36.4322 36.473 36.5259C36.3202 36.6224 36.2027 36.7657 36.138 36.9345C36.0521 37.1459 35.9984 37.369 35.9787 37.5963C35.9542 37.8578 35.9419 38.1642 35.9419 38.5115L35.946 41.3591ZM37.237 48.4313C37.4543 48.4373 37.6691 48.3836 37.858 48.276C38.0293 48.173 38.1758 48.0335 38.287 47.8675C38.4018 47.6795 38.4885 47.4758 38.5444 47.2628C38.6059 47.0475 38.6497 46.8275 38.6751 46.605C38.6997 46.3844 38.716 46.1965 38.7242 45.9758C38.7323 45.7552 38.7242 45.604 38.7242 45.4611C38.732 45.0414 38.6937 44.6221 38.6098 44.2109C38.5467 43.9248 38.4421 43.6495 38.2993 43.3938C38.1899 43.1967 38.0428 43.0231 37.8662 42.8831C37.7226 42.7698 37.561 42.6814 37.3882 42.6216C37.2412 42.5671 37.0871 42.5341 36.9306 42.5235C36.7876 42.5235 36.6651 42.5235 36.567 42.5235C36.3944 42.5135 36.2246 42.5706 36.0931 42.6829C36.0343 42.7381 35.9882 42.8054 35.9579 42.8802C35.9275 42.9549 35.9137 43.0354 35.9174 43.1159V46.1679C35.915 46.486 35.9327 46.8039 35.9705 47.1198C35.9965 47.3703 36.0642 47.6147 36.1707 47.8429C36.2636 48.0303 36.4046 48.1896 36.5793 48.3046C36.7763 48.4081 36.9991 48.4521 37.2207 48.4313H37.237Z" fill="#9C9FAF"/>
<path d="M55.0174 46.1882C55.0583 46.0861 55.1196 46.037 55.2013 46.0493C55.283 46.0615 55.3279 46.1147 55.3279 46.2168V48.803C55.3279 48.9255 55.2626 48.9868 55.1237 48.9868H44.8076C44.756 48.9901 44.7051 48.9741 44.6646 48.9419C44.6339 48.9176 44.6134 48.8826 44.6074 48.8438C44.6081 48.8059 44.6227 48.7696 44.6483 48.7417C44.6848 48.7079 44.7301 48.6852 44.779 48.6763C44.8566 48.6763 44.9792 48.6355 45.1467 48.5946C45.3281 48.5461 45.5005 48.4689 45.6574 48.3658C45.8367 48.2473 45.9908 48.0946 46.1109 47.9164C46.2489 47.6968 46.316 47.44 46.3029 47.181V37.678C46.3154 37.4203 46.2484 37.165 46.1109 36.9466C45.9931 36.7666 45.8385 36.6134 45.6574 36.4972C45.4987 36.3975 45.3268 36.3205 45.1467 36.2684C44.9806 36.2249 44.858 36.1963 44.779 36.1826C44.7295 36.1785 44.6832 36.1567 44.6483 36.1214C44.6224 36.0904 44.608 36.0514 44.6074 36.0111C44.6144 35.9738 44.6347 35.9404 44.6646 35.9171C44.6841 35.9002 44.7068 35.8875 44.7314 35.8797C44.756 35.872 44.782 35.8694 44.8076 35.8721H54.282C54.4169 35.8721 54.4863 35.9334 54.4863 36.056V38.062C54.4863 38.156 54.4455 38.2091 54.3678 38.2213C54.3265 38.2237 54.2854 38.2132 54.2503 38.1912C54.2152 38.1693 54.1877 38.137 54.1717 38.0988C54.1024 37.958 54.0246 37.8216 53.9389 37.6902C53.8037 37.483 53.6416 37.2948 53.4568 37.1305C53.2236 36.9233 52.9605 36.7526 52.6764 36.6239C52.3256 36.4685 51.9446 36.3932 51.5611 36.4033C51.2869 36.4036 51.0133 36.4296 50.7439 36.4809C50.5157 36.5249 50.297 36.6093 50.0984 36.7301C49.9173 36.8451 49.7695 37.0056 49.6698 37.1956C49.5702 37.3856 49.5222 37.5984 49.5305 37.8128V41.7676C49.5325 41.806 49.5486 41.8423 49.5758 41.8694C49.603 41.8966 49.6392 41.9127 49.6776 41.9147H50.9033C51.1534 41.9245 51.4012 41.8636 51.6183 41.739C51.7898 41.6334 51.9385 41.4945 52.0554 41.3305C52.155 41.1893 52.2322 41.0336 52.2842 40.8688C52.3197 40.7562 52.3483 40.6416 52.37 40.5256C52.3718 40.5029 52.3786 40.4809 52.3899 40.4611C52.4012 40.4414 52.4167 40.4243 52.4354 40.4112C52.4665 40.39 52.504 40.3799 52.5416 40.3826C52.5788 40.3878 52.6132 40.405 52.6396 40.4316C52.6544 40.4482 52.6657 40.4676 52.6727 40.4887C52.6797 40.5098 52.6824 40.5321 52.6805 40.5542V43.8553C52.6824 43.8775 52.6797 43.8998 52.6727 43.9208C52.6657 43.9419 52.6544 43.9613 52.6396 43.9779C52.6132 44.0045 52.5788 44.0218 52.5416 44.0269C52.504 44.0296 52.4665 44.0196 52.4354 43.9983C52.4167 43.9852 52.4012 43.9682 52.3899 43.9484C52.3786 43.9286 52.3718 43.9066 52.37 43.8839C52.3483 43.7679 52.3197 43.6533 52.2842 43.5408C52.2322 43.376 52.155 43.2203 52.0554 43.0791C51.9385 42.9151 51.7898 42.7761 51.6183 42.6705C51.4012 42.5459 51.1534 42.4851 50.9033 42.4948H49.6776C49.6392 42.4968 49.603 42.5129 49.5758 42.5401C49.5486 42.5673 49.5325 42.6036 49.5305 42.6419V46.9726C49.5229 47.1867 49.5755 47.3986 49.6824 47.5843C49.7893 47.7699 49.9462 47.9218 50.1352 48.0226C50.6624 48.2922 51.2519 48.4163 51.843 48.3821C52.167 48.3869 52.4897 48.34 52.799 48.2432C53.0714 48.1571 53.3321 48.0377 53.5752 47.8878C53.7968 47.754 54.0001 47.5919 54.1799 47.4057C54.3378 47.2462 54.4839 47.0756 54.6171 46.895C54.7228 46.7558 54.8171 46.6082 54.899 46.4538C54.9439 46.3435 54.9929 46.2331 55.0174 46.1882Z" fill="#9C9FAF"/>
<path d="M57.816 48.9379V45.4815C57.816 45.3712 57.8569 45.3058 57.9345 45.2895C58.0122 45.2731 58.0693 45.2895 58.1061 45.4039C58.3204 45.8932 58.576 46.3634 58.8701 46.8093C59.1242 47.1947 59.434 47.5402 59.7894 47.8348C60.1143 48.1088 60.4868 48.3207 60.8884 48.4599C61.3229 48.612 61.7804 48.688 62.2407 48.6846C62.5111 48.6857 62.7799 48.6444 63.0374 48.562C63.2834 48.4839 63.5094 48.3528 63.6993 48.178C63.8993 47.991 64.0555 47.7622 64.1568 47.5079C64.279 47.1958 64.3373 46.8624 64.3284 46.5274C64.3364 46.1975 64.2679 45.8703 64.1282 45.5714C63.9966 45.2954 63.8152 45.0461 63.593 44.836C63.3642 44.6183 63.1089 44.4302 62.8331 44.2762C62.5471 44.121 62.2571 43.9739 61.9588 43.8677C61.6606 43.7615 61.301 43.5735 60.9824 43.4183C60.6644 43.265 60.3573 43.0903 60.0631 42.8953C59.7671 42.7025 59.4931 42.4778 59.246 42.2253C58.997 41.9602 58.7903 41.6584 58.6332 41.3305C58.4856 41.0527 58.3692 40.7595 58.2859 40.4562C58.2071 40.1548 58.1673 39.8445 58.1674 39.5329C58.1702 39.0597 58.2517 38.5903 58.4084 38.1438C58.5774 37.6693 58.8495 37.2381 59.2051 36.8814C59.6172 36.4786 60.1083 36.1656 60.6473 35.9621C61.3484 35.7068 62.0914 35.5862 62.8372 35.6067C63.6731 35.5821 64.5058 35.7208 65.2885 36.0152C65.5027 36.0959 65.7092 36.1957 65.9055 36.3135C65.9902 36.3642 66.0708 36.4216 66.1465 36.4851C66.1819 36.5064 66.2113 36.5363 66.232 36.572C66.2527 36.6077 66.264 36.6481 66.265 36.6893V38.4706C66.2667 38.5107 66.2536 38.5499 66.2282 38.581C66.2049 38.6073 66.1731 38.6246 66.1383 38.63C66.101 38.6333 66.0637 38.6243 66.0319 38.6044C66.0002 38.5845 65.9759 38.5547 65.9627 38.5197C65.8329 38.2202 65.6813 37.9308 65.5092 37.6535C65.3411 37.3649 65.1272 37.1055 64.8759 36.8854C64.5977 36.6496 64.2794 36.4656 63.9362 36.3421C63.5083 36.1934 63.0572 36.1229 62.6043 36.1337C62.0359 36.0935 61.4719 36.2588 61.015 36.5995C60.8289 36.7574 60.6813 36.9559 60.5836 37.1797C60.4858 37.4034 60.4406 37.6466 60.4512 37.8905C60.4454 38.1707 60.4983 38.449 60.6065 38.7076C60.7308 38.9647 60.9125 39.1897 61.1376 39.3654C61.4457 39.6067 61.7801 39.8123 62.1345 39.9782C62.543 40.1784 63.0701 40.4072 63.6952 40.6605C64.262 40.8862 64.8087 41.1596 65.3294 41.4776C65.7645 41.7379 66.1594 42.0599 66.502 42.4336C66.8126 42.7848 67.0526 43.1927 67.2088 43.6348C67.3751 44.1295 67.4552 44.6491 67.4457 45.171C67.4509 45.7195 67.3482 46.2637 67.1434 46.7725C66.9358 47.2753 66.6141 47.7229 66.2037 48.0799C65.7376 48.4776 65.1955 48.7765 64.6103 48.9583C63.8776 49.1843 63.1136 49.2919 62.3469 49.277C61.7956 49.2763 61.2466 49.2063 60.7127 49.0686C60.1734 48.9297 59.6505 48.7785 59.1479 48.6069L58.911 48.5293C58.8328 48.5054 58.7516 48.493 58.6699 48.4925C58.6052 48.4866 58.54 48.4974 58.4807 48.5239C58.4213 48.5504 58.3697 48.5916 58.3308 48.6437C58.2494 48.7598 58.1809 48.8845 58.1265 49.0155C58.0857 49.1054 58.0285 49.1462 57.9468 49.134C57.8651 49.1217 57.816 49.04 57.816 48.9379Z" fill="#9C9FAF"/>
<path d="M81.0629 36.056V38.7566C81.0629 38.8587 81.022 38.9159 80.9362 38.9282C80.8504 38.9405 80.7932 38.8914 80.7524 38.7852L80.6176 38.491C80.5385 38.3263 80.447 38.1679 80.3438 38.0171C80.2201 37.8283 80.0836 37.6481 79.9353 37.4778C79.7567 37.288 79.558 37.1182 79.3429 36.9712C79.1061 36.8103 78.8492 36.6812 78.5789 36.5872C78.2742 36.4818 77.9534 36.4307 77.631 36.436C77.491 36.4289 77.3512 36.4541 77.2224 36.5095C77.1245 36.5514 77.0387 36.6175 76.9732 36.7016C76.9095 36.7864 76.8649 36.8839 76.8425 36.9876C76.8136 37.0998 76.7972 37.2149 76.7935 37.3307V47.181C76.7822 47.4399 76.8491 47.6961 76.9855 47.9164C77.1056 48.0946 77.2597 48.2473 77.439 48.3659C77.5963 48.4681 77.7686 48.5453 77.9497 48.5946C78.1172 48.6355 78.2398 48.6641 78.3174 48.6764C78.3666 48.6843 78.4122 48.7071 78.4481 48.7417C78.4615 48.7551 78.4721 48.771 78.4791 48.7886C78.4861 48.8061 78.4895 48.825 78.489 48.8439C78.4848 48.8823 78.4657 48.9175 78.4359 48.9419C78.394 48.9744 78.3417 48.9904 78.2888 48.9869H72.0869C72.034 48.9904 71.9817 48.9744 71.9398 48.9419C71.9099 48.9175 71.8908 48.8823 71.8867 48.8439C71.8862 48.825 71.8896 48.8061 71.8966 48.7886C71.9036 48.771 71.9142 48.7551 71.9276 48.7417C71.9615 48.7129 72.0023 48.6932 72.046 48.6845C72.1237 48.6845 72.2462 48.6437 72.4137 48.6028C72.5948 48.5535 72.7671 48.4763 72.9244 48.374C73.1037 48.2555 73.2578 48.1028 73.3779 47.9246C73.5143 47.7043 73.5812 47.4481 73.57 47.1892V44.2476C73.57 43.7287 73.57 43.1935 73.57 42.6461C73.57 42.0986 73.57 41.5593 73.57 41.0118V37.7434C73.57 37.58 73.57 37.4206 73.57 37.2613C73.5638 37.1139 73.532 36.9688 73.476 36.8323C73.4281 36.7072 73.3424 36.6001 73.2308 36.5259C73.0851 36.4407 72.9172 36.4009 72.7488 36.4115C72.4251 36.4065 72.103 36.4577 71.7968 36.5627C71.5257 36.6549 71.2686 36.7842 71.0328 36.9467C70.8202 37.0937 70.6243 37.2636 70.4486 37.4533C70.2922 37.622 70.1488 37.8023 70.0196 37.9926C69.9168 38.1444 69.824 38.3027 69.7418 38.4665C69.6764 38.6054 69.6315 38.7035 69.611 38.7607C69.5906 38.8179 69.5089 38.9119 69.4272 38.9037C69.3455 38.8955 69.3005 38.8342 69.3005 38.7321V36.056C69.3005 35.9335 69.37 35.8722 69.5048 35.8722H80.8504C80.9934 35.8722 81.0629 35.9335 81.0629 36.056Z" fill="#9C9FAF"/>
</svg>
