<svg width="112" height="112" viewBox="0 0 112 112" fill="none" xmlns="http://www.w3.org/2000/svg">
<path d="M42.5555 86.0519C47.8619 85.3972 50 91.0881 51.7124 91.6192C45.9756 91.1202 43.2057 88.3777 42.5555 86.0519Z" fill="#9C9FAF"/>
<path d="M36.48 84.6784C41.475 84.5227 43.311 90.4747 44.95 91.1248C39.0851 90.1908 36.8417 86.8669 36.48 84.6784Z" fill="#9C9FAF"/>
<path d="M30.757 82.5173C35.6604 83.346 36.7638 89.1331 38.2564 89.9206C33.2568 88.7119 30.8165 85.3147 30.757 82.5173Z" fill="#9C9FAF"/>
<path d="M25.5513 79.5049C30.0015 81.0203 30.4593 86.8853 31.7733 87.8971C26.8058 85.9238 25.1896 82.1695 25.5513 79.5049Z" fill="#9C9FAF"/>
<path d="M21.0142 75.6589C24.5487 77.6505 25.0935 84.3854 25.6841 84.921C22.3007 83.2774 19.897 79.3583 21.0142 75.6589Z" fill="#9C9FAF"/>
<path d="M17.2781 71.0393C20.7257 73.9145 19.3522 79.6192 20.2266 80.947C18.6626 79.8936 17.5132 78.3294 16.9754 76.522C16.4375 74.7146 16.5445 72.7765 17.2781 71.0393Z" fill="#9C9FAF"/>
<path d="M14.4029 65.7833C17.2644 69.3591 15.0073 74.6563 15.6208 76.0435C12.6448 72.8295 12.5304 68.654 14.4029 65.7833Z" fill="#9C9FAF"/>
<path d="M12.3701 60.074C14.6043 64.6112 11.5826 69.0339 11.9901 70.4212C9.81073 67.2026 9.72374 63.1644 12.3701 60.074Z" fill="#9C9FAF"/>
<path d="M11.1568 54.0809C12.7455 58.6593 9.23386 62.9218 9.3529 64.2908C7.41624 60.6006 8.49216 56.6998 11.1568 54.0809Z" fill="#9C9FAF"/>
<path d="M10.7996 48.0007C11.6787 51.5902 7.73668 57.478 7.71379 57.8672C6.53714 54.6257 6.9492 51.2972 10.7996 48.0007Z" fill="#9C9FAF"/>
<path d="M11.2575 41.9435C11.4269 46.7142 7.16903 49.9969 6.93553 51.2697C6.12058 48.0007 6.93553 44.8325 11.2575 41.9435Z" fill="#9C9FAF"/>
<path d="M12.5531 36.0283C12.196 40.4556 7.41159 43.5323 7.05905 44.6724C6.31735 39.8925 9.49934 37.8963 12.5531 36.0283Z" fill="#9C9FAF"/>
<path d="M37.826 94.0229C44.6433 96.6189 48.2419 92.9699 51.3919 92.1687C44.8035 90.2732 42.8074 93.7849 37.826 94.0229Z" fill="#9C9FAF"/>
<path d="M31.1324 92.1046C37.8719 95.5292 41.7315 92.1046 44.6754 91.6468C38.3801 89.2523 36.0405 92.3793 31.1324 92.1046Z" fill="#9C9FAF"/>
<path d="M24.6997 89.2065C30.6516 93.6155 35.23 90.58 38.0412 90.4564C31.6085 87.2607 29.4429 90.2596 24.6997 89.2065Z" fill="#9C9FAF"/>
<path d="M18.7568 85.3102C23.9762 90.5845 29.2368 88.1946 31.5993 88.4693C26.2654 84.6555 22.6027 86.8485 18.7568 85.3102Z" fill="#9C9FAF"/>
<path d="M13.5651 80.4205C17.2278 86.0428 23.3033 84.9989 25.533 85.5071C19.5261 80.3793 17.5391 82.7967 13.5651 80.4205Z" fill="#9C9FAF"/>
<path d="M9.32544 74.7388C12.2327 81.1485 17.9924 80.7182 20.0664 81.5743C15.0897 75.6041 12.8096 77.5362 9.32544 74.7388Z" fill="#9C9FAF"/>
<path d="M6.12061 68.5029C8.05269 75.1874 14.3617 75.9337 15.4285 76.7441C12.6036 70.9158 8.80813 71.2637 6.12061 68.5029Z" fill="#9C9FAF"/>
<path d="M3.86792 61.9329C4.6783 68.6082 10.6714 70.0824 11.7153 71.1767C9.78322 64.9042 6.05182 64.7898 3.86792 61.9329Z" fill="#9C9FAF"/>
<path d="M2.54027 55.1843C2.24725 61.324 8.40979 64.1992 8.99582 65.1149C8.23123 59.1996 3.85427 57.4003 2.54027 55.1843Z" fill="#9C9FAF"/>
<path d="M2.07788 48.3396C1.29955 54.4838 6.60592 57.5834 7.22859 58.7372C6.92183 52.2908 3.76731 51.398 2.07788 48.3396Z" fill="#9C9FAF"/>
<path d="M2.50817 41.4766C0.95609 47.3552 5.96487 51.2286 6.33114 52.2038C6.93549 46.4441 3.85422 44.2923 2.50817 41.4766Z" fill="#9C9FAF"/>
<path d="M3.83131 34.7462C1.46886 39.7596 6.17546 44.924 6.30365 45.6337C7.70464 40.3639 4.86603 37.3284 3.83131 34.7462Z" fill="#9C9FAF"/>
<path d="M21.8061 14.6792C17.4383 19.1569 12.9469 26.3267 10.5066 34.2656L10.85 34.3709C13.2536 26.5876 17.7176 19.4407 22.0671 14.9402L21.8061 14.6792Z" fill="#9C9FAF"/>
<path d="M19.1233 13.9924C13.8353 19.7979 9.27061 28.1168 7.21948 37.1866L7.56744 37.2645C9.60483 28.2587 14.1375 19.9947 19.398 14.2305L19.1233 13.9924Z" fill="#9C9FAF"/>
<path d="M19.7368 10C14.8196 14.4044 8.92262 23.1904 5.91919 32.9332L6.25799 33.034C9.19733 23.5155 15.0165 14.7203 19.9932 10.2655L19.7368 10Z" fill="#9C9FAF"/>
<path d="M69.4445 86.0519C64.1382 85.3972 62 91.0881 60.2877 91.6192C66.0245 91.1202 68.8036 88.3777 69.4445 86.0519Z" fill="#9C9FAF"/>
<path d="M75.5201 84.6784C70.5251 84.5227 68.6891 90.4747 67.05 91.1248C72.9333 90.1908 75.1584 86.8669 75.5201 84.6784Z" fill="#9C9FAF"/>
<path d="M81.2431 82.5173C76.3442 83.346 75.2362 89.1331 73.7437 89.9206C78.7433 88.7119 81.2065 85.3147 81.2431 82.5173Z" fill="#9C9FAF"/>
<path d="M86.4487 79.5049C82.0031 81.0203 81.5453 86.8853 80.2267 87.8971C85.1943 85.9238 86.8104 82.1695 86.4487 79.5049Z" fill="#9C9FAF"/>
<path d="M90.9859 75.6589C87.4514 77.6505 86.9065 84.3854 86.3159 84.921C89.6994 83.2774 92.1076 79.3583 90.9859 75.6589Z" fill="#9C9FAF"/>
<path d="M94.7264 71.0393C91.2789 73.9145 92.6524 79.6192 91.778 80.9653C93.3448 79.9099 94.4959 78.3425 95.0338 76.5315C95.5718 74.7206 95.4631 72.7789 94.7264 71.0393Z" fill="#9C9FAF"/>
<path d="M97.5971 65.7833C94.7402 69.3591 96.9973 74.6563 96.3792 76.0435C99.3552 72.8295 99.4651 68.654 97.5971 65.7833Z" fill="#9C9FAF"/>
<path d="M99.63 60.074C97.4003 64.6112 100.417 69.0339 100.01 70.4212C102.189 67.2026 102.267 63.1644 99.63 60.074Z" fill="#9C9FAF"/>
<path d="M100.829 54.0809C99.2408 58.6593 102.752 62.9218 102.633 64.2908C104.584 60.6006 103.508 56.6998 100.829 54.0809Z" fill="#9C9FAF"/>
<path d="M101.205 48.0007C100.321 51.5902 104.268 57.478 104.286 57.8672C105.472 54.6257 105.055 51.2972 101.205 48.0007Z" fill="#9C9FAF"/>
<path d="M100.747 41.9435C100.573 46.7142 104.831 49.9969 105.069 51.2697C105.898 48.0007 105.064 44.8325 100.747 41.9435Z" fill="#9C9FAF"/>
<path d="M99.4513 36.0283C99.8038 40.4556 104.588 43.5323 104.945 44.6724C105.683 39.8925 102.501 37.8963 99.4513 36.0283Z" fill="#9C9FAF"/>
<path d="M74.1739 94.0229C67.3567 96.6189 63.758 92.9699 60.6127 92.1687C67.201 90.2732 69.1926 93.7849 74.1739 94.0229Z" fill="#9C9FAF"/>
<path d="M80.8676 92.1046C74.1282 95.5292 70.2686 92.1046 67.3247 91.6468C73.62 89.2523 75.9596 92.3793 80.8676 92.1046Z" fill="#9C9FAF"/>
<path d="M87.3002 89.2065C81.3483 93.6155 76.7699 90.58 73.9587 90.4564C80.3914 87.2607 82.5799 90.2596 87.3002 89.2065Z" fill="#9C9FAF"/>
<path d="M93.2476 85.3102C88.0237 90.5845 82.7631 88.1946 80.4006 88.4693C85.7528 84.6555 89.388 86.8485 93.2476 85.3102Z" fill="#9C9FAF"/>
<path d="M98.435 80.4205C94.7723 86.0428 88.6967 84.9989 86.467 85.5071C92.4739 80.3793 94.4838 82.7967 98.435 80.4205Z" fill="#9C9FAF"/>
<path d="M102.674 74.7388C99.7672 81.1485 94.0121 80.7182 91.9381 81.5743C96.9103 75.6041 99.1949 77.5362 102.674 74.7388Z" fill="#9C9FAF"/>
<path d="M105.902 68.5029C103.975 75.1874 97.6841 75.9337 96.5945 76.7441C99.401 70.9158 103.183 71.2637 105.902 68.5029Z" fill="#9C9FAF"/>
<path d="M108.132 61.9329C107.326 68.6082 101.328 70.0824 100.285 71.1767C102.217 64.9042 105.953 64.7898 108.132 61.9329Z" fill="#9C9FAF"/>
<path d="M109.46 55.1843C109.753 61.324 103.613 64.1992 103.004 65.1149C103.769 59.1996 108.146 57.4003 109.46 55.1843Z" fill="#9C9FAF"/>
<path d="M109.922 48.3396C110.701 54.4838 105.394 57.5834 104.771 58.7372C105.083 52.2908 108.219 51.398 109.922 48.3396Z" fill="#9C9FAF"/>
<path d="M109.492 41.4766C111.044 47.3552 106.035 51.2286 105.669 52.2038C105.064 46.4441 108.146 44.2923 109.492 41.4766Z" fill="#9C9FAF"/>
<path d="M108.155 34.7462C110.531 39.7413 105.825 44.924 105.701 45.6337C104.295 40.3639 107.134 37.3284 108.155 34.7462Z" fill="#9C9FAF"/>
<path d="M90.1938 14.6792C94.5662 19.1569 99.0622 26.3267 101.493 34.2656L101.15 34.3709C98.7509 26.5876 94.3052 19.4407 89.9329 14.9402L90.1938 14.6792Z" fill="#9C9FAF"/>
<path d="M92.8768 13.9924C98.1465 19.7979 102.725 28.1168 104.785 37.1866L104.437 37.2645C102.395 28.2587 97.8626 19.9947 92.6112 14.2305L92.8768 13.9924Z" fill="#9C9FAF"/>
<path d="M92.2632 10C97.185 14.4044 103.077 23.1904 106.085 32.9332L105.742 33.034C102.803 23.5155 96.9836 14.7203 92.0068 10.2655L92.2632 10Z" fill="#9C9FAF"/>
<path d="M58.1495 91.8848C58.155 92.3453 58.023 92.797 57.7706 93.1821C57.5181 93.5673 57.1566 93.8685 56.7322 94.0472C56.3078 94.2259 55.8397 94.2741 55.3878 94.1856C54.9358 94.0971 54.5205 93.8759 54.1949 93.5503C53.8693 93.2246 53.6481 92.8093 53.5596 92.3574C53.471 91.9055 53.5192 91.4374 53.698 91.013C53.8767 90.5886 54.1779 90.227 54.563 89.9746C54.9482 89.7221 55.3999 89.5902 55.8603 89.5956C56.4653 89.6028 57.0434 89.8462 57.4712 90.274C57.8989 90.7018 58.1424 91.2799 58.1495 91.8848Z" fill="#9C9FAF"/>
<path d="M37.9497 66.3923C37.9671 66.3952 37.9838 66.4016 37.9987 66.411C38.0136 66.4204 38.0265 66.4328 38.0367 66.4472C38.0458 66.4755 38.0458 66.506 38.0367 66.5342C38.0327 66.5679 38.0164 66.5989 37.9909 66.6212C37.9585 66.647 37.9178 66.66 37.8764 66.6579H32.8402C32.8069 66.6579 32.7746 66.6466 32.7486 66.6258C32.7266 66.6045 32.7108 66.5776 32.7028 66.548C32.6964 66.5352 32.693 66.5211 32.693 66.5068C32.693 66.4925 32.6964 66.4783 32.7028 66.4656C32.7303 66.4314 32.7695 66.4086 32.8127 66.4015L33.1332 66.3145C33.2751 66.2673 33.407 66.1944 33.5224 66.0993C33.654 65.9972 33.7554 65.861 33.8154 65.7055C33.8903 65.5016 33.8903 65.2777 33.8154 65.0737C33.7879 65.0051 33.7513 64.8997 33.7055 64.7624L33.559 64.3046L33.3896 63.7872C33.3255 63.6086 33.2705 63.4438 33.2248 63.2881C33.179 63.1325 33.1332 63.0089 33.0966 62.9036L33.0325 62.7113C33.0325 62.6609 32.9867 62.638 32.9455 62.638H29.4705C29.4495 62.636 29.4285 62.6413 29.411 62.653C29.3935 62.6647 29.3805 62.682 29.3743 62.7021C29.3514 62.7662 29.3194 62.8715 29.2736 63.0226C29.2278 63.1737 29.1775 63.3385 29.1179 63.5262L28.9348 64.1123C28.8753 64.3183 28.8203 64.5106 28.7654 64.6846L28.6235 65.1424C28.596 65.2266 28.573 65.3122 28.5548 65.3988C28.506 65.5572 28.5158 65.7278 28.5823 65.8795C28.6391 65.9963 28.726 66.0958 28.8341 66.168C28.9383 66.24 29.0546 66.2927 29.1775 66.3236L29.4796 66.406C29.4994 66.4068 29.5187 66.4127 29.5356 66.4231C29.5524 66.4335 29.5663 66.4482 29.5758 66.4656C29.5863 66.4936 29.5863 66.5245 29.5758 66.5526C29.5679 66.5833 29.5502 66.6106 29.5254 66.6304C29.4973 66.6504 29.4638 66.6615 29.4293 66.6624H26.5037C26.4675 66.6631 26.4321 66.6518 26.4029 66.6304C26.3816 66.6111 26.3672 66.5854 26.3617 66.5571C26.3602 66.5272 26.37 66.4977 26.3892 66.4747C26.3989 66.4584 26.4122 66.4446 26.4281 66.4343C26.4439 66.424 26.462 66.4174 26.4808 66.4152C26.6181 66.374 26.7555 66.3282 26.8882 66.2778C27.0194 66.2238 27.1439 66.1546 27.2591 66.0718C27.3759 65.9872 27.4806 65.8871 27.5704 65.7742C27.6687 65.647 27.7488 65.5068 27.8085 65.3576C27.8406 65.2752 27.9092 65.0875 28.0145 64.7853C28.1198 64.4831 28.2526 64.1123 28.4083 63.6727C28.5639 63.2332 28.7333 62.7571 28.9165 62.2122L29.4705 60.5915C29.6582 60.0421 29.8413 59.511 30.0245 58.989L30.4823 57.6155L30.8211 56.6311C30.9081 56.3839 30.9539 56.2511 30.963 56.2328C30.9775 56.1814 31.0042 56.1343 31.0409 56.0955C31.084 56.0599 31.1364 56.0377 31.1919 56.0314C31.311 56.0314 31.4483 55.981 31.5994 55.9444L32.0573 55.8253C32.2221 55.7841 32.3823 55.7384 32.5426 55.6834C32.7028 55.6285 32.8493 55.5781 33.0004 55.5232C33.1515 55.4682 33.1561 55.4682 33.1973 55.4911C33.2455 55.52 33.2813 55.5657 33.298 55.6193L33.4262 56.0176C33.5086 56.2695 33.6185 56.5945 33.7559 56.9974C33.8932 57.4003 34.0443 57.8582 34.2137 58.3709C34.3831 58.8837 34.5617 59.424 34.7448 59.9734C34.9279 60.5228 35.1111 61.0676 35.2896 61.6125C35.4682 62.1573 35.6376 62.6517 35.7932 63.105C35.9489 63.5583 36.0725 63.952 36.1778 64.2771C36.2831 64.6022 36.361 64.8311 36.4022 64.9455C36.4726 65.1546 36.5679 65.3544 36.686 65.5407C36.7882 65.7001 36.9096 65.8462 37.0477 65.9757C37.1707 66.0896 37.3095 66.1852 37.4598 66.2595C37.6156 66.3279 37.7807 66.3727 37.9497 66.3923ZM29.6078 62.0108C29.5804 62.0794 29.6078 62.1161 29.6719 62.1161H32.7166C32.7807 62.1161 32.8035 62.084 32.7807 62.0199C32.7578 61.9558 32.7486 61.9238 32.7074 61.7819C32.6662 61.6399 32.5975 61.4614 32.5243 61.237L32.277 60.4907C32.1855 60.2115 32.0939 59.9322 31.9977 59.6483L31.7185 58.8059L31.4712 58.0733C31.4026 57.8582 31.343 57.6842 31.2973 57.5514C31.2515 57.4186 31.2286 57.35 31.2286 57.3454C31.2275 57.3375 31.2248 57.33 31.2207 57.3232C31.2166 57.3164 31.2112 57.3104 31.2048 57.3057C31.1984 57.301 31.1912 57.2977 31.1835 57.2958C31.1757 57.294 31.1677 57.2937 31.1599 57.295C31.1449 57.2964 31.1306 57.3025 31.1191 57.3123C31.1077 57.3222 31.0995 57.3353 31.0958 57.35C31.0584 57.4458 31.0263 57.5436 30.9997 57.643C30.9401 57.8261 30.8623 58.0642 30.7753 58.348L30.4686 59.3004L30.1389 60.3351L29.8322 61.2965C29.7406 61.5896 29.6628 61.8276 29.6078 62.0108Z" fill="#9C9FAF"/>
<path d="M52.0785 55.8665C52.1118 55.8664 52.1441 55.8777 52.1701 55.8985C52.1937 55.9185 52.2098 55.946 52.2159 55.9763C52.2187 55.9909 52.2181 56.0059 52.2141 56.0202C52.2102 56.0345 52.2029 56.0477 52.193 56.0587C52.1824 56.0737 52.1688 56.0864 52.153 56.0958C52.1372 56.1053 52.1197 56.1114 52.1014 56.1137C51.8304 56.1863 51.5735 56.3039 51.3414 56.4616C51.0924 56.6389 50.9013 56.8858 50.792 57.1713C50.7188 57.3407 50.618 57.5879 50.4898 57.9084C50.3616 58.2289 50.2243 58.5952 50.0595 59.0118C49.8946 59.4285 49.7252 59.8771 49.5421 60.3853C49.359 60.8935 49.1667 61.3651 48.9744 61.8687C48.7821 62.3724 48.5944 62.8714 48.4067 63.3705C48.219 63.8695 48.0496 64.3319 47.8847 64.744L47.4269 65.9344L47.1064 66.786C47.097 66.8129 47.0807 66.8369 47.0589 66.8554C47.0372 66.8739 47.0109 66.8863 46.9828 66.8913C46.9278 66.8913 46.8866 66.8684 46.8592 66.7905C46.8317 66.7127 46.7493 66.4792 46.6623 66.232L46.3739 65.3987L46.003 64.3686L45.6184 63.2789C45.4902 62.9172 45.362 62.5647 45.243 62.2259C45.1239 61.8871 45.0095 61.5895 44.9179 61.3102C44.8264 61.0309 44.7485 60.8523 44.6844 60.6692C44.6203 60.4861 44.5929 60.4128 44.5837 60.3991C44.5745 60.3853 44.5379 60.335 44.5059 60.3396C44.4868 60.3461 44.4694 60.357 44.4551 60.3712C44.4409 60.3855 44.43 60.4029 44.4235 60.422L43.9656 61.649C43.81 62.0702 43.6543 62.4822 43.5078 62.8943C43.3613 63.3064 43.201 63.7047 43.0499 64.0984C42.8988 64.4922 42.7706 64.8539 42.6425 65.1881C42.5143 65.5223 42.4044 65.8291 42.2991 66.1038C42.1938 66.3785 42.1114 66.6028 42.0473 66.7814C42.0379 66.8083 42.0215 66.8323 41.9998 66.8508C41.978 66.8694 41.9518 66.8817 41.9236 66.8867C41.8687 66.8867 41.8275 66.8638 41.8 66.786L41.5253 66.003L41.1316 64.8951L40.6737 63.5719C40.5043 63.1141 40.3349 62.6288 40.161 62.1434L39.6482 60.7196C39.4742 60.2617 39.314 59.8039 39.1629 59.4147C39.0118 59.0256 38.8698 58.6455 38.7462 58.3296C38.6226 58.0137 38.5173 57.7619 38.4303 57.5834C38.2589 57.2025 38.0148 56.8587 37.7115 56.5715C37.4847 56.3428 37.1971 56.184 36.8828 56.1137C36.8652 56.1136 36.8479 56.109 36.8326 56.1001C36.8173 56.0913 36.8047 56.0786 36.7958 56.0633C36.785 56.0322 36.785 55.9983 36.7958 55.9672C36.8016 55.9354 36.8177 55.9064 36.8416 55.8848C36.874 55.859 36.9147 55.8459 36.9561 55.8481H47.0652C47.0985 55.8481 47.1308 55.8594 47.1568 55.8802C47.1804 55.9002 47.1965 55.9277 47.2025 55.958C47.209 55.9708 47.2123 55.9849 47.2123 55.9992C47.2123 56.0135 47.209 56.0276 47.2025 56.0404C47.175 56.0746 47.1359 56.0974 47.0927 56.1045L46.9324 56.1549C46.8503 56.1776 46.7706 56.2083 46.6943 56.2465C46.6041 56.2882 46.5182 56.3388 46.438 56.3975C46.3519 56.4594 46.2801 56.5391 46.2273 56.631C46.1675 56.7371 46.1286 56.8537 46.1129 56.9744C46.0983 57.1286 46.1139 57.2841 46.1587 57.4323C46.2136 57.6429 46.2869 57.8901 46.3876 58.1785C46.4883 58.467 46.5936 58.7829 46.7127 59.0942C46.8317 59.4056 46.9507 59.7627 47.0744 60.1061C47.198 60.4494 47.3216 60.7745 47.4406 61.0858C47.5597 61.3972 47.6604 61.6765 47.7565 61.9237C47.8527 62.1709 47.9305 62.3815 47.9809 62.5189C47.9809 62.5647 48.0312 62.5876 48.0679 62.583C48.0853 62.5815 48.1018 62.5744 48.115 62.5629C48.1281 62.5514 48.1373 62.536 48.1411 62.5189C48.1961 62.3678 48.2693 62.1572 48.37 61.8871C48.4708 61.6169 48.5761 61.3102 48.6997 60.9714L49.0797 59.9092C49.2125 59.5383 49.3407 59.1721 49.4597 58.8241C49.5787 58.4761 49.6932 58.1419 49.7939 57.8397C49.8946 57.5376 49.9725 57.2858 50.032 57.0889C50.0836 56.9406 50.0836 56.7793 50.032 56.631C49.9765 56.5134 49.8893 56.4135 49.7802 56.3426C49.6711 56.2705 49.5502 56.2178 49.4231 56.1869L49.1117 56.1045C49.0922 56.1026 49.0734 56.0963 49.0568 56.0859C49.0401 56.0756 49.026 56.0616 49.0156 56.045C49.0051 56.017 49.0051 55.9861 49.0156 55.958C49.0235 55.9284 49.0394 55.9015 49.0614 55.8802C49.0905 55.8587 49.1259 55.8475 49.1621 55.8481L52.0785 55.8665ZM43.0408 62.5555C43.0728 62.4639 43.1186 62.3357 43.1827 62.1709C43.2468 62.0061 43.3109 61.8184 43.3842 61.6078C43.4574 61.3972 43.5398 61.1866 43.6177 60.9576C43.6955 60.7287 43.7687 60.4998 43.8328 60.3075C43.8969 60.1152 43.9519 59.9092 43.9885 59.7444C44.0713 59.4619 44.0713 59.1615 43.9885 58.879C43.9484 58.7108 43.8963 58.5455 43.8328 58.3846C43.7733 58.2198 43.7092 58.0687 43.6451 57.9267C43.581 57.7848 43.5307 57.6749 43.494 57.5834C43.4089 57.3883 43.3062 57.2013 43.1873 57.0248C43.0842 56.877 42.9591 56.7457 42.8164 56.6356C42.6802 56.5302 42.5247 56.4525 42.3586 56.4067C42.1719 56.3569 41.9795 56.3323 41.7863 56.3334C41.6722 56.3331 41.559 56.3533 41.4521 56.393C41.3432 56.4256 41.2461 56.4893 41.1728 56.5761C41.089 56.6738 41.0336 56.7925 41.0125 56.9195C40.9869 57.0962 41.0025 57.2764 41.0583 57.446C41.1133 57.6566 41.1865 57.9038 41.2827 58.1923C41.3788 58.4807 41.4841 58.7966 41.6032 59.108C41.7222 59.4193 41.8412 59.7764 41.9694 60.1198C42.0976 60.4632 42.2212 60.7882 42.3403 61.0996C42.4593 61.4109 42.56 61.6902 42.6562 61.9374C42.7523 62.1847 42.8302 62.3953 42.8805 62.5326C42.8805 62.5784 42.9309 62.6013 42.9675 62.5967C42.9823 62.597 42.9969 62.5934 43.0098 62.5861C43.0227 62.5789 43.0334 62.5683 43.0408 62.5555Z" fill="#9C9FAF"/>
<path d="M62.293 66.3922C62.3106 66.3946 62.3275 66.4008 62.3425 66.4102C62.3575 66.4197 62.3703 66.4323 62.38 66.4472C62.391 66.4751 62.391 66.5062 62.38 66.5342C62.3733 66.571 62.3532 66.6039 62.3236 66.6268C62.294 66.6496 62.257 66.6607 62.2198 66.6578H57.1835C57.1502 66.6578 57.1179 66.6465 57.0919 66.6257C57.0672 66.6059 57.0495 66.5786 57.0416 66.5479C57.0351 66.5351 57.0318 66.521 57.0318 66.5067C57.0318 66.4924 57.0351 66.4783 57.0416 66.4655C57.0682 66.4326 57.1054 66.41 57.1469 66.4014L57.4307 66.3144C57.5736 66.2663 57.7069 66.1935 57.8245 66.0992C57.9534 65.9944 58.0541 65.8591 58.1175 65.7055C58.1837 65.4983 58.1739 65.2743 58.09 65.0737C58.0626 65.005 58.0305 64.8997 57.9847 64.7623L57.8336 64.3045C57.7833 64.1397 57.7238 63.9657 57.6642 63.7871C57.6047 63.6086 57.5498 63.4438 57.4994 63.2881C57.4491 63.1324 57.4079 63.0088 57.3712 62.9035L57.3071 62.7112C57.3038 62.6906 57.2932 62.6718 57.2773 62.6584C57.2613 62.6449 57.241 62.6377 57.2201 62.638H53.7726C53.7519 62.6375 53.7316 62.6434 53.7144 62.6548C53.6972 62.6663 53.684 62.6828 53.6765 62.7021C53.6765 62.7661 53.6215 62.8715 53.5757 63.0225C53.5299 63.1736 53.4796 63.3385 53.4201 63.5262C53.3605 63.7139 53.301 63.9108 53.2415 64.1122C53.182 64.3137 53.1225 64.5105 53.0675 64.6845C53.0126 64.8585 52.9668 65.0141 52.9302 65.1423C52.9014 65.2246 52.8785 65.3087 52.8615 65.3942C52.8176 65.5531 52.8273 65.722 52.889 65.8749C52.9473 65.9907 53.0339 66.0899 53.1408 66.1633C53.245 66.2354 53.3613 66.2881 53.4842 66.319L53.7863 66.4014C53.8061 66.4022 53.8254 66.408 53.8423 66.4185C53.8591 66.4289 53.873 66.4435 53.8825 66.4609C53.9 66.4871 53.9065 66.5191 53.9005 66.5499C53.8945 66.5808 53.8765 66.6081 53.8504 66.6257C53.8244 66.6465 53.7921 66.6578 53.7589 66.6578H50.7966C50.7606 66.6578 50.7254 66.6466 50.6959 66.6257C50.6852 66.6166 50.6765 66.6054 50.6702 66.5928C50.6639 66.5802 50.6602 66.5665 50.6593 66.5525C50.6491 66.526 50.6491 66.4966 50.6593 66.4701C50.6695 66.4542 50.6829 66.4407 50.6987 66.4305C50.7145 66.4202 50.7322 66.4134 50.7509 66.4106C50.8882 66.3694 51.0256 66.3236 51.1583 66.2732C51.2895 66.2191 51.414 66.15 51.5292 66.0672C51.7776 65.8873 51.9685 65.6392 52.0786 65.3529C52.1106 65.2705 52.1793 65.0828 52.2846 64.7806C52.3899 64.4785 52.5227 64.1076 52.6784 63.6681L53.2781 62.1938C53.4613 61.6628 53.6536 61.1225 53.8413 60.5777C54.029 60.0328 54.2167 59.4972 54.3953 58.9752C54.5738 58.4533 54.7386 57.9955 54.8531 57.6017L55.1919 56.6174C55.2835 56.3701 55.3293 56.2373 55.3338 56.219C55.3501 56.1684 55.3766 56.1217 55.4117 56.0817C55.456 56.0453 55.5102 56.023 55.5673 56.0176C55.6818 56.0176 55.8191 55.9672 55.9748 55.9306L56.4327 55.8115C56.5929 55.7703 56.7531 55.7246 56.8905 55.6696C57.0278 55.6147 57.1972 55.5643 57.3483 55.5094C57.4994 55.4544 57.504 55.4544 57.5452 55.4773C57.5934 55.5063 57.6292 55.5519 57.6459 55.6055L57.7787 56.0038L58.1038 56.9836C58.2411 57.3865 58.3968 57.8444 58.5616 58.3571C58.7264 58.8699 58.9096 59.4102 59.0927 59.9596L59.6421 61.5987C59.8207 62.1435 59.9901 62.638 60.1412 63.0912C60.2922 63.5445 60.4204 63.9382 60.5303 64.2633C60.6402 64.5884 60.7089 64.8173 60.7547 64.9317C60.8233 65.1415 60.9187 65.3416 61.0385 65.5269C61.1392 65.686 61.2592 65.8321 61.3956 65.9619C61.5202 66.0738 61.6587 66.1692 61.8077 66.2457C61.9616 66.3177 62.125 66.367 62.293 66.3922ZM53.9512 62.0107C53.9237 62.0794 53.9512 62.116 54.0153 62.116H57.0599C57.124 62.116 57.1469 62.084 57.124 62.0199C57.1011 61.9558 57.0965 61.9237 57.0507 61.7818L56.8722 61.237C56.7943 61.0172 56.7119 60.7791 56.6204 60.4907C56.5288 60.2022 56.4372 59.9321 56.3411 59.6483L56.0618 58.8058L55.8191 58.0687L55.6406 57.5468L55.5765 57.3407C55.5765 57.3041 55.5399 57.2858 55.5078 57.2904C55.492 57.2909 55.4767 57.2965 55.4643 57.3064C55.4519 57.3163 55.4431 57.33 55.4391 57.3453L55.343 57.6383L55.1187 58.3434C55.0271 58.6273 54.9264 58.9432 54.8165 59.2957C54.7066 59.6483 54.5921 59.9871 54.4823 60.3304C54.3724 60.6738 54.2716 60.9897 54.1801 61.2919L53.9512 62.0107Z" fill="#9C9FAF"/>
<path d="M72.4021 65.6414C72.4302 65.6289 72.4606 65.6224 72.4913 65.6224C72.5221 65.6224 72.5525 65.6289 72.5806 65.6414C72.6356 65.6734 72.6539 65.7375 72.6264 65.8383C72.587 65.9747 72.5165 66.1001 72.4204 66.2045C72.3074 66.3327 72.1763 66.4438 72.0312 66.5342C71.6731 66.762 71.256 66.8798 70.8317 66.873C70.6334 66.8713 70.4357 66.8514 70.2411 66.8135C70.045 66.7771 69.8553 66.7123 69.6779 66.6212C69.4975 66.5297 69.3335 66.4091 69.1926 66.264C69.0405 66.0995 68.9195 65.9087 68.8355 65.7009C68.7425 65.4903 68.6763 65.2688 68.6386 65.0416C68.5928 64.7944 68.5562 64.5105 68.5287 64.19C68.4989 63.6952 68.4207 63.2045 68.2952 62.7249C68.2228 62.4344 68.1004 62.1586 67.9335 61.91C67.8309 61.7492 67.678 61.6269 67.4986 61.562C67.3509 61.513 67.1963 61.4883 67.0407 61.4888C66.9068 61.475 66.7726 61.5126 66.6653 61.5941C66.585 61.6948 66.5472 61.823 66.56 61.9512V65.1561C66.5501 65.3692 66.6061 65.5802 66.7203 65.7604C66.8203 65.9071 66.9478 66.0331 67.0957 66.1313C67.2233 66.2163 67.3641 66.2797 67.5123 66.319C67.6543 66.3556 67.755 66.3739 67.8191 66.3877C67.8594 66.3934 67.8966 66.4128 67.9244 66.4426C67.9354 66.4532 67.9439 66.4661 67.9495 66.4803C67.955 66.4945 67.9574 66.5098 67.9564 66.525C67.9554 66.5408 67.9512 66.5562 67.9441 66.5704C67.9371 66.5845 67.9272 66.5971 67.9152 66.6074C67.8796 66.6338 67.8358 66.6468 67.7916 66.6441H62.7004C62.6576 66.647 62.6152 66.6339 62.5814 66.6074C62.569 66.5976 62.559 66.585 62.5521 66.5708C62.5452 66.5565 62.5416 66.5409 62.5416 66.525C62.5416 66.5092 62.5452 66.4935 62.5521 66.4793C62.559 66.465 62.569 66.4525 62.5814 66.4426C62.6104 66.4119 62.6493 66.3924 62.6913 66.3877C62.7554 66.3877 62.8561 66.3556 62.9934 66.319C63.1428 66.2789 63.285 66.2156 63.4147 66.1313C63.5622 66.0341 63.6884 65.9079 63.7855 65.7604C63.8997 65.5802 63.9556 65.3692 63.9458 65.1561V57.3453C63.9538 57.1338 63.898 56.9248 63.7855 56.7455C63.6909 56.596 63.5642 56.4693 63.4147 56.3747C63.284 56.2922 63.1421 56.229 62.9934 56.187L62.6913 56.1137C62.6705 56.1131 62.6501 56.1083 62.6312 56.0996C62.6124 56.091 62.5954 56.0787 62.5814 56.0634C62.5689 56.053 62.5589 56.0401 62.552 56.0255C62.5451 56.0108 62.5415 55.9948 62.5415 55.9787C62.5415 55.9625 62.5451 55.9465 62.552 55.9318C62.5589 55.9172 62.5689 55.9043 62.5814 55.894C62.6152 55.8675 62.6576 55.8544 62.7004 55.8573H67.6268H68.5425C68.8311 55.8614 69.119 55.889 69.4032 55.9397C69.6833 55.9868 69.9568 56.0667 70.2182 56.1778C70.4976 56.2991 70.7558 56.4645 70.9828 56.6677C71.1826 56.8443 71.3473 57.0571 71.4681 57.2949C71.591 57.5365 71.6804 57.7938 71.7336 58.0595C71.7833 58.3283 71.7941 58.6027 71.7657 58.8745C71.7374 59.1426 71.6647 59.4041 71.5505 59.6483C71.3886 60.0365 71.1301 60.3769 70.7996 60.6372C70.4649 60.8816 70.0876 61.0617 69.6871 61.1683C69.671 61.1697 69.6556 61.1756 69.6426 61.1853C69.6297 61.195 69.6197 61.2082 69.6138 61.2232C69.6138 61.2232 69.6138 61.2598 69.6642 61.2644L69.8885 61.3194C70.0109 61.3539 70.1304 61.3983 70.2456 61.4521C70.3894 61.5199 70.5246 61.6045 70.6485 61.704C70.7847 61.8156 70.8982 61.9524 70.9828 62.1069C71.1081 62.3385 71.1888 62.5917 71.2208 62.8531C71.268 63.1701 71.2955 63.4897 71.3032 63.81C71.3032 64.1763 71.349 64.483 71.3719 64.7257C71.3842 64.921 71.4291 65.1129 71.5047 65.2934C71.5412 65.394 71.6065 65.4815 71.6924 65.5452C71.7643 65.601 71.8469 65.6415 71.9351 65.6643C72.0198 65.6802 72.1067 65.6802 72.1915 65.6643C72.2624 65.6663 72.3332 65.6586 72.4021 65.6414ZM66.7569 61.0355C66.8942 61.0355 67.0453 61.0355 67.2147 61.0355C67.3856 61.025 67.5547 60.9943 67.7184 60.9439C67.8932 60.8909 68.0585 60.8106 68.2082 60.7059C68.3762 60.5839 68.5166 60.4279 68.6203 60.248C68.7583 60.0142 68.8558 59.7588 68.9087 59.4926C68.9885 59.1257 69.0254 58.7508 69.0186 58.3755C69.0251 58.0512 68.9959 57.7273 68.9316 57.4094C68.8878 57.1878 68.8024 56.9765 68.6798 56.7867C68.58 56.6382 68.4404 56.5208 68.2769 56.4479C68.1092 56.3762 67.9283 56.3404 67.7458 56.3426C67.5907 56.3433 67.4365 56.3664 67.288 56.4113C67.1492 56.4553 67.0223 56.5304 66.9171 56.6311C66.8083 56.7385 66.7267 56.8704 66.6791 57.0157C66.6181 57.1986 66.5887 57.3906 66.5921 57.5834V60.8844C66.5554 60.976 66.6333 61.0355 66.7569 61.0355Z" fill="#9C9FAF"/>
<path d="M79.311 55.8573C80.1182 55.8399 80.9209 55.9815 81.6734 56.2739C82.2935 56.5188 82.85 56.9011 83.3012 57.3919C83.7524 57.8828 84.0866 58.4695 84.2785 59.1079C84.4898 59.7851 84.5948 60.4909 84.5899 61.2003C84.5957 61.9231 84.4843 62.642 84.2602 63.3292C84.0477 63.9695 83.7047 64.5588 83.253 65.0599C82.7848 65.569 82.2093 65.9678 81.5681 66.2273C80.8101 66.5299 79.9988 66.6763 79.1828 66.6577H73.6017C73.5589 66.6606 73.5165 66.6476 73.4827 66.6211C73.4571 66.6007 73.4407 66.5711 73.4369 66.5387C73.4359 66.5234 73.4383 66.5082 73.4438 66.4939C73.4494 66.4797 73.4579 66.4669 73.4689 66.4563C73.4979 66.4255 73.5368 66.4061 73.5788 66.4013C73.6429 66.4013 73.7436 66.3693 73.881 66.3326C74.0304 66.2926 74.1725 66.2292 74.3022 66.1449C74.4497 66.0478 74.5759 65.9216 74.673 65.7741C74.7872 65.5939 74.8432 65.3829 74.8333 65.1697V57.3452C74.8414 57.1338 74.7855 56.9247 74.673 56.7455C74.5784 56.5959 74.4518 56.4692 74.3022 56.3746C74.1715 56.2922 74.0297 56.229 73.881 56.1869L73.5788 56.1136C73.5581 56.113 73.5377 56.1082 73.5188 56.0996C73.4999 56.0909 73.483 56.0786 73.4689 56.0633C73.4578 56.0518 73.4492 56.0382 73.4437 56.0232C73.4382 56.0082 73.4359 55.9922 73.4369 55.9763C73.4419 55.9443 73.4582 55.9151 73.4827 55.8939C73.5165 55.8674 73.5589 55.8544 73.6017 55.8573H79.311ZM79.1828 66.1678C79.5693 66.1771 79.9463 66.0471 80.245 65.8016C80.5625 65.5213 80.8115 65.1721 80.9729 64.7806C81.1774 64.2834 81.316 63.7616 81.385 63.2285C81.4709 62.5758 81.5122 61.9181 81.5086 61.2598C81.5125 60.6106 81.4712 59.962 81.385 59.3185C81.3203 58.8008 81.1911 58.2933 81.0004 57.8077C80.8507 57.4243 80.6158 57.0799 80.3136 56.8004C80.0349 56.552 79.683 56.401 79.311 56.37H79.0454H78.6883H78.0016C77.8588 56.3625 77.7188 56.4119 77.6124 56.5074C77.5634 56.5527 77.525 56.6081 77.4997 56.6698C77.4743 56.7314 77.4628 56.7979 77.4659 56.8645V62.8485C77.4597 63.3611 77.4888 63.8736 77.5529 64.3822C77.5911 64.7417 77.6869 65.0926 77.8367 65.4215C77.9487 65.6658 78.1323 65.8702 78.3632 66.0076C78.618 66.1309 78.9003 66.1861 79.1828 66.1678Z" fill="#9C9FAF"/>
<path d="M37.1896 42.2045C37.7105 42.3249 38.2074 42.5323 38.6593 42.818C39.0159 43.0485 39.3265 43.3435 39.575 43.6879C39.7918 44.004 39.9471 44.3582 40.0328 44.7318C40.1191 45.1087 40.1621 45.4943 40.161 45.881C40.1649 46.391 40.0732 46.8972 39.8909 47.3735C39.7023 47.8557 39.3971 48.2835 39.0027 48.6188C38.5311 49.0136 37.9822 49.3053 37.3911 49.475C36.5968 49.7033 35.7724 49.8098 34.9462 49.7909H27.781C27.7295 49.7899 27.6797 49.7723 27.6391 49.7406C27.6056 49.7132 27.5842 49.6737 27.5796 49.6307C27.5781 49.6098 27.581 49.5888 27.5881 49.5691C27.5952 49.5494 27.6063 49.5314 27.6208 49.5162C27.6616 49.4784 27.7125 49.4529 27.7673 49.443C27.8543 49.443 27.9962 49.3972 28.1839 49.3514C28.3868 49.2961 28.5799 49.2096 28.7562 49.095C28.9554 48.9617 29.1265 48.7906 29.2598 48.5914C29.4161 48.3458 29.4929 48.058 29.4796 47.7673V37.1179C29.4922 36.8286 29.4155 36.5425 29.2598 36.2983C29.1293 36.0969 28.9577 35.9252 28.7562 35.7947C28.5779 35.6838 28.3854 35.5975 28.1839 35.5383C27.9962 35.488 27.8543 35.4559 27.7673 35.4422C27.7118 35.4375 27.6598 35.4131 27.6208 35.3735C27.6061 35.3566 27.5949 35.337 27.5878 35.3158C27.5807 35.2946 27.5779 35.2722 27.5796 35.2499C27.5853 35.2085 27.6066 35.1709 27.6391 35.1446C27.6837 35.1072 27.7413 35.0891 27.7993 35.0942H35.3583C36.0006 35.0799 36.6409 35.1712 37.2537 35.3644C37.7225 35.5122 38.1526 35.7624 38.5128 36.0969C38.8251 36.4068 39.0563 36.7889 39.1858 37.2095C39.326 37.6536 39.394 38.1173 39.3873 38.583C39.3869 38.9202 39.3501 39.2564 39.2774 39.5856C39.2053 39.9209 39.0834 40.2434 38.9157 40.5425C38.7343 40.8603 38.5024 41.1464 38.2289 41.3895C37.9111 41.6702 37.5531 41.9017 37.1667 42.0763C37.1255 42.0763 37.1072 42.1221 37.1118 42.1496C37.1164 42.177 37.1438 42.1862 37.1896 42.2045ZM33.0691 41.243C33.0606 41.4206 33.1213 41.5946 33.2385 41.7283C33.3025 41.7902 33.3788 41.838 33.4623 41.8687C33.5459 41.8995 33.6349 41.9125 33.7238 41.9069C33.9389 41.9024 34.1514 41.859 34.351 41.7787C34.5974 41.6674 34.8093 41.4919 34.9645 41.2705C35.1944 40.9539 35.3622 40.5966 35.459 40.2175C35.6039 39.6353 35.6701 39.0363 35.6559 38.4365C35.6559 38.116 35.6559 37.7955 35.6192 37.4658C35.6047 37.1629 35.5461 36.8637 35.4453 36.5776C35.3645 36.3312 35.2228 36.1091 35.0332 35.9321C34.824 35.7557 34.5555 35.6657 34.2823 35.6803C34.061 35.6716 33.8413 35.7222 33.6459 35.8268C33.4747 35.9349 33.343 36.0955 33.2705 36.2846C33.1751 36.5168 33.1165 36.7624 33.0965 37.0126C33.063 37.3534 33.0477 37.6957 33.0507 38.0381L33.0691 41.243ZM34.5067 49.1683C34.7553 49.1764 35.0012 49.1145 35.2163 48.9897C35.4 48.8716 35.5561 48.7155 35.6742 48.5319C35.8046 48.3282 35.9034 48.1059 35.9672 47.8726C36.0361 47.6313 36.0851 47.3847 36.1137 47.1354C36.1448 46.9016 36.1631 46.6662 36.1686 46.4304C36.1686 46.206 36.1686 46.0137 36.1686 45.8535C36.1774 45.3832 36.1345 44.9134 36.0404 44.4525C35.9721 44.1312 35.8547 43.8224 35.6925 43.5368C35.57 43.316 35.405 43.1215 35.2072 42.9645C35.0473 42.8386 34.8679 42.7396 34.6761 42.6715C34.5228 42.5941 34.3595 42.5386 34.1908 42.5067C34.0259 42.5067 33.8886 42.5067 33.7833 42.5067C33.5885 42.4957 33.3969 42.5595 33.2476 42.6852C33.1827 42.7479 33.1317 42.8234 33.0978 42.907C33.0638 42.9906 33.0478 43.0804 33.0507 43.1705V46.5906C33.058 46.9475 33.0855 47.3036 33.1332 47.6574C33.1561 47.9337 33.2241 48.2043 33.3346 48.4586C33.4387 48.6686 33.5967 48.8471 33.7924 48.976C34.0069 49.1078 34.255 49.1746 34.5067 49.1683Z" fill="#9C9FAF"/>
<path d="M54.4456 46.6547C54.4869 46.5402 54.5555 46.4853 54.6517 46.499C54.7478 46.5128 54.7936 46.5723 54.7936 46.6867V49.5849C54.7936 49.7222 54.7158 49.7909 54.5647 49.7909H43.0042C42.945 49.7948 42.8863 49.7769 42.8394 49.7405C42.8059 49.7131 42.7845 49.6737 42.7799 49.6306C42.7784 49.6098 42.7814 49.5888 42.7884 49.5691C42.7955 49.5494 42.8067 49.5314 42.8211 49.5162C42.8638 49.4784 42.916 49.4531 42.9722 49.4429C43.0592 49.4429 43.1965 49.3971 43.3842 49.3514C43.5871 49.2961 43.7802 49.2096 43.9565 49.095C44.1557 48.9617 44.3268 48.7906 44.4601 48.5914C44.6164 48.3458 44.6932 48.058 44.6799 47.7672V37.1179C44.6925 36.8286 44.6158 36.5425 44.4601 36.2983C44.3296 36.0968 44.158 35.9252 43.9565 35.7947C43.7782 35.6837 43.5857 35.5975 43.3842 35.5383C43.198 35.4895 43.0607 35.4574 42.9722 35.4422C42.9154 35.4374 42.862 35.4131 42.8211 35.3735C42.8064 35.3566 42.7952 35.337 42.7881 35.3158C42.781 35.2946 42.7782 35.2722 42.7799 35.2499C42.7856 35.2085 42.8069 35.1709 42.8394 35.1446C42.8622 35.1257 42.8885 35.1116 42.9168 35.1029C42.9451 35.0943 42.9748 35.0913 43.0042 35.0942H53.617C53.768 35.0942 53.8459 35.1629 53.8459 35.3002V37.5894C53.8459 37.6947 53.8001 37.7543 53.7131 37.768C53.6261 37.7817 53.5574 37.7314 53.4979 37.6306C53.4384 37.5299 53.3651 37.388 53.2369 37.1728C53.0838 36.9406 52.9006 36.7297 52.6921 36.5456C52.4325 36.3135 52.1392 36.1221 51.8222 35.9778C51.4274 35.8038 50.999 35.7194 50.5677 35.7306C50.2605 35.7309 49.9539 35.76 49.6521 35.8176C49.3957 35.8652 49.1505 35.9599 48.9287 36.0969C48.7391 36.2213 48.5821 36.3892 48.4708 36.5868C48.3539 36.8096 48.2956 37.0586 48.3014 37.3102V41.7421C48.3015 41.7636 48.3059 41.7849 48.3146 41.8046C48.3233 41.8243 48.3359 41.842 48.3518 41.8565C48.3818 41.8877 48.423 41.9058 48.4662 41.9069H49.8398C50.12 41.9178 50.3977 41.8496 50.641 41.71C50.8332 41.5917 50.9998 41.436 51.1309 41.2522C51.2425 41.094 51.329 40.9194 51.3873 40.7348C51.4376 40.5654 51.4697 40.4372 51.488 40.3502C51.4881 40.3249 51.4945 40.3 51.5064 40.2776C51.5184 40.2553 51.5357 40.2362 51.5567 40.222C51.5919 40.1989 51.6336 40.1876 51.6757 40.19C51.7177 40.1947 51.7566 40.2142 51.7856 40.2449C51.8028 40.2633 51.8161 40.2849 51.8247 40.3085C51.8334 40.3321 51.8372 40.3572 51.836 40.3823V44.0633C51.8372 44.0884 51.8334 44.1135 51.8247 44.1371C51.8161 44.1607 51.8028 44.1823 51.7856 44.2007C51.7566 44.2314 51.7177 44.2509 51.6757 44.2556C51.6336 44.2579 51.5919 44.2467 51.5567 44.2236C51.5357 44.2094 51.5184 44.1903 51.5064 44.168C51.4945 44.1456 51.4881 44.1207 51.488 44.0954C51.488 44.0084 51.4376 43.8802 51.3873 43.7108C51.329 43.5261 51.2425 43.3516 51.1309 43.1934C50.9998 43.0096 50.8332 42.8539 50.641 42.7356C50.3977 42.596 50.12 42.5277 49.8398 42.5387H48.4662C48.423 42.5398 48.3818 42.5579 48.3518 42.5891C48.3359 42.6036 48.3233 42.6213 48.3146 42.641C48.3059 42.6607 48.3015 42.682 48.3014 42.7035V47.5429C48.2939 47.7826 48.3534 48.0197 48.4731 48.2275C48.5927 48.4353 48.7679 48.6057 48.979 48.7195C49.57 49.021 50.2305 49.16 50.8928 49.1224C51.2574 49.1274 51.6205 49.0749 51.9687 48.9668C52.2736 48.8694 52.5657 48.7356 52.8386 48.5685C53.0847 48.4173 53.3108 48.2358 53.5117 48.0282C53.6885 47.8495 53.8523 47.6582 54.0015 47.4559C54.1232 47.3021 54.229 47.1365 54.3175 46.9614C54.3632 46.8287 54.4136 46.7188 54.4456 46.6547Z" fill="#9C9FAF"/>
<path d="M57.5773 49.7359V45.8626C57.5773 45.739 57.6231 45.6657 57.71 45.6474C57.797 45.6291 57.8611 45.6474 57.9069 45.7756C58.1491 46.3247 58.4386 46.8517 58.7722 47.3506C59.0568 47.7811 59.4023 48.1682 59.7978 48.4998C60.1642 48.806 60.583 49.0433 61.034 49.2003C61.5169 49.3667 62.0249 49.4487 62.5357 49.4429C62.8386 49.4442 63.1399 49.3979 63.4285 49.3056C63.7056 49.2181 63.9603 49.0713 64.1748 48.8752C64.3974 48.6645 64.5723 48.4084 64.6875 48.1243C64.8202 47.7735 64.8839 47.4005 64.8752 47.0255C64.8842 46.6559 64.8074 46.2892 64.6509 45.9542C64.5035 45.646 64.3019 45.3668 64.0557 45.1301C63.7976 44.8861 63.51 44.6753 63.1996 44.5028C62.8791 44.3288 62.554 44.164 62.2198 44.045C61.8855 43.9259 61.4872 43.7153 61.1255 43.5414C60.7703 43.3677 60.4262 43.1719 60.0954 42.9553C59.7646 42.738 59.4576 42.4863 59.1797 42.2045C58.9027 41.9133 58.6698 41.5832 58.4884 41.2247C58.3263 40.9124 58.1974 40.584 58.1038 40.2449C58.0117 39.9077 57.9655 39.5597 57.9664 39.2102C57.9696 38.6799 58.0609 38.1539 58.2366 37.6535C58.4326 37.1196 58.7455 36.6363 59.1522 36.2388C59.6079 35.7797 60.1534 35.4196 60.7547 35.1812C61.5402 34.8946 62.3729 34.7595 63.2087 34.7829C63.745 34.7761 64.2805 34.8252 64.8066 34.9294C65.1901 35.0094 65.5667 35.1196 65.9329 35.259C66.1737 35.3475 66.4052 35.4595 66.6242 35.5932C66.7194 35.652 66.8111 35.7162 66.8989 35.7855C66.9374 35.8103 66.9692 35.8441 66.9916 35.884C67.0139 35.9239 67.0261 35.9687 67.0271 36.0145V37.9969C67.029 38.0418 67.0143 38.0858 66.9859 38.1205C66.9597 38.15 66.9241 38.1694 66.8852 38.1755C66.8441 38.1781 66.8033 38.1676 66.7687 38.1453C66.734 38.1231 66.7075 38.0903 66.6929 38.0518C66.5498 37.717 66.3862 37.3913 66.203 37.0766C66.0115 36.7541 65.7705 36.4636 65.4888 36.2159C65.1776 35.9507 64.8208 35.7444 64.4357 35.607C63.9577 35.4408 63.4537 35.3617 62.9477 35.3735C62.3156 35.3347 61.6905 35.523 61.1851 35.9046C60.9764 36.0816 60.811 36.304 60.7015 36.5548C60.592 36.8055 60.5413 37.078 60.5532 37.3514C60.5445 37.6656 60.6039 37.9779 60.7272 38.267C60.863 38.556 61.0654 38.8086 61.3178 39.0042C61.6638 39.2735 62.0384 39.5038 62.435 39.6909C62.8928 39.9153 63.4834 40.1488 64.1885 40.4555C64.8144 40.7096 65.4178 41.0159 65.9924 41.3712C66.4808 41.6616 66.9235 42.0227 67.3064 42.4425C67.656 42.8358 67.9265 43.2929 68.103 43.7886C68.2872 44.3435 68.3769 44.9254 68.3686 45.5101C68.3728 46.125 68.2561 46.7348 68.0252 47.3048C67.7926 47.8683 67.4321 48.3698 66.9722 48.7699C66.4498 49.2156 65.8423 49.5505 65.1866 49.7543C64.3671 50.0075 63.5123 50.1281 62.6547 50.1114C62.0369 50.1111 61.4215 50.0326 60.8234 49.8779C60.2144 49.7222 59.6284 49.5528 59.0653 49.3605L58.8043 49.2735C58.7151 49.247 58.6226 49.2332 58.5296 49.2323C58.4571 49.2261 58.3842 49.2384 58.3177 49.268C58.2513 49.2977 58.1934 49.3437 58.1496 49.4017C58.06 49.5329 57.9833 49.6724 57.9207 49.8183C57.9098 49.8617 57.883 49.8993 57.8457 49.9239C57.8085 49.9485 57.7633 49.9582 57.7192 49.9511C57.6231 49.9191 57.5773 49.8321 57.5773 49.7359Z" fill="#9C9FAF"/>
<path d="M83.6284 35.3003V38.3266C83.6284 38.4426 83.5826 38.5067 83.491 38.5189C83.3949 38.5189 83.3262 38.4777 83.2804 38.3586L83.1293 38.029C83.0407 37.8454 82.9397 37.6679 82.8271 37.4979C82.6868 37.2874 82.5339 37.0856 82.3693 36.8936C82.1573 36.6773 81.9207 36.4868 81.6642 36.3258C81.3989 36.1455 81.1111 36.0008 80.8081 35.8955C80.4666 35.7774 80.1071 35.7201 79.7459 35.7261C79.589 35.7186 79.4325 35.7468 79.288 35.8085C79.1782 35.8554 79.0821 35.9294 79.0088 36.0237C78.9374 36.1187 78.8874 36.228 78.8622 36.3441C78.8343 36.4708 78.816 36.5993 78.8073 36.7287V47.7673C78.794 48.058 78.8708 48.3458 79.0271 48.5914C79.1588 48.7919 79.3302 48.9632 79.5307 49.095C79.707 49.2096 79.9001 49.2961 80.103 49.3514C80.2907 49.3972 80.4326 49.4292 80.5196 49.443C80.5744 49.453 80.6253 49.4784 80.6661 49.5162C80.6806 49.5314 80.6917 49.5494 80.6988 49.5691C80.7059 49.5888 80.7088 49.6098 80.7073 49.6307C80.7027 49.6737 80.6813 49.7132 80.6478 49.7406C80.6009 49.777 80.5423 49.7949 80.483 49.7909H73.5696C73.5119 49.7942 73.4549 49.7763 73.4094 49.7406C73.3937 49.7264 73.3811 49.7091 73.3725 49.6898C73.3639 49.6704 73.3595 49.6495 73.3595 49.6284C73.3595 49.6072 73.3639 49.5863 73.3725 49.567C73.3811 49.5477 73.3937 49.5304 73.4094 49.5162C73.4502 49.4784 73.5011 49.453 73.5559 49.443C73.6429 49.443 73.7802 49.3972 73.9725 49.3514C74.174 49.2961 74.3655 49.2096 74.5402 49.095C74.7411 48.9622 74.9138 48.791 75.0484 48.5914C75.2047 48.3458 75.2815 48.058 75.2682 47.7673V44.48C75.2682 43.8985 75.2682 43.2987 75.2682 42.6852C75.2682 42.0717 75.2682 41.4674 75.2682 40.8539V37.1911C75.2682 37.008 75.2682 36.8295 75.2682 36.6509C75.2605 36.4863 75.2265 36.324 75.1675 36.1702C75.1105 36.0305 75.0133 35.911 74.8882 35.8268C74.7248 35.7313 74.5368 35.6867 74.3479 35.6986C73.9853 35.6934 73.6244 35.7507 73.2812 35.868C72.9792 35.9723 72.6927 36.1171 72.4296 36.2984C72.189 36.4619 71.9678 36.6524 71.7703 36.8661C71.5978 37.0575 71.4373 37.2593 71.2896 37.4704C71.1757 37.6405 71.0732 37.8179 70.9828 38.0015C70.9268 38.1088 70.8764 38.2188 70.8317 38.3312C70.7905 38.4502 70.7218 38.5006 70.6257 38.4914C70.5295 38.4823 70.4838 38.4136 70.4838 38.2991V35.3003C70.4838 35.1629 70.5616 35.0942 70.7127 35.0942H83.404C83.5551 35.0942 83.6284 35.1812 83.6284 35.3003Z" fill="#9C9FAF"/>
</svg>
